#VRML V2.0 utf8
Shape {
 appearance Appearance { material Material { diffuseColor .65 .65 .65 } }
 geometry IndexedFaceSet { coord Coordinate { point [ 1.8901574803149606 0.0 0.0, 1.8810558554146528 0.18526783099300018 0.0, 1.8538386343369722 0.3687514314958393 0.0, 1.8087679337993445 0.5486837541333361 0.0, 1.7462778092860975 0.7233319522774787 0.0, 1.6669700748568712 0.8910140683077225 0.0, 1.5716085073482362 1.0501152317823268 0.0, 1.4611114907852363 1.199103211523489 0.0, 1.3365431718411869 1.3365431718411869 0.0, 1.199103211523489 1.461111490785236 0.0, 1.050115231782327 1.5716085073482362 0.0, 0.8910140683077226 1.666970074856871 0.0, 0.7233319522774788 1.7462778092860975 0.0, 0.5486837541333361 1.8087679337993445 0.0, 0.36875143149583944 1.8538386343369722 0.0, 0.1852678309930005 1.8810558554146524 0.0, 1.1573876540760715e-16 1.8901574803149606 0.0, -0.18526783099300026 1.8810558554146528 0.0, -0.36875143149583917 1.8538386343369722 0.0, -0.5486837541333358 1.8087679337993445 0.0, -0.7233319522774787 1.7462778092860975 0.0, -0.8910140683077225 1.6669700748568712 0.0, -1.0501152317823264 1.5716085073482364 0.0, -1.1991032115234888 1.4611114907852367 0.0, -1.3365431718411869 1.3365431718411869 0.0, -1.4611114907852363 1.199103211523489 0.0, -1.5716085073482364 1.0501152317823268 0.0, -1.666970074856871 0.8910140683077226 0.0, -1.7462778092860975 0.723331952277479 0.0, -1.8087679337993445 0.5486837541333363 0.0, -1.8538386343369722 0.36875143149583994 0.0, -1.8810558554146524 0.1852678309930006 0.0, -1.8901574803149606 2.314775308152143e-16 0.0, -1.8810558554146528 -0.18526783099300015 0.0, -1.8538386343369722 -0.36875143149583944 0.0, -1.8087679337993445 -0.5486837541333357 0.0, -1.7462778092860978 -0.7233319522774786 0.0, -1.6669700748568712 -0.8910140683077225 0.0, -1.5716085073482366 -1.0501152317823264 0.0, -1.4611114907852367 -1.1991032115234885 0.0, -1.336543171841187 -1.3365431718411869 0.0, -1.1991032115234896 -1.4611114907852358 0.0, -1.0501152317823268 -1.5716085073482362 0.0, -0.8910140683077228 -1.666970074856871 0.0, -0.7233319522774798 -1.746277809286097 0.0, -0.5486837541333363 -1.8087679337993445 0.0, -0.36875143149584005 -1.853838634336972 0.0, -0.1852678309929999 -1.8810558554146528 0.0, -3.472162962228214e-16 -1.8901574803149606 0.0, 0.1852678309929992 -1.8810558554146528 0.0, 0.3687514314958394 -1.8538386343369722 0.0, 0.5486837541333356 -1.8087679337993445 0.0, 0.7233319522774792 -1.7462778092860975 0.0, 0.8910140683077222 -1.6669700748568712 0.0, 1.0501152317823261 -1.5716085073482366 0.0, 1.1991032115234892 -1.461111490785236 0.0, 1.3365431718411867 -1.336543171841187 0.0, 1.4611114907852356 -1.1991032115234896 0.0, 1.5716085073482362 -1.0501152317823268 0.0, 1.6669700748568705 -0.8910140683077229 0.0, 1.746277809286097 -0.7233319522774799 0.0, 1.8087679337993445 -0.5486837541333364 0.0, 1.853838634336972 -0.36875143149584017 0.0, 1.8810558554146528 -0.185267830993 0.0, 1.8901574803149606 0.0 2.559055118110236, 1.8810558554146528 0.18526783099300018 2.559055118110236, 1.8538386343369722 0.3687514314958393 2.559055118110236, 1.8087679337993445 0.5486837541333361 2.559055118110236, 1.7462778092860975 0.7233319522774787 2.559055118110236, 1.6669700748568712 0.8910140683077225 2.559055118110236, 1.5716085073482362 1.0501152317823268 2.559055118110236, 1.4611114907852363 1.199103211523489 2.559055118110236, 1.3365431718411869 1.3365431718411869 2.559055118110236, 1.199103211523489 1.461111490785236 2.559055118110236, 1.050115231782327 1.5716085073482362 2.559055118110236, 0.8910140683077226 1.666970074856871 2.559055118110236, 0.7233319522774788 1.7462778092860975 2.559055118110236, 0.5486837541333361 1.8087679337993445 2.559055118110236, 0.36875143149583944 1.8538386343369722 2.559055118110236, 0.1852678309930005 1.8810558554146524 2.559055118110236, 1.1573876540760715e-16 1.8901574803149606 2.559055118110236, -0.18526783099300026 1.8810558554146528 2.559055118110236, -0.36875143149583917 1.8538386343369722 2.559055118110236, -0.5486837541333358 1.8087679337993445 2.559055118110236, -0.7233319522774787 1.7462778092860975 2.559055118110236, -0.8910140683077225 1.6669700748568712 2.559055118110236, -1.0501152317823264 1.5716085073482364 2.559055118110236, -1.1991032115234888 1.4611114907852367 2.559055118110236, -1.3365431718411869 1.3365431718411869 2.559055118110236, -1.4611114907852363 1.199103211523489 2.559055118110236, -1.5716085073482364 1.0501152317823268 2.559055118110236, -1.666970074856871 0.8910140683077226 2.559055118110236, -1.7462778092860975 0.723331952277479 2.559055118110236, -1.8087679337993445 0.5486837541333363 2.559055118110236, -1.8538386343369722 0.36875143149583994 2.559055118110236, -1.8810558554146524 0.1852678309930006 2.559055118110236, -1.8901574803149606 2.314775308152143e-16 2.559055118110236, -1.8810558554146528 -0.18526783099300015 2.559055118110236, -1.8538386343369722 -0.36875143149583944 2.559055118110236, -1.8087679337993445 -0.5486837541333357 2.559055118110236, -1.7462778092860978 -0.7233319522774786 2.559055118110236, -1.6669700748568712 -0.8910140683077225 2.559055118110236, -1.5716085073482366 -1.0501152317823264 2.559055118110236, -1.4611114907852367 -1.1991032115234885 2.559055118110236, -1.336543171841187 -1.3365431718411869 2.559055118110236, -1.1991032115234896 -1.4611114907852358 2.559055118110236, -1.0501152317823268 -1.5716085073482362 2.559055118110236, -0.8910140683077228 -1.666970074856871 2.559055118110236, -0.7233319522774798 -1.746277809286097 2.559055118110236, -0.5486837541333363 -1.8087679337993445 2.559055118110236, -0.36875143149584005 -1.853838634336972 2.559055118110236, -0.1852678309929999 -1.8810558554146528 2.559055118110236, -3.472162962228214e-16 -1.8901574803149606 2.559055118110236, 0.1852678309929992 -1.8810558554146528 2.559055118110236, 0.3687514314958394 -1.8538386343369722 2.559055118110236, 0.5486837541333356 -1.8087679337993445 2.559055118110236, 0.7233319522774792 -1.7462778092860975 2.559055118110236, 0.8910140683077222 -1.6669700748568712 2.559055118110236, 1.0501152317823261 -1.5716085073482366 2.559055118110236, 1.1991032115234892 -1.461111490785236 2.559055118110236, 1.3365431718411867 -1.336543171841187 2.559055118110236, 1.4611114907852356 -1.1991032115234896 2.559055118110236, 1.5716085073482362 -1.0501152317823268 2.559055118110236, 1.6669700748568705 -0.8910140683077229 2.559055118110236, 1.746277809286097 -0.7233319522774799 2.559055118110236, 1.8087679337993445 -0.5486837541333364 2.559055118110236, 1.853838634336972 -0.36875143149584017 2.559055118110236, 1.8810558554146528 -0.185267830993 2.559055118110236 ] }
 coordIndex [ 0 1 65 64 -1, 1 2 66 65 -1, 2 3 67 66 -1, 3 4 68 67 -1, 4 5 69 68 -1, 5 6 70 69 -1, 6 7 71 70 -1, 7 8 72 71 -1, 8 9 73 72 -1, 9 10 74 73 -1, 10 11 75 74 -1, 11 12 76 75 -1, 12 13 77 76 -1, 13 14 78 77 -1, 14 15 79 78 -1, 15 16 80 79 -1, 16 17 81 80 -1, 17 18 82 81 -1, 18 19 83 82 -1, 19 20 84 83 -1, 20 21 85 84 -1, 21 22 86 85 -1, 22 23 87 86 -1, 23 24 88 87 -1, 24 25 89 88 -1, 25 26 90 89 -1, 26 27 91 90 -1, 27 28 92 91 -1, 28 29 93 92 -1, 29 30 94 93 -1, 30 31 95 94 -1, 31 32 96 95 -1, 32 33 97 96 -1, 33 34 98 97 -1, 34 35 99 98 -1, 35 36 100 99 -1, 36 37 101 100 -1, 37 38 102 101 -1, 38 39 103 102 -1, 39 40 104 103 -1, 40 41 105 104 -1, 41 42 106 105 -1, 42 43 107 106 -1, 43 44 108 107 -1, 44 45 109 108 -1, 45 46 110 109 -1, 46 47 111 110 -1, 47 48 112 111 -1, 48 49 113 112 -1, 49 50 114 113 -1, 50 51 115 114 -1, 51 52 116 115 -1, 52 53 117 116 -1, 53 54 118 117 -1, 54 55 119 118 -1, 55 56 120 119 -1, 56 57 121 120 -1, 57 58 122 121 -1, 58 59 123 122 -1, 59 60 124 123 -1, 60 61 125 124 -1, 61 62 126 125 -1, 62 63 127 126 -1, 63 0 64 127 -1, 63 62 61 60 59 58 57 56 55 54 53 52 51 50 49 48 47 46 45 44 43 42 41 40 39 38 37 36 35 34 33 32 31 30 29 28 27 26 25 24 23 22 21 20 19 18 17 16 15 14 13 12 11 10 9 8 7 6 5 4 3 2 1 0 -1, 64 65 66 67 68 69 70 71 72 73 74 75 76 77 78 79 80 81 82 83 84 85 86 87 88 89 90 91 92 93 94 95 96 97 98 99 100 101 102 103 104 105 106 107 108 109 110 111 112 113 114 115 116 117 118 119 120 121 122 123 124 125 126 127 -1 ] } }
Shape {
 appearance Appearance { material Material { diffuseColor .025 .025 .025 } }
 geometry IndexedFaceSet { coord Coordinate { point [ 1.6929133858267715 0.0 2.5472440944881893, 1.684761545153719 0.16593452890437424 2.5472440944881893, 1.6603845298164923 0.33027101758635885 2.5472440944881893, 1.6200171037986213 0.49142681582448344 2.5472440944881893, 1.5640480274797373 0.6478499051849945 2.5472440944881893, 1.493016313660601 0.7980338458077912 2.5472440944881893, 1.407606036575175 0.9405322842457832 2.5472440944881893, 1.3086397438817987 1.0739728826392423 2.5472440944881893, 1.1970705350795885 1.1970705350795885 2.5472440944881893, 1.0739728826392423 1.3086397438817987 2.5472440944881893, 0.9405322842457834 1.407606036575175 2.5472440944881893, 0.7980338458077916 1.4930163136606007 2.5472440944881893, 0.6478499051849945 1.5640480274797373 2.5472440944881893, 0.49142681582448344 1.6200171037986213 2.5472440944881893, 0.33027101758635896 1.6603845298164923 2.5472440944881893, 0.16593452890437452 1.684761545153719 2.5472440944881893, 1.036610479593232e-16 1.6929133858267715 2.5472440944881893, -0.16593452890437432 1.684761545153719 2.5472440944881893, -0.33027101758635874 1.6603845298164923 2.5472440944881893, -0.49142681582448317 1.6200171037986213 2.5472440944881893, -0.6478499051849944 1.5640480274797373 2.5472440944881893, -0.7980338458077912 1.493016313660601 2.5472440944881893, -0.9405322842457828 1.4076060365751752 2.5472440944881893, -1.0739728826392423 1.308639743881799 2.5472440944881893, -1.1970705350795883 1.1970705350795885 2.5472440944881893, -1.3086397438817987 1.0739728826392423 2.5472440944881893, -1.4076060365751752 0.9405322842457832 2.5472440944881893, -1.4930163136606007 0.7980338458077916 2.5472440944881893, -1.5640480274797373 0.6478499051849946 2.5472440944881893, -1.6200171037986213 0.4914268158244835 2.5472440944881893, -1.6603845298164923 0.33027101758635946 2.5472440944881893, -1.684761545153719 0.16593452890437463 2.5472440944881893, -1.6929133858267715 2.073220959186464e-16 2.5472440944881893, -1.684761545153719 -0.16593452890437424 2.5472440944881893, -1.6603845298164923 -0.330271017586359 2.5472440944881893, -1.6200171037986213 -0.4914268158244831 2.5472440944881893, -1.5640480274797375 -0.6478499051849943 2.5472440944881893, -1.493016313660601 -0.7980338458077912 2.5472440944881893, -1.4076060365751752 -0.9405322842457828 2.5472440944881893, -1.308639743881799 -1.0739728826392418 2.5472440944881893, -1.1970705350795885 -1.1970705350795883 2.5472440944881893, -1.0739728826392432 -1.3086397438817983 2.5472440944881893, -0.9405322842457832 -1.407606036575175 2.5472440944881893, -0.7980338458077916 -1.4930163136606007 2.5472440944881893, -0.6478499051849954 -1.5640480274797368 2.5472440944881893, -0.4914268158244836 -1.6200171037986213 2.5472440944881893, -0.3302710175863595 -1.660384529816492 2.5472440944881893, -0.165934528904374 -1.684761545153719 2.5472440944881893, -3.109831438779696e-16 -1.6929133858267715 2.5472440944881893, 0.16593452890437338 -1.684761545153719 2.5472440944881893, 0.3302710175863589 -1.6603845298164923 2.5472440944881893, 0.491426815824483 -1.6200171037986213 2.5472440944881893, 0.6478499051849949 -1.564048027479737 2.5472440944881893, 0.7980338458077911 -1.493016313660601 2.5472440944881893, 0.9405322842457827 -1.4076060365751752 2.5472440944881893, 1.0739728826392425 -1.3086397438817987 2.5472440944881893, 1.197070535079588 -1.1970705350795885 2.5472440944881893, 1.308639743881798 -1.0739728826392432 2.5472440944881893, 1.407606036575175 -0.9405322842457832 2.5472440944881893, 1.4930163136606007 -0.7980338458077918 2.5472440944881893, 1.5640480274797368 -0.6478499051849955 2.5472440944881893, 1.6200171037986213 -0.4914268158244837 2.5472440944881893, 1.660384529816492 -0.3302710175863596 2.5472440944881893, 1.684761545153719 -0.16593452890437407 2.5472440944881893, 1.6929133858267715 0.0 2.594488188976378, 1.684761545153719 0.16593452890437424 2.594488188976378, 1.6603845298164923 0.33027101758635885 2.594488188976378, 1.6200171037986213 0.49142681582448344 2.594488188976378, 1.5640480274797373 0.6478499051849945 2.594488188976378, 1.493016313660601 0.7980338458077912 2.594488188976378, 1.407606036575175 0.9405322842457832 2.594488188976378, 1.3086397438817987 1.0739728826392423 2.594488188976378, 1.1970705350795885 1.1970705350795885 2.594488188976378, 1.0739728826392423 1.3086397438817987 2.594488188976378, 0.9405322842457834 1.407606036575175 2.594488188976378, 0.7980338458077916 1.4930163136606007 2.594488188976378, 0.6478499051849945 1.5640480274797373 2.594488188976378, 0.49142681582448344 1.6200171037986213 2.594488188976378, 0.33027101758635896 1.6603845298164923 2.594488188976378, 0.16593452890437452 1.684761545153719 2.594488188976378, 1.036610479593232e-16 1.6929133858267715 2.594488188976378, -0.16593452890437432 1.684761545153719 2.594488188976378, -0.33027101758635874 1.6603845298164923 2.594488188976378, -0.49142681582448317 1.6200171037986213 2.594488188976378, -0.6478499051849944 1.5640480274797373 2.594488188976378, -0.7980338458077912 1.493016313660601 2.594488188976378, -0.9405322842457828 1.4076060365751752 2.594488188976378, -1.0739728826392423 1.308639743881799 2.594488188976378, -1.1970705350795883 1.1970705350795885 2.594488188976378, -1.3086397438817987 1.0739728826392423 2.594488188976378, -1.4076060365751752 0.9405322842457832 2.594488188976378, -1.4930163136606007 0.7980338458077916 2.594488188976378, -1.5640480274797373 0.6478499051849946 2.594488188976378, -1.6200171037986213 0.4914268158244835 2.594488188976378, -1.6603845298164923 0.33027101758635946 2.594488188976378, -1.684761545153719 0.16593452890437463 2.594488188976378, -1.6929133858267715 2.073220959186464e-16 2.594488188976378, -1.684761545153719 -0.16593452890437424 2.594488188976378, -1.6603845298164923 -0.330271017586359 2.594488188976378, -1.6200171037986213 -0.4914268158244831 2.594488188976378, -1.5640480274797375 -0.6478499051849943 2.594488188976378, -1.493016313660601 -0.7980338458077912 2.594488188976378, -1.4076060365751752 -0.9405322842457828 2.594488188976378, -1.308639743881799 -1.0739728826392418 2.594488188976378, -1.1970705350795885 -1.1970705350795883 2.594488188976378, -1.0739728826392432 -1.3086397438817983 2.594488188976378, -0.9405322842457832 -1.407606036575175 2.594488188976378, -0.7980338458077916 -1.4930163136606007 2.594488188976378, -0.6478499051849954 -1.5640480274797368 2.594488188976378, -0.4914268158244836 -1.6200171037986213 2.594488188976378, -0.3302710175863595 -1.660384529816492 2.594488188976378, -0.165934528904374 -1.684761545153719 2.594488188976378, -3.109831438779696e-16 -1.6929133858267715 2.594488188976378, 0.16593452890437338 -1.684761545153719 2.594488188976378, 0.3302710175863589 -1.6603845298164923 2.594488188976378, 0.491426815824483 -1.6200171037986213 2.594488188976378, 0.6478499051849949 -1.564048027479737 2.594488188976378, 0.7980338458077911 -1.493016313660601 2.594488188976378, 0.9405322842457827 -1.4076060365751752 2.594488188976378, 1.0739728826392425 -1.3086397438817987 2.594488188976378, 1.197070535079588 -1.1970705350795885 2.594488188976378, 1.308639743881798 -1.0739728826392432 2.594488188976378, 1.407606036575175 -0.9405322842457832 2.594488188976378, 1.4930163136606007 -0.7980338458077918 2.594488188976378, 1.5640480274797368 -0.6478499051849955 2.594488188976378, 1.6200171037986213 -0.4914268158244837 2.594488188976378, 1.660384529816492 -0.3302710175863596 2.594488188976378, 1.684761545153719 -0.16593452890437407 2.594488188976378 ] }
 coordIndex [ 0 1 65 64 -1, 1 2 66 65 -1, 2 3 67 66 -1, 3 4 68 67 -1, 4 5 69 68 -1, 5 6 70 69 -1, 6 7 71 70 -1, 7 8 72 71 -1, 8 9 73 72 -1, 9 10 74 73 -1, 10 11 75 74 -1, 11 12 76 75 -1, 12 13 77 76 -1, 13 14 78 77 -1, 14 15 79 78 -1, 15 16 80 79 -1, 16 17 81 80 -1, 17 18 82 81 -1, 18 19 83 82 -1, 19 20 84 83 -1, 20 21 85 84 -1, 21 22 86 85 -1, 22 23 87 86 -1, 23 24 88 87 -1, 24 25 89 88 -1, 25 26 90 89 -1, 26 27 91 90 -1, 27 28 92 91 -1, 28 29 93 92 -1, 29 30 94 93 -1, 30 31 95 94 -1, 31 32 96 95 -1, 32 33 97 96 -1, 33 34 98 97 -1, 34 35 99 98 -1, 35 36 100 99 -1, 36 37 101 100 -1, 37 38 102 101 -1, 38 39 103 102 -1, 39 40 104 103 -1, 40 41 105 104 -1, 41 42 106 105 -1, 42 43 107 106 -1, 43 44 108 107 -1, 44 45 109 108 -1, 45 46 110 109 -1, 46 47 111 110 -1, 47 48 112 111 -1, 48 49 113 112 -1, 49 50 114 113 -1, 50 51 115 114 -1, 51 52 116 115 -1, 52 53 117 116 -1, 53 54 118 117 -1, 54 55 119 118 -1, 55 56 120 119 -1, 56 57 121 120 -1, 57 58 122 121 -1, 58 59 123 122 -1, 59 60 124 123 -1, 60 61 125 124 -1, 61 62 126 125 -1, 62 63 127 126 -1, 63 0 64 127 -1, 63 62 61 60 59 58 57 56 55 54 53 52 51 50 49 48 47 46 45 44 43 42 41 40 39 38 37 36 35 34 33 32 31 30 29 28 27 26 25 24 23 22 21 20 19 18 17 16 15 14 13 12 11 10 9 8 7 6 5 4 3 2 1 0 -1, 64 65 66 67 68 69 70 71 72 73 74 75 76 77 78 79 80 81 82 83 84 85 86 87 88 89 90 91 92 93 94 95 96 97 98 99 100 101 102 103 104 105 106 107 108 109 110 111 112 113 114 115 116 117 118 119 120 121 122 123 124 125 126 127 -1 ] } }