M48
; DRILL file {KiCad 8.0.8} date 2025-02-06T12:25:46+0100
; FORMAT={-:-/ absolute / inch / decimal}
; #@! TF.CreationDate,2025-02-06T12:25:46+01:00
; #@! TF.GenerationSoftware,Kicad,Pcbnew,8.0.8
; #@! TF.FileFunction,Plated,1,2,PTH
FMAT,2
INCH
; #@! TA.AperFunction,Plated,PTH,ViaDrill
T1C0.0236
; #@! TA.AperFunction,Plated,PTH,ComponentDrill
T2C0.0374
; #@! TA.AperFunction,Plated,PTH,ComponentDrill
T3C0.0394
; #@! TA.AperFunction,Plated,PTH,ComponentDrill
T4C0.1260
%
G90
G05
T1
X1.811Y-2.2047
T2
X1.2205Y-1.9291
X1.2205Y-2.3228
X1.2205Y-2.7165
X1.2205Y-3.1102
X1.2205Y-3.5039
X1.3189Y-1.9291
X1.3189Y-2.3228
X1.3189Y-2.7165
X1.3189Y-3.1102
X1.3189Y-3.5039
X1.4173Y-1.9291
X1.4173Y-2.3228
X1.4173Y-2.7165
X1.4173Y-3.1102
X1.4173Y-3.5039
X2.5197Y-2.7165
X2.5197Y-3.1102
X2.5197Y-3.5039
X2.6181Y-2.7165
X2.6181Y-3.1102
X2.6181Y-3.5039
X2.7165Y-2.7165
X2.7165Y-3.1102
X2.7165Y-3.5039
T3
X1.5868Y-1.3717
X1.6413Y-1.2598
X1.6959Y-1.3717
X1.7504Y-1.2598
X1.8049Y-1.3717
X1.8594Y-1.2598
X1.914Y-1.3717
X1.9685Y-1.2598
X2.023Y-1.3717
X2.0776Y-1.2598
X2.1321Y-1.3717
X2.1866Y-1.2598
X2.2411Y-1.3717
X2.2957Y-1.2598
X2.3502Y-1.3717
X2.6181Y-1.9291
X2.6181Y-2.3228
X2.7165Y-1.9291
X2.7165Y-2.3228
T4
X1.313Y-1.2598
X2.624Y-1.2598
M30
