%TF.GenerationSoftware,KiCad,Pcbnew,8.0.8*%
%TF.CreationDate,2025-02-06T12:25:39+01:00*%
%TF.ProjectId,male static,6d616c65-2073-4746-9174-69632e6b6963,rev?*%
%TF.SameCoordinates,Original*%
%TF.FileFunction,Legend,Top*%
%TF.FilePolarity,Positive*%
%FSLAX46Y46*%
G04 Gerber Fmt 4.6, Leading zero omitted, Abs format (unit mm)*
G04 Created by KiCad (PCBNEW 8.0.8) date 2025-02-06 12:25:39*
%MOMM*%
%LPD*%
G01*
G04 APERTURE LIST*
%ADD10C,0.200000*%
%ADD11C,0.100000*%
%ADD12C,0.150000*%
%ADD13C,0.120000*%
G04 APERTURE END LIST*
D10*
X27807768Y-104944838D02*
X27807768Y-102944838D01*
X27807768Y-102944838D02*
X28474435Y-104373409D01*
X28474435Y-104373409D02*
X29141101Y-102944838D01*
X29141101Y-102944838D02*
X29141101Y-104944838D01*
X30950625Y-104944838D02*
X30950625Y-103897219D01*
X30950625Y-103897219D02*
X30855387Y-103706742D01*
X30855387Y-103706742D02*
X30664911Y-103611504D01*
X30664911Y-103611504D02*
X30283958Y-103611504D01*
X30283958Y-103611504D02*
X30093482Y-103706742D01*
X30950625Y-104849600D02*
X30760149Y-104944838D01*
X30760149Y-104944838D02*
X30283958Y-104944838D01*
X30283958Y-104944838D02*
X30093482Y-104849600D01*
X30093482Y-104849600D02*
X29998244Y-104659123D01*
X29998244Y-104659123D02*
X29998244Y-104468647D01*
X29998244Y-104468647D02*
X30093482Y-104278171D01*
X30093482Y-104278171D02*
X30283958Y-104182933D01*
X30283958Y-104182933D02*
X30760149Y-104182933D01*
X30760149Y-104182933D02*
X30950625Y-104087695D01*
X32188720Y-104944838D02*
X31998244Y-104849600D01*
X31998244Y-104849600D02*
X31903006Y-104659123D01*
X31903006Y-104659123D02*
X31903006Y-102944838D01*
X33712530Y-104849600D02*
X33522054Y-104944838D01*
X33522054Y-104944838D02*
X33141101Y-104944838D01*
X33141101Y-104944838D02*
X32950625Y-104849600D01*
X32950625Y-104849600D02*
X32855387Y-104659123D01*
X32855387Y-104659123D02*
X32855387Y-103897219D01*
X32855387Y-103897219D02*
X32950625Y-103706742D01*
X32950625Y-103706742D02*
X33141101Y-103611504D01*
X33141101Y-103611504D02*
X33522054Y-103611504D01*
X33522054Y-103611504D02*
X33712530Y-103706742D01*
X33712530Y-103706742D02*
X33807768Y-103897219D01*
X33807768Y-103897219D02*
X33807768Y-104087695D01*
X33807768Y-104087695D02*
X32855387Y-104278171D01*
X36093483Y-104849600D02*
X36283959Y-104944838D01*
X36283959Y-104944838D02*
X36664911Y-104944838D01*
X36664911Y-104944838D02*
X36855388Y-104849600D01*
X36855388Y-104849600D02*
X36950626Y-104659123D01*
X36950626Y-104659123D02*
X36950626Y-104563885D01*
X36950626Y-104563885D02*
X36855388Y-104373409D01*
X36855388Y-104373409D02*
X36664911Y-104278171D01*
X36664911Y-104278171D02*
X36379197Y-104278171D01*
X36379197Y-104278171D02*
X36188721Y-104182933D01*
X36188721Y-104182933D02*
X36093483Y-103992457D01*
X36093483Y-103992457D02*
X36093483Y-103897219D01*
X36093483Y-103897219D02*
X36188721Y-103706742D01*
X36188721Y-103706742D02*
X36379197Y-103611504D01*
X36379197Y-103611504D02*
X36664911Y-103611504D01*
X36664911Y-103611504D02*
X36855388Y-103706742D01*
X37522055Y-103611504D02*
X38283959Y-103611504D01*
X37807769Y-102944838D02*
X37807769Y-104659123D01*
X37807769Y-104659123D02*
X37903007Y-104849600D01*
X37903007Y-104849600D02*
X38093483Y-104944838D01*
X38093483Y-104944838D02*
X38283959Y-104944838D01*
X39807769Y-104944838D02*
X39807769Y-103897219D01*
X39807769Y-103897219D02*
X39712531Y-103706742D01*
X39712531Y-103706742D02*
X39522055Y-103611504D01*
X39522055Y-103611504D02*
X39141102Y-103611504D01*
X39141102Y-103611504D02*
X38950626Y-103706742D01*
X39807769Y-104849600D02*
X39617293Y-104944838D01*
X39617293Y-104944838D02*
X39141102Y-104944838D01*
X39141102Y-104944838D02*
X38950626Y-104849600D01*
X38950626Y-104849600D02*
X38855388Y-104659123D01*
X38855388Y-104659123D02*
X38855388Y-104468647D01*
X38855388Y-104468647D02*
X38950626Y-104278171D01*
X38950626Y-104278171D02*
X39141102Y-104182933D01*
X39141102Y-104182933D02*
X39617293Y-104182933D01*
X39617293Y-104182933D02*
X39807769Y-104087695D01*
X40474436Y-103611504D02*
X41236340Y-103611504D01*
X40760150Y-102944838D02*
X40760150Y-104659123D01*
X40760150Y-104659123D02*
X40855388Y-104849600D01*
X40855388Y-104849600D02*
X41045864Y-104944838D01*
X41045864Y-104944838D02*
X41236340Y-104944838D01*
X41903007Y-104944838D02*
X41903007Y-103611504D01*
X41903007Y-102944838D02*
X41807769Y-103040076D01*
X41807769Y-103040076D02*
X41903007Y-103135314D01*
X41903007Y-103135314D02*
X41998245Y-103040076D01*
X41998245Y-103040076D02*
X41903007Y-102944838D01*
X41903007Y-102944838D02*
X41903007Y-103135314D01*
X43712531Y-104849600D02*
X43522055Y-104944838D01*
X43522055Y-104944838D02*
X43141102Y-104944838D01*
X43141102Y-104944838D02*
X42950626Y-104849600D01*
X42950626Y-104849600D02*
X42855388Y-104754361D01*
X42855388Y-104754361D02*
X42760150Y-104563885D01*
X42760150Y-104563885D02*
X42760150Y-103992457D01*
X42760150Y-103992457D02*
X42855388Y-103801980D01*
X42855388Y-103801980D02*
X42950626Y-103706742D01*
X42950626Y-103706742D02*
X43141102Y-103611504D01*
X43141102Y-103611504D02*
X43522055Y-103611504D01*
X43522055Y-103611504D02*
X43712531Y-103706742D01*
D11*
X40961027Y-27705752D02*
X41341979Y-27705752D01*
X41103884Y-28372419D02*
X41103884Y-27515276D01*
X41103884Y-27515276D02*
X41151503Y-27420038D01*
X41151503Y-27420038D02*
X41246741Y-27372419D01*
X41246741Y-27372419D02*
X41341979Y-27372419D01*
X42056265Y-28324800D02*
X41961027Y-28372419D01*
X41961027Y-28372419D02*
X41770551Y-28372419D01*
X41770551Y-28372419D02*
X41675313Y-28324800D01*
X41675313Y-28324800D02*
X41627694Y-28229561D01*
X41627694Y-28229561D02*
X41627694Y-27848609D01*
X41627694Y-27848609D02*
X41675313Y-27753371D01*
X41675313Y-27753371D02*
X41770551Y-27705752D01*
X41770551Y-27705752D02*
X41961027Y-27705752D01*
X41961027Y-27705752D02*
X42056265Y-27753371D01*
X42056265Y-27753371D02*
X42103884Y-27848609D01*
X42103884Y-27848609D02*
X42103884Y-27943847D01*
X42103884Y-27943847D02*
X41627694Y-28039085D01*
X42532456Y-28372419D02*
X42532456Y-27705752D01*
X42532456Y-27800990D02*
X42580075Y-27753371D01*
X42580075Y-27753371D02*
X42675313Y-27705752D01*
X42675313Y-27705752D02*
X42818170Y-27705752D01*
X42818170Y-27705752D02*
X42913408Y-27753371D01*
X42913408Y-27753371D02*
X42961027Y-27848609D01*
X42961027Y-27848609D02*
X42961027Y-28372419D01*
X42961027Y-27848609D02*
X43008646Y-27753371D01*
X43008646Y-27753371D02*
X43103884Y-27705752D01*
X43103884Y-27705752D02*
X43246741Y-27705752D01*
X43246741Y-27705752D02*
X43341980Y-27753371D01*
X43341980Y-27753371D02*
X43389599Y-27848609D01*
X43389599Y-27848609D02*
X43389599Y-28372419D01*
X44294360Y-28372419D02*
X44294360Y-27848609D01*
X44294360Y-27848609D02*
X44246741Y-27753371D01*
X44246741Y-27753371D02*
X44151503Y-27705752D01*
X44151503Y-27705752D02*
X43961027Y-27705752D01*
X43961027Y-27705752D02*
X43865789Y-27753371D01*
X44294360Y-28324800D02*
X44199122Y-28372419D01*
X44199122Y-28372419D02*
X43961027Y-28372419D01*
X43961027Y-28372419D02*
X43865789Y-28324800D01*
X43865789Y-28324800D02*
X43818170Y-28229561D01*
X43818170Y-28229561D02*
X43818170Y-28134323D01*
X43818170Y-28134323D02*
X43865789Y-28039085D01*
X43865789Y-28039085D02*
X43961027Y-27991466D01*
X43961027Y-27991466D02*
X44199122Y-27991466D01*
X44199122Y-27991466D02*
X44294360Y-27943847D01*
X44913408Y-28372419D02*
X44818170Y-28324800D01*
X44818170Y-28324800D02*
X44770551Y-28229561D01*
X44770551Y-28229561D02*
X44770551Y-27372419D01*
X45675313Y-28324800D02*
X45580075Y-28372419D01*
X45580075Y-28372419D02*
X45389599Y-28372419D01*
X45389599Y-28372419D02*
X45294361Y-28324800D01*
X45294361Y-28324800D02*
X45246742Y-28229561D01*
X45246742Y-28229561D02*
X45246742Y-27848609D01*
X45246742Y-27848609D02*
X45294361Y-27753371D01*
X45294361Y-27753371D02*
X45389599Y-27705752D01*
X45389599Y-27705752D02*
X45580075Y-27705752D01*
X45580075Y-27705752D02*
X45675313Y-27753371D01*
X45675313Y-27753371D02*
X45722932Y-27848609D01*
X45722932Y-27848609D02*
X45722932Y-27943847D01*
X45722932Y-27943847D02*
X45246742Y-28039085D01*
X47341980Y-28324800D02*
X47246742Y-28372419D01*
X47246742Y-28372419D02*
X47056266Y-28372419D01*
X47056266Y-28372419D02*
X46961028Y-28324800D01*
X46961028Y-28324800D02*
X46913409Y-28277180D01*
X46913409Y-28277180D02*
X46865790Y-28181942D01*
X46865790Y-28181942D02*
X46865790Y-27896228D01*
X46865790Y-27896228D02*
X46913409Y-27800990D01*
X46913409Y-27800990D02*
X46961028Y-27753371D01*
X46961028Y-27753371D02*
X47056266Y-27705752D01*
X47056266Y-27705752D02*
X47246742Y-27705752D01*
X47246742Y-27705752D02*
X47341980Y-27753371D01*
X47913409Y-28372419D02*
X47818171Y-28324800D01*
X47818171Y-28324800D02*
X47770552Y-28277180D01*
X47770552Y-28277180D02*
X47722933Y-28181942D01*
X47722933Y-28181942D02*
X47722933Y-27896228D01*
X47722933Y-27896228D02*
X47770552Y-27800990D01*
X47770552Y-27800990D02*
X47818171Y-27753371D01*
X47818171Y-27753371D02*
X47913409Y-27705752D01*
X47913409Y-27705752D02*
X48056266Y-27705752D01*
X48056266Y-27705752D02*
X48151504Y-27753371D01*
X48151504Y-27753371D02*
X48199123Y-27800990D01*
X48199123Y-27800990D02*
X48246742Y-27896228D01*
X48246742Y-27896228D02*
X48246742Y-28181942D01*
X48246742Y-28181942D02*
X48199123Y-28277180D01*
X48199123Y-28277180D02*
X48151504Y-28324800D01*
X48151504Y-28324800D02*
X48056266Y-28372419D01*
X48056266Y-28372419D02*
X47913409Y-28372419D01*
X48675314Y-27705752D02*
X48675314Y-28372419D01*
X48675314Y-27800990D02*
X48722933Y-27753371D01*
X48722933Y-27753371D02*
X48818171Y-27705752D01*
X48818171Y-27705752D02*
X48961028Y-27705752D01*
X48961028Y-27705752D02*
X49056266Y-27753371D01*
X49056266Y-27753371D02*
X49103885Y-27848609D01*
X49103885Y-27848609D02*
X49103885Y-28372419D01*
X49580076Y-27705752D02*
X49580076Y-28372419D01*
X49580076Y-27800990D02*
X49627695Y-27753371D01*
X49627695Y-27753371D02*
X49722933Y-27705752D01*
X49722933Y-27705752D02*
X49865790Y-27705752D01*
X49865790Y-27705752D02*
X49961028Y-27753371D01*
X49961028Y-27753371D02*
X50008647Y-27848609D01*
X50008647Y-27848609D02*
X50008647Y-28372419D01*
X50865790Y-28324800D02*
X50770552Y-28372419D01*
X50770552Y-28372419D02*
X50580076Y-28372419D01*
X50580076Y-28372419D02*
X50484838Y-28324800D01*
X50484838Y-28324800D02*
X50437219Y-28229561D01*
X50437219Y-28229561D02*
X50437219Y-27848609D01*
X50437219Y-27848609D02*
X50484838Y-27753371D01*
X50484838Y-27753371D02*
X50580076Y-27705752D01*
X50580076Y-27705752D02*
X50770552Y-27705752D01*
X50770552Y-27705752D02*
X50865790Y-27753371D01*
X50865790Y-27753371D02*
X50913409Y-27848609D01*
X50913409Y-27848609D02*
X50913409Y-27943847D01*
X50913409Y-27943847D02*
X50437219Y-28039085D01*
X51770552Y-28324800D02*
X51675314Y-28372419D01*
X51675314Y-28372419D02*
X51484838Y-28372419D01*
X51484838Y-28372419D02*
X51389600Y-28324800D01*
X51389600Y-28324800D02*
X51341981Y-28277180D01*
X51341981Y-28277180D02*
X51294362Y-28181942D01*
X51294362Y-28181942D02*
X51294362Y-27896228D01*
X51294362Y-27896228D02*
X51341981Y-27800990D01*
X51341981Y-27800990D02*
X51389600Y-27753371D01*
X51389600Y-27753371D02*
X51484838Y-27705752D01*
X51484838Y-27705752D02*
X51675314Y-27705752D01*
X51675314Y-27705752D02*
X51770552Y-27753371D01*
X52056267Y-27705752D02*
X52437219Y-27705752D01*
X52199124Y-27372419D02*
X52199124Y-28229561D01*
X52199124Y-28229561D02*
X52246743Y-28324800D01*
X52246743Y-28324800D02*
X52341981Y-28372419D01*
X52341981Y-28372419D02*
X52437219Y-28372419D01*
X52913410Y-28372419D02*
X52818172Y-28324800D01*
X52818172Y-28324800D02*
X52770553Y-28277180D01*
X52770553Y-28277180D02*
X52722934Y-28181942D01*
X52722934Y-28181942D02*
X52722934Y-27896228D01*
X52722934Y-27896228D02*
X52770553Y-27800990D01*
X52770553Y-27800990D02*
X52818172Y-27753371D01*
X52818172Y-27753371D02*
X52913410Y-27705752D01*
X52913410Y-27705752D02*
X53056267Y-27705752D01*
X53056267Y-27705752D02*
X53151505Y-27753371D01*
X53151505Y-27753371D02*
X53199124Y-27800990D01*
X53199124Y-27800990D02*
X53246743Y-27896228D01*
X53246743Y-27896228D02*
X53246743Y-28181942D01*
X53246743Y-28181942D02*
X53199124Y-28277180D01*
X53199124Y-28277180D02*
X53151505Y-28324800D01*
X53151505Y-28324800D02*
X53056267Y-28372419D01*
X53056267Y-28372419D02*
X52913410Y-28372419D01*
X53675315Y-28372419D02*
X53675315Y-27705752D01*
X53675315Y-27896228D02*
X53722934Y-27800990D01*
X53722934Y-27800990D02*
X53770553Y-27753371D01*
X53770553Y-27753371D02*
X53865791Y-27705752D01*
X53865791Y-27705752D02*
X53961029Y-27705752D01*
X55056268Y-28372419D02*
X55056268Y-27372419D01*
X55484839Y-28372419D02*
X55484839Y-27848609D01*
X55484839Y-27848609D02*
X55437220Y-27753371D01*
X55437220Y-27753371D02*
X55341982Y-27705752D01*
X55341982Y-27705752D02*
X55199125Y-27705752D01*
X55199125Y-27705752D02*
X55103887Y-27753371D01*
X55103887Y-27753371D02*
X55056268Y-27800990D01*
X56341982Y-28324800D02*
X56246744Y-28372419D01*
X56246744Y-28372419D02*
X56056268Y-28372419D01*
X56056268Y-28372419D02*
X55961030Y-28324800D01*
X55961030Y-28324800D02*
X55913411Y-28229561D01*
X55913411Y-28229561D02*
X55913411Y-27848609D01*
X55913411Y-27848609D02*
X55961030Y-27753371D01*
X55961030Y-27753371D02*
X56056268Y-27705752D01*
X56056268Y-27705752D02*
X56246744Y-27705752D01*
X56246744Y-27705752D02*
X56341982Y-27753371D01*
X56341982Y-27753371D02*
X56389601Y-27848609D01*
X56389601Y-27848609D02*
X56389601Y-27943847D01*
X56389601Y-27943847D02*
X55913411Y-28039085D01*
X56818173Y-28372419D02*
X56818173Y-27705752D01*
X56818173Y-27896228D02*
X56865792Y-27800990D01*
X56865792Y-27800990D02*
X56913411Y-27753371D01*
X56913411Y-27753371D02*
X57008649Y-27705752D01*
X57008649Y-27705752D02*
X57103887Y-27705752D01*
X57818173Y-28324800D02*
X57722935Y-28372419D01*
X57722935Y-28372419D02*
X57532459Y-28372419D01*
X57532459Y-28372419D02*
X57437221Y-28324800D01*
X57437221Y-28324800D02*
X57389602Y-28229561D01*
X57389602Y-28229561D02*
X57389602Y-27848609D01*
X57389602Y-27848609D02*
X57437221Y-27753371D01*
X57437221Y-27753371D02*
X57532459Y-27705752D01*
X57532459Y-27705752D02*
X57722935Y-27705752D01*
X57722935Y-27705752D02*
X57818173Y-27753371D01*
X57818173Y-27753371D02*
X57865792Y-27848609D01*
X57865792Y-27848609D02*
X57865792Y-27943847D01*
X57865792Y-27943847D02*
X57389602Y-28039085D01*
D12*
X61499999Y-82854819D02*
X61499999Y-81854819D01*
X61499999Y-82235771D02*
X61595237Y-82188152D01*
X61595237Y-82188152D02*
X61785713Y-82188152D01*
X61785713Y-82188152D02*
X61880951Y-82235771D01*
X61880951Y-82235771D02*
X61928570Y-82283390D01*
X61928570Y-82283390D02*
X61976189Y-82378628D01*
X61976189Y-82378628D02*
X61976189Y-82664342D01*
X61976189Y-82664342D02*
X61928570Y-82759580D01*
X61928570Y-82759580D02*
X61880951Y-82807200D01*
X61880951Y-82807200D02*
X61785713Y-82854819D01*
X61785713Y-82854819D02*
X61595237Y-82854819D01*
X61595237Y-82854819D02*
X61499999Y-82807200D01*
X62547618Y-82854819D02*
X62452380Y-82807200D01*
X62452380Y-82807200D02*
X62404761Y-82759580D01*
X62404761Y-82759580D02*
X62357142Y-82664342D01*
X62357142Y-82664342D02*
X62357142Y-82378628D01*
X62357142Y-82378628D02*
X62404761Y-82283390D01*
X62404761Y-82283390D02*
X62452380Y-82235771D01*
X62452380Y-82235771D02*
X62547618Y-82188152D01*
X62547618Y-82188152D02*
X62690475Y-82188152D01*
X62690475Y-82188152D02*
X62785713Y-82235771D01*
X62785713Y-82235771D02*
X62833332Y-82283390D01*
X62833332Y-82283390D02*
X62880951Y-82378628D01*
X62880951Y-82378628D02*
X62880951Y-82664342D01*
X62880951Y-82664342D02*
X62833332Y-82759580D01*
X62833332Y-82759580D02*
X62785713Y-82807200D01*
X62785713Y-82807200D02*
X62690475Y-82854819D01*
X62690475Y-82854819D02*
X62547618Y-82854819D01*
X63738094Y-82854819D02*
X63738094Y-81854819D01*
X63738094Y-82807200D02*
X63642856Y-82854819D01*
X63642856Y-82854819D02*
X63452380Y-82854819D01*
X63452380Y-82854819D02*
X63357142Y-82807200D01*
X63357142Y-82807200D02*
X63309523Y-82759580D01*
X63309523Y-82759580D02*
X63261904Y-82664342D01*
X63261904Y-82664342D02*
X63261904Y-82378628D01*
X63261904Y-82378628D02*
X63309523Y-82283390D01*
X63309523Y-82283390D02*
X63357142Y-82235771D01*
X63357142Y-82235771D02*
X63452380Y-82188152D01*
X63452380Y-82188152D02*
X63642856Y-82188152D01*
X63642856Y-82188152D02*
X63738094Y-82235771D01*
X64119047Y-82188152D02*
X64357142Y-82854819D01*
X64595237Y-82188152D02*
X64357142Y-82854819D01*
X64357142Y-82854819D02*
X64261904Y-83092914D01*
X64261904Y-83092914D02*
X64214285Y-83140533D01*
X64214285Y-83140533D02*
X64119047Y-83188152D01*
X65738095Y-82188152D02*
X65738095Y-82854819D01*
X65738095Y-82283390D02*
X65785714Y-82235771D01*
X65785714Y-82235771D02*
X65880952Y-82188152D01*
X65880952Y-82188152D02*
X66023809Y-82188152D01*
X66023809Y-82188152D02*
X66119047Y-82235771D01*
X66119047Y-82235771D02*
X66166666Y-82331009D01*
X66166666Y-82331009D02*
X66166666Y-82854819D01*
X67023809Y-82807200D02*
X66928571Y-82854819D01*
X66928571Y-82854819D02*
X66738095Y-82854819D01*
X66738095Y-82854819D02*
X66642857Y-82807200D01*
X66642857Y-82807200D02*
X66595238Y-82711961D01*
X66595238Y-82711961D02*
X66595238Y-82331009D01*
X66595238Y-82331009D02*
X66642857Y-82235771D01*
X66642857Y-82235771D02*
X66738095Y-82188152D01*
X66738095Y-82188152D02*
X66928571Y-82188152D01*
X66928571Y-82188152D02*
X67023809Y-82235771D01*
X67023809Y-82235771D02*
X67071428Y-82331009D01*
X67071428Y-82331009D02*
X67071428Y-82426247D01*
X67071428Y-82426247D02*
X66595238Y-82521485D01*
X67642857Y-82854819D02*
X67547619Y-82807200D01*
X67547619Y-82807200D02*
X67500000Y-82759580D01*
X67500000Y-82759580D02*
X67452381Y-82664342D01*
X67452381Y-82664342D02*
X67452381Y-82378628D01*
X67452381Y-82378628D02*
X67500000Y-82283390D01*
X67500000Y-82283390D02*
X67547619Y-82235771D01*
X67547619Y-82235771D02*
X67642857Y-82188152D01*
X67642857Y-82188152D02*
X67785714Y-82188152D01*
X67785714Y-82188152D02*
X67880952Y-82235771D01*
X67880952Y-82235771D02*
X67928571Y-82283390D01*
X67928571Y-82283390D02*
X67976190Y-82378628D01*
X67976190Y-82378628D02*
X67976190Y-82664342D01*
X67976190Y-82664342D02*
X67928571Y-82759580D01*
X67928571Y-82759580D02*
X67880952Y-82807200D01*
X67880952Y-82807200D02*
X67785714Y-82854819D01*
X67785714Y-82854819D02*
X67642857Y-82854819D01*
X68404762Y-82188152D02*
X68404762Y-83188152D01*
X68404762Y-82235771D02*
X68500000Y-82188152D01*
X68500000Y-82188152D02*
X68690476Y-82188152D01*
X68690476Y-82188152D02*
X68785714Y-82235771D01*
X68785714Y-82235771D02*
X68833333Y-82283390D01*
X68833333Y-82283390D02*
X68880952Y-82378628D01*
X68880952Y-82378628D02*
X68880952Y-82664342D01*
X68880952Y-82664342D02*
X68833333Y-82759580D01*
X68833333Y-82759580D02*
X68785714Y-82807200D01*
X68785714Y-82807200D02*
X68690476Y-82854819D01*
X68690476Y-82854819D02*
X68500000Y-82854819D01*
X68500000Y-82854819D02*
X68404762Y-82807200D01*
X69309524Y-82854819D02*
X69309524Y-82188152D01*
X69309524Y-81854819D02*
X69261905Y-81902438D01*
X69261905Y-81902438D02*
X69309524Y-81950057D01*
X69309524Y-81950057D02*
X69357143Y-81902438D01*
X69357143Y-81902438D02*
X69309524Y-81854819D01*
X69309524Y-81854819D02*
X69309524Y-81950057D01*
X69690476Y-82854819D02*
X70214285Y-82188152D01*
X69690476Y-82188152D02*
X70214285Y-82854819D01*
X70976190Y-82807200D02*
X70880952Y-82854819D01*
X70880952Y-82854819D02*
X70690476Y-82854819D01*
X70690476Y-82854819D02*
X70595238Y-82807200D01*
X70595238Y-82807200D02*
X70547619Y-82711961D01*
X70547619Y-82711961D02*
X70547619Y-82331009D01*
X70547619Y-82331009D02*
X70595238Y-82235771D01*
X70595238Y-82235771D02*
X70690476Y-82188152D01*
X70690476Y-82188152D02*
X70880952Y-82188152D01*
X70880952Y-82188152D02*
X70976190Y-82235771D01*
X70976190Y-82235771D02*
X71023809Y-82331009D01*
X71023809Y-82331009D02*
X71023809Y-82426247D01*
X71023809Y-82426247D02*
X70547619Y-82521485D01*
X71595238Y-82854819D02*
X71500000Y-82807200D01*
X71500000Y-82807200D02*
X71452381Y-82711961D01*
X71452381Y-82711961D02*
X71452381Y-81854819D01*
X29404762Y-52854819D02*
X29404762Y-52188152D01*
X29404762Y-52283390D02*
X29452381Y-52235771D01*
X29452381Y-52235771D02*
X29547619Y-52188152D01*
X29547619Y-52188152D02*
X29690476Y-52188152D01*
X29690476Y-52188152D02*
X29785714Y-52235771D01*
X29785714Y-52235771D02*
X29833333Y-52331009D01*
X29833333Y-52331009D02*
X29833333Y-52854819D01*
X29833333Y-52331009D02*
X29880952Y-52235771D01*
X29880952Y-52235771D02*
X29976190Y-52188152D01*
X29976190Y-52188152D02*
X30119047Y-52188152D01*
X30119047Y-52188152D02*
X30214286Y-52235771D01*
X30214286Y-52235771D02*
X30261905Y-52331009D01*
X30261905Y-52331009D02*
X30261905Y-52854819D01*
X30738095Y-52854819D02*
X30738095Y-52188152D01*
X30738095Y-51854819D02*
X30690476Y-51902438D01*
X30690476Y-51902438D02*
X30738095Y-51950057D01*
X30738095Y-51950057D02*
X30785714Y-51902438D01*
X30785714Y-51902438D02*
X30738095Y-51854819D01*
X30738095Y-51854819D02*
X30738095Y-51950057D01*
X31642856Y-52807200D02*
X31547618Y-52854819D01*
X31547618Y-52854819D02*
X31357142Y-52854819D01*
X31357142Y-52854819D02*
X31261904Y-52807200D01*
X31261904Y-52807200D02*
X31214285Y-52759580D01*
X31214285Y-52759580D02*
X31166666Y-52664342D01*
X31166666Y-52664342D02*
X31166666Y-52378628D01*
X31166666Y-52378628D02*
X31214285Y-52283390D01*
X31214285Y-52283390D02*
X31261904Y-52235771D01*
X31261904Y-52235771D02*
X31357142Y-52188152D01*
X31357142Y-52188152D02*
X31547618Y-52188152D01*
X31547618Y-52188152D02*
X31642856Y-52235771D01*
X32071428Y-52854819D02*
X32071428Y-52188152D01*
X32071428Y-52378628D02*
X32119047Y-52283390D01*
X32119047Y-52283390D02*
X32166666Y-52235771D01*
X32166666Y-52235771D02*
X32261904Y-52188152D01*
X32261904Y-52188152D02*
X32357142Y-52188152D01*
X32833333Y-52854819D02*
X32738095Y-52807200D01*
X32738095Y-52807200D02*
X32690476Y-52759580D01*
X32690476Y-52759580D02*
X32642857Y-52664342D01*
X32642857Y-52664342D02*
X32642857Y-52378628D01*
X32642857Y-52378628D02*
X32690476Y-52283390D01*
X32690476Y-52283390D02*
X32738095Y-52235771D01*
X32738095Y-52235771D02*
X32833333Y-52188152D01*
X32833333Y-52188152D02*
X32976190Y-52188152D01*
X32976190Y-52188152D02*
X33071428Y-52235771D01*
X33071428Y-52235771D02*
X33119047Y-52283390D01*
X33119047Y-52283390D02*
X33166666Y-52378628D01*
X33166666Y-52378628D02*
X33166666Y-52664342D01*
X33166666Y-52664342D02*
X33119047Y-52759580D01*
X33119047Y-52759580D02*
X33071428Y-52807200D01*
X33071428Y-52807200D02*
X32976190Y-52854819D01*
X32976190Y-52854819D02*
X32833333Y-52854819D01*
X33595238Y-52188152D02*
X33595238Y-53188152D01*
X33595238Y-52235771D02*
X33690476Y-52188152D01*
X33690476Y-52188152D02*
X33880952Y-52188152D01*
X33880952Y-52188152D02*
X33976190Y-52235771D01*
X33976190Y-52235771D02*
X34023809Y-52283390D01*
X34023809Y-52283390D02*
X34071428Y-52378628D01*
X34071428Y-52378628D02*
X34071428Y-52664342D01*
X34071428Y-52664342D02*
X34023809Y-52759580D01*
X34023809Y-52759580D02*
X33976190Y-52807200D01*
X33976190Y-52807200D02*
X33880952Y-52854819D01*
X33880952Y-52854819D02*
X33690476Y-52854819D01*
X33690476Y-52854819D02*
X33595238Y-52807200D01*
X34500000Y-52854819D02*
X34500000Y-51854819D01*
X34928571Y-52854819D02*
X34928571Y-52331009D01*
X34928571Y-52331009D02*
X34880952Y-52235771D01*
X34880952Y-52235771D02*
X34785714Y-52188152D01*
X34785714Y-52188152D02*
X34642857Y-52188152D01*
X34642857Y-52188152D02*
X34547619Y-52235771D01*
X34547619Y-52235771D02*
X34500000Y-52283390D01*
X35547619Y-52854819D02*
X35452381Y-52807200D01*
X35452381Y-52807200D02*
X35404762Y-52759580D01*
X35404762Y-52759580D02*
X35357143Y-52664342D01*
X35357143Y-52664342D02*
X35357143Y-52378628D01*
X35357143Y-52378628D02*
X35404762Y-52283390D01*
X35404762Y-52283390D02*
X35452381Y-52235771D01*
X35452381Y-52235771D02*
X35547619Y-52188152D01*
X35547619Y-52188152D02*
X35690476Y-52188152D01*
X35690476Y-52188152D02*
X35785714Y-52235771D01*
X35785714Y-52235771D02*
X35833333Y-52283390D01*
X35833333Y-52283390D02*
X35880952Y-52378628D01*
X35880952Y-52378628D02*
X35880952Y-52664342D01*
X35880952Y-52664342D02*
X35833333Y-52759580D01*
X35833333Y-52759580D02*
X35785714Y-52807200D01*
X35785714Y-52807200D02*
X35690476Y-52854819D01*
X35690476Y-52854819D02*
X35547619Y-52854819D01*
X36309524Y-52188152D02*
X36309524Y-52854819D01*
X36309524Y-52283390D02*
X36357143Y-52235771D01*
X36357143Y-52235771D02*
X36452381Y-52188152D01*
X36452381Y-52188152D02*
X36595238Y-52188152D01*
X36595238Y-52188152D02*
X36690476Y-52235771D01*
X36690476Y-52235771D02*
X36738095Y-52331009D01*
X36738095Y-52331009D02*
X36738095Y-52854819D01*
X37595238Y-52807200D02*
X37500000Y-52854819D01*
X37500000Y-52854819D02*
X37309524Y-52854819D01*
X37309524Y-52854819D02*
X37214286Y-52807200D01*
X37214286Y-52807200D02*
X37166667Y-52711961D01*
X37166667Y-52711961D02*
X37166667Y-52331009D01*
X37166667Y-52331009D02*
X37214286Y-52235771D01*
X37214286Y-52235771D02*
X37309524Y-52188152D01*
X37309524Y-52188152D02*
X37500000Y-52188152D01*
X37500000Y-52188152D02*
X37595238Y-52235771D01*
X37595238Y-52235771D02*
X37642857Y-52331009D01*
X37642857Y-52331009D02*
X37642857Y-52426247D01*
X37642857Y-52426247D02*
X37166667Y-52521485D01*
X62023809Y-72854819D02*
X62023809Y-71854819D01*
X62023809Y-72235771D02*
X62119047Y-72188152D01*
X62119047Y-72188152D02*
X62309523Y-72188152D01*
X62309523Y-72188152D02*
X62404761Y-72235771D01*
X62404761Y-72235771D02*
X62452380Y-72283390D01*
X62452380Y-72283390D02*
X62499999Y-72378628D01*
X62499999Y-72378628D02*
X62499999Y-72664342D01*
X62499999Y-72664342D02*
X62452380Y-72759580D01*
X62452380Y-72759580D02*
X62404761Y-72807200D01*
X62404761Y-72807200D02*
X62309523Y-72854819D01*
X62309523Y-72854819D02*
X62119047Y-72854819D01*
X62119047Y-72854819D02*
X62023809Y-72807200D01*
X63357142Y-72854819D02*
X63357142Y-72331009D01*
X63357142Y-72331009D02*
X63309523Y-72235771D01*
X63309523Y-72235771D02*
X63214285Y-72188152D01*
X63214285Y-72188152D02*
X63023809Y-72188152D01*
X63023809Y-72188152D02*
X62928571Y-72235771D01*
X63357142Y-72807200D02*
X63261904Y-72854819D01*
X63261904Y-72854819D02*
X63023809Y-72854819D01*
X63023809Y-72854819D02*
X62928571Y-72807200D01*
X62928571Y-72807200D02*
X62880952Y-72711961D01*
X62880952Y-72711961D02*
X62880952Y-72616723D01*
X62880952Y-72616723D02*
X62928571Y-72521485D01*
X62928571Y-72521485D02*
X63023809Y-72473866D01*
X63023809Y-72473866D02*
X63261904Y-72473866D01*
X63261904Y-72473866D02*
X63357142Y-72426247D01*
X63833333Y-72854819D02*
X63833333Y-72188152D01*
X63833333Y-72378628D02*
X63880952Y-72283390D01*
X63880952Y-72283390D02*
X63928571Y-72235771D01*
X63928571Y-72235771D02*
X64023809Y-72188152D01*
X64023809Y-72188152D02*
X64119047Y-72188152D01*
X65214286Y-72188152D02*
X65214286Y-72854819D01*
X65214286Y-72283390D02*
X65261905Y-72235771D01*
X65261905Y-72235771D02*
X65357143Y-72188152D01*
X65357143Y-72188152D02*
X65500000Y-72188152D01*
X65500000Y-72188152D02*
X65595238Y-72235771D01*
X65595238Y-72235771D02*
X65642857Y-72331009D01*
X65642857Y-72331009D02*
X65642857Y-72854819D01*
X66500000Y-72807200D02*
X66404762Y-72854819D01*
X66404762Y-72854819D02*
X66214286Y-72854819D01*
X66214286Y-72854819D02*
X66119048Y-72807200D01*
X66119048Y-72807200D02*
X66071429Y-72711961D01*
X66071429Y-72711961D02*
X66071429Y-72331009D01*
X66071429Y-72331009D02*
X66119048Y-72235771D01*
X66119048Y-72235771D02*
X66214286Y-72188152D01*
X66214286Y-72188152D02*
X66404762Y-72188152D01*
X66404762Y-72188152D02*
X66500000Y-72235771D01*
X66500000Y-72235771D02*
X66547619Y-72331009D01*
X66547619Y-72331009D02*
X66547619Y-72426247D01*
X66547619Y-72426247D02*
X66071429Y-72521485D01*
X67119048Y-72854819D02*
X67023810Y-72807200D01*
X67023810Y-72807200D02*
X66976191Y-72759580D01*
X66976191Y-72759580D02*
X66928572Y-72664342D01*
X66928572Y-72664342D02*
X66928572Y-72378628D01*
X66928572Y-72378628D02*
X66976191Y-72283390D01*
X66976191Y-72283390D02*
X67023810Y-72235771D01*
X67023810Y-72235771D02*
X67119048Y-72188152D01*
X67119048Y-72188152D02*
X67261905Y-72188152D01*
X67261905Y-72188152D02*
X67357143Y-72235771D01*
X67357143Y-72235771D02*
X67404762Y-72283390D01*
X67404762Y-72283390D02*
X67452381Y-72378628D01*
X67452381Y-72378628D02*
X67452381Y-72664342D01*
X67452381Y-72664342D02*
X67404762Y-72759580D01*
X67404762Y-72759580D02*
X67357143Y-72807200D01*
X67357143Y-72807200D02*
X67261905Y-72854819D01*
X67261905Y-72854819D02*
X67119048Y-72854819D01*
X67880953Y-72188152D02*
X67880953Y-73188152D01*
X67880953Y-72235771D02*
X67976191Y-72188152D01*
X67976191Y-72188152D02*
X68166667Y-72188152D01*
X68166667Y-72188152D02*
X68261905Y-72235771D01*
X68261905Y-72235771D02*
X68309524Y-72283390D01*
X68309524Y-72283390D02*
X68357143Y-72378628D01*
X68357143Y-72378628D02*
X68357143Y-72664342D01*
X68357143Y-72664342D02*
X68309524Y-72759580D01*
X68309524Y-72759580D02*
X68261905Y-72807200D01*
X68261905Y-72807200D02*
X68166667Y-72854819D01*
X68166667Y-72854819D02*
X67976191Y-72854819D01*
X67976191Y-72854819D02*
X67880953Y-72807200D01*
X68785715Y-72854819D02*
X68785715Y-72188152D01*
X68785715Y-71854819D02*
X68738096Y-71902438D01*
X68738096Y-71902438D02*
X68785715Y-71950057D01*
X68785715Y-71950057D02*
X68833334Y-71902438D01*
X68833334Y-71902438D02*
X68785715Y-71854819D01*
X68785715Y-71854819D02*
X68785715Y-71950057D01*
X69166667Y-72854819D02*
X69690476Y-72188152D01*
X69166667Y-72188152D02*
X69690476Y-72854819D01*
X70452381Y-72807200D02*
X70357143Y-72854819D01*
X70357143Y-72854819D02*
X70166667Y-72854819D01*
X70166667Y-72854819D02*
X70071429Y-72807200D01*
X70071429Y-72807200D02*
X70023810Y-72711961D01*
X70023810Y-72711961D02*
X70023810Y-72331009D01*
X70023810Y-72331009D02*
X70071429Y-72235771D01*
X70071429Y-72235771D02*
X70166667Y-72188152D01*
X70166667Y-72188152D02*
X70357143Y-72188152D01*
X70357143Y-72188152D02*
X70452381Y-72235771D01*
X70452381Y-72235771D02*
X70500000Y-72331009D01*
X70500000Y-72331009D02*
X70500000Y-72426247D01*
X70500000Y-72426247D02*
X70023810Y-72521485D01*
X71071429Y-72854819D02*
X70976191Y-72807200D01*
X70976191Y-72807200D02*
X70928572Y-72711961D01*
X70928572Y-72711961D02*
X70928572Y-71854819D01*
X29190475Y-82188152D02*
X29190475Y-83188152D01*
X29190475Y-82235771D02*
X29285713Y-82188152D01*
X29285713Y-82188152D02*
X29476189Y-82188152D01*
X29476189Y-82188152D02*
X29571427Y-82235771D01*
X29571427Y-82235771D02*
X29619046Y-82283390D01*
X29619046Y-82283390D02*
X29666665Y-82378628D01*
X29666665Y-82378628D02*
X29666665Y-82664342D01*
X29666665Y-82664342D02*
X29619046Y-82759580D01*
X29619046Y-82759580D02*
X29571427Y-82807200D01*
X29571427Y-82807200D02*
X29476189Y-82854819D01*
X29476189Y-82854819D02*
X29285713Y-82854819D01*
X29285713Y-82854819D02*
X29190475Y-82807200D01*
X30095237Y-82854819D02*
X30095237Y-81854819D01*
X30523808Y-82854819D02*
X30523808Y-82331009D01*
X30523808Y-82331009D02*
X30476189Y-82235771D01*
X30476189Y-82235771D02*
X30380951Y-82188152D01*
X30380951Y-82188152D02*
X30238094Y-82188152D01*
X30238094Y-82188152D02*
X30142856Y-82235771D01*
X30142856Y-82235771D02*
X30095237Y-82283390D01*
X31142856Y-82854819D02*
X31047618Y-82807200D01*
X31047618Y-82807200D02*
X30999999Y-82759580D01*
X30999999Y-82759580D02*
X30952380Y-82664342D01*
X30952380Y-82664342D02*
X30952380Y-82378628D01*
X30952380Y-82378628D02*
X30999999Y-82283390D01*
X30999999Y-82283390D02*
X31047618Y-82235771D01*
X31047618Y-82235771D02*
X31142856Y-82188152D01*
X31142856Y-82188152D02*
X31285713Y-82188152D01*
X31285713Y-82188152D02*
X31380951Y-82235771D01*
X31380951Y-82235771D02*
X31428570Y-82283390D01*
X31428570Y-82283390D02*
X31476189Y-82378628D01*
X31476189Y-82378628D02*
X31476189Y-82664342D01*
X31476189Y-82664342D02*
X31428570Y-82759580D01*
X31428570Y-82759580D02*
X31380951Y-82807200D01*
X31380951Y-82807200D02*
X31285713Y-82854819D01*
X31285713Y-82854819D02*
X31142856Y-82854819D01*
X31761904Y-82188152D02*
X32142856Y-82188152D01*
X31904761Y-81854819D02*
X31904761Y-82711961D01*
X31904761Y-82711961D02*
X31952380Y-82807200D01*
X31952380Y-82807200D02*
X32047618Y-82854819D01*
X32047618Y-82854819D02*
X32142856Y-82854819D01*
X32619047Y-82854819D02*
X32523809Y-82807200D01*
X32523809Y-82807200D02*
X32476190Y-82759580D01*
X32476190Y-82759580D02*
X32428571Y-82664342D01*
X32428571Y-82664342D02*
X32428571Y-82378628D01*
X32428571Y-82378628D02*
X32476190Y-82283390D01*
X32476190Y-82283390D02*
X32523809Y-82235771D01*
X32523809Y-82235771D02*
X32619047Y-82188152D01*
X32619047Y-82188152D02*
X32761904Y-82188152D01*
X32761904Y-82188152D02*
X32857142Y-82235771D01*
X32857142Y-82235771D02*
X32904761Y-82283390D01*
X32904761Y-82283390D02*
X32952380Y-82378628D01*
X32952380Y-82378628D02*
X32952380Y-82664342D01*
X32952380Y-82664342D02*
X32904761Y-82759580D01*
X32904761Y-82759580D02*
X32857142Y-82807200D01*
X32857142Y-82807200D02*
X32761904Y-82854819D01*
X32761904Y-82854819D02*
X32619047Y-82854819D01*
X33333333Y-82807200D02*
X33428571Y-82854819D01*
X33428571Y-82854819D02*
X33619047Y-82854819D01*
X33619047Y-82854819D02*
X33714285Y-82807200D01*
X33714285Y-82807200D02*
X33761904Y-82711961D01*
X33761904Y-82711961D02*
X33761904Y-82664342D01*
X33761904Y-82664342D02*
X33714285Y-82569104D01*
X33714285Y-82569104D02*
X33619047Y-82521485D01*
X33619047Y-82521485D02*
X33476190Y-82521485D01*
X33476190Y-82521485D02*
X33380952Y-82473866D01*
X33380952Y-82473866D02*
X33333333Y-82378628D01*
X33333333Y-82378628D02*
X33333333Y-82331009D01*
X33333333Y-82331009D02*
X33380952Y-82235771D01*
X33380952Y-82235771D02*
X33476190Y-82188152D01*
X33476190Y-82188152D02*
X33619047Y-82188152D01*
X33619047Y-82188152D02*
X33714285Y-82235771D01*
X34571428Y-82807200D02*
X34476190Y-82854819D01*
X34476190Y-82854819D02*
X34285714Y-82854819D01*
X34285714Y-82854819D02*
X34190476Y-82807200D01*
X34190476Y-82807200D02*
X34142857Y-82711961D01*
X34142857Y-82711961D02*
X34142857Y-82331009D01*
X34142857Y-82331009D02*
X34190476Y-82235771D01*
X34190476Y-82235771D02*
X34285714Y-82188152D01*
X34285714Y-82188152D02*
X34476190Y-82188152D01*
X34476190Y-82188152D02*
X34571428Y-82235771D01*
X34571428Y-82235771D02*
X34619047Y-82331009D01*
X34619047Y-82331009D02*
X34619047Y-82426247D01*
X34619047Y-82426247D02*
X34142857Y-82521485D01*
X35047619Y-82188152D02*
X35047619Y-82854819D01*
X35047619Y-82283390D02*
X35095238Y-82235771D01*
X35095238Y-82235771D02*
X35190476Y-82188152D01*
X35190476Y-82188152D02*
X35333333Y-82188152D01*
X35333333Y-82188152D02*
X35428571Y-82235771D01*
X35428571Y-82235771D02*
X35476190Y-82331009D01*
X35476190Y-82331009D02*
X35476190Y-82854819D01*
X35904762Y-82807200D02*
X36000000Y-82854819D01*
X36000000Y-82854819D02*
X36190476Y-82854819D01*
X36190476Y-82854819D02*
X36285714Y-82807200D01*
X36285714Y-82807200D02*
X36333333Y-82711961D01*
X36333333Y-82711961D02*
X36333333Y-82664342D01*
X36333333Y-82664342D02*
X36285714Y-82569104D01*
X36285714Y-82569104D02*
X36190476Y-82521485D01*
X36190476Y-82521485D02*
X36047619Y-82521485D01*
X36047619Y-82521485D02*
X35952381Y-82473866D01*
X35952381Y-82473866D02*
X35904762Y-82378628D01*
X35904762Y-82378628D02*
X35904762Y-82331009D01*
X35904762Y-82331009D02*
X35952381Y-82235771D01*
X35952381Y-82235771D02*
X36047619Y-82188152D01*
X36047619Y-82188152D02*
X36190476Y-82188152D01*
X36190476Y-82188152D02*
X36285714Y-82235771D01*
X36904762Y-82854819D02*
X36809524Y-82807200D01*
X36809524Y-82807200D02*
X36761905Y-82759580D01*
X36761905Y-82759580D02*
X36714286Y-82664342D01*
X36714286Y-82664342D02*
X36714286Y-82378628D01*
X36714286Y-82378628D02*
X36761905Y-82283390D01*
X36761905Y-82283390D02*
X36809524Y-82235771D01*
X36809524Y-82235771D02*
X36904762Y-82188152D01*
X36904762Y-82188152D02*
X37047619Y-82188152D01*
X37047619Y-82188152D02*
X37142857Y-82235771D01*
X37142857Y-82235771D02*
X37190476Y-82283390D01*
X37190476Y-82283390D02*
X37238095Y-82378628D01*
X37238095Y-82378628D02*
X37238095Y-82664342D01*
X37238095Y-82664342D02*
X37190476Y-82759580D01*
X37190476Y-82759580D02*
X37142857Y-82807200D01*
X37142857Y-82807200D02*
X37047619Y-82854819D01*
X37047619Y-82854819D02*
X36904762Y-82854819D01*
X37666667Y-82854819D02*
X37666667Y-82188152D01*
X37666667Y-82378628D02*
X37714286Y-82283390D01*
X37714286Y-82283390D02*
X37761905Y-82235771D01*
X37761905Y-82235771D02*
X37857143Y-82188152D01*
X37857143Y-82188152D02*
X37952381Y-82188152D01*
X49666666Y-37094819D02*
X49666666Y-37809104D01*
X49666666Y-37809104D02*
X49619047Y-37951961D01*
X49619047Y-37951961D02*
X49523809Y-38047200D01*
X49523809Y-38047200D02*
X49380952Y-38094819D01*
X49380952Y-38094819D02*
X49285714Y-38094819D01*
X50047619Y-37094819D02*
X50714285Y-37094819D01*
X50714285Y-37094819D02*
X50285714Y-38094819D01*
X29190475Y-92188152D02*
X29190475Y-93188152D01*
X29190475Y-92235771D02*
X29285713Y-92188152D01*
X29285713Y-92188152D02*
X29476189Y-92188152D01*
X29476189Y-92188152D02*
X29571427Y-92235771D01*
X29571427Y-92235771D02*
X29619046Y-92283390D01*
X29619046Y-92283390D02*
X29666665Y-92378628D01*
X29666665Y-92378628D02*
X29666665Y-92664342D01*
X29666665Y-92664342D02*
X29619046Y-92759580D01*
X29619046Y-92759580D02*
X29571427Y-92807200D01*
X29571427Y-92807200D02*
X29476189Y-92854819D01*
X29476189Y-92854819D02*
X29285713Y-92854819D01*
X29285713Y-92854819D02*
X29190475Y-92807200D01*
X30095237Y-92854819D02*
X30095237Y-91854819D01*
X30523808Y-92854819D02*
X30523808Y-92331009D01*
X30523808Y-92331009D02*
X30476189Y-92235771D01*
X30476189Y-92235771D02*
X30380951Y-92188152D01*
X30380951Y-92188152D02*
X30238094Y-92188152D01*
X30238094Y-92188152D02*
X30142856Y-92235771D01*
X30142856Y-92235771D02*
X30095237Y-92283390D01*
X31142856Y-92854819D02*
X31047618Y-92807200D01*
X31047618Y-92807200D02*
X30999999Y-92759580D01*
X30999999Y-92759580D02*
X30952380Y-92664342D01*
X30952380Y-92664342D02*
X30952380Y-92378628D01*
X30952380Y-92378628D02*
X30999999Y-92283390D01*
X30999999Y-92283390D02*
X31047618Y-92235771D01*
X31047618Y-92235771D02*
X31142856Y-92188152D01*
X31142856Y-92188152D02*
X31285713Y-92188152D01*
X31285713Y-92188152D02*
X31380951Y-92235771D01*
X31380951Y-92235771D02*
X31428570Y-92283390D01*
X31428570Y-92283390D02*
X31476189Y-92378628D01*
X31476189Y-92378628D02*
X31476189Y-92664342D01*
X31476189Y-92664342D02*
X31428570Y-92759580D01*
X31428570Y-92759580D02*
X31380951Y-92807200D01*
X31380951Y-92807200D02*
X31285713Y-92854819D01*
X31285713Y-92854819D02*
X31142856Y-92854819D01*
X31761904Y-92188152D02*
X32142856Y-92188152D01*
X31904761Y-91854819D02*
X31904761Y-92711961D01*
X31904761Y-92711961D02*
X31952380Y-92807200D01*
X31952380Y-92807200D02*
X32047618Y-92854819D01*
X32047618Y-92854819D02*
X32142856Y-92854819D01*
X32619047Y-92854819D02*
X32523809Y-92807200D01*
X32523809Y-92807200D02*
X32476190Y-92759580D01*
X32476190Y-92759580D02*
X32428571Y-92664342D01*
X32428571Y-92664342D02*
X32428571Y-92378628D01*
X32428571Y-92378628D02*
X32476190Y-92283390D01*
X32476190Y-92283390D02*
X32523809Y-92235771D01*
X32523809Y-92235771D02*
X32619047Y-92188152D01*
X32619047Y-92188152D02*
X32761904Y-92188152D01*
X32761904Y-92188152D02*
X32857142Y-92235771D01*
X32857142Y-92235771D02*
X32904761Y-92283390D01*
X32904761Y-92283390D02*
X32952380Y-92378628D01*
X32952380Y-92378628D02*
X32952380Y-92664342D01*
X32952380Y-92664342D02*
X32904761Y-92759580D01*
X32904761Y-92759580D02*
X32857142Y-92807200D01*
X32857142Y-92807200D02*
X32761904Y-92854819D01*
X32761904Y-92854819D02*
X32619047Y-92854819D01*
X33333333Y-92807200D02*
X33428571Y-92854819D01*
X33428571Y-92854819D02*
X33619047Y-92854819D01*
X33619047Y-92854819D02*
X33714285Y-92807200D01*
X33714285Y-92807200D02*
X33761904Y-92711961D01*
X33761904Y-92711961D02*
X33761904Y-92664342D01*
X33761904Y-92664342D02*
X33714285Y-92569104D01*
X33714285Y-92569104D02*
X33619047Y-92521485D01*
X33619047Y-92521485D02*
X33476190Y-92521485D01*
X33476190Y-92521485D02*
X33380952Y-92473866D01*
X33380952Y-92473866D02*
X33333333Y-92378628D01*
X33333333Y-92378628D02*
X33333333Y-92331009D01*
X33333333Y-92331009D02*
X33380952Y-92235771D01*
X33380952Y-92235771D02*
X33476190Y-92188152D01*
X33476190Y-92188152D02*
X33619047Y-92188152D01*
X33619047Y-92188152D02*
X33714285Y-92235771D01*
X34571428Y-92807200D02*
X34476190Y-92854819D01*
X34476190Y-92854819D02*
X34285714Y-92854819D01*
X34285714Y-92854819D02*
X34190476Y-92807200D01*
X34190476Y-92807200D02*
X34142857Y-92711961D01*
X34142857Y-92711961D02*
X34142857Y-92331009D01*
X34142857Y-92331009D02*
X34190476Y-92235771D01*
X34190476Y-92235771D02*
X34285714Y-92188152D01*
X34285714Y-92188152D02*
X34476190Y-92188152D01*
X34476190Y-92188152D02*
X34571428Y-92235771D01*
X34571428Y-92235771D02*
X34619047Y-92331009D01*
X34619047Y-92331009D02*
X34619047Y-92426247D01*
X34619047Y-92426247D02*
X34142857Y-92521485D01*
X35047619Y-92188152D02*
X35047619Y-92854819D01*
X35047619Y-92283390D02*
X35095238Y-92235771D01*
X35095238Y-92235771D02*
X35190476Y-92188152D01*
X35190476Y-92188152D02*
X35333333Y-92188152D01*
X35333333Y-92188152D02*
X35428571Y-92235771D01*
X35428571Y-92235771D02*
X35476190Y-92331009D01*
X35476190Y-92331009D02*
X35476190Y-92854819D01*
X35904762Y-92807200D02*
X36000000Y-92854819D01*
X36000000Y-92854819D02*
X36190476Y-92854819D01*
X36190476Y-92854819D02*
X36285714Y-92807200D01*
X36285714Y-92807200D02*
X36333333Y-92711961D01*
X36333333Y-92711961D02*
X36333333Y-92664342D01*
X36333333Y-92664342D02*
X36285714Y-92569104D01*
X36285714Y-92569104D02*
X36190476Y-92521485D01*
X36190476Y-92521485D02*
X36047619Y-92521485D01*
X36047619Y-92521485D02*
X35952381Y-92473866D01*
X35952381Y-92473866D02*
X35904762Y-92378628D01*
X35904762Y-92378628D02*
X35904762Y-92331009D01*
X35904762Y-92331009D02*
X35952381Y-92235771D01*
X35952381Y-92235771D02*
X36047619Y-92188152D01*
X36047619Y-92188152D02*
X36190476Y-92188152D01*
X36190476Y-92188152D02*
X36285714Y-92235771D01*
X36904762Y-92854819D02*
X36809524Y-92807200D01*
X36809524Y-92807200D02*
X36761905Y-92759580D01*
X36761905Y-92759580D02*
X36714286Y-92664342D01*
X36714286Y-92664342D02*
X36714286Y-92378628D01*
X36714286Y-92378628D02*
X36761905Y-92283390D01*
X36761905Y-92283390D02*
X36809524Y-92235771D01*
X36809524Y-92235771D02*
X36904762Y-92188152D01*
X36904762Y-92188152D02*
X37047619Y-92188152D01*
X37047619Y-92188152D02*
X37142857Y-92235771D01*
X37142857Y-92235771D02*
X37190476Y-92283390D01*
X37190476Y-92283390D02*
X37238095Y-92378628D01*
X37238095Y-92378628D02*
X37238095Y-92664342D01*
X37238095Y-92664342D02*
X37190476Y-92759580D01*
X37190476Y-92759580D02*
X37142857Y-92807200D01*
X37142857Y-92807200D02*
X37047619Y-92854819D01*
X37047619Y-92854819D02*
X36904762Y-92854819D01*
X37666667Y-92854819D02*
X37666667Y-92188152D01*
X37666667Y-92378628D02*
X37714286Y-92283390D01*
X37714286Y-92283390D02*
X37761905Y-92235771D01*
X37761905Y-92235771D02*
X37857143Y-92188152D01*
X37857143Y-92188152D02*
X37952381Y-92188152D01*
X63380951Y-92854819D02*
X63380951Y-91854819D01*
X63380951Y-92807200D02*
X63285713Y-92854819D01*
X63285713Y-92854819D02*
X63095237Y-92854819D01*
X63095237Y-92854819D02*
X62999999Y-92807200D01*
X62999999Y-92807200D02*
X62952380Y-92759580D01*
X62952380Y-92759580D02*
X62904761Y-92664342D01*
X62904761Y-92664342D02*
X62904761Y-92378628D01*
X62904761Y-92378628D02*
X62952380Y-92283390D01*
X62952380Y-92283390D02*
X62999999Y-92235771D01*
X62999999Y-92235771D02*
X63095237Y-92188152D01*
X63095237Y-92188152D02*
X63285713Y-92188152D01*
X63285713Y-92188152D02*
X63380951Y-92235771D01*
X63761904Y-92854819D02*
X64285713Y-92188152D01*
X63761904Y-92188152D02*
X64285713Y-92854819D01*
X64809523Y-92854819D02*
X64714285Y-92807200D01*
X64714285Y-92807200D02*
X64666666Y-92711961D01*
X64666666Y-92711961D02*
X64666666Y-91854819D01*
X65952381Y-92854819D02*
X65952381Y-92188152D01*
X65952381Y-92283390D02*
X66000000Y-92235771D01*
X66000000Y-92235771D02*
X66095238Y-92188152D01*
X66095238Y-92188152D02*
X66238095Y-92188152D01*
X66238095Y-92188152D02*
X66333333Y-92235771D01*
X66333333Y-92235771D02*
X66380952Y-92331009D01*
X66380952Y-92331009D02*
X66380952Y-92854819D01*
X66380952Y-92331009D02*
X66428571Y-92235771D01*
X66428571Y-92235771D02*
X66523809Y-92188152D01*
X66523809Y-92188152D02*
X66666666Y-92188152D01*
X66666666Y-92188152D02*
X66761905Y-92235771D01*
X66761905Y-92235771D02*
X66809524Y-92331009D01*
X66809524Y-92331009D02*
X66809524Y-92854819D01*
X67285714Y-92854819D02*
X67285714Y-92188152D01*
X67285714Y-91854819D02*
X67238095Y-91902438D01*
X67238095Y-91902438D02*
X67285714Y-91950057D01*
X67285714Y-91950057D02*
X67333333Y-91902438D01*
X67333333Y-91902438D02*
X67285714Y-91854819D01*
X67285714Y-91854819D02*
X67285714Y-91950057D01*
X67761904Y-92854819D02*
X67761904Y-92188152D01*
X67761904Y-92378628D02*
X67809523Y-92283390D01*
X67809523Y-92283390D02*
X67857142Y-92235771D01*
X67857142Y-92235771D02*
X67952380Y-92188152D01*
X67952380Y-92188152D02*
X68047618Y-92188152D01*
X68380952Y-92854819D02*
X68380952Y-92188152D01*
X68380952Y-92378628D02*
X68428571Y-92283390D01*
X68428571Y-92283390D02*
X68476190Y-92235771D01*
X68476190Y-92235771D02*
X68571428Y-92188152D01*
X68571428Y-92188152D02*
X68666666Y-92188152D01*
X69142857Y-92854819D02*
X69047619Y-92807200D01*
X69047619Y-92807200D02*
X69000000Y-92759580D01*
X69000000Y-92759580D02*
X68952381Y-92664342D01*
X68952381Y-92664342D02*
X68952381Y-92378628D01*
X68952381Y-92378628D02*
X69000000Y-92283390D01*
X69000000Y-92283390D02*
X69047619Y-92235771D01*
X69047619Y-92235771D02*
X69142857Y-92188152D01*
X69142857Y-92188152D02*
X69285714Y-92188152D01*
X69285714Y-92188152D02*
X69380952Y-92235771D01*
X69380952Y-92235771D02*
X69428571Y-92283390D01*
X69428571Y-92283390D02*
X69476190Y-92378628D01*
X69476190Y-92378628D02*
X69476190Y-92664342D01*
X69476190Y-92664342D02*
X69428571Y-92759580D01*
X69428571Y-92759580D02*
X69380952Y-92807200D01*
X69380952Y-92807200D02*
X69285714Y-92854819D01*
X69285714Y-92854819D02*
X69142857Y-92854819D01*
X69904762Y-92854819D02*
X69904762Y-92188152D01*
X69904762Y-92378628D02*
X69952381Y-92283390D01*
X69952381Y-92283390D02*
X70000000Y-92235771D01*
X70000000Y-92235771D02*
X70095238Y-92188152D01*
X70095238Y-92188152D02*
X70190476Y-92188152D01*
X64988095Y-53407200D02*
X65130952Y-53454819D01*
X65130952Y-53454819D02*
X65369047Y-53454819D01*
X65369047Y-53454819D02*
X65464285Y-53407200D01*
X65464285Y-53407200D02*
X65511904Y-53359580D01*
X65511904Y-53359580D02*
X65559523Y-53264342D01*
X65559523Y-53264342D02*
X65559523Y-53169104D01*
X65559523Y-53169104D02*
X65511904Y-53073866D01*
X65511904Y-53073866D02*
X65464285Y-53026247D01*
X65464285Y-53026247D02*
X65369047Y-52978628D01*
X65369047Y-52978628D02*
X65178571Y-52931009D01*
X65178571Y-52931009D02*
X65083333Y-52883390D01*
X65083333Y-52883390D02*
X65035714Y-52835771D01*
X65035714Y-52835771D02*
X64988095Y-52740533D01*
X64988095Y-52740533D02*
X64988095Y-52645295D01*
X64988095Y-52645295D02*
X65035714Y-52550057D01*
X65035714Y-52550057D02*
X65083333Y-52502438D01*
X65083333Y-52502438D02*
X65178571Y-52454819D01*
X65178571Y-52454819D02*
X65416666Y-52454819D01*
X65416666Y-52454819D02*
X65559523Y-52502438D01*
X65988095Y-52788152D02*
X65988095Y-53788152D01*
X65988095Y-52835771D02*
X66083333Y-52788152D01*
X66083333Y-52788152D02*
X66273809Y-52788152D01*
X66273809Y-52788152D02*
X66369047Y-52835771D01*
X66369047Y-52835771D02*
X66416666Y-52883390D01*
X66416666Y-52883390D02*
X66464285Y-52978628D01*
X66464285Y-52978628D02*
X66464285Y-53264342D01*
X66464285Y-53264342D02*
X66416666Y-53359580D01*
X66416666Y-53359580D02*
X66369047Y-53407200D01*
X66369047Y-53407200D02*
X66273809Y-53454819D01*
X66273809Y-53454819D02*
X66083333Y-53454819D01*
X66083333Y-53454819D02*
X65988095Y-53407200D01*
X67273809Y-53407200D02*
X67178571Y-53454819D01*
X67178571Y-53454819D02*
X66988095Y-53454819D01*
X66988095Y-53454819D02*
X66892857Y-53407200D01*
X66892857Y-53407200D02*
X66845238Y-53311961D01*
X66845238Y-53311961D02*
X66845238Y-52931009D01*
X66845238Y-52931009D02*
X66892857Y-52835771D01*
X66892857Y-52835771D02*
X66988095Y-52788152D01*
X66988095Y-52788152D02*
X67178571Y-52788152D01*
X67178571Y-52788152D02*
X67273809Y-52835771D01*
X67273809Y-52835771D02*
X67321428Y-52931009D01*
X67321428Y-52931009D02*
X67321428Y-53026247D01*
X67321428Y-53026247D02*
X66845238Y-53121485D01*
X68178571Y-53454819D02*
X68178571Y-52931009D01*
X68178571Y-52931009D02*
X68130952Y-52835771D01*
X68130952Y-52835771D02*
X68035714Y-52788152D01*
X68035714Y-52788152D02*
X67845238Y-52788152D01*
X67845238Y-52788152D02*
X67750000Y-52835771D01*
X68178571Y-53407200D02*
X68083333Y-53454819D01*
X68083333Y-53454819D02*
X67845238Y-53454819D01*
X67845238Y-53454819D02*
X67750000Y-53407200D01*
X67750000Y-53407200D02*
X67702381Y-53311961D01*
X67702381Y-53311961D02*
X67702381Y-53216723D01*
X67702381Y-53216723D02*
X67750000Y-53121485D01*
X67750000Y-53121485D02*
X67845238Y-53073866D01*
X67845238Y-53073866D02*
X68083333Y-53073866D01*
X68083333Y-53073866D02*
X68178571Y-53026247D01*
X68654762Y-53454819D02*
X68654762Y-52454819D01*
X68750000Y-53073866D02*
X69035714Y-53454819D01*
X69035714Y-52788152D02*
X68654762Y-53169104D01*
X69845238Y-53407200D02*
X69750000Y-53454819D01*
X69750000Y-53454819D02*
X69559524Y-53454819D01*
X69559524Y-53454819D02*
X69464286Y-53407200D01*
X69464286Y-53407200D02*
X69416667Y-53311961D01*
X69416667Y-53311961D02*
X69416667Y-52931009D01*
X69416667Y-52931009D02*
X69464286Y-52835771D01*
X69464286Y-52835771D02*
X69559524Y-52788152D01*
X69559524Y-52788152D02*
X69750000Y-52788152D01*
X69750000Y-52788152D02*
X69845238Y-52835771D01*
X69845238Y-52835771D02*
X69892857Y-52931009D01*
X69892857Y-52931009D02*
X69892857Y-53026247D01*
X69892857Y-53026247D02*
X69416667Y-53121485D01*
X70321429Y-53454819D02*
X70321429Y-52788152D01*
X70321429Y-52978628D02*
X70369048Y-52883390D01*
X70369048Y-52883390D02*
X70416667Y-52835771D01*
X70416667Y-52835771D02*
X70511905Y-52788152D01*
X70511905Y-52788152D02*
X70607143Y-52788152D01*
X64273809Y-63407200D02*
X64416666Y-63454819D01*
X64416666Y-63454819D02*
X64654761Y-63454819D01*
X64654761Y-63454819D02*
X64749999Y-63407200D01*
X64749999Y-63407200D02*
X64797618Y-63359580D01*
X64797618Y-63359580D02*
X64845237Y-63264342D01*
X64845237Y-63264342D02*
X64845237Y-63169104D01*
X64845237Y-63169104D02*
X64797618Y-63073866D01*
X64797618Y-63073866D02*
X64749999Y-63026247D01*
X64749999Y-63026247D02*
X64654761Y-62978628D01*
X64654761Y-62978628D02*
X64464285Y-62931009D01*
X64464285Y-62931009D02*
X64369047Y-62883390D01*
X64369047Y-62883390D02*
X64321428Y-62835771D01*
X64321428Y-62835771D02*
X64273809Y-62740533D01*
X64273809Y-62740533D02*
X64273809Y-62645295D01*
X64273809Y-62645295D02*
X64321428Y-62550057D01*
X64321428Y-62550057D02*
X64369047Y-62502438D01*
X64369047Y-62502438D02*
X64464285Y-62454819D01*
X64464285Y-62454819D02*
X64702380Y-62454819D01*
X64702380Y-62454819D02*
X64845237Y-62502438D01*
X65130952Y-62788152D02*
X65511904Y-62788152D01*
X65273809Y-62454819D02*
X65273809Y-63311961D01*
X65273809Y-63311961D02*
X65321428Y-63407200D01*
X65321428Y-63407200D02*
X65416666Y-63454819D01*
X65416666Y-63454819D02*
X65511904Y-63454819D01*
X66273809Y-63454819D02*
X66273809Y-62931009D01*
X66273809Y-62931009D02*
X66226190Y-62835771D01*
X66226190Y-62835771D02*
X66130952Y-62788152D01*
X66130952Y-62788152D02*
X65940476Y-62788152D01*
X65940476Y-62788152D02*
X65845238Y-62835771D01*
X66273809Y-63407200D02*
X66178571Y-63454819D01*
X66178571Y-63454819D02*
X65940476Y-63454819D01*
X65940476Y-63454819D02*
X65845238Y-63407200D01*
X65845238Y-63407200D02*
X65797619Y-63311961D01*
X65797619Y-63311961D02*
X65797619Y-63216723D01*
X65797619Y-63216723D02*
X65845238Y-63121485D01*
X65845238Y-63121485D02*
X65940476Y-63073866D01*
X65940476Y-63073866D02*
X66178571Y-63073866D01*
X66178571Y-63073866D02*
X66273809Y-63026247D01*
X66607143Y-62788152D02*
X66988095Y-62788152D01*
X66750000Y-62454819D02*
X66750000Y-63311961D01*
X66750000Y-63311961D02*
X66797619Y-63407200D01*
X66797619Y-63407200D02*
X66892857Y-63454819D01*
X66892857Y-63454819D02*
X66988095Y-63454819D01*
X67702381Y-63407200D02*
X67607143Y-63454819D01*
X67607143Y-63454819D02*
X67416667Y-63454819D01*
X67416667Y-63454819D02*
X67321429Y-63407200D01*
X67321429Y-63407200D02*
X67273810Y-63311961D01*
X67273810Y-63311961D02*
X67273810Y-62931009D01*
X67273810Y-62931009D02*
X67321429Y-62835771D01*
X67321429Y-62835771D02*
X67416667Y-62788152D01*
X67416667Y-62788152D02*
X67607143Y-62788152D01*
X67607143Y-62788152D02*
X67702381Y-62835771D01*
X67702381Y-62835771D02*
X67750000Y-62931009D01*
X67750000Y-62931009D02*
X67750000Y-63026247D01*
X67750000Y-63026247D02*
X67273810Y-63121485D01*
X69416667Y-63454819D02*
X68940477Y-63454819D01*
X68940477Y-63454819D02*
X68940477Y-62454819D01*
X69750001Y-62931009D02*
X70083334Y-62931009D01*
X70226191Y-63454819D02*
X69750001Y-63454819D01*
X69750001Y-63454819D02*
X69750001Y-62454819D01*
X69750001Y-62454819D02*
X70226191Y-62454819D01*
X70654763Y-63454819D02*
X70654763Y-62454819D01*
X70654763Y-62454819D02*
X70892858Y-62454819D01*
X70892858Y-62454819D02*
X71035715Y-62502438D01*
X71035715Y-62502438D02*
X71130953Y-62597676D01*
X71130953Y-62597676D02*
X71178572Y-62692914D01*
X71178572Y-62692914D02*
X71226191Y-62883390D01*
X71226191Y-62883390D02*
X71226191Y-63026247D01*
X71226191Y-63026247D02*
X71178572Y-63216723D01*
X71178572Y-63216723D02*
X71130953Y-63311961D01*
X71130953Y-63311961D02*
X71035715Y-63407200D01*
X71035715Y-63407200D02*
X70892858Y-63454819D01*
X70892858Y-63454819D02*
X70654763Y-63454819D01*
X29190475Y-72188152D02*
X29190475Y-73188152D01*
X29190475Y-72235771D02*
X29285713Y-72188152D01*
X29285713Y-72188152D02*
X29476189Y-72188152D01*
X29476189Y-72188152D02*
X29571427Y-72235771D01*
X29571427Y-72235771D02*
X29619046Y-72283390D01*
X29619046Y-72283390D02*
X29666665Y-72378628D01*
X29666665Y-72378628D02*
X29666665Y-72664342D01*
X29666665Y-72664342D02*
X29619046Y-72759580D01*
X29619046Y-72759580D02*
X29571427Y-72807200D01*
X29571427Y-72807200D02*
X29476189Y-72854819D01*
X29476189Y-72854819D02*
X29285713Y-72854819D01*
X29285713Y-72854819D02*
X29190475Y-72807200D01*
X30095237Y-72854819D02*
X30095237Y-71854819D01*
X30523808Y-72854819D02*
X30523808Y-72331009D01*
X30523808Y-72331009D02*
X30476189Y-72235771D01*
X30476189Y-72235771D02*
X30380951Y-72188152D01*
X30380951Y-72188152D02*
X30238094Y-72188152D01*
X30238094Y-72188152D02*
X30142856Y-72235771D01*
X30142856Y-72235771D02*
X30095237Y-72283390D01*
X31142856Y-72854819D02*
X31047618Y-72807200D01*
X31047618Y-72807200D02*
X30999999Y-72759580D01*
X30999999Y-72759580D02*
X30952380Y-72664342D01*
X30952380Y-72664342D02*
X30952380Y-72378628D01*
X30952380Y-72378628D02*
X30999999Y-72283390D01*
X30999999Y-72283390D02*
X31047618Y-72235771D01*
X31047618Y-72235771D02*
X31142856Y-72188152D01*
X31142856Y-72188152D02*
X31285713Y-72188152D01*
X31285713Y-72188152D02*
X31380951Y-72235771D01*
X31380951Y-72235771D02*
X31428570Y-72283390D01*
X31428570Y-72283390D02*
X31476189Y-72378628D01*
X31476189Y-72378628D02*
X31476189Y-72664342D01*
X31476189Y-72664342D02*
X31428570Y-72759580D01*
X31428570Y-72759580D02*
X31380951Y-72807200D01*
X31380951Y-72807200D02*
X31285713Y-72854819D01*
X31285713Y-72854819D02*
X31142856Y-72854819D01*
X31761904Y-72188152D02*
X32142856Y-72188152D01*
X31904761Y-71854819D02*
X31904761Y-72711961D01*
X31904761Y-72711961D02*
X31952380Y-72807200D01*
X31952380Y-72807200D02*
X32047618Y-72854819D01*
X32047618Y-72854819D02*
X32142856Y-72854819D01*
X32619047Y-72854819D02*
X32523809Y-72807200D01*
X32523809Y-72807200D02*
X32476190Y-72759580D01*
X32476190Y-72759580D02*
X32428571Y-72664342D01*
X32428571Y-72664342D02*
X32428571Y-72378628D01*
X32428571Y-72378628D02*
X32476190Y-72283390D01*
X32476190Y-72283390D02*
X32523809Y-72235771D01*
X32523809Y-72235771D02*
X32619047Y-72188152D01*
X32619047Y-72188152D02*
X32761904Y-72188152D01*
X32761904Y-72188152D02*
X32857142Y-72235771D01*
X32857142Y-72235771D02*
X32904761Y-72283390D01*
X32904761Y-72283390D02*
X32952380Y-72378628D01*
X32952380Y-72378628D02*
X32952380Y-72664342D01*
X32952380Y-72664342D02*
X32904761Y-72759580D01*
X32904761Y-72759580D02*
X32857142Y-72807200D01*
X32857142Y-72807200D02*
X32761904Y-72854819D01*
X32761904Y-72854819D02*
X32619047Y-72854819D01*
X33333333Y-72807200D02*
X33428571Y-72854819D01*
X33428571Y-72854819D02*
X33619047Y-72854819D01*
X33619047Y-72854819D02*
X33714285Y-72807200D01*
X33714285Y-72807200D02*
X33761904Y-72711961D01*
X33761904Y-72711961D02*
X33761904Y-72664342D01*
X33761904Y-72664342D02*
X33714285Y-72569104D01*
X33714285Y-72569104D02*
X33619047Y-72521485D01*
X33619047Y-72521485D02*
X33476190Y-72521485D01*
X33476190Y-72521485D02*
X33380952Y-72473866D01*
X33380952Y-72473866D02*
X33333333Y-72378628D01*
X33333333Y-72378628D02*
X33333333Y-72331009D01*
X33333333Y-72331009D02*
X33380952Y-72235771D01*
X33380952Y-72235771D02*
X33476190Y-72188152D01*
X33476190Y-72188152D02*
X33619047Y-72188152D01*
X33619047Y-72188152D02*
X33714285Y-72235771D01*
X34571428Y-72807200D02*
X34476190Y-72854819D01*
X34476190Y-72854819D02*
X34285714Y-72854819D01*
X34285714Y-72854819D02*
X34190476Y-72807200D01*
X34190476Y-72807200D02*
X34142857Y-72711961D01*
X34142857Y-72711961D02*
X34142857Y-72331009D01*
X34142857Y-72331009D02*
X34190476Y-72235771D01*
X34190476Y-72235771D02*
X34285714Y-72188152D01*
X34285714Y-72188152D02*
X34476190Y-72188152D01*
X34476190Y-72188152D02*
X34571428Y-72235771D01*
X34571428Y-72235771D02*
X34619047Y-72331009D01*
X34619047Y-72331009D02*
X34619047Y-72426247D01*
X34619047Y-72426247D02*
X34142857Y-72521485D01*
X35047619Y-72188152D02*
X35047619Y-72854819D01*
X35047619Y-72283390D02*
X35095238Y-72235771D01*
X35095238Y-72235771D02*
X35190476Y-72188152D01*
X35190476Y-72188152D02*
X35333333Y-72188152D01*
X35333333Y-72188152D02*
X35428571Y-72235771D01*
X35428571Y-72235771D02*
X35476190Y-72331009D01*
X35476190Y-72331009D02*
X35476190Y-72854819D01*
X35904762Y-72807200D02*
X36000000Y-72854819D01*
X36000000Y-72854819D02*
X36190476Y-72854819D01*
X36190476Y-72854819D02*
X36285714Y-72807200D01*
X36285714Y-72807200D02*
X36333333Y-72711961D01*
X36333333Y-72711961D02*
X36333333Y-72664342D01*
X36333333Y-72664342D02*
X36285714Y-72569104D01*
X36285714Y-72569104D02*
X36190476Y-72521485D01*
X36190476Y-72521485D02*
X36047619Y-72521485D01*
X36047619Y-72521485D02*
X35952381Y-72473866D01*
X35952381Y-72473866D02*
X35904762Y-72378628D01*
X35904762Y-72378628D02*
X35904762Y-72331009D01*
X35904762Y-72331009D02*
X35952381Y-72235771D01*
X35952381Y-72235771D02*
X36047619Y-72188152D01*
X36047619Y-72188152D02*
X36190476Y-72188152D01*
X36190476Y-72188152D02*
X36285714Y-72235771D01*
X36904762Y-72854819D02*
X36809524Y-72807200D01*
X36809524Y-72807200D02*
X36761905Y-72759580D01*
X36761905Y-72759580D02*
X36714286Y-72664342D01*
X36714286Y-72664342D02*
X36714286Y-72378628D01*
X36714286Y-72378628D02*
X36761905Y-72283390D01*
X36761905Y-72283390D02*
X36809524Y-72235771D01*
X36809524Y-72235771D02*
X36904762Y-72188152D01*
X36904762Y-72188152D02*
X37047619Y-72188152D01*
X37047619Y-72188152D02*
X37142857Y-72235771D01*
X37142857Y-72235771D02*
X37190476Y-72283390D01*
X37190476Y-72283390D02*
X37238095Y-72378628D01*
X37238095Y-72378628D02*
X37238095Y-72664342D01*
X37238095Y-72664342D02*
X37190476Y-72759580D01*
X37190476Y-72759580D02*
X37142857Y-72807200D01*
X37142857Y-72807200D02*
X37047619Y-72854819D01*
X37047619Y-72854819D02*
X36904762Y-72854819D01*
X37666667Y-72854819D02*
X37666667Y-72188152D01*
X37666667Y-72378628D02*
X37714286Y-72283390D01*
X37714286Y-72283390D02*
X37761905Y-72235771D01*
X37761905Y-72235771D02*
X37857143Y-72188152D01*
X37857143Y-72188152D02*
X37952381Y-72188152D01*
X29190475Y-62188152D02*
X29190475Y-63188152D01*
X29190475Y-62235771D02*
X29285713Y-62188152D01*
X29285713Y-62188152D02*
X29476189Y-62188152D01*
X29476189Y-62188152D02*
X29571427Y-62235771D01*
X29571427Y-62235771D02*
X29619046Y-62283390D01*
X29619046Y-62283390D02*
X29666665Y-62378628D01*
X29666665Y-62378628D02*
X29666665Y-62664342D01*
X29666665Y-62664342D02*
X29619046Y-62759580D01*
X29619046Y-62759580D02*
X29571427Y-62807200D01*
X29571427Y-62807200D02*
X29476189Y-62854819D01*
X29476189Y-62854819D02*
X29285713Y-62854819D01*
X29285713Y-62854819D02*
X29190475Y-62807200D01*
X30095237Y-62854819D02*
X30095237Y-61854819D01*
X30523808Y-62854819D02*
X30523808Y-62331009D01*
X30523808Y-62331009D02*
X30476189Y-62235771D01*
X30476189Y-62235771D02*
X30380951Y-62188152D01*
X30380951Y-62188152D02*
X30238094Y-62188152D01*
X30238094Y-62188152D02*
X30142856Y-62235771D01*
X30142856Y-62235771D02*
X30095237Y-62283390D01*
X31142856Y-62854819D02*
X31047618Y-62807200D01*
X31047618Y-62807200D02*
X30999999Y-62759580D01*
X30999999Y-62759580D02*
X30952380Y-62664342D01*
X30952380Y-62664342D02*
X30952380Y-62378628D01*
X30952380Y-62378628D02*
X30999999Y-62283390D01*
X30999999Y-62283390D02*
X31047618Y-62235771D01*
X31047618Y-62235771D02*
X31142856Y-62188152D01*
X31142856Y-62188152D02*
X31285713Y-62188152D01*
X31285713Y-62188152D02*
X31380951Y-62235771D01*
X31380951Y-62235771D02*
X31428570Y-62283390D01*
X31428570Y-62283390D02*
X31476189Y-62378628D01*
X31476189Y-62378628D02*
X31476189Y-62664342D01*
X31476189Y-62664342D02*
X31428570Y-62759580D01*
X31428570Y-62759580D02*
X31380951Y-62807200D01*
X31380951Y-62807200D02*
X31285713Y-62854819D01*
X31285713Y-62854819D02*
X31142856Y-62854819D01*
X31761904Y-62188152D02*
X32142856Y-62188152D01*
X31904761Y-61854819D02*
X31904761Y-62711961D01*
X31904761Y-62711961D02*
X31952380Y-62807200D01*
X31952380Y-62807200D02*
X32047618Y-62854819D01*
X32047618Y-62854819D02*
X32142856Y-62854819D01*
X32619047Y-62854819D02*
X32523809Y-62807200D01*
X32523809Y-62807200D02*
X32476190Y-62759580D01*
X32476190Y-62759580D02*
X32428571Y-62664342D01*
X32428571Y-62664342D02*
X32428571Y-62378628D01*
X32428571Y-62378628D02*
X32476190Y-62283390D01*
X32476190Y-62283390D02*
X32523809Y-62235771D01*
X32523809Y-62235771D02*
X32619047Y-62188152D01*
X32619047Y-62188152D02*
X32761904Y-62188152D01*
X32761904Y-62188152D02*
X32857142Y-62235771D01*
X32857142Y-62235771D02*
X32904761Y-62283390D01*
X32904761Y-62283390D02*
X32952380Y-62378628D01*
X32952380Y-62378628D02*
X32952380Y-62664342D01*
X32952380Y-62664342D02*
X32904761Y-62759580D01*
X32904761Y-62759580D02*
X32857142Y-62807200D01*
X32857142Y-62807200D02*
X32761904Y-62854819D01*
X32761904Y-62854819D02*
X32619047Y-62854819D01*
X33333333Y-62807200D02*
X33428571Y-62854819D01*
X33428571Y-62854819D02*
X33619047Y-62854819D01*
X33619047Y-62854819D02*
X33714285Y-62807200D01*
X33714285Y-62807200D02*
X33761904Y-62711961D01*
X33761904Y-62711961D02*
X33761904Y-62664342D01*
X33761904Y-62664342D02*
X33714285Y-62569104D01*
X33714285Y-62569104D02*
X33619047Y-62521485D01*
X33619047Y-62521485D02*
X33476190Y-62521485D01*
X33476190Y-62521485D02*
X33380952Y-62473866D01*
X33380952Y-62473866D02*
X33333333Y-62378628D01*
X33333333Y-62378628D02*
X33333333Y-62331009D01*
X33333333Y-62331009D02*
X33380952Y-62235771D01*
X33380952Y-62235771D02*
X33476190Y-62188152D01*
X33476190Y-62188152D02*
X33619047Y-62188152D01*
X33619047Y-62188152D02*
X33714285Y-62235771D01*
X34571428Y-62807200D02*
X34476190Y-62854819D01*
X34476190Y-62854819D02*
X34285714Y-62854819D01*
X34285714Y-62854819D02*
X34190476Y-62807200D01*
X34190476Y-62807200D02*
X34142857Y-62711961D01*
X34142857Y-62711961D02*
X34142857Y-62331009D01*
X34142857Y-62331009D02*
X34190476Y-62235771D01*
X34190476Y-62235771D02*
X34285714Y-62188152D01*
X34285714Y-62188152D02*
X34476190Y-62188152D01*
X34476190Y-62188152D02*
X34571428Y-62235771D01*
X34571428Y-62235771D02*
X34619047Y-62331009D01*
X34619047Y-62331009D02*
X34619047Y-62426247D01*
X34619047Y-62426247D02*
X34142857Y-62521485D01*
X35047619Y-62188152D02*
X35047619Y-62854819D01*
X35047619Y-62283390D02*
X35095238Y-62235771D01*
X35095238Y-62235771D02*
X35190476Y-62188152D01*
X35190476Y-62188152D02*
X35333333Y-62188152D01*
X35333333Y-62188152D02*
X35428571Y-62235771D01*
X35428571Y-62235771D02*
X35476190Y-62331009D01*
X35476190Y-62331009D02*
X35476190Y-62854819D01*
X35904762Y-62807200D02*
X36000000Y-62854819D01*
X36000000Y-62854819D02*
X36190476Y-62854819D01*
X36190476Y-62854819D02*
X36285714Y-62807200D01*
X36285714Y-62807200D02*
X36333333Y-62711961D01*
X36333333Y-62711961D02*
X36333333Y-62664342D01*
X36333333Y-62664342D02*
X36285714Y-62569104D01*
X36285714Y-62569104D02*
X36190476Y-62521485D01*
X36190476Y-62521485D02*
X36047619Y-62521485D01*
X36047619Y-62521485D02*
X35952381Y-62473866D01*
X35952381Y-62473866D02*
X35904762Y-62378628D01*
X35904762Y-62378628D02*
X35904762Y-62331009D01*
X35904762Y-62331009D02*
X35952381Y-62235771D01*
X35952381Y-62235771D02*
X36047619Y-62188152D01*
X36047619Y-62188152D02*
X36190476Y-62188152D01*
X36190476Y-62188152D02*
X36285714Y-62235771D01*
X36904762Y-62854819D02*
X36809524Y-62807200D01*
X36809524Y-62807200D02*
X36761905Y-62759580D01*
X36761905Y-62759580D02*
X36714286Y-62664342D01*
X36714286Y-62664342D02*
X36714286Y-62378628D01*
X36714286Y-62378628D02*
X36761905Y-62283390D01*
X36761905Y-62283390D02*
X36809524Y-62235771D01*
X36809524Y-62235771D02*
X36904762Y-62188152D01*
X36904762Y-62188152D02*
X37047619Y-62188152D01*
X37047619Y-62188152D02*
X37142857Y-62235771D01*
X37142857Y-62235771D02*
X37190476Y-62283390D01*
X37190476Y-62283390D02*
X37238095Y-62378628D01*
X37238095Y-62378628D02*
X37238095Y-62664342D01*
X37238095Y-62664342D02*
X37190476Y-62759580D01*
X37190476Y-62759580D02*
X37142857Y-62807200D01*
X37142857Y-62807200D02*
X37047619Y-62854819D01*
X37047619Y-62854819D02*
X36904762Y-62854819D01*
X37666667Y-62854819D02*
X37666667Y-62188152D01*
X37666667Y-62378628D02*
X37714286Y-62283390D01*
X37714286Y-62283390D02*
X37761905Y-62235771D01*
X37761905Y-62235771D02*
X37857143Y-62188152D01*
X37857143Y-62188152D02*
X37952381Y-62188152D01*
D13*
%TO.C,J5*%
X61090000Y-79110000D02*
X61090000Y-81610000D01*
X61090000Y-81610000D02*
X63590000Y-81610000D01*
X61390000Y-77290000D02*
X61390000Y-81310000D01*
X61390000Y-79000000D02*
X61890000Y-79000000D01*
X61390000Y-79810000D02*
X62390000Y-79810000D01*
X61390000Y-81310000D02*
X71610000Y-81310000D01*
X61890000Y-77790000D02*
X71110000Y-77790000D01*
X61890000Y-79000000D02*
X61890000Y-77790000D01*
X62390000Y-79810000D02*
X62390000Y-81310000D01*
X70610000Y-79810000D02*
X70610000Y-81310000D01*
X71110000Y-77790000D02*
X71110000Y-79000000D01*
X71110000Y-79000000D02*
X71610000Y-79000000D01*
X71610000Y-77290000D02*
X61390000Y-77290000D01*
X71610000Y-79810000D02*
X70610000Y-79810000D01*
X71610000Y-81310000D02*
X71610000Y-77290000D01*
%TO.C,J3*%
X28090000Y-49110000D02*
X28090000Y-51610000D01*
X28090000Y-51610000D02*
X30590000Y-51610000D01*
X28390000Y-47290000D02*
X28390000Y-51310000D01*
X28390000Y-49000000D02*
X28890000Y-49000000D01*
X28390000Y-49810000D02*
X29390000Y-49810000D01*
X28390000Y-51310000D02*
X38610000Y-51310000D01*
X28890000Y-47790000D02*
X38110000Y-47790000D01*
X28890000Y-49000000D02*
X28890000Y-47790000D01*
X29390000Y-49810000D02*
X29390000Y-51310000D01*
X37610000Y-49810000D02*
X37610000Y-51310000D01*
X38110000Y-47790000D02*
X38110000Y-49000000D01*
X38110000Y-49000000D02*
X38610000Y-49000000D01*
X38610000Y-47290000D02*
X28390000Y-47290000D01*
X38610000Y-49810000D02*
X37610000Y-49810000D01*
X38610000Y-51310000D02*
X38610000Y-47290000D01*
%TO.C,J11*%
X61090000Y-69110000D02*
X61090000Y-71610000D01*
X61090000Y-71610000D02*
X63590000Y-71610000D01*
X61390000Y-67290000D02*
X61390000Y-71310000D01*
X61390000Y-69000000D02*
X61890000Y-69000000D01*
X61390000Y-69810000D02*
X62390000Y-69810000D01*
X61390000Y-71310000D02*
X71610000Y-71310000D01*
X61890000Y-67790000D02*
X71110000Y-67790000D01*
X61890000Y-69000000D02*
X61890000Y-67790000D01*
X62390000Y-69810000D02*
X62390000Y-71310000D01*
X70610000Y-69810000D02*
X70610000Y-71310000D01*
X71110000Y-67790000D02*
X71110000Y-69000000D01*
X71110000Y-69000000D02*
X71610000Y-69000000D01*
X71610000Y-67290000D02*
X61390000Y-67290000D01*
X71610000Y-69810000D02*
X70610000Y-69810000D01*
X71610000Y-71310000D02*
X71610000Y-67290000D01*
%TO.C,J1*%
X28090000Y-79110000D02*
X28090000Y-81610000D01*
X28090000Y-81610000D02*
X30590000Y-81610000D01*
X28390000Y-77290000D02*
X28390000Y-81310000D01*
X28390000Y-79000000D02*
X28890000Y-79000000D01*
X28390000Y-79810000D02*
X29390000Y-79810000D01*
X28390000Y-81310000D02*
X38610000Y-81310000D01*
X28890000Y-77790000D02*
X38110000Y-77790000D01*
X28890000Y-79000000D02*
X28890000Y-77790000D01*
X29390000Y-79810000D02*
X29390000Y-81310000D01*
X37610000Y-79810000D02*
X37610000Y-81310000D01*
X38110000Y-77790000D02*
X38110000Y-79000000D01*
X38110000Y-79000000D02*
X38610000Y-79000000D01*
X38610000Y-77290000D02*
X28390000Y-77290000D01*
X38610000Y-79810000D02*
X37610000Y-79810000D01*
X38610000Y-81310000D02*
X38610000Y-77290000D01*
%TO.C,J7*%
X30340000Y-36700000D02*
X30340000Y-27120000D01*
X40055000Y-37594338D02*
X40305000Y-37161325D01*
X40305000Y-37161325D02*
X40555000Y-37594338D01*
X40555000Y-37594338D02*
X40055000Y-37594338D01*
X69660000Y-27120000D02*
X69660000Y-36700000D01*
X69660000Y-36700000D02*
X30340000Y-36700000D01*
%TO.C,J4*%
X28090000Y-89110000D02*
X28090000Y-91610000D01*
X28090000Y-91610000D02*
X30590000Y-91610000D01*
X28390000Y-87290000D02*
X28390000Y-91310000D01*
X28390000Y-89000000D02*
X28890000Y-89000000D01*
X28390000Y-89810000D02*
X29390000Y-89810000D01*
X28390000Y-91310000D02*
X38610000Y-91310000D01*
X28890000Y-87790000D02*
X38110000Y-87790000D01*
X28890000Y-89000000D02*
X28890000Y-87790000D01*
X29390000Y-89810000D02*
X29390000Y-91310000D01*
X37610000Y-89810000D02*
X37610000Y-91310000D01*
X38110000Y-87790000D02*
X38110000Y-89000000D01*
X38110000Y-89000000D02*
X38610000Y-89000000D01*
X38610000Y-87290000D02*
X28390000Y-87290000D01*
X38610000Y-89810000D02*
X37610000Y-89810000D01*
X38610000Y-91310000D02*
X38610000Y-87290000D01*
%TO.C,J2*%
X61090000Y-89110000D02*
X61090000Y-91610000D01*
X61090000Y-91610000D02*
X63590000Y-91610000D01*
X61390000Y-87290000D02*
X61390000Y-91310000D01*
X61390000Y-89000000D02*
X61890000Y-89000000D01*
X61390000Y-89810000D02*
X62390000Y-89810000D01*
X61390000Y-91310000D02*
X71610000Y-91310000D01*
X61890000Y-87790000D02*
X71110000Y-87790000D01*
X61890000Y-89000000D02*
X61890000Y-87790000D01*
X62390000Y-89810000D02*
X62390000Y-91310000D01*
X70610000Y-89810000D02*
X70610000Y-91310000D01*
X71110000Y-87790000D02*
X71110000Y-89000000D01*
X71110000Y-89000000D02*
X71610000Y-89000000D01*
X71610000Y-87290000D02*
X61390000Y-87290000D01*
X71610000Y-89810000D02*
X70610000Y-89810000D01*
X71610000Y-91310000D02*
X71610000Y-87290000D01*
%TO.C,J6*%
X63590000Y-49110000D02*
X63590000Y-51610000D01*
X63590000Y-51610000D02*
X66090000Y-51610000D01*
X63890000Y-47290000D02*
X63890000Y-51310000D01*
X63890000Y-49000000D02*
X64390000Y-49000000D01*
X63890000Y-49810000D02*
X64890000Y-49810000D01*
X63890000Y-51310000D02*
X71610000Y-51310000D01*
X64390000Y-47790000D02*
X71110000Y-47790000D01*
X64390000Y-49000000D02*
X64390000Y-47790000D01*
X64890000Y-49810000D02*
X64890000Y-51310000D01*
X70610000Y-49810000D02*
X70610000Y-51310000D01*
X71110000Y-47790000D02*
X71110000Y-49000000D01*
X71110000Y-49000000D02*
X71610000Y-49000000D01*
X71610000Y-47290000D02*
X63890000Y-47290000D01*
X71610000Y-49810000D02*
X70610000Y-49810000D01*
X71610000Y-51310000D02*
X71610000Y-47290000D01*
%TO.C,J10*%
X63590000Y-59110000D02*
X63590000Y-61610000D01*
X63590000Y-61610000D02*
X66090000Y-61610000D01*
X63890000Y-57290000D02*
X63890000Y-61310000D01*
X63890000Y-59000000D02*
X64390000Y-59000000D01*
X63890000Y-59810000D02*
X64890000Y-59810000D01*
X63890000Y-61310000D02*
X71610000Y-61310000D01*
X64390000Y-57790000D02*
X71110000Y-57790000D01*
X64390000Y-59000000D02*
X64390000Y-57790000D01*
X64890000Y-59810000D02*
X64890000Y-61310000D01*
X70610000Y-59810000D02*
X70610000Y-61310000D01*
X71110000Y-57790000D02*
X71110000Y-59000000D01*
X71110000Y-59000000D02*
X71610000Y-59000000D01*
X71610000Y-57290000D02*
X63890000Y-57290000D01*
X71610000Y-59810000D02*
X70610000Y-59810000D01*
X71610000Y-61310000D02*
X71610000Y-57290000D01*
%TO.C,J8*%
X28090000Y-69110000D02*
X28090000Y-71610000D01*
X28090000Y-71610000D02*
X30590000Y-71610000D01*
X28390000Y-67290000D02*
X28390000Y-71310000D01*
X28390000Y-69000000D02*
X28890000Y-69000000D01*
X28390000Y-69810000D02*
X29390000Y-69810000D01*
X28390000Y-71310000D02*
X38610000Y-71310000D01*
X28890000Y-67790000D02*
X38110000Y-67790000D01*
X28890000Y-69000000D02*
X28890000Y-67790000D01*
X29390000Y-69810000D02*
X29390000Y-71310000D01*
X37610000Y-69810000D02*
X37610000Y-71310000D01*
X38110000Y-67790000D02*
X38110000Y-69000000D01*
X38110000Y-69000000D02*
X38610000Y-69000000D01*
X38610000Y-67290000D02*
X28390000Y-67290000D01*
X38610000Y-69810000D02*
X37610000Y-69810000D01*
X38610000Y-71310000D02*
X38610000Y-67290000D01*
%TO.C,J9*%
X28090000Y-59110000D02*
X28090000Y-61610000D01*
X28090000Y-61610000D02*
X30590000Y-61610000D01*
X28390000Y-57290000D02*
X28390000Y-61310000D01*
X28390000Y-59000000D02*
X28890000Y-59000000D01*
X28390000Y-59810000D02*
X29390000Y-59810000D01*
X28390000Y-61310000D02*
X38610000Y-61310000D01*
X28890000Y-57790000D02*
X38110000Y-57790000D01*
X28890000Y-59000000D02*
X28890000Y-57790000D01*
X29390000Y-59810000D02*
X29390000Y-61310000D01*
X37610000Y-59810000D02*
X37610000Y-61310000D01*
X38110000Y-57790000D02*
X38110000Y-59000000D01*
X38110000Y-59000000D02*
X38610000Y-59000000D01*
X38610000Y-57290000D02*
X28390000Y-57290000D01*
X38610000Y-59810000D02*
X37610000Y-59810000D01*
X38610000Y-61310000D02*
X38610000Y-57290000D01*
%TD*%
M02*
