%TF.GenerationSoftware,KiCad,Pcbnew,8.0.8*%
%TF.CreationDate,2025-02-06T12:25:39+01:00*%
%TF.ProjectId,male static,6d616c65-2073-4746-9174-69632e6b6963,rev?*%
%TF.SameCoordinates,Original*%
%TF.FileFunction,Soldermask,Bot*%
%TF.FilePolarity,Negative*%
%FSLAX46Y46*%
G04 Gerber Fmt 4.6, Leading zero omitted, Abs format (unit mm)*
G04 Created by KiCad (PCBNEW 8.0.8) date 2025-02-06 12:25:39*
%MOMM*%
%LPD*%
G01*
G04 APERTURE LIST*
G04 Aperture macros list*
%AMRoundRect*
0 Rectangle with rounded corners*
0 $1 Rounding radius*
0 $2 $3 $4 $5 $6 $7 $8 $9 X,Y pos of 4 corners*
0 Add a 4 corners polygon primitive as box body*
4,1,4,$2,$3,$4,$5,$6,$7,$8,$9,$2,$3,0*
0 Add four circle primitives for the rounded corners*
1,1,$1+$1,$2,$3*
1,1,$1+$1,$4,$5*
1,1,$1+$1,$6,$7*
1,1,$1+$1,$8,$9*
0 Add four rect primitives between the rounded corners*
20,1,$1+$1,$2,$3,$4,$5,0*
20,1,$1+$1,$4,$5,$6,$7,0*
20,1,$1+$1,$6,$7,$8,$9,0*
20,1,$1+$1,$8,$9,$2,$3,0*%
G04 Aperture macros list end*
%ADD10RoundRect,0.250000X-0.600000X-0.725000X0.600000X-0.725000X0.600000X0.725000X-0.600000X0.725000X0*%
%ADD11O,1.700000X1.950000*%
%ADD12C,4.000000*%
%ADD13R,1.600000X1.600000*%
%ADD14C,1.600000*%
%ADD15RoundRect,0.250000X-0.600000X-0.750000X0.600000X-0.750000X0.600000X0.750000X-0.600000X0.750000X0*%
%ADD16O,1.700000X2.000000*%
G04 APERTURE END LIST*
D10*
%TO.C,J5*%
X64000000Y-79000000D03*
D11*
X66500000Y-79000000D03*
X69000000Y-79000000D03*
%TD*%
D10*
%TO.C,J3*%
X31000000Y-49000000D03*
D11*
X33500000Y-49000000D03*
X36000000Y-49000000D03*
%TD*%
D10*
%TO.C,J11*%
X64000000Y-69000000D03*
D11*
X66500000Y-69000000D03*
X69000000Y-69000000D03*
%TD*%
D10*
%TO.C,J1*%
X31000000Y-79000000D03*
D11*
X33500000Y-79000000D03*
X36000000Y-79000000D03*
%TD*%
D12*
%TO.C,J7*%
X66650000Y-32000000D03*
X33350000Y-32000000D03*
D13*
X40305000Y-34840000D03*
D14*
X43075000Y-34840000D03*
X45845000Y-34840000D03*
X48615000Y-34840000D03*
X51385000Y-34840000D03*
X54155000Y-34840000D03*
X56925000Y-34840000D03*
X59695000Y-34840000D03*
X41690000Y-32000000D03*
X44460000Y-32000000D03*
X47230000Y-32000000D03*
X50000000Y-32000000D03*
X52770000Y-32000000D03*
X55540000Y-32000000D03*
X58310000Y-32000000D03*
%TD*%
D10*
%TO.C,J4*%
X31000000Y-89000000D03*
D11*
X33500000Y-89000000D03*
X36000000Y-89000000D03*
%TD*%
D10*
%TO.C,J2*%
X64000000Y-89000000D03*
D11*
X66500000Y-89000000D03*
X69000000Y-89000000D03*
%TD*%
D15*
%TO.C,J6*%
X66500000Y-49000000D03*
D16*
X69000000Y-49000000D03*
%TD*%
D15*
%TO.C,J10*%
X66500000Y-59000000D03*
D16*
X69000000Y-59000000D03*
%TD*%
D10*
%TO.C,J8*%
X31000000Y-69000000D03*
D11*
X33500000Y-69000000D03*
X36000000Y-69000000D03*
%TD*%
D10*
%TO.C,J9*%
X31000000Y-59000000D03*
D11*
X33500000Y-59000000D03*
X36000000Y-59000000D03*
%TD*%
M02*
