%TF.GenerationSoftware,KiCad,Pcbnew,8.0.8*%
%TF.CreationDate,2025-02-06T12:25:39+01:00*%
%TF.ProjectId,male static,6d616c65-2073-4746-9174-69632e6b6963,rev?*%
%TF.SameCoordinates,Original*%
%TF.FileFunction,Legend,Bot*%
%TF.FilePolarity,Positive*%
%FSLAX46Y46*%
G04 Gerber Fmt 4.6, Leading zero omitted, Abs format (unit mm)*
G04 Created by KiCad (PCBNEW 8.0.8) date 2025-02-06 12:25:39*
%MOMM*%
%LPD*%
G01*
G04 APERTURE LIST*
%ADD10C,0.100000*%
G04 APERTURE END LIST*
D10*
X49636200Y-30481830D02*
X49598104Y-30405639D01*
X49598104Y-30405639D02*
X49598104Y-30253258D01*
X49598104Y-30253258D02*
X49636200Y-30177068D01*
X49636200Y-30177068D02*
X49712390Y-30138972D01*
X49712390Y-30138972D02*
X49750485Y-30138972D01*
X49750485Y-30138972D02*
X49826676Y-30177068D01*
X49826676Y-30177068D02*
X49864771Y-30253258D01*
X49864771Y-30253258D02*
X49864771Y-30367544D01*
X49864771Y-30367544D02*
X49902866Y-30443734D01*
X49902866Y-30443734D02*
X49979057Y-30481830D01*
X49979057Y-30481830D02*
X50017152Y-30481830D01*
X50017152Y-30481830D02*
X50093342Y-30443734D01*
X50093342Y-30443734D02*
X50131438Y-30367544D01*
X50131438Y-30367544D02*
X50131438Y-30253258D01*
X50131438Y-30253258D02*
X50093342Y-30177068D01*
X50131438Y-29796115D02*
X49331438Y-29796115D01*
X50093342Y-29796115D02*
X50131438Y-29719925D01*
X50131438Y-29719925D02*
X50131438Y-29567544D01*
X50131438Y-29567544D02*
X50093342Y-29491353D01*
X50093342Y-29491353D02*
X50055247Y-29453258D01*
X50055247Y-29453258D02*
X49979057Y-29415163D01*
X49979057Y-29415163D02*
X49750485Y-29415163D01*
X49750485Y-29415163D02*
X49674295Y-29453258D01*
X49674295Y-29453258D02*
X49636200Y-29491353D01*
X49636200Y-29491353D02*
X49598104Y-29567544D01*
X49598104Y-29567544D02*
X49598104Y-29719925D01*
X49598104Y-29719925D02*
X49636200Y-29796115D01*
X49636200Y-28767543D02*
X49598104Y-28843734D01*
X49598104Y-28843734D02*
X49598104Y-28996115D01*
X49598104Y-28996115D02*
X49636200Y-29072305D01*
X49636200Y-29072305D02*
X49712390Y-29110401D01*
X49712390Y-29110401D02*
X50017152Y-29110401D01*
X50017152Y-29110401D02*
X50093342Y-29072305D01*
X50093342Y-29072305D02*
X50131438Y-28996115D01*
X50131438Y-28996115D02*
X50131438Y-28843734D01*
X50131438Y-28843734D02*
X50093342Y-28767543D01*
X50093342Y-28767543D02*
X50017152Y-28729448D01*
X50017152Y-28729448D02*
X49940961Y-28729448D01*
X49940961Y-28729448D02*
X49864771Y-29110401D01*
X49598104Y-28043734D02*
X50017152Y-28043734D01*
X50017152Y-28043734D02*
X50093342Y-28081829D01*
X50093342Y-28081829D02*
X50131438Y-28158020D01*
X50131438Y-28158020D02*
X50131438Y-28310401D01*
X50131438Y-28310401D02*
X50093342Y-28386591D01*
X49636200Y-28043734D02*
X49598104Y-28119925D01*
X49598104Y-28119925D02*
X49598104Y-28310401D01*
X49598104Y-28310401D02*
X49636200Y-28386591D01*
X49636200Y-28386591D02*
X49712390Y-28424687D01*
X49712390Y-28424687D02*
X49788580Y-28424687D01*
X49788580Y-28424687D02*
X49864771Y-28386591D01*
X49864771Y-28386591D02*
X49902866Y-28310401D01*
X49902866Y-28310401D02*
X49902866Y-28119925D01*
X49902866Y-28119925D02*
X49940961Y-28043734D01*
X49598104Y-27662781D02*
X50398104Y-27662781D01*
X49902866Y-27586591D02*
X49598104Y-27358019D01*
X50131438Y-27358019D02*
X49826676Y-27662781D01*
X49636200Y-26710400D02*
X49598104Y-26786591D01*
X49598104Y-26786591D02*
X49598104Y-26938972D01*
X49598104Y-26938972D02*
X49636200Y-27015162D01*
X49636200Y-27015162D02*
X49712390Y-27053258D01*
X49712390Y-27053258D02*
X50017152Y-27053258D01*
X50017152Y-27053258D02*
X50093342Y-27015162D01*
X50093342Y-27015162D02*
X50131438Y-26938972D01*
X50131438Y-26938972D02*
X50131438Y-26786591D01*
X50131438Y-26786591D02*
X50093342Y-26710400D01*
X50093342Y-26710400D02*
X50017152Y-26672305D01*
X50017152Y-26672305D02*
X49940961Y-26672305D01*
X49940961Y-26672305D02*
X49864771Y-27053258D01*
X49598104Y-26329448D02*
X50131438Y-26329448D01*
X49979057Y-26329448D02*
X50055247Y-26291353D01*
X50055247Y-26291353D02*
X50093342Y-26253258D01*
X50093342Y-26253258D02*
X50131438Y-26177067D01*
X50131438Y-26177067D02*
X50131438Y-26100877D01*
X49902866Y-25224686D02*
X49902866Y-24615163D01*
X49598104Y-24919924D02*
X50207628Y-24919924D01*
X40665009Y-30024687D02*
X40703104Y-30100877D01*
X40703104Y-30100877D02*
X40703104Y-30215163D01*
X40703104Y-30215163D02*
X40665009Y-30329449D01*
X40665009Y-30329449D02*
X40588819Y-30405639D01*
X40588819Y-30405639D02*
X40512628Y-30443734D01*
X40512628Y-30443734D02*
X40360247Y-30481830D01*
X40360247Y-30481830D02*
X40245961Y-30481830D01*
X40245961Y-30481830D02*
X40093580Y-30443734D01*
X40093580Y-30443734D02*
X40017390Y-30405639D01*
X40017390Y-30405639D02*
X39941200Y-30329449D01*
X39941200Y-30329449D02*
X39903104Y-30215163D01*
X39903104Y-30215163D02*
X39903104Y-30138972D01*
X39903104Y-30138972D02*
X39941200Y-30024687D01*
X39941200Y-30024687D02*
X39979295Y-29986591D01*
X39979295Y-29986591D02*
X40245961Y-29986591D01*
X40245961Y-29986591D02*
X40245961Y-30138972D01*
X39903104Y-29643734D02*
X40703104Y-29643734D01*
X40703104Y-29643734D02*
X39903104Y-29186591D01*
X39903104Y-29186591D02*
X40703104Y-29186591D01*
X39903104Y-28805639D02*
X40703104Y-28805639D01*
X40703104Y-28805639D02*
X40703104Y-28615163D01*
X40703104Y-28615163D02*
X40665009Y-28500877D01*
X40665009Y-28500877D02*
X40588819Y-28424687D01*
X40588819Y-28424687D02*
X40512628Y-28386592D01*
X40512628Y-28386592D02*
X40360247Y-28348496D01*
X40360247Y-28348496D02*
X40245961Y-28348496D01*
X40245961Y-28348496D02*
X40093580Y-28386592D01*
X40093580Y-28386592D02*
X40017390Y-28424687D01*
X40017390Y-28424687D02*
X39941200Y-28500877D01*
X39941200Y-28500877D02*
X39903104Y-28615163D01*
X39903104Y-28615163D02*
X39903104Y-28805639D01*
X39175312Y-35703104D02*
X38718169Y-35703104D01*
X38946741Y-35703104D02*
X38946741Y-36503104D01*
X38946741Y-36503104D02*
X38870550Y-36388819D01*
X38870550Y-36388819D02*
X38794360Y-36312628D01*
X38794360Y-36312628D02*
X38718169Y-36274533D01*
X48746438Y-30443734D02*
X47946438Y-30443734D01*
X48708342Y-30443734D02*
X48746438Y-30367544D01*
X48746438Y-30367544D02*
X48746438Y-30215163D01*
X48746438Y-30215163D02*
X48708342Y-30138972D01*
X48708342Y-30138972D02*
X48670247Y-30100877D01*
X48670247Y-30100877D02*
X48594057Y-30062782D01*
X48594057Y-30062782D02*
X48365485Y-30062782D01*
X48365485Y-30062782D02*
X48289295Y-30100877D01*
X48289295Y-30100877D02*
X48251200Y-30138972D01*
X48251200Y-30138972D02*
X48213104Y-30215163D01*
X48213104Y-30215163D02*
X48213104Y-30367544D01*
X48213104Y-30367544D02*
X48251200Y-30443734D01*
X48213104Y-29719924D02*
X49013104Y-29719924D01*
X48213104Y-29377067D02*
X48632152Y-29377067D01*
X48632152Y-29377067D02*
X48708342Y-29415162D01*
X48708342Y-29415162D02*
X48746438Y-29491353D01*
X48746438Y-29491353D02*
X48746438Y-29605639D01*
X48746438Y-29605639D02*
X48708342Y-29681829D01*
X48708342Y-29681829D02*
X48670247Y-29719924D01*
X48213104Y-28881829D02*
X48251200Y-28958019D01*
X48251200Y-28958019D02*
X48289295Y-28996114D01*
X48289295Y-28996114D02*
X48365485Y-29034210D01*
X48365485Y-29034210D02*
X48594057Y-29034210D01*
X48594057Y-29034210D02*
X48670247Y-28996114D01*
X48670247Y-28996114D02*
X48708342Y-28958019D01*
X48708342Y-28958019D02*
X48746438Y-28881829D01*
X48746438Y-28881829D02*
X48746438Y-28767543D01*
X48746438Y-28767543D02*
X48708342Y-28691352D01*
X48708342Y-28691352D02*
X48670247Y-28653257D01*
X48670247Y-28653257D02*
X48594057Y-28615162D01*
X48594057Y-28615162D02*
X48365485Y-28615162D01*
X48365485Y-28615162D02*
X48289295Y-28653257D01*
X48289295Y-28653257D02*
X48251200Y-28691352D01*
X48251200Y-28691352D02*
X48213104Y-28767543D01*
X48213104Y-28767543D02*
X48213104Y-28881829D01*
X48746438Y-28386590D02*
X48746438Y-28081828D01*
X49013104Y-28272304D02*
X48327390Y-28272304D01*
X48327390Y-28272304D02*
X48251200Y-28234209D01*
X48251200Y-28234209D02*
X48213104Y-28158019D01*
X48213104Y-28158019D02*
X48213104Y-28081828D01*
X48213104Y-27700876D02*
X48251200Y-27777066D01*
X48251200Y-27777066D02*
X48289295Y-27815161D01*
X48289295Y-27815161D02*
X48365485Y-27853257D01*
X48365485Y-27853257D02*
X48594057Y-27853257D01*
X48594057Y-27853257D02*
X48670247Y-27815161D01*
X48670247Y-27815161D02*
X48708342Y-27777066D01*
X48708342Y-27777066D02*
X48746438Y-27700876D01*
X48746438Y-27700876D02*
X48746438Y-27586590D01*
X48746438Y-27586590D02*
X48708342Y-27510399D01*
X48708342Y-27510399D02*
X48670247Y-27472304D01*
X48670247Y-27472304D02*
X48594057Y-27434209D01*
X48594057Y-27434209D02*
X48365485Y-27434209D01*
X48365485Y-27434209D02*
X48289295Y-27472304D01*
X48289295Y-27472304D02*
X48251200Y-27510399D01*
X48251200Y-27510399D02*
X48213104Y-27586590D01*
X48213104Y-27586590D02*
X48213104Y-27700876D01*
X48251200Y-27129447D02*
X48213104Y-27053256D01*
X48213104Y-27053256D02*
X48213104Y-26900875D01*
X48213104Y-26900875D02*
X48251200Y-26824685D01*
X48251200Y-26824685D02*
X48327390Y-26786589D01*
X48327390Y-26786589D02*
X48365485Y-26786589D01*
X48365485Y-26786589D02*
X48441676Y-26824685D01*
X48441676Y-26824685D02*
X48479771Y-26900875D01*
X48479771Y-26900875D02*
X48479771Y-27015161D01*
X48479771Y-27015161D02*
X48517866Y-27091351D01*
X48517866Y-27091351D02*
X48594057Y-27129447D01*
X48594057Y-27129447D02*
X48632152Y-27129447D01*
X48632152Y-27129447D02*
X48708342Y-27091351D01*
X48708342Y-27091351D02*
X48746438Y-27015161D01*
X48746438Y-27015161D02*
X48746438Y-26900875D01*
X48746438Y-26900875D02*
X48708342Y-26824685D01*
X48251200Y-26138970D02*
X48213104Y-26215161D01*
X48213104Y-26215161D02*
X48213104Y-26367542D01*
X48213104Y-26367542D02*
X48251200Y-26443732D01*
X48251200Y-26443732D02*
X48327390Y-26481828D01*
X48327390Y-26481828D02*
X48632152Y-26481828D01*
X48632152Y-26481828D02*
X48708342Y-26443732D01*
X48708342Y-26443732D02*
X48746438Y-26367542D01*
X48746438Y-26367542D02*
X48746438Y-26215161D01*
X48746438Y-26215161D02*
X48708342Y-26138970D01*
X48708342Y-26138970D02*
X48632152Y-26100875D01*
X48632152Y-26100875D02*
X48555961Y-26100875D01*
X48555961Y-26100875D02*
X48479771Y-26481828D01*
X48746438Y-25758018D02*
X48213104Y-25758018D01*
X48670247Y-25758018D02*
X48708342Y-25719923D01*
X48708342Y-25719923D02*
X48746438Y-25643733D01*
X48746438Y-25643733D02*
X48746438Y-25529447D01*
X48746438Y-25529447D02*
X48708342Y-25453256D01*
X48708342Y-25453256D02*
X48632152Y-25415161D01*
X48632152Y-25415161D02*
X48213104Y-25415161D01*
X48251200Y-25072304D02*
X48213104Y-24996113D01*
X48213104Y-24996113D02*
X48213104Y-24843732D01*
X48213104Y-24843732D02*
X48251200Y-24767542D01*
X48251200Y-24767542D02*
X48327390Y-24729446D01*
X48327390Y-24729446D02*
X48365485Y-24729446D01*
X48365485Y-24729446D02*
X48441676Y-24767542D01*
X48441676Y-24767542D02*
X48479771Y-24843732D01*
X48479771Y-24843732D02*
X48479771Y-24958018D01*
X48479771Y-24958018D02*
X48517866Y-25034208D01*
X48517866Y-25034208D02*
X48594057Y-25072304D01*
X48594057Y-25072304D02*
X48632152Y-25072304D01*
X48632152Y-25072304D02*
X48708342Y-25034208D01*
X48708342Y-25034208D02*
X48746438Y-24958018D01*
X48746438Y-24958018D02*
X48746438Y-24843732D01*
X48746438Y-24843732D02*
X48708342Y-24767542D01*
X48213104Y-24272304D02*
X48251200Y-24348494D01*
X48251200Y-24348494D02*
X48289295Y-24386589D01*
X48289295Y-24386589D02*
X48365485Y-24424685D01*
X48365485Y-24424685D02*
X48594057Y-24424685D01*
X48594057Y-24424685D02*
X48670247Y-24386589D01*
X48670247Y-24386589D02*
X48708342Y-24348494D01*
X48708342Y-24348494D02*
X48746438Y-24272304D01*
X48746438Y-24272304D02*
X48746438Y-24158018D01*
X48746438Y-24158018D02*
X48708342Y-24081827D01*
X48708342Y-24081827D02*
X48670247Y-24043732D01*
X48670247Y-24043732D02*
X48594057Y-24005637D01*
X48594057Y-24005637D02*
X48365485Y-24005637D01*
X48365485Y-24005637D02*
X48289295Y-24043732D01*
X48289295Y-24043732D02*
X48251200Y-24081827D01*
X48251200Y-24081827D02*
X48213104Y-24158018D01*
X48213104Y-24158018D02*
X48213104Y-24272304D01*
X48213104Y-23662779D02*
X48746438Y-23662779D01*
X48594057Y-23662779D02*
X48670247Y-23624684D01*
X48670247Y-23624684D02*
X48708342Y-23586589D01*
X48708342Y-23586589D02*
X48746438Y-23510398D01*
X48746438Y-23510398D02*
X48746438Y-23434208D01*
X51021200Y-30481830D02*
X50983104Y-30405639D01*
X50983104Y-30405639D02*
X50983104Y-30253258D01*
X50983104Y-30253258D02*
X51021200Y-30177068D01*
X51021200Y-30177068D02*
X51097390Y-30138972D01*
X51097390Y-30138972D02*
X51135485Y-30138972D01*
X51135485Y-30138972D02*
X51211676Y-30177068D01*
X51211676Y-30177068D02*
X51249771Y-30253258D01*
X51249771Y-30253258D02*
X51249771Y-30367544D01*
X51249771Y-30367544D02*
X51287866Y-30443734D01*
X51287866Y-30443734D02*
X51364057Y-30481830D01*
X51364057Y-30481830D02*
X51402152Y-30481830D01*
X51402152Y-30481830D02*
X51478342Y-30443734D01*
X51478342Y-30443734D02*
X51516438Y-30367544D01*
X51516438Y-30367544D02*
X51516438Y-30253258D01*
X51516438Y-30253258D02*
X51478342Y-30177068D01*
X51516438Y-29796115D02*
X50716438Y-29796115D01*
X51478342Y-29796115D02*
X51516438Y-29719925D01*
X51516438Y-29719925D02*
X51516438Y-29567544D01*
X51516438Y-29567544D02*
X51478342Y-29491353D01*
X51478342Y-29491353D02*
X51440247Y-29453258D01*
X51440247Y-29453258D02*
X51364057Y-29415163D01*
X51364057Y-29415163D02*
X51135485Y-29415163D01*
X51135485Y-29415163D02*
X51059295Y-29453258D01*
X51059295Y-29453258D02*
X51021200Y-29491353D01*
X51021200Y-29491353D02*
X50983104Y-29567544D01*
X50983104Y-29567544D02*
X50983104Y-29719925D01*
X50983104Y-29719925D02*
X51021200Y-29796115D01*
X51021200Y-28767543D02*
X50983104Y-28843734D01*
X50983104Y-28843734D02*
X50983104Y-28996115D01*
X50983104Y-28996115D02*
X51021200Y-29072305D01*
X51021200Y-29072305D02*
X51097390Y-29110401D01*
X51097390Y-29110401D02*
X51402152Y-29110401D01*
X51402152Y-29110401D02*
X51478342Y-29072305D01*
X51478342Y-29072305D02*
X51516438Y-28996115D01*
X51516438Y-28996115D02*
X51516438Y-28843734D01*
X51516438Y-28843734D02*
X51478342Y-28767543D01*
X51478342Y-28767543D02*
X51402152Y-28729448D01*
X51402152Y-28729448D02*
X51325961Y-28729448D01*
X51325961Y-28729448D02*
X51249771Y-29110401D01*
X50983104Y-28043734D02*
X51402152Y-28043734D01*
X51402152Y-28043734D02*
X51478342Y-28081829D01*
X51478342Y-28081829D02*
X51516438Y-28158020D01*
X51516438Y-28158020D02*
X51516438Y-28310401D01*
X51516438Y-28310401D02*
X51478342Y-28386591D01*
X51021200Y-28043734D02*
X50983104Y-28119925D01*
X50983104Y-28119925D02*
X50983104Y-28310401D01*
X50983104Y-28310401D02*
X51021200Y-28386591D01*
X51021200Y-28386591D02*
X51097390Y-28424687D01*
X51097390Y-28424687D02*
X51173580Y-28424687D01*
X51173580Y-28424687D02*
X51249771Y-28386591D01*
X51249771Y-28386591D02*
X51287866Y-28310401D01*
X51287866Y-28310401D02*
X51287866Y-28119925D01*
X51287866Y-28119925D02*
X51325961Y-28043734D01*
X50983104Y-27662781D02*
X51783104Y-27662781D01*
X51287866Y-27586591D02*
X50983104Y-27358019D01*
X51516438Y-27358019D02*
X51211676Y-27662781D01*
X51021200Y-26710400D02*
X50983104Y-26786591D01*
X50983104Y-26786591D02*
X50983104Y-26938972D01*
X50983104Y-26938972D02*
X51021200Y-27015162D01*
X51021200Y-27015162D02*
X51097390Y-27053258D01*
X51097390Y-27053258D02*
X51402152Y-27053258D01*
X51402152Y-27053258D02*
X51478342Y-27015162D01*
X51478342Y-27015162D02*
X51516438Y-26938972D01*
X51516438Y-26938972D02*
X51516438Y-26786591D01*
X51516438Y-26786591D02*
X51478342Y-26710400D01*
X51478342Y-26710400D02*
X51402152Y-26672305D01*
X51402152Y-26672305D02*
X51325961Y-26672305D01*
X51325961Y-26672305D02*
X51249771Y-27053258D01*
X50983104Y-26329448D02*
X51516438Y-26329448D01*
X51364057Y-26329448D02*
X51440247Y-26291353D01*
X51440247Y-26291353D02*
X51478342Y-26253258D01*
X51478342Y-26253258D02*
X51516438Y-26177067D01*
X51516438Y-26177067D02*
X51516438Y-26100877D01*
X51287866Y-25224686D02*
X51287866Y-24615163D01*
X45443104Y-30443734D02*
X45976438Y-30443734D01*
X45900247Y-30443734D02*
X45938342Y-30405639D01*
X45938342Y-30405639D02*
X45976438Y-30329449D01*
X45976438Y-30329449D02*
X45976438Y-30215163D01*
X45976438Y-30215163D02*
X45938342Y-30138972D01*
X45938342Y-30138972D02*
X45862152Y-30100877D01*
X45862152Y-30100877D02*
X45443104Y-30100877D01*
X45862152Y-30100877D02*
X45938342Y-30062782D01*
X45938342Y-30062782D02*
X45976438Y-29986591D01*
X45976438Y-29986591D02*
X45976438Y-29872306D01*
X45976438Y-29872306D02*
X45938342Y-29796115D01*
X45938342Y-29796115D02*
X45862152Y-29758020D01*
X45862152Y-29758020D02*
X45443104Y-29758020D01*
X45443104Y-29377067D02*
X45976438Y-29377067D01*
X46243104Y-29377067D02*
X46205009Y-29415163D01*
X46205009Y-29415163D02*
X46166914Y-29377067D01*
X46166914Y-29377067D02*
X46205009Y-29338972D01*
X46205009Y-29338972D02*
X46243104Y-29377067D01*
X46243104Y-29377067D02*
X46166914Y-29377067D01*
X45481200Y-28653258D02*
X45443104Y-28729449D01*
X45443104Y-28729449D02*
X45443104Y-28881830D01*
X45443104Y-28881830D02*
X45481200Y-28958020D01*
X45481200Y-28958020D02*
X45519295Y-28996115D01*
X45519295Y-28996115D02*
X45595485Y-29034211D01*
X45595485Y-29034211D02*
X45824057Y-29034211D01*
X45824057Y-29034211D02*
X45900247Y-28996115D01*
X45900247Y-28996115D02*
X45938342Y-28958020D01*
X45938342Y-28958020D02*
X45976438Y-28881830D01*
X45976438Y-28881830D02*
X45976438Y-28729449D01*
X45976438Y-28729449D02*
X45938342Y-28653258D01*
X45443104Y-28310401D02*
X45976438Y-28310401D01*
X45824057Y-28310401D02*
X45900247Y-28272306D01*
X45900247Y-28272306D02*
X45938342Y-28234211D01*
X45938342Y-28234211D02*
X45976438Y-28158020D01*
X45976438Y-28158020D02*
X45976438Y-28081830D01*
X45443104Y-27700878D02*
X45481200Y-27777068D01*
X45481200Y-27777068D02*
X45519295Y-27815163D01*
X45519295Y-27815163D02*
X45595485Y-27853259D01*
X45595485Y-27853259D02*
X45824057Y-27853259D01*
X45824057Y-27853259D02*
X45900247Y-27815163D01*
X45900247Y-27815163D02*
X45938342Y-27777068D01*
X45938342Y-27777068D02*
X45976438Y-27700878D01*
X45976438Y-27700878D02*
X45976438Y-27586592D01*
X45976438Y-27586592D02*
X45938342Y-27510401D01*
X45938342Y-27510401D02*
X45900247Y-27472306D01*
X45900247Y-27472306D02*
X45824057Y-27434211D01*
X45824057Y-27434211D02*
X45595485Y-27434211D01*
X45595485Y-27434211D02*
X45519295Y-27472306D01*
X45519295Y-27472306D02*
X45481200Y-27510401D01*
X45481200Y-27510401D02*
X45443104Y-27586592D01*
X45443104Y-27586592D02*
X45443104Y-27700878D01*
X45976438Y-27091353D02*
X45176438Y-27091353D01*
X45938342Y-27091353D02*
X45976438Y-27015163D01*
X45976438Y-27015163D02*
X45976438Y-26862782D01*
X45976438Y-26862782D02*
X45938342Y-26786591D01*
X45938342Y-26786591D02*
X45900247Y-26748496D01*
X45900247Y-26748496D02*
X45824057Y-26710401D01*
X45824057Y-26710401D02*
X45595485Y-26710401D01*
X45595485Y-26710401D02*
X45519295Y-26748496D01*
X45519295Y-26748496D02*
X45481200Y-26786591D01*
X45481200Y-26786591D02*
X45443104Y-26862782D01*
X45443104Y-26862782D02*
X45443104Y-27015163D01*
X45443104Y-27015163D02*
X45481200Y-27091353D01*
X45443104Y-26367543D02*
X46243104Y-26367543D01*
X45443104Y-26024686D02*
X45862152Y-26024686D01*
X45862152Y-26024686D02*
X45938342Y-26062781D01*
X45938342Y-26062781D02*
X45976438Y-26138972D01*
X45976438Y-26138972D02*
X45976438Y-26253258D01*
X45976438Y-26253258D02*
X45938342Y-26329448D01*
X45938342Y-26329448D02*
X45900247Y-26367543D01*
X45443104Y-25529448D02*
X45481200Y-25605638D01*
X45481200Y-25605638D02*
X45519295Y-25643733D01*
X45519295Y-25643733D02*
X45595485Y-25681829D01*
X45595485Y-25681829D02*
X45824057Y-25681829D01*
X45824057Y-25681829D02*
X45900247Y-25643733D01*
X45900247Y-25643733D02*
X45938342Y-25605638D01*
X45938342Y-25605638D02*
X45976438Y-25529448D01*
X45976438Y-25529448D02*
X45976438Y-25415162D01*
X45976438Y-25415162D02*
X45938342Y-25338971D01*
X45938342Y-25338971D02*
X45900247Y-25300876D01*
X45900247Y-25300876D02*
X45824057Y-25262781D01*
X45824057Y-25262781D02*
X45595485Y-25262781D01*
X45595485Y-25262781D02*
X45519295Y-25300876D01*
X45519295Y-25300876D02*
X45481200Y-25338971D01*
X45481200Y-25338971D02*
X45443104Y-25415162D01*
X45443104Y-25415162D02*
X45443104Y-25529448D01*
X45976438Y-24919923D02*
X45443104Y-24919923D01*
X45900247Y-24919923D02*
X45938342Y-24881828D01*
X45938342Y-24881828D02*
X45976438Y-24805638D01*
X45976438Y-24805638D02*
X45976438Y-24691352D01*
X45976438Y-24691352D02*
X45938342Y-24615161D01*
X45938342Y-24615161D02*
X45862152Y-24577066D01*
X45862152Y-24577066D02*
X45443104Y-24577066D01*
X45481200Y-23891351D02*
X45443104Y-23967542D01*
X45443104Y-23967542D02*
X45443104Y-24119923D01*
X45443104Y-24119923D02*
X45481200Y-24196113D01*
X45481200Y-24196113D02*
X45557390Y-24234209D01*
X45557390Y-24234209D02*
X45862152Y-24234209D01*
X45862152Y-24234209D02*
X45938342Y-24196113D01*
X45938342Y-24196113D02*
X45976438Y-24119923D01*
X45976438Y-24119923D02*
X45976438Y-23967542D01*
X45976438Y-23967542D02*
X45938342Y-23891351D01*
X45938342Y-23891351D02*
X45862152Y-23853256D01*
X45862152Y-23853256D02*
X45785961Y-23853256D01*
X45785961Y-23853256D02*
X45709771Y-24234209D01*
X44058104Y-30100877D02*
X44858104Y-30100877D01*
X44096200Y-30100877D02*
X44058104Y-30177068D01*
X44058104Y-30177068D02*
X44058104Y-30329449D01*
X44058104Y-30329449D02*
X44096200Y-30405639D01*
X44096200Y-30405639D02*
X44134295Y-30443734D01*
X44134295Y-30443734D02*
X44210485Y-30481830D01*
X44210485Y-30481830D02*
X44439057Y-30481830D01*
X44439057Y-30481830D02*
X44515247Y-30443734D01*
X44515247Y-30443734D02*
X44553342Y-30405639D01*
X44553342Y-30405639D02*
X44591438Y-30329449D01*
X44591438Y-30329449D02*
X44591438Y-30177068D01*
X44591438Y-30177068D02*
X44553342Y-30100877D01*
X44058104Y-29796115D02*
X44591438Y-29377067D01*
X44591438Y-29796115D02*
X44058104Y-29377067D01*
X44058104Y-28958020D02*
X44096200Y-29034210D01*
X44096200Y-29034210D02*
X44172390Y-29072305D01*
X44172390Y-29072305D02*
X44858104Y-29072305D01*
X44058104Y-27700876D02*
X44858104Y-27700876D01*
X44096200Y-27700876D02*
X44058104Y-27777067D01*
X44058104Y-27777067D02*
X44058104Y-27929448D01*
X44058104Y-27929448D02*
X44096200Y-28005638D01*
X44096200Y-28005638D02*
X44134295Y-28043733D01*
X44134295Y-28043733D02*
X44210485Y-28081829D01*
X44210485Y-28081829D02*
X44439057Y-28081829D01*
X44439057Y-28081829D02*
X44515247Y-28043733D01*
X44515247Y-28043733D02*
X44553342Y-28005638D01*
X44553342Y-28005638D02*
X44591438Y-27929448D01*
X44591438Y-27929448D02*
X44591438Y-27777067D01*
X44591438Y-27777067D02*
X44553342Y-27700876D01*
X44058104Y-26977066D02*
X44477152Y-26977066D01*
X44477152Y-26977066D02*
X44553342Y-27015161D01*
X44553342Y-27015161D02*
X44591438Y-27091352D01*
X44591438Y-27091352D02*
X44591438Y-27243733D01*
X44591438Y-27243733D02*
X44553342Y-27319923D01*
X44096200Y-26977066D02*
X44058104Y-27053257D01*
X44058104Y-27053257D02*
X44058104Y-27243733D01*
X44058104Y-27243733D02*
X44096200Y-27319923D01*
X44096200Y-27319923D02*
X44172390Y-27358019D01*
X44172390Y-27358019D02*
X44248580Y-27358019D01*
X44248580Y-27358019D02*
X44324771Y-27319923D01*
X44324771Y-27319923D02*
X44362866Y-27243733D01*
X44362866Y-27243733D02*
X44362866Y-27053257D01*
X44362866Y-27053257D02*
X44400961Y-26977066D01*
X44591438Y-26710399D02*
X44591438Y-26405637D01*
X44858104Y-26596113D02*
X44172390Y-26596113D01*
X44172390Y-26596113D02*
X44096200Y-26558018D01*
X44096200Y-26558018D02*
X44058104Y-26481828D01*
X44058104Y-26481828D02*
X44058104Y-26405637D01*
X44058104Y-25796113D02*
X44477152Y-25796113D01*
X44477152Y-25796113D02*
X44553342Y-25834208D01*
X44553342Y-25834208D02*
X44591438Y-25910399D01*
X44591438Y-25910399D02*
X44591438Y-26062780D01*
X44591438Y-26062780D02*
X44553342Y-26138970D01*
X44096200Y-25796113D02*
X44058104Y-25872304D01*
X44058104Y-25872304D02*
X44058104Y-26062780D01*
X44058104Y-26062780D02*
X44096200Y-26138970D01*
X44096200Y-26138970D02*
X44172390Y-26177066D01*
X44172390Y-26177066D02*
X44248580Y-26177066D01*
X44248580Y-26177066D02*
X44324771Y-26138970D01*
X44324771Y-26138970D02*
X44362866Y-26062780D01*
X44362866Y-26062780D02*
X44362866Y-25872304D01*
X44362866Y-25872304D02*
X44400961Y-25796113D01*
X47361438Y-30443734D02*
X46828104Y-30443734D01*
X47285247Y-30443734D02*
X47323342Y-30405639D01*
X47323342Y-30405639D02*
X47361438Y-30329449D01*
X47361438Y-30329449D02*
X47361438Y-30215163D01*
X47361438Y-30215163D02*
X47323342Y-30138972D01*
X47323342Y-30138972D02*
X47247152Y-30100877D01*
X47247152Y-30100877D02*
X46828104Y-30100877D01*
X46866200Y-29415162D02*
X46828104Y-29491353D01*
X46828104Y-29491353D02*
X46828104Y-29643734D01*
X46828104Y-29643734D02*
X46866200Y-29719924D01*
X46866200Y-29719924D02*
X46942390Y-29758020D01*
X46942390Y-29758020D02*
X47247152Y-29758020D01*
X47247152Y-29758020D02*
X47323342Y-29719924D01*
X47323342Y-29719924D02*
X47361438Y-29643734D01*
X47361438Y-29643734D02*
X47361438Y-29491353D01*
X47361438Y-29491353D02*
X47323342Y-29415162D01*
X47323342Y-29415162D02*
X47247152Y-29377067D01*
X47247152Y-29377067D02*
X47170961Y-29377067D01*
X47170961Y-29377067D02*
X47094771Y-29758020D01*
X46828104Y-28919925D02*
X46866200Y-28996115D01*
X46866200Y-28996115D02*
X46904295Y-29034210D01*
X46904295Y-29034210D02*
X46980485Y-29072306D01*
X46980485Y-29072306D02*
X47209057Y-29072306D01*
X47209057Y-29072306D02*
X47285247Y-29034210D01*
X47285247Y-29034210D02*
X47323342Y-28996115D01*
X47323342Y-28996115D02*
X47361438Y-28919925D01*
X47361438Y-28919925D02*
X47361438Y-28805639D01*
X47361438Y-28805639D02*
X47323342Y-28729448D01*
X47323342Y-28729448D02*
X47285247Y-28691353D01*
X47285247Y-28691353D02*
X47209057Y-28653258D01*
X47209057Y-28653258D02*
X46980485Y-28653258D01*
X46980485Y-28653258D02*
X46904295Y-28691353D01*
X46904295Y-28691353D02*
X46866200Y-28729448D01*
X46866200Y-28729448D02*
X46828104Y-28805639D01*
X46828104Y-28805639D02*
X46828104Y-28919925D01*
X47361438Y-28310400D02*
X46561438Y-28310400D01*
X47323342Y-28310400D02*
X47361438Y-28234210D01*
X47361438Y-28234210D02*
X47361438Y-28081829D01*
X47361438Y-28081829D02*
X47323342Y-28005638D01*
X47323342Y-28005638D02*
X47285247Y-27967543D01*
X47285247Y-27967543D02*
X47209057Y-27929448D01*
X47209057Y-27929448D02*
X46980485Y-27929448D01*
X46980485Y-27929448D02*
X46904295Y-27967543D01*
X46904295Y-27967543D02*
X46866200Y-28005638D01*
X46866200Y-28005638D02*
X46828104Y-28081829D01*
X46828104Y-28081829D02*
X46828104Y-28234210D01*
X46828104Y-28234210D02*
X46866200Y-28310400D01*
X46828104Y-27586590D02*
X47361438Y-27586590D01*
X47628104Y-27586590D02*
X47590009Y-27624686D01*
X47590009Y-27624686D02*
X47551914Y-27586590D01*
X47551914Y-27586590D02*
X47590009Y-27548495D01*
X47590009Y-27548495D02*
X47628104Y-27586590D01*
X47628104Y-27586590D02*
X47551914Y-27586590D01*
X46828104Y-27281829D02*
X47361438Y-26862781D01*
X47361438Y-27281829D02*
X46828104Y-26862781D01*
X46866200Y-26253257D02*
X46828104Y-26329448D01*
X46828104Y-26329448D02*
X46828104Y-26481829D01*
X46828104Y-26481829D02*
X46866200Y-26558019D01*
X46866200Y-26558019D02*
X46942390Y-26596115D01*
X46942390Y-26596115D02*
X47247152Y-26596115D01*
X47247152Y-26596115D02*
X47323342Y-26558019D01*
X47323342Y-26558019D02*
X47361438Y-26481829D01*
X47361438Y-26481829D02*
X47361438Y-26329448D01*
X47361438Y-26329448D02*
X47323342Y-26253257D01*
X47323342Y-26253257D02*
X47247152Y-26215162D01*
X47247152Y-26215162D02*
X47170961Y-26215162D01*
X47170961Y-26215162D02*
X47094771Y-26596115D01*
X46828104Y-25758020D02*
X46866200Y-25834210D01*
X46866200Y-25834210D02*
X46942390Y-25872305D01*
X46942390Y-25872305D02*
X47628104Y-25872305D01*
X42673104Y-30024687D02*
X42673104Y-30481830D01*
X42673104Y-30253258D02*
X43473104Y-30253258D01*
X43473104Y-30253258D02*
X43358819Y-30329449D01*
X43358819Y-30329449D02*
X43282628Y-30405639D01*
X43282628Y-30405639D02*
X43244533Y-30481830D01*
X43396914Y-29719925D02*
X43435009Y-29681829D01*
X43435009Y-29681829D02*
X43473104Y-29605639D01*
X43473104Y-29605639D02*
X43473104Y-29415163D01*
X43473104Y-29415163D02*
X43435009Y-29338972D01*
X43435009Y-29338972D02*
X43396914Y-29300877D01*
X43396914Y-29300877D02*
X43320723Y-29262782D01*
X43320723Y-29262782D02*
X43244533Y-29262782D01*
X43244533Y-29262782D02*
X43130247Y-29300877D01*
X43130247Y-29300877D02*
X42673104Y-29758020D01*
X42673104Y-29758020D02*
X42673104Y-29262782D01*
X43473104Y-29034210D02*
X42673104Y-28767543D01*
X42673104Y-28767543D02*
X43473104Y-28500877D01*
X42088104Y-30062782D02*
X42088104Y-30443734D01*
X42088104Y-30443734D02*
X41707152Y-30481830D01*
X41707152Y-30481830D02*
X41745247Y-30443734D01*
X41745247Y-30443734D02*
X41783342Y-30367544D01*
X41783342Y-30367544D02*
X41783342Y-30177068D01*
X41783342Y-30177068D02*
X41745247Y-30100877D01*
X41745247Y-30100877D02*
X41707152Y-30062782D01*
X41707152Y-30062782D02*
X41630961Y-30024687D01*
X41630961Y-30024687D02*
X41440485Y-30024687D01*
X41440485Y-30024687D02*
X41364295Y-30062782D01*
X41364295Y-30062782D02*
X41326200Y-30100877D01*
X41326200Y-30100877D02*
X41288104Y-30177068D01*
X41288104Y-30177068D02*
X41288104Y-30367544D01*
X41288104Y-30367544D02*
X41326200Y-30443734D01*
X41326200Y-30443734D02*
X41364295Y-30481830D01*
X41821438Y-29758020D02*
X41288104Y-29567544D01*
X41288104Y-29567544D02*
X41821438Y-29377067D01*
X60970550Y-35960247D02*
X60894360Y-35998342D01*
X60894360Y-35998342D02*
X60856265Y-36036438D01*
X60856265Y-36036438D02*
X60818169Y-36112628D01*
X60818169Y-36112628D02*
X60818169Y-36150723D01*
X60818169Y-36150723D02*
X60856265Y-36226914D01*
X60856265Y-36226914D02*
X60894360Y-36265009D01*
X60894360Y-36265009D02*
X60970550Y-36303104D01*
X60970550Y-36303104D02*
X61122931Y-36303104D01*
X61122931Y-36303104D02*
X61199122Y-36265009D01*
X61199122Y-36265009D02*
X61237217Y-36226914D01*
X61237217Y-36226914D02*
X61275312Y-36150723D01*
X61275312Y-36150723D02*
X61275312Y-36112628D01*
X61275312Y-36112628D02*
X61237217Y-36036438D01*
X61237217Y-36036438D02*
X61199122Y-35998342D01*
X61199122Y-35998342D02*
X61122931Y-35960247D01*
X61122931Y-35960247D02*
X60970550Y-35960247D01*
X60970550Y-35960247D02*
X60894360Y-35922152D01*
X60894360Y-35922152D02*
X60856265Y-35884057D01*
X60856265Y-35884057D02*
X60818169Y-35807866D01*
X60818169Y-35807866D02*
X60818169Y-35655485D01*
X60818169Y-35655485D02*
X60856265Y-35579295D01*
X60856265Y-35579295D02*
X60894360Y-35541200D01*
X60894360Y-35541200D02*
X60970550Y-35503104D01*
X60970550Y-35503104D02*
X61122931Y-35503104D01*
X61122931Y-35503104D02*
X61199122Y-35541200D01*
X61199122Y-35541200D02*
X61237217Y-35579295D01*
X61237217Y-35579295D02*
X61275312Y-35655485D01*
X61275312Y-35655485D02*
X61275312Y-35807866D01*
X61275312Y-35807866D02*
X61237217Y-35884057D01*
X61237217Y-35884057D02*
X61199122Y-35922152D01*
X61199122Y-35922152D02*
X61122931Y-35960247D01*
M02*
