%TF.GenerationSoftware,KiCad,Pcbnew,8.0.8*%
%TF.CreationDate,2025-02-06T12:25:39+01:00*%
%TF.ProjectId,male static,6d616c65-2073-4746-9174-69632e6b6963,rev?*%
%TF.SameCoordinates,Original*%
%TF.FileFunction,Copper,L1,Top*%
%TF.FilePolarity,Positive*%
%FSLAX46Y46*%
G04 Gerber Fmt 4.6, Leading zero omitted, Abs format (unit mm)*
G04 Created by KiCad (PCBNEW 8.0.8) date 2025-02-06 12:25:39*
%MOMM*%
%LPD*%
G01*
G04 APERTURE LIST*
G04 Aperture macros list*
%AMRoundRect*
0 Rectangle with rounded corners*
0 $1 Rounding radius*
0 $2 $3 $4 $5 $6 $7 $8 $9 X,Y pos of 4 corners*
0 Add a 4 corners polygon primitive as box body*
4,1,4,$2,$3,$4,$5,$6,$7,$8,$9,$2,$3,0*
0 Add four circle primitives for the rounded corners*
1,1,$1+$1,$2,$3*
1,1,$1+$1,$4,$5*
1,1,$1+$1,$6,$7*
1,1,$1+$1,$8,$9*
0 Add four rect primitives between the rounded corners*
20,1,$1+$1,$2,$3,$4,$5,0*
20,1,$1+$1,$4,$5,$6,$7,0*
20,1,$1+$1,$6,$7,$8,$9,0*
20,1,$1+$1,$8,$9,$2,$3,0*%
G04 Aperture macros list end*
%TA.AperFunction,ComponentPad*%
%ADD10RoundRect,0.250000X-0.600000X-0.725000X0.600000X-0.725000X0.600000X0.725000X-0.600000X0.725000X0*%
%TD*%
%TA.AperFunction,ComponentPad*%
%ADD11O,1.700000X1.950000*%
%TD*%
%TA.AperFunction,ComponentPad*%
%ADD12C,4.000000*%
%TD*%
%TA.AperFunction,ComponentPad*%
%ADD13R,1.600000X1.600000*%
%TD*%
%TA.AperFunction,ComponentPad*%
%ADD14C,1.600000*%
%TD*%
%TA.AperFunction,ComponentPad*%
%ADD15RoundRect,0.250000X-0.600000X-0.750000X0.600000X-0.750000X0.600000X0.750000X-0.600000X0.750000X0*%
%TD*%
%TA.AperFunction,ComponentPad*%
%ADD16O,1.700000X2.000000*%
%TD*%
%TA.AperFunction,ViaPad*%
%ADD17C,1.200000*%
%TD*%
%TA.AperFunction,Conductor*%
%ADD18C,0.400000*%
%TD*%
%TA.AperFunction,Conductor*%
%ADD19C,1.000000*%
%TD*%
G04 APERTURE END LIST*
D10*
%TO.P,J5,1,Pin_1*%
%TO.N,GND*%
X64000000Y-79000000D03*
D11*
%TO.P,J5,2,Pin_2*%
%TO.N,/5V*%
X66500000Y-79000000D03*
%TO.P,J5,3,Pin_3*%
%TO.N,/body neopixel male input*%
X69000000Y-79000000D03*
%TD*%
D10*
%TO.P,J3,1,Pin_1*%
%TO.N,GND*%
X31000000Y-49000000D03*
D11*
%TO.P,J3,2,Pin_2*%
%TO.N,/5V*%
X33500000Y-49000000D03*
%TO.P,J3,3,Pin_3*%
%TO.N,/microphone male output*%
X36000000Y-49000000D03*
%TD*%
D10*
%TO.P,J11,1,Pin_1*%
%TO.N,GND*%
X64000000Y-69000000D03*
D11*
%TO.P,J11,2,Pin_2*%
%TO.N,/5V*%
X66500000Y-69000000D03*
%TO.P,J11,3,Pin_3*%
%TO.N,/bar neopixel male input*%
X69000000Y-69000000D03*
%TD*%
D10*
%TO.P,J1,1,Pin_1*%
%TO.N,GND*%
X31000000Y-79000000D03*
D11*
%TO.P,J1,2,Pin_2*%
%TO.N,/5V*%
X33500000Y-79000000D03*
%TO.P,J1,3,Pin_3*%
%TO.N,/photo sensor male output c*%
X36000000Y-79000000D03*
%TD*%
D12*
%TO.P,J7,0,PAD*%
%TO.N,GND*%
X66650000Y-32000000D03*
X33350000Y-32000000D03*
D13*
%TO.P,J7,1,1*%
X40305000Y-34840000D03*
D14*
%TO.P,J7,2,2*%
%TO.N,/12V*%
X43075000Y-34840000D03*
%TO.P,J7,3,3*%
%TO.N,/microphone male output*%
X45845000Y-34840000D03*
%TO.P,J7,4,4*%
%TO.N,/photo sensor male output a*%
X48615000Y-34840000D03*
%TO.P,J7,5,5*%
%TO.N,/photo sensor male output c*%
X51385000Y-34840000D03*
%TO.P,J7,6,6*%
%TO.N,/state LED male output*%
X54155000Y-34840000D03*
%TO.P,J7,7,7*%
%TO.N,/speaker male -*%
X56925000Y-34840000D03*
%TO.P,J7,8,8*%
%TO.N,unconnected-(J7-Pad8)*%
X59695000Y-34840000D03*
%TO.P,J7,9,P9*%
%TO.N,/5V*%
X41690000Y-32000000D03*
%TO.P,J7,10,P10*%
%TO.N,/dynamixel data*%
X44460000Y-32000000D03*
%TO.P,J7,11,P111*%
%TO.N,/body neopixel male input*%
X47230000Y-32000000D03*
%TO.P,J7,12,P12*%
%TO.N,/photo sensor male output b*%
X50000000Y-32000000D03*
%TO.P,J7,13,P13*%
%TO.N,/photo sensor male output d*%
X52770000Y-32000000D03*
%TO.P,J7,14,P14*%
%TO.N,/speaker male +*%
X55540000Y-32000000D03*
%TO.P,J7,15,P15*%
%TO.N,/bar neopixel male input*%
X58310000Y-32000000D03*
%TD*%
D10*
%TO.P,J4,1,Pin_1*%
%TO.N,GND*%
X31000000Y-89000000D03*
D11*
%TO.P,J4,2,Pin_2*%
%TO.N,/5V*%
X33500000Y-89000000D03*
%TO.P,J4,3,Pin_3*%
%TO.N,/photo sensor male output d*%
X36000000Y-89000000D03*
%TD*%
D10*
%TO.P,J2,1,Pin_1*%
%TO.N,GND*%
X64000000Y-89000000D03*
D11*
%TO.P,J2,2,Pin_2*%
%TO.N,/12V*%
X66500000Y-89000000D03*
%TO.P,J2,3,Pin_3*%
%TO.N,/dynamixel data*%
X69000000Y-89000000D03*
%TD*%
D15*
%TO.P,J6,1,Pin_1*%
%TO.N,/speaker male +*%
X66500000Y-49000000D03*
D16*
%TO.P,J6,2,Pin_2*%
%TO.N,/speaker male -*%
X69000000Y-49000000D03*
%TD*%
D15*
%TO.P,J10,1,Pin_1*%
%TO.N,GND*%
X66500000Y-59000000D03*
D16*
%TO.P,J10,2,Pin_2*%
%TO.N,/state LED male output*%
X69000000Y-59000000D03*
%TD*%
D10*
%TO.P,J8,1,Pin_1*%
%TO.N,GND*%
X31000000Y-69000000D03*
D11*
%TO.P,J8,2,Pin_2*%
%TO.N,/5V*%
X33500000Y-69000000D03*
%TO.P,J8,3,Pin_3*%
%TO.N,/photo sensor male output b*%
X36000000Y-69000000D03*
%TD*%
D10*
%TO.P,J9,1,Pin_1*%
%TO.N,GND*%
X31000000Y-59000000D03*
D11*
%TO.P,J9,2,Pin_2*%
%TO.N,/5V*%
X33500000Y-59000000D03*
%TO.P,J9,3,Pin_3*%
%TO.N,/photo sensor male output a*%
X36000000Y-59000000D03*
%TD*%
D17*
%TO.N,/12V*%
X46000000Y-56000000D03*
%TD*%
D18*
%TO.N,/photo sensor male output c*%
X39596700Y-46628300D02*
X39596700Y-76655000D01*
X39596700Y-76655000D02*
X37251700Y-79000000D01*
X51385000Y-34840000D02*
X39596700Y-46628300D01*
X36000000Y-79000000D02*
X37251700Y-79000000D01*
%TO.N,/microphone male output*%
X36000000Y-44685000D02*
X45845000Y-34840000D01*
X36000000Y-49000000D02*
X36000000Y-44685000D01*
%TO.N,/photo sensor male output d*%
X52770000Y-38512000D02*
X42553700Y-48728300D01*
X42553700Y-48728300D02*
X42553700Y-83698000D01*
X36000000Y-89000000D02*
X37251700Y-89000000D01*
X42553700Y-83698000D02*
X37251700Y-89000000D01*
X52770000Y-32000000D02*
X52770000Y-38512000D01*
D19*
%TO.N,/5V*%
X66500000Y-69000000D02*
X66500000Y-79000000D01*
X33500000Y-59000000D02*
X33500000Y-49000000D01*
X33500000Y-89000000D02*
X33500000Y-79000000D01*
X33500000Y-69000000D02*
X33500000Y-59000000D01*
D18*
%TO.N,/photo sensor male output b*%
X49700500Y-32000000D02*
X47123400Y-34577100D01*
X36000000Y-69000000D02*
X37251700Y-69000000D01*
X47123400Y-37179900D02*
X37251700Y-47051600D01*
X47123400Y-34577100D02*
X47123400Y-37179900D01*
X50000000Y-32000000D02*
X49700500Y-32000000D01*
X37251700Y-47051600D02*
X37251700Y-69000000D01*
D19*
%TO.N,/12V*%
X64475000Y-93000000D02*
X66500000Y-90975000D01*
X53000000Y-93000000D02*
X53000000Y-62000000D01*
X47000000Y-56000000D02*
X46000000Y-56000000D01*
D18*
X43332500Y-34840000D02*
X43075000Y-34840000D01*
D19*
X66500000Y-90975000D02*
X66500000Y-89000000D01*
X53000000Y-62000000D02*
X47000000Y-56000000D01*
X53000000Y-93000000D02*
X64475000Y-93000000D01*
%TO.N,GND*%
X31000000Y-69000000D02*
X31000000Y-59000000D01*
X64000000Y-89000000D02*
X64000000Y-79000000D01*
X31000000Y-40030000D02*
X31000000Y-49000000D01*
X62000000Y-46000000D02*
X65224100Y-42775900D01*
X31000000Y-69000000D02*
X31000000Y-79000000D01*
X65224100Y-42775900D02*
X65224100Y-33425900D01*
X31000000Y-34350000D02*
X33350000Y-32000000D01*
X31000000Y-89000000D02*
X31000000Y-79000000D01*
X64000000Y-69000000D02*
X66500000Y-66500000D01*
X33350000Y-32000000D02*
X39350000Y-26000000D01*
X65224100Y-33425900D02*
X66650000Y-32000000D01*
X66500000Y-59000000D02*
X62000000Y-54500000D01*
X65224100Y-30224100D02*
X65224100Y-33425900D01*
X40305000Y-34840000D02*
X36190000Y-34840000D01*
X39350000Y-26000000D02*
X61000000Y-26000000D01*
X61000000Y-26000000D02*
X65224100Y-30224100D01*
X36190000Y-34840000D02*
X33350000Y-32000000D01*
X31000000Y-59000000D02*
X31000000Y-49000000D01*
X66500000Y-66500000D02*
X66500000Y-59000000D01*
X62000000Y-54500000D02*
X62000000Y-46000000D01*
X64000000Y-69000000D02*
X64000000Y-79000000D01*
X31000000Y-40030000D02*
X31000000Y-34350000D01*
%TD*%
M02*
