%TF.GenerationSoftware,KiCad,Pcbnew,9.0.1*%
%TF.CreationDate,2025-07-07T12:38:31+02:00*%
%TF.ProjectId,electronic box,656c6563-7472-46f6-9e69-6320626f782e,rev?*%
%TF.SameCoordinates,Original*%
%TF.FileFunction,Legend,Bot*%
%TF.FilePolarity,Positive*%
%FSLAX46Y46*%
G04 Gerber Fmt 4.6, Leading zero omitted, Abs format (unit mm)*
G04 Created by KiCad (PCBNEW 9.0.1) date 2025-07-07 12:38:31*
%MOMM*%
%LPD*%
G01*
G04 APERTURE LIST*
%ADD10C,0.150000*%
G04 APERTURE END LIST*
D10*
X195685104Y-55145714D02*
X195685104Y-55621904D01*
X195970819Y-55050476D02*
X194970819Y-55383809D01*
X194970819Y-55383809D02*
X195970819Y-55717142D01*
X195970819Y-56574285D02*
X195970819Y-56002857D01*
X195970819Y-56288571D02*
X194970819Y-56288571D01*
X194970819Y-56288571D02*
X195113676Y-56193333D01*
X195113676Y-56193333D02*
X195208914Y-56098095D01*
X195208914Y-56098095D02*
X195256533Y-56002857D01*
X173523580Y-115803999D02*
X173571200Y-115756380D01*
X173571200Y-115756380D02*
X173618819Y-115803999D01*
X173618819Y-115803999D02*
X173571200Y-115851618D01*
X173571200Y-115851618D02*
X173523580Y-115803999D01*
X173523580Y-115803999D02*
X173618819Y-115803999D01*
X189600180Y-117558094D02*
X190600180Y-117558094D01*
X190600180Y-117558094D02*
X190600180Y-117319999D01*
X190600180Y-117319999D02*
X190552561Y-117177142D01*
X190552561Y-117177142D02*
X190457323Y-117081904D01*
X190457323Y-117081904D02*
X190362085Y-117034285D01*
X190362085Y-117034285D02*
X190171609Y-116986666D01*
X190171609Y-116986666D02*
X190028752Y-116986666D01*
X190028752Y-116986666D02*
X189838276Y-117034285D01*
X189838276Y-117034285D02*
X189743038Y-117081904D01*
X189743038Y-117081904D02*
X189647800Y-117177142D01*
X189647800Y-117177142D02*
X189600180Y-117319999D01*
X189600180Y-117319999D02*
X189600180Y-117558094D01*
X190600180Y-116367618D02*
X190600180Y-116272380D01*
X190600180Y-116272380D02*
X190552561Y-116177142D01*
X190552561Y-116177142D02*
X190504942Y-116129523D01*
X190504942Y-116129523D02*
X190409704Y-116081904D01*
X190409704Y-116081904D02*
X190219228Y-116034285D01*
X190219228Y-116034285D02*
X189981133Y-116034285D01*
X189981133Y-116034285D02*
X189790657Y-116081904D01*
X189790657Y-116081904D02*
X189695419Y-116129523D01*
X189695419Y-116129523D02*
X189647800Y-116177142D01*
X189647800Y-116177142D02*
X189600180Y-116272380D01*
X189600180Y-116272380D02*
X189600180Y-116367618D01*
X189600180Y-116367618D02*
X189647800Y-116462856D01*
X189647800Y-116462856D02*
X189695419Y-116510475D01*
X189695419Y-116510475D02*
X189790657Y-116558094D01*
X189790657Y-116558094D02*
X189981133Y-116605713D01*
X189981133Y-116605713D02*
X190219228Y-116605713D01*
X190219228Y-116605713D02*
X190409704Y-116558094D01*
X190409704Y-116558094D02*
X190504942Y-116510475D01*
X190504942Y-116510475D02*
X190552561Y-116462856D01*
X190552561Y-116462856D02*
X190600180Y-116367618D01*
%TO.C,A1*%
X141160000Y-53320000D02*
X141160000Y-152380000D01*
X141160000Y-152380000D02*
X142430000Y-152380000D01*
X142430000Y-152380000D02*
X144970000Y-154920000D01*
X144970000Y-154920000D02*
X179260000Y-154920000D01*
X179260000Y-154920000D02*
X181800000Y-152380000D01*
X181800000Y-152380000D02*
X192976000Y-152380000D01*
X194500000Y-53320000D02*
X141160000Y-53320000D01*
X194500000Y-53320000D02*
X194500000Y-150856000D01*
X194500000Y-150856000D02*
X192976000Y-152380000D01*
%TD*%
M02*
