M48
; DRILL file {KiCad 9.0.1} date 2025-07-07T12:38:39+0200
; FORMAT={-:-/ absolute / metric / decimal}
; #@! TF.CreationDate,2025-07-07T12:38:39+02:00
; #@! TF.GenerationSoftware,Kicad,Pcbnew,9.0.1
; #@! TF.FileFunction,Plated,1,2,PTH
FMAT,2
METRIC
; #@! TA.AperFunction,Plated,PTH,ViaDrill
T1C0.300
; #@! TA.AperFunction,Plated,PTH,ViaDrill
T2C0.500
; #@! TA.AperFunction,Plated,PTH,ComponentDrill
T3C0.500
; #@! TA.AperFunction,Plated,PTH,ComponentDrill
T4C0.750
; #@! TA.AperFunction,Plated,PTH,ComponentDrill
T5C0.800
; #@! TA.AperFunction,Plated,PTH,ComponentDrill
T6C0.950
; #@! TA.AperFunction,Plated,PTH,ComponentDrill
T7C1.000
; #@! TA.AperFunction,Plated,PTH,ComponentDrill
T8C1.016
; #@! TA.AperFunction,Plated,PTH,ComponentDrill
T9C1.200
; #@! TA.AperFunction,Plated,PTH,ComponentDrill
T10C1.500
; #@! TA.AperFunction,Plated,PTH,ComponentDrill
T11C3.200
%
G90
G05
T1
X61.722Y-310.134
X72.39Y-242.316
X74.422Y-262.89
X82.042Y-248.666
X87.376Y-272.796
X93.726Y-262.382
X96.266Y-316.23
X98.044Y-279.146
X98.044Y-317.5
X100.33Y-287.274
X103.124Y-306.324
X104.648Y-299.974
X104.902Y-135.382
X106.426Y-304.546
X110.236Y-312.928
X110.236Y-319.532
X112.268Y-194.056
X112.268Y-231.648
X115.824Y-131.826
X116.078Y-298.958
X116.332Y-195.834
X118.872Y-196.85
X119.126Y-130.302
X121.158Y-128.524
X122.682Y-253.238
X123.698Y-125.984
X124.968Y-190.246
X125.476Y-251.206
X128.016Y-312.42
X129.286Y-312.42
X129.54Y-233.426
X130.81Y-312.42
X132.334Y-312.42
X136.906Y-203.708
X138.938Y-204.47
X139.446Y-207.264
X142.748Y-237.236
X144.018Y-237.236
X145.542Y-237.49
X147.066Y-237.49
X151.638Y-268.224
X151.892Y-251.206
X159.004Y-268.224
X160.274Y-245.11
X163.322Y-195.58
X164.973Y-167.513
X164.973Y-171.577
X165.1Y-165.354
X165.1Y-169.926
X165.1Y-227.584
X167.132Y-195.58
X169.164Y-226.822
X169.672Y-280.162
X171.958Y-194.818
X173.228Y-194.564
X174.752Y-195.072
X175.514Y-277.368
X176.53Y-195.072
X178.816Y-186.944
X180.086Y-206.502
X181.356Y-175.26
X181.61Y-193.548
X181.61Y-268.986
X183.134Y-193.44
X183.134Y-220.472
X183.388Y-175.514
X183.388Y-311.912
X184.15Y-220.472
X185.166Y-311.912
X185.42Y-220.472
X186.436Y-220.472
X187.198Y-311.912
X187.706Y-304.546
X188.722Y-311.15
X190.754Y-194.818
X190.754Y-201.422
X191.008Y-310.642
X192.024Y-320.548
X193.04Y-241.808
X193.548Y-289.306
X193.548Y-320.548
X193.802Y-293.116
X194.564Y-222.758
X195.58Y-326.898
X196.342Y-306.07
X199.39Y-306.07
X199.644Y-195.072
X201.168Y-318.987
X203.454Y-280.162
X203.866Y-219.614
X210.484Y-216.326
X211.328Y-121.412
X213.36Y-260.604
X214.884Y-232.918
X215.646Y-254.762
X218.44Y-299.466
X220.472Y-309.88
X222.504Y-309.626
X226.568Y-300.482
X227.33Y-164.592
X229.362Y-164.846
X230.632Y-302.26
X242.316Y-131.826
T2
X155.956Y-337.8
X167.386Y-337.82
T3
X64.96Y-139.68
X204.66Y-325.1
T4
X197.04Y-167.62
X197.04Y-168.89
X197.04Y-170.16
X202.438Y-172.974
X202.438Y-174.244
X202.438Y-175.514
T5
X186.69Y-177.546
X186.69Y-187.706
X191.516Y-177.546
X191.516Y-187.706
X200.66Y-148.844
X200.66Y-159.004
X205.486Y-149.098
X205.486Y-159.258
T6
X65.04Y-124.44
X67.54Y-124.44
X70.04Y-124.44
T7
X55.16Y-304.655
X55.16Y-307.425
X55.16Y-310.195
X55.16Y-312.965
X55.16Y-315.735
X55.16Y-318.505
X55.16Y-321.275
X58.0Y-303.27
X58.0Y-306.04
X58.0Y-308.81
X58.0Y-311.58
X58.0Y-314.35
X58.0Y-317.12
X58.0Y-319.89
X58.0Y-322.66
X58.42Y-272.034
X58.42Y-274.574
X58.42Y-277.114
X58.42Y-279.654
X58.42Y-282.194
X58.42Y-284.734
X64.48Y-222.43
X64.48Y-224.97
X77.22Y-220.0
X77.22Y-222.54
X77.22Y-225.08
X77.22Y-227.62
X77.22Y-230.16
X77.22Y-232.7
X77.22Y-235.24
X77.22Y-237.78
X90.36Y-302.24
X90.36Y-304.78
X95.0Y-220.0
X95.0Y-222.54
X95.0Y-225.08
X95.0Y-227.62
X95.0Y-230.16
X95.0Y-232.7
X95.0Y-235.24
X95.0Y-237.78
X97.305Y-334.96
X98.69Y-337.8
X100.075Y-334.96
X101.46Y-337.8
X102.845Y-334.96
X104.23Y-337.8
X105.615Y-334.96
X107.0Y-337.8
X108.385Y-334.96
X109.248Y-232.7
X109.248Y-237.78
X109.77Y-337.8
X111.155Y-334.96
X112.22Y-244.46
X112.22Y-247.0
X112.22Y-249.54
X112.22Y-252.08
X112.22Y-254.62
X112.22Y-257.16
X112.22Y-259.7
X112.22Y-262.24
X112.54Y-337.8
X113.925Y-334.96
X114.328Y-235.24
X115.31Y-337.8
X116.695Y-334.96
X130.0Y-244.46
X130.0Y-247.0
X130.0Y-249.54
X130.0Y-252.08
X130.0Y-254.62
X130.0Y-257.16
X130.0Y-259.7
X130.0Y-262.24
X132.27Y-104.12
X132.27Y-106.66
X132.27Y-109.2
X132.27Y-111.74
X132.27Y-114.28
X132.27Y-116.82
X132.27Y-119.36
X132.27Y-121.9
X132.27Y-126.98
X132.27Y-129.52
X132.27Y-132.06
X132.27Y-134.6
X132.27Y-137.14
X132.27Y-139.68
X132.27Y-142.22
X132.27Y-144.76
X133.54Y-81.26
X133.54Y-83.8
X133.54Y-86.34
X133.54Y-88.88
X133.54Y-91.42
X133.54Y-93.96
X133.54Y-96.5
X133.54Y-99.04
X134.81Y-104.12
X134.81Y-106.66
X134.81Y-109.2
X134.81Y-111.74
X134.81Y-114.28
X134.81Y-116.82
X134.81Y-119.36
X134.81Y-121.9
X134.81Y-126.98
X134.81Y-129.52
X134.81Y-132.06
X134.81Y-134.6
X134.81Y-137.14
X134.81Y-139.68
X134.81Y-142.22
X134.81Y-144.76
X143.86Y-257.16
X143.86Y-262.24
X148.78Y-158.73
X148.78Y-161.27
X148.94Y-259.7
X151.32Y-158.73
X151.32Y-161.27
X151.32Y-296.16
X151.32Y-298.7
X153.86Y-158.73
X153.86Y-161.27
X156.4Y-158.73
X156.4Y-161.27
X157.22Y-220.0
X157.22Y-222.54
X157.22Y-225.08
X157.22Y-227.62
X157.22Y-230.16
X157.22Y-232.7
X157.22Y-235.24
X157.22Y-237.78
X158.94Y-158.73
X158.94Y-161.27
X161.48Y-158.73
X161.48Y-161.27
X164.02Y-158.73
X164.02Y-161.27
X166.56Y-158.73
X166.56Y-161.27
X169.1Y-158.73
X169.1Y-161.27
X171.64Y-158.73
X171.64Y-161.27
X172.0Y-248.0
X172.0Y-250.54
X172.0Y-253.08
X172.0Y-255.62
X172.0Y-258.16
X172.0Y-260.7
X172.0Y-263.24
X172.0Y-265.78
X174.18Y-158.73
X174.18Y-161.27
X175.0Y-220.0
X175.0Y-222.54
X175.0Y-225.08
X175.0Y-227.62
X175.0Y-230.16
X175.0Y-232.7
X175.0Y-235.24
X175.0Y-237.78
X176.72Y-158.73
X176.72Y-161.27
X179.26Y-158.73
X179.26Y-161.27
X179.655Y-334.96
X181.04Y-337.8
X181.8Y-158.73
X181.8Y-161.27
X182.425Y-334.96
X183.81Y-337.8
X184.34Y-158.73
X184.34Y-161.27
X185.195Y-334.96
X186.58Y-337.8
X186.69Y-170.18
X186.88Y-158.73
X186.88Y-161.27
X187.965Y-334.96
X189.06Y-232.7
X189.06Y-237.78
X189.23Y-170.18
X189.35Y-337.8
X189.42Y-158.73
X189.42Y-161.27
X189.78Y-248.0
X189.78Y-250.54
X189.78Y-253.08
X189.78Y-255.62
X189.78Y-258.16
X189.78Y-260.7
X189.78Y-263.24
X189.78Y-265.78
X190.735Y-334.96
X191.516Y-174.244
X191.96Y-158.73
X191.96Y-161.27
X191.96Y-299.7
X191.96Y-302.24
X192.12Y-337.8
X193.505Y-334.96
X194.056Y-174.244
X194.14Y-235.24
X194.89Y-337.8
X196.275Y-334.96
X197.66Y-337.8
X199.045Y-334.96
X200.85Y-72.116
X200.85Y-74.656
X200.85Y-77.196
X200.85Y-79.736
X200.85Y-82.276
X200.85Y-84.816
X200.85Y-87.356
X200.85Y-89.896
X200.85Y-92.436
X200.85Y-94.976
X200.85Y-99.04
X200.85Y-101.58
X200.85Y-104.12
X200.85Y-106.66
X200.85Y-109.2
X200.85Y-111.74
X200.85Y-114.28
X200.85Y-116.82
X200.85Y-121.9
X200.85Y-124.44
X200.85Y-126.98
X200.85Y-129.52
X200.85Y-132.06
X200.85Y-134.6
X200.85Y-137.14
X200.85Y-139.68
X203.8Y-260.7
X203.8Y-265.78
X204.66Y-167.62
X206.22Y-204.56
X206.22Y-207.1
X206.22Y-209.64
X206.22Y-212.18
X206.22Y-214.72
X206.22Y-217.26
X206.22Y-219.8
X206.22Y-222.34
X207.2Y-167.62
X208.788Y-174.498
X208.88Y-263.24
X211.328Y-174.498
X222.44Y-260.6
X222.44Y-263.14
X224.0Y-204.56
X224.0Y-207.1
X224.0Y-209.64
X224.0Y-212.18
X224.0Y-214.72
X224.0Y-217.26
X224.0Y-219.8
X224.0Y-222.34
X226.568Y-316.738
X226.568Y-319.278
X226.568Y-321.818
X226.568Y-324.358
X226.568Y-326.898
X226.568Y-329.438
X237.8Y-217.26
X237.8Y-222.34
X239.16Y-303.27
X239.16Y-306.04
X239.16Y-308.81
X239.16Y-311.58
X239.16Y-314.35
X239.16Y-317.12
X239.16Y-319.89
X239.16Y-322.66
X242.0Y-304.655
X242.0Y-307.425
X242.0Y-310.195
X242.0Y-312.965
X242.0Y-315.735
X242.0Y-318.505
X242.0Y-321.275
X242.88Y-219.8
T8
X143.7Y-81.26
X143.7Y-83.8
X143.7Y-86.34
X143.7Y-88.88
X143.7Y-91.42
X143.7Y-93.96
X143.7Y-96.5
X143.7Y-99.04
X143.7Y-104.12
X143.7Y-106.66
X143.7Y-109.2
X143.7Y-111.74
X143.7Y-114.28
X143.7Y-116.82
X143.7Y-119.36
X143.7Y-121.9
X143.7Y-126.98
X143.7Y-129.52
X143.7Y-132.06
X143.7Y-134.6
X143.7Y-137.14
X143.7Y-139.68
X143.7Y-142.22
X143.7Y-144.76
X148.78Y-147.3
X148.78Y-149.84
X151.32Y-147.3
X151.32Y-149.84
X153.86Y-147.3
X153.86Y-149.84
X156.4Y-147.3
X156.4Y-149.84
X158.94Y-147.3
X158.94Y-149.84
X161.48Y-147.3
X161.48Y-149.84
X164.02Y-147.3
X164.02Y-149.84
X166.56Y-116.947
X166.56Y-119.487
X166.56Y-147.3
X166.56Y-149.84
X169.1Y-116.947
X169.1Y-119.487
X169.1Y-147.3
X169.1Y-149.84
X171.64Y-116.947
X171.64Y-119.487
X171.64Y-147.3
X171.64Y-149.84
X174.18Y-147.3
X174.18Y-149.84
X176.72Y-147.3
X176.72Y-149.84
X179.26Y-147.3
X179.26Y-149.84
X181.8Y-147.3
X181.8Y-149.84
X184.34Y-147.3
X184.34Y-149.84
X186.88Y-147.3
X186.88Y-149.84
X189.42Y-147.3
X189.42Y-149.84
X191.96Y-72.116
X191.96Y-74.656
X191.96Y-77.196
X191.96Y-79.736
X191.96Y-82.276
X191.96Y-84.816
X191.96Y-87.356
X191.96Y-89.896
X191.96Y-92.436
X191.96Y-94.976
X191.96Y-99.04
X191.96Y-101.58
X191.96Y-104.12
X191.96Y-106.66
X191.96Y-109.2
X191.96Y-111.74
X191.96Y-114.28
X191.96Y-116.82
X191.96Y-121.9
X191.96Y-124.44
X191.96Y-126.98
X191.96Y-129.52
X191.96Y-132.06
X191.96Y-134.6
X191.96Y-137.14
X191.96Y-139.68
X191.96Y-147.3
X191.96Y-149.84
T9
X223.79Y-64.75
X228.79Y-64.75
T10
X228.68Y-93.98
X228.68Y-108.98
X233.68Y-93.98
X233.68Y-108.98
X238.68Y-93.98
X238.68Y-108.98
X239.7Y-66.02
T11
X55.16Y-296.315
X55.16Y-329.615
X90.35Y-337.8
X123.65Y-337.8
X172.7Y-337.8
X206.0Y-337.8
X242.0Y-296.315
X242.0Y-329.615
T5
G00X242.1Y-61.17
M15
G01X240.9Y-61.17
M16
G05
G00X242.1Y-70.87
M15
G01X240.9Y-70.87
M16
G05
G00X245.7Y-64.92
M15
G01X245.7Y-67.12
M16
G05
G00X246.8Y-61.17
M15
G01X245.6Y-61.17
M16
G05
G00X246.8Y-70.87
M15
G01X245.6Y-70.87
M16
G05
M30
