M48
; DRILL file {KiCad 9.0.7} date 2026-09-30T15:59:44+0200
; FORMAT={-:-/ absolute / metric / decimal}
; #@! TF.CreationDate,2026-09-30T15:59:44+02:00
; #@! TF.GenerationSoftware,Kicad,Pcbnew,9.0.7
; #@! TF.FileFunction,Plated,1,2,PTH
FMAT,2
METRIC
; #@! TA.AperFunction,Plated,PTH,ViaDrill
T1C0.400
; #@! TA.AperFunction,Plated,PTH,ComponentDrill
T2C0.700
; #@! TA.AperFunction,Plated,PTH,ComponentDrill
T3C0.800
; #@! TA.AperFunction,Plated,PTH,ComponentDrill
T4C0.950
; #@! TA.AperFunction,Plated,PTH,ComponentDrill
T5C1.000
; #@! TA.AperFunction,Plated,PTH,ComponentDrill
T6C1.016
; #@! TA.AperFunction,Plated,PTH,ComponentDrill
T7C1.200
; #@! TA.AperFunction,Plated,PTH,ComponentDrill
T8C1.500
; #@! TA.AperFunction,Plated,PTH,ComponentDrill
T9C3.200
%
G90
G05
T1
X49.849Y-315.577
X64.247Y-306.187
X64.288Y-308.732
X65.475Y-304.959
X69.192Y-305.252
X69.225Y-296.046
X74.643Y-228.78
X76.798Y-168.887
X88.282Y-336.08
X98.508Y-340.168
X104.23Y-343.617
X105.116Y-188.033
X105.615Y-343.635
X107.115Y-331.186
X108.223Y-331.142
X109.342Y-343.738
X110.494Y-342.799
X116.849Y-339.272
X119.252Y-337.573
X120.776Y-331.168
X121.371Y-295.632
X122.231Y-333.677
X134.255Y-194.032
X134.255Y-331.144
X135.897Y-333.256
X137.103Y-232.119
X137.103Y-332.426
X144.1Y-124.56
X145.036Y-260.878
X145.483Y-143.227
X145.9Y-126.36
X149.337Y-234.685
X166.142Y-237.019
X167.259Y-250.625
X172.687Y-325.695
X176.646Y-334.569
X182.36Y-258.485
X183.81Y-326.268
X184.798Y-237.058
X186.207Y-264.062
X186.3Y-266.86
X190.213Y-317.988
X193.505Y-327.101
X194.359Y-167.268
X200.619Y-333.75
X200.68Y-136.762
X204.355Y-155.261
X209.845Y-339.463
X213.803Y-339.452
X217.92Y-333.41
X218.8Y-299.36
X218.8Y-301.96
X227.319Y-240.337
X229.736Y-237.712
X231.4Y-308.16
X231.6Y-315.26
X234.582Y-307.27
X235.392Y-304.553
X237.2Y-302.16
T2
X78.0Y-264.0
X92.0Y-217.0
X110.0Y-264.0
X124.0Y-217.0
X127.0Y-103.0
X132.0Y-91.0
X142.0Y-264.0
X156.0Y-217.0
X174.0Y-264.0
X188.0Y-217.0
X203.0Y-100.0
X203.0Y-105.0
X206.0Y-264.0
X220.0Y-217.0
X224.0Y-110.0
X231.0Y-79.0
X232.0Y-86.0
T3
X78.0Y-185.0
X78.0Y-201.0
X78.0Y-217.0
X78.0Y-229.0
X78.0Y-243.0
X78.0Y-279.0
X82.0Y-250.0
X82.0Y-252.54
X82.0Y-255.08
X82.0Y-257.62
X83.0Y-243.0
X88.16Y-185.0
X88.16Y-201.0
X88.16Y-217.0
X88.16Y-229.0
X88.16Y-279.0
X89.62Y-250.0
X89.62Y-252.54
X89.62Y-255.08
X89.62Y-257.62
X90.0Y-238.0
X90.0Y-245.0
X92.0Y-191.0
X92.0Y-207.0
X92.0Y-262.84
X92.0Y-273.0
X92.0Y-281.0
X93.0Y-258.0
X93.25Y-191.0
X93.25Y-207.0
X95.0Y-245.0
X97.0Y-281.0
X98.0Y-258.0
X98.25Y-191.0
X98.25Y-207.0
X99.5Y-191.0
X99.5Y-207.0
X100.16Y-238.0
X110.0Y-185.0
X110.0Y-201.0
X110.0Y-217.0
X110.0Y-229.0
X110.0Y-243.0
X110.0Y-279.0
X114.0Y-250.0
X114.0Y-252.54
X114.0Y-255.08
X114.0Y-257.62
X115.0Y-243.0
X120.16Y-185.0
X120.16Y-201.0
X120.16Y-217.0
X120.16Y-229.0
X120.16Y-279.0
X121.62Y-250.0
X121.62Y-252.54
X121.62Y-255.08
X121.62Y-257.62
X122.0Y-238.0
X122.0Y-245.0
X124.0Y-117.0
X124.0Y-121.0
X124.0Y-125.0
X124.0Y-129.0
X124.0Y-133.0
X124.0Y-137.0
X124.0Y-141.0
X124.0Y-145.0
X124.0Y-149.0
X124.0Y-153.0
X124.0Y-157.0
X124.0Y-191.0
X124.0Y-207.0
X124.0Y-262.84
X124.0Y-273.0
X124.0Y-281.0
X125.0Y-258.0
X125.25Y-191.0
X125.25Y-207.0
X127.0Y-96.5
X127.0Y-245.0
X129.0Y-281.0
X130.0Y-258.0
X130.25Y-191.0
X130.25Y-207.0
X131.5Y-191.0
X131.5Y-207.0
X132.16Y-238.0
X134.16Y-117.0
X134.16Y-121.0
X134.16Y-125.0
X134.16Y-129.0
X134.16Y-133.0
X134.16Y-137.0
X134.16Y-141.0
X134.16Y-145.0
X134.16Y-149.0
X134.16Y-153.0
X134.16Y-157.0
X137.16Y-96.5
X142.0Y-185.0
X142.0Y-201.0
X142.0Y-217.0
X142.0Y-229.0
X142.0Y-243.0
X142.0Y-279.0
X146.0Y-250.0
X146.0Y-252.54
X146.0Y-255.08
X146.0Y-257.62
X147.0Y-243.0
X152.16Y-185.0
X152.16Y-201.0
X152.16Y-217.0
X152.16Y-229.0
X152.16Y-279.0
X153.62Y-250.0
X153.62Y-252.54
X153.62Y-255.08
X153.62Y-257.62
X154.0Y-238.0
X154.0Y-245.0
X156.0Y-191.0
X156.0Y-207.0
X156.0Y-262.84
X156.0Y-273.0
X156.0Y-281.0
X157.0Y-258.0
X157.25Y-191.0
X157.25Y-207.0
X159.0Y-245.0
X161.0Y-281.0
X162.0Y-258.0
X162.25Y-191.0
X162.25Y-207.0
X163.5Y-191.0
X163.5Y-207.0
X164.16Y-238.0
X174.0Y-185.0
X174.0Y-201.0
X174.0Y-217.0
X174.0Y-229.0
X174.0Y-243.0
X174.0Y-279.0
X178.0Y-250.0
X178.0Y-252.54
X178.0Y-255.08
X178.0Y-257.62
X179.0Y-243.0
X184.16Y-185.0
X184.16Y-201.0
X184.16Y-217.0
X184.16Y-229.0
X184.16Y-279.0
X185.62Y-250.0
X185.62Y-252.54
X185.62Y-255.08
X185.62Y-257.62
X186.0Y-238.0
X186.0Y-245.0
X188.0Y-160.0
X188.0Y-165.0
X188.0Y-191.0
X188.0Y-207.0
X188.0Y-262.84
X188.0Y-273.0
X188.0Y-281.0
X189.0Y-258.0
X189.25Y-191.0
X189.25Y-207.0
X191.0Y-245.0
X193.0Y-281.0
X194.0Y-258.0
X194.25Y-191.0
X194.25Y-207.0
X195.5Y-191.0
X195.5Y-207.0
X196.16Y-238.0
X198.16Y-160.0
X198.16Y-165.0
X203.0Y-123.0
X203.0Y-129.0
X203.0Y-135.0
X203.0Y-141.0
X203.0Y-147.0
X203.0Y-153.0
X203.0Y-159.0
X206.0Y-185.0
X206.0Y-201.0
X206.0Y-217.0
X206.0Y-229.0
X206.0Y-243.0
X206.0Y-279.0
X209.0Y-110.0
X210.0Y-250.0
X210.0Y-252.54
X210.0Y-255.08
X210.0Y-257.62
X211.0Y-243.0
X213.16Y-123.0
X213.16Y-129.0
X213.16Y-135.0
X213.16Y-141.0
X213.16Y-147.0
X213.16Y-153.0
X213.16Y-159.0
X216.16Y-185.0
X216.16Y-201.0
X216.16Y-217.0
X216.16Y-229.0
X216.16Y-279.0
X217.62Y-250.0
X217.62Y-252.54
X217.62Y-255.08
X217.62Y-257.62
X218.0Y-238.0
X218.0Y-245.0
X219.16Y-110.0
X220.0Y-191.0
X220.0Y-207.0
X220.0Y-262.84
X220.0Y-273.0
X220.0Y-281.0
X221.0Y-258.0
X221.25Y-191.0
X221.25Y-207.0
X223.0Y-79.0
X223.0Y-245.0
X225.0Y-281.0
X226.0Y-258.0
X226.25Y-191.0
X226.25Y-207.0
X227.5Y-191.0
X227.5Y-207.0
X228.0Y-79.0
X228.16Y-238.0
T4
X65.04Y-124.44
X67.54Y-124.44
X70.04Y-124.44
T5
X55.16Y-304.655
X55.16Y-307.425
X55.16Y-310.195
X55.16Y-312.965
X55.16Y-315.735
X55.16Y-318.505
X55.16Y-321.275
X58.0Y-303.27
X58.0Y-306.04
X58.0Y-308.81
X58.0Y-311.58
X58.0Y-314.35
X58.0Y-317.12
X58.0Y-319.89
X58.0Y-322.66
X71.0Y-285.0
X71.0Y-287.54
X71.0Y-290.08
X71.0Y-292.62
X71.0Y-295.16
X71.0Y-297.7
X97.305Y-334.96
X98.69Y-337.8
X100.075Y-334.96
X101.46Y-337.8
X102.845Y-334.96
X104.23Y-337.8
X105.615Y-334.96
X107.0Y-337.8
X108.385Y-334.96
X109.77Y-337.8
X111.155Y-334.96
X112.54Y-337.8
X113.925Y-334.96
X115.31Y-337.8
X116.695Y-334.96
X179.655Y-334.96
X181.04Y-337.8
X182.425Y-334.96
X183.81Y-337.8
X185.195Y-334.96
X186.58Y-337.8
X187.965Y-334.96
X189.35Y-337.8
X190.735Y-334.96
X192.12Y-337.8
X193.505Y-334.96
X194.89Y-337.8
X196.275Y-334.96
X197.66Y-337.8
X199.045Y-334.96
X212.0Y-324.0
X228.0Y-294.0
X228.0Y-296.54
X228.0Y-299.08
X228.0Y-301.62
X228.0Y-304.16
X228.0Y-306.7
X239.16Y-303.27
X239.16Y-306.04
X239.16Y-308.81
X239.16Y-311.58
X239.16Y-314.35
X239.16Y-317.12
X239.16Y-319.89
X239.16Y-322.66
X242.0Y-304.655
X242.0Y-307.425
X242.0Y-310.195
X242.0Y-312.965
X242.0Y-315.735
X242.0Y-318.505
X242.0Y-321.275
T6
X143.7Y-81.26
X143.7Y-83.8
X143.7Y-86.34
X143.7Y-88.88
X143.7Y-91.42
X143.7Y-93.96
X143.7Y-96.5
X143.7Y-99.04
X143.7Y-104.12
X143.7Y-106.66
X143.7Y-109.2
X143.7Y-111.74
X143.7Y-114.28
X143.7Y-116.82
X143.7Y-119.36
X143.7Y-121.9
X143.7Y-126.98
X143.7Y-129.52
X143.7Y-132.06
X143.7Y-134.6
X143.7Y-137.14
X143.7Y-139.68
X143.7Y-142.22
X143.7Y-144.76
X148.78Y-147.3
X148.78Y-149.84
X151.32Y-147.3
X151.32Y-149.84
X153.86Y-147.3
X153.86Y-149.84
X156.4Y-147.3
X156.4Y-149.84
X158.94Y-147.3
X158.94Y-149.84
X161.48Y-147.3
X161.48Y-149.84
X164.02Y-147.3
X164.02Y-149.84
X166.56Y-116.947
X166.56Y-119.487
X166.56Y-147.3
X166.56Y-149.84
X169.1Y-116.947
X169.1Y-119.487
X169.1Y-147.3
X169.1Y-149.84
X171.64Y-116.947
X171.64Y-119.487
X171.64Y-147.3
X171.64Y-149.84
X174.18Y-147.3
X174.18Y-149.84
X176.72Y-147.3
X176.72Y-149.84
X179.26Y-147.3
X179.26Y-149.84
X181.8Y-147.3
X181.8Y-149.84
X184.34Y-147.3
X184.34Y-149.84
X186.88Y-147.3
X186.88Y-149.84
X189.42Y-147.3
X189.42Y-149.84
X191.96Y-72.116
X191.96Y-74.656
X191.96Y-77.196
X191.96Y-79.736
X191.96Y-82.276
X191.96Y-84.816
X191.96Y-87.356
X191.96Y-89.896
X191.96Y-92.436
X191.96Y-94.976
X191.96Y-99.04
X191.96Y-101.58
X191.96Y-104.12
X191.96Y-106.66
X191.96Y-109.2
X191.96Y-111.74
X191.96Y-114.28
X191.96Y-116.82
X191.96Y-121.9
X191.96Y-124.44
X191.96Y-126.98
X191.96Y-129.52
X191.96Y-132.06
X191.96Y-134.6
X191.96Y-137.14
X191.96Y-139.68
X191.96Y-147.3
X191.96Y-149.84
T7
X220.0Y-65.0
X225.0Y-65.0
T8
X228.68Y-93.98
X228.68Y-108.98
X233.68Y-93.98
X233.68Y-108.98
X238.68Y-93.98
X238.68Y-108.98
X239.7Y-66.02
T9
X55.16Y-296.315
X55.16Y-329.615
X90.35Y-337.8
X123.65Y-337.8
X172.7Y-337.8
X206.0Y-337.8
X242.0Y-296.315
X242.0Y-329.615
T3
G00X242.1Y-61.17
M15
G01X240.9Y-61.17
M16
G05
G00X242.1Y-70.87
M15
G01X240.9Y-70.87
M16
G05
G00X245.7Y-64.92
M15
G01X245.7Y-67.12
M16
G05
G00X246.8Y-61.17
M15
G01X245.6Y-61.17
M16
G05
G00X246.8Y-70.87
M15
G01X245.6Y-70.87
M16
G05
M30
