%TF.GenerationSoftware,KiCad,Pcbnew,8.0.8*%
%TF.CreationDate,2025-02-06T12:17:42+01:00*%
%TF.ProjectId,female static,66656d61-6c65-4207-9374-617469632e6b,rev?*%
%TF.SameCoordinates,Original*%
%TF.FileFunction,Legend,Top*%
%TF.FilePolarity,Positive*%
%FSLAX46Y46*%
G04 Gerber Fmt 4.6, Leading zero omitted, Abs format (unit mm)*
G04 Created by KiCad (PCBNEW 8.0.8) date 2025-02-06 12:17:42*
%MOMM*%
%LPD*%
G01*
G04 APERTURE LIST*
%ADD10C,0.100000*%
%ADD11C,0.200000*%
%ADD12C,0.150000*%
%ADD13C,0.120000*%
G04 APERTURE END LIST*
D10*
X42303884Y-120872419D02*
X42303884Y-120205752D01*
X42303884Y-120300990D02*
X42351503Y-120253371D01*
X42351503Y-120253371D02*
X42446741Y-120205752D01*
X42446741Y-120205752D02*
X42589598Y-120205752D01*
X42589598Y-120205752D02*
X42684836Y-120253371D01*
X42684836Y-120253371D02*
X42732455Y-120348609D01*
X42732455Y-120348609D02*
X42732455Y-120872419D01*
X42732455Y-120348609D02*
X42780074Y-120253371D01*
X42780074Y-120253371D02*
X42875312Y-120205752D01*
X42875312Y-120205752D02*
X43018169Y-120205752D01*
X43018169Y-120205752D02*
X43113408Y-120253371D01*
X43113408Y-120253371D02*
X43161027Y-120348609D01*
X43161027Y-120348609D02*
X43161027Y-120872419D01*
X44065788Y-120872419D02*
X44065788Y-120348609D01*
X44065788Y-120348609D02*
X44018169Y-120253371D01*
X44018169Y-120253371D02*
X43922931Y-120205752D01*
X43922931Y-120205752D02*
X43732455Y-120205752D01*
X43732455Y-120205752D02*
X43637217Y-120253371D01*
X44065788Y-120824800D02*
X43970550Y-120872419D01*
X43970550Y-120872419D02*
X43732455Y-120872419D01*
X43732455Y-120872419D02*
X43637217Y-120824800D01*
X43637217Y-120824800D02*
X43589598Y-120729561D01*
X43589598Y-120729561D02*
X43589598Y-120634323D01*
X43589598Y-120634323D02*
X43637217Y-120539085D01*
X43637217Y-120539085D02*
X43732455Y-120491466D01*
X43732455Y-120491466D02*
X43970550Y-120491466D01*
X43970550Y-120491466D02*
X44065788Y-120443847D01*
X44684836Y-120872419D02*
X44589598Y-120824800D01*
X44589598Y-120824800D02*
X44541979Y-120729561D01*
X44541979Y-120729561D02*
X44541979Y-119872419D01*
X45446741Y-120824800D02*
X45351503Y-120872419D01*
X45351503Y-120872419D02*
X45161027Y-120872419D01*
X45161027Y-120872419D02*
X45065789Y-120824800D01*
X45065789Y-120824800D02*
X45018170Y-120729561D01*
X45018170Y-120729561D02*
X45018170Y-120348609D01*
X45018170Y-120348609D02*
X45065789Y-120253371D01*
X45065789Y-120253371D02*
X45161027Y-120205752D01*
X45161027Y-120205752D02*
X45351503Y-120205752D01*
X45351503Y-120205752D02*
X45446741Y-120253371D01*
X45446741Y-120253371D02*
X45494360Y-120348609D01*
X45494360Y-120348609D02*
X45494360Y-120443847D01*
X45494360Y-120443847D02*
X45018170Y-120539085D01*
X47113408Y-120824800D02*
X47018170Y-120872419D01*
X47018170Y-120872419D02*
X46827694Y-120872419D01*
X46827694Y-120872419D02*
X46732456Y-120824800D01*
X46732456Y-120824800D02*
X46684837Y-120777180D01*
X46684837Y-120777180D02*
X46637218Y-120681942D01*
X46637218Y-120681942D02*
X46637218Y-120396228D01*
X46637218Y-120396228D02*
X46684837Y-120300990D01*
X46684837Y-120300990D02*
X46732456Y-120253371D01*
X46732456Y-120253371D02*
X46827694Y-120205752D01*
X46827694Y-120205752D02*
X47018170Y-120205752D01*
X47018170Y-120205752D02*
X47113408Y-120253371D01*
X47684837Y-120872419D02*
X47589599Y-120824800D01*
X47589599Y-120824800D02*
X47541980Y-120777180D01*
X47541980Y-120777180D02*
X47494361Y-120681942D01*
X47494361Y-120681942D02*
X47494361Y-120396228D01*
X47494361Y-120396228D02*
X47541980Y-120300990D01*
X47541980Y-120300990D02*
X47589599Y-120253371D01*
X47589599Y-120253371D02*
X47684837Y-120205752D01*
X47684837Y-120205752D02*
X47827694Y-120205752D01*
X47827694Y-120205752D02*
X47922932Y-120253371D01*
X47922932Y-120253371D02*
X47970551Y-120300990D01*
X47970551Y-120300990D02*
X48018170Y-120396228D01*
X48018170Y-120396228D02*
X48018170Y-120681942D01*
X48018170Y-120681942D02*
X47970551Y-120777180D01*
X47970551Y-120777180D02*
X47922932Y-120824800D01*
X47922932Y-120824800D02*
X47827694Y-120872419D01*
X47827694Y-120872419D02*
X47684837Y-120872419D01*
X48446742Y-120205752D02*
X48446742Y-120872419D01*
X48446742Y-120300990D02*
X48494361Y-120253371D01*
X48494361Y-120253371D02*
X48589599Y-120205752D01*
X48589599Y-120205752D02*
X48732456Y-120205752D01*
X48732456Y-120205752D02*
X48827694Y-120253371D01*
X48827694Y-120253371D02*
X48875313Y-120348609D01*
X48875313Y-120348609D02*
X48875313Y-120872419D01*
X49351504Y-120205752D02*
X49351504Y-120872419D01*
X49351504Y-120300990D02*
X49399123Y-120253371D01*
X49399123Y-120253371D02*
X49494361Y-120205752D01*
X49494361Y-120205752D02*
X49637218Y-120205752D01*
X49637218Y-120205752D02*
X49732456Y-120253371D01*
X49732456Y-120253371D02*
X49780075Y-120348609D01*
X49780075Y-120348609D02*
X49780075Y-120872419D01*
X50637218Y-120824800D02*
X50541980Y-120872419D01*
X50541980Y-120872419D02*
X50351504Y-120872419D01*
X50351504Y-120872419D02*
X50256266Y-120824800D01*
X50256266Y-120824800D02*
X50208647Y-120729561D01*
X50208647Y-120729561D02*
X50208647Y-120348609D01*
X50208647Y-120348609D02*
X50256266Y-120253371D01*
X50256266Y-120253371D02*
X50351504Y-120205752D01*
X50351504Y-120205752D02*
X50541980Y-120205752D01*
X50541980Y-120205752D02*
X50637218Y-120253371D01*
X50637218Y-120253371D02*
X50684837Y-120348609D01*
X50684837Y-120348609D02*
X50684837Y-120443847D01*
X50684837Y-120443847D02*
X50208647Y-120539085D01*
X51541980Y-120824800D02*
X51446742Y-120872419D01*
X51446742Y-120872419D02*
X51256266Y-120872419D01*
X51256266Y-120872419D02*
X51161028Y-120824800D01*
X51161028Y-120824800D02*
X51113409Y-120777180D01*
X51113409Y-120777180D02*
X51065790Y-120681942D01*
X51065790Y-120681942D02*
X51065790Y-120396228D01*
X51065790Y-120396228D02*
X51113409Y-120300990D01*
X51113409Y-120300990D02*
X51161028Y-120253371D01*
X51161028Y-120253371D02*
X51256266Y-120205752D01*
X51256266Y-120205752D02*
X51446742Y-120205752D01*
X51446742Y-120205752D02*
X51541980Y-120253371D01*
X51827695Y-120205752D02*
X52208647Y-120205752D01*
X51970552Y-119872419D02*
X51970552Y-120729561D01*
X51970552Y-120729561D02*
X52018171Y-120824800D01*
X52018171Y-120824800D02*
X52113409Y-120872419D01*
X52113409Y-120872419D02*
X52208647Y-120872419D01*
X52684838Y-120872419D02*
X52589600Y-120824800D01*
X52589600Y-120824800D02*
X52541981Y-120777180D01*
X52541981Y-120777180D02*
X52494362Y-120681942D01*
X52494362Y-120681942D02*
X52494362Y-120396228D01*
X52494362Y-120396228D02*
X52541981Y-120300990D01*
X52541981Y-120300990D02*
X52589600Y-120253371D01*
X52589600Y-120253371D02*
X52684838Y-120205752D01*
X52684838Y-120205752D02*
X52827695Y-120205752D01*
X52827695Y-120205752D02*
X52922933Y-120253371D01*
X52922933Y-120253371D02*
X52970552Y-120300990D01*
X52970552Y-120300990D02*
X53018171Y-120396228D01*
X53018171Y-120396228D02*
X53018171Y-120681942D01*
X53018171Y-120681942D02*
X52970552Y-120777180D01*
X52970552Y-120777180D02*
X52922933Y-120824800D01*
X52922933Y-120824800D02*
X52827695Y-120872419D01*
X52827695Y-120872419D02*
X52684838Y-120872419D01*
X53446743Y-120872419D02*
X53446743Y-120205752D01*
X53446743Y-120396228D02*
X53494362Y-120300990D01*
X53494362Y-120300990D02*
X53541981Y-120253371D01*
X53541981Y-120253371D02*
X53637219Y-120205752D01*
X53637219Y-120205752D02*
X53732457Y-120205752D01*
X54827696Y-120872419D02*
X54827696Y-119872419D01*
X55256267Y-120872419D02*
X55256267Y-120348609D01*
X55256267Y-120348609D02*
X55208648Y-120253371D01*
X55208648Y-120253371D02*
X55113410Y-120205752D01*
X55113410Y-120205752D02*
X54970553Y-120205752D01*
X54970553Y-120205752D02*
X54875315Y-120253371D01*
X54875315Y-120253371D02*
X54827696Y-120300990D01*
X56113410Y-120824800D02*
X56018172Y-120872419D01*
X56018172Y-120872419D02*
X55827696Y-120872419D01*
X55827696Y-120872419D02*
X55732458Y-120824800D01*
X55732458Y-120824800D02*
X55684839Y-120729561D01*
X55684839Y-120729561D02*
X55684839Y-120348609D01*
X55684839Y-120348609D02*
X55732458Y-120253371D01*
X55732458Y-120253371D02*
X55827696Y-120205752D01*
X55827696Y-120205752D02*
X56018172Y-120205752D01*
X56018172Y-120205752D02*
X56113410Y-120253371D01*
X56113410Y-120253371D02*
X56161029Y-120348609D01*
X56161029Y-120348609D02*
X56161029Y-120443847D01*
X56161029Y-120443847D02*
X55684839Y-120539085D01*
X56589601Y-120872419D02*
X56589601Y-120205752D01*
X56589601Y-120396228D02*
X56637220Y-120300990D01*
X56637220Y-120300990D02*
X56684839Y-120253371D01*
X56684839Y-120253371D02*
X56780077Y-120205752D01*
X56780077Y-120205752D02*
X56875315Y-120205752D01*
X57589601Y-120824800D02*
X57494363Y-120872419D01*
X57494363Y-120872419D02*
X57303887Y-120872419D01*
X57303887Y-120872419D02*
X57208649Y-120824800D01*
X57208649Y-120824800D02*
X57161030Y-120729561D01*
X57161030Y-120729561D02*
X57161030Y-120348609D01*
X57161030Y-120348609D02*
X57208649Y-120253371D01*
X57208649Y-120253371D02*
X57303887Y-120205752D01*
X57303887Y-120205752D02*
X57494363Y-120205752D01*
X57494363Y-120205752D02*
X57589601Y-120253371D01*
X57589601Y-120253371D02*
X57637220Y-120348609D01*
X57637220Y-120348609D02*
X57637220Y-120443847D01*
X57637220Y-120443847D02*
X57161030Y-120539085D01*
X41161027Y-26205752D02*
X41541979Y-26205752D01*
X41303884Y-26872419D02*
X41303884Y-26015276D01*
X41303884Y-26015276D02*
X41351503Y-25920038D01*
X41351503Y-25920038D02*
X41446741Y-25872419D01*
X41446741Y-25872419D02*
X41541979Y-25872419D01*
X42256265Y-26824800D02*
X42161027Y-26872419D01*
X42161027Y-26872419D02*
X41970551Y-26872419D01*
X41970551Y-26872419D02*
X41875313Y-26824800D01*
X41875313Y-26824800D02*
X41827694Y-26729561D01*
X41827694Y-26729561D02*
X41827694Y-26348609D01*
X41827694Y-26348609D02*
X41875313Y-26253371D01*
X41875313Y-26253371D02*
X41970551Y-26205752D01*
X41970551Y-26205752D02*
X42161027Y-26205752D01*
X42161027Y-26205752D02*
X42256265Y-26253371D01*
X42256265Y-26253371D02*
X42303884Y-26348609D01*
X42303884Y-26348609D02*
X42303884Y-26443847D01*
X42303884Y-26443847D02*
X41827694Y-26539085D01*
X42732456Y-26872419D02*
X42732456Y-26205752D01*
X42732456Y-26300990D02*
X42780075Y-26253371D01*
X42780075Y-26253371D02*
X42875313Y-26205752D01*
X42875313Y-26205752D02*
X43018170Y-26205752D01*
X43018170Y-26205752D02*
X43113408Y-26253371D01*
X43113408Y-26253371D02*
X43161027Y-26348609D01*
X43161027Y-26348609D02*
X43161027Y-26872419D01*
X43161027Y-26348609D02*
X43208646Y-26253371D01*
X43208646Y-26253371D02*
X43303884Y-26205752D01*
X43303884Y-26205752D02*
X43446741Y-26205752D01*
X43446741Y-26205752D02*
X43541980Y-26253371D01*
X43541980Y-26253371D02*
X43589599Y-26348609D01*
X43589599Y-26348609D02*
X43589599Y-26872419D01*
X44494360Y-26872419D02*
X44494360Y-26348609D01*
X44494360Y-26348609D02*
X44446741Y-26253371D01*
X44446741Y-26253371D02*
X44351503Y-26205752D01*
X44351503Y-26205752D02*
X44161027Y-26205752D01*
X44161027Y-26205752D02*
X44065789Y-26253371D01*
X44494360Y-26824800D02*
X44399122Y-26872419D01*
X44399122Y-26872419D02*
X44161027Y-26872419D01*
X44161027Y-26872419D02*
X44065789Y-26824800D01*
X44065789Y-26824800D02*
X44018170Y-26729561D01*
X44018170Y-26729561D02*
X44018170Y-26634323D01*
X44018170Y-26634323D02*
X44065789Y-26539085D01*
X44065789Y-26539085D02*
X44161027Y-26491466D01*
X44161027Y-26491466D02*
X44399122Y-26491466D01*
X44399122Y-26491466D02*
X44494360Y-26443847D01*
X45113408Y-26872419D02*
X45018170Y-26824800D01*
X45018170Y-26824800D02*
X44970551Y-26729561D01*
X44970551Y-26729561D02*
X44970551Y-25872419D01*
X45875313Y-26824800D02*
X45780075Y-26872419D01*
X45780075Y-26872419D02*
X45589599Y-26872419D01*
X45589599Y-26872419D02*
X45494361Y-26824800D01*
X45494361Y-26824800D02*
X45446742Y-26729561D01*
X45446742Y-26729561D02*
X45446742Y-26348609D01*
X45446742Y-26348609D02*
X45494361Y-26253371D01*
X45494361Y-26253371D02*
X45589599Y-26205752D01*
X45589599Y-26205752D02*
X45780075Y-26205752D01*
X45780075Y-26205752D02*
X45875313Y-26253371D01*
X45875313Y-26253371D02*
X45922932Y-26348609D01*
X45922932Y-26348609D02*
X45922932Y-26443847D01*
X45922932Y-26443847D02*
X45446742Y-26539085D01*
X47541980Y-26824800D02*
X47446742Y-26872419D01*
X47446742Y-26872419D02*
X47256266Y-26872419D01*
X47256266Y-26872419D02*
X47161028Y-26824800D01*
X47161028Y-26824800D02*
X47113409Y-26777180D01*
X47113409Y-26777180D02*
X47065790Y-26681942D01*
X47065790Y-26681942D02*
X47065790Y-26396228D01*
X47065790Y-26396228D02*
X47113409Y-26300990D01*
X47113409Y-26300990D02*
X47161028Y-26253371D01*
X47161028Y-26253371D02*
X47256266Y-26205752D01*
X47256266Y-26205752D02*
X47446742Y-26205752D01*
X47446742Y-26205752D02*
X47541980Y-26253371D01*
X48113409Y-26872419D02*
X48018171Y-26824800D01*
X48018171Y-26824800D02*
X47970552Y-26777180D01*
X47970552Y-26777180D02*
X47922933Y-26681942D01*
X47922933Y-26681942D02*
X47922933Y-26396228D01*
X47922933Y-26396228D02*
X47970552Y-26300990D01*
X47970552Y-26300990D02*
X48018171Y-26253371D01*
X48018171Y-26253371D02*
X48113409Y-26205752D01*
X48113409Y-26205752D02*
X48256266Y-26205752D01*
X48256266Y-26205752D02*
X48351504Y-26253371D01*
X48351504Y-26253371D02*
X48399123Y-26300990D01*
X48399123Y-26300990D02*
X48446742Y-26396228D01*
X48446742Y-26396228D02*
X48446742Y-26681942D01*
X48446742Y-26681942D02*
X48399123Y-26777180D01*
X48399123Y-26777180D02*
X48351504Y-26824800D01*
X48351504Y-26824800D02*
X48256266Y-26872419D01*
X48256266Y-26872419D02*
X48113409Y-26872419D01*
X48875314Y-26205752D02*
X48875314Y-26872419D01*
X48875314Y-26300990D02*
X48922933Y-26253371D01*
X48922933Y-26253371D02*
X49018171Y-26205752D01*
X49018171Y-26205752D02*
X49161028Y-26205752D01*
X49161028Y-26205752D02*
X49256266Y-26253371D01*
X49256266Y-26253371D02*
X49303885Y-26348609D01*
X49303885Y-26348609D02*
X49303885Y-26872419D01*
X49780076Y-26205752D02*
X49780076Y-26872419D01*
X49780076Y-26300990D02*
X49827695Y-26253371D01*
X49827695Y-26253371D02*
X49922933Y-26205752D01*
X49922933Y-26205752D02*
X50065790Y-26205752D01*
X50065790Y-26205752D02*
X50161028Y-26253371D01*
X50161028Y-26253371D02*
X50208647Y-26348609D01*
X50208647Y-26348609D02*
X50208647Y-26872419D01*
X51065790Y-26824800D02*
X50970552Y-26872419D01*
X50970552Y-26872419D02*
X50780076Y-26872419D01*
X50780076Y-26872419D02*
X50684838Y-26824800D01*
X50684838Y-26824800D02*
X50637219Y-26729561D01*
X50637219Y-26729561D02*
X50637219Y-26348609D01*
X50637219Y-26348609D02*
X50684838Y-26253371D01*
X50684838Y-26253371D02*
X50780076Y-26205752D01*
X50780076Y-26205752D02*
X50970552Y-26205752D01*
X50970552Y-26205752D02*
X51065790Y-26253371D01*
X51065790Y-26253371D02*
X51113409Y-26348609D01*
X51113409Y-26348609D02*
X51113409Y-26443847D01*
X51113409Y-26443847D02*
X50637219Y-26539085D01*
X51970552Y-26824800D02*
X51875314Y-26872419D01*
X51875314Y-26872419D02*
X51684838Y-26872419D01*
X51684838Y-26872419D02*
X51589600Y-26824800D01*
X51589600Y-26824800D02*
X51541981Y-26777180D01*
X51541981Y-26777180D02*
X51494362Y-26681942D01*
X51494362Y-26681942D02*
X51494362Y-26396228D01*
X51494362Y-26396228D02*
X51541981Y-26300990D01*
X51541981Y-26300990D02*
X51589600Y-26253371D01*
X51589600Y-26253371D02*
X51684838Y-26205752D01*
X51684838Y-26205752D02*
X51875314Y-26205752D01*
X51875314Y-26205752D02*
X51970552Y-26253371D01*
X52256267Y-26205752D02*
X52637219Y-26205752D01*
X52399124Y-25872419D02*
X52399124Y-26729561D01*
X52399124Y-26729561D02*
X52446743Y-26824800D01*
X52446743Y-26824800D02*
X52541981Y-26872419D01*
X52541981Y-26872419D02*
X52637219Y-26872419D01*
X53113410Y-26872419D02*
X53018172Y-26824800D01*
X53018172Y-26824800D02*
X52970553Y-26777180D01*
X52970553Y-26777180D02*
X52922934Y-26681942D01*
X52922934Y-26681942D02*
X52922934Y-26396228D01*
X52922934Y-26396228D02*
X52970553Y-26300990D01*
X52970553Y-26300990D02*
X53018172Y-26253371D01*
X53018172Y-26253371D02*
X53113410Y-26205752D01*
X53113410Y-26205752D02*
X53256267Y-26205752D01*
X53256267Y-26205752D02*
X53351505Y-26253371D01*
X53351505Y-26253371D02*
X53399124Y-26300990D01*
X53399124Y-26300990D02*
X53446743Y-26396228D01*
X53446743Y-26396228D02*
X53446743Y-26681942D01*
X53446743Y-26681942D02*
X53399124Y-26777180D01*
X53399124Y-26777180D02*
X53351505Y-26824800D01*
X53351505Y-26824800D02*
X53256267Y-26872419D01*
X53256267Y-26872419D02*
X53113410Y-26872419D01*
X53875315Y-26872419D02*
X53875315Y-26205752D01*
X53875315Y-26396228D02*
X53922934Y-26300990D01*
X53922934Y-26300990D02*
X53970553Y-26253371D01*
X53970553Y-26253371D02*
X54065791Y-26205752D01*
X54065791Y-26205752D02*
X54161029Y-26205752D01*
X55256268Y-26872419D02*
X55256268Y-25872419D01*
X55684839Y-26872419D02*
X55684839Y-26348609D01*
X55684839Y-26348609D02*
X55637220Y-26253371D01*
X55637220Y-26253371D02*
X55541982Y-26205752D01*
X55541982Y-26205752D02*
X55399125Y-26205752D01*
X55399125Y-26205752D02*
X55303887Y-26253371D01*
X55303887Y-26253371D02*
X55256268Y-26300990D01*
X56541982Y-26824800D02*
X56446744Y-26872419D01*
X56446744Y-26872419D02*
X56256268Y-26872419D01*
X56256268Y-26872419D02*
X56161030Y-26824800D01*
X56161030Y-26824800D02*
X56113411Y-26729561D01*
X56113411Y-26729561D02*
X56113411Y-26348609D01*
X56113411Y-26348609D02*
X56161030Y-26253371D01*
X56161030Y-26253371D02*
X56256268Y-26205752D01*
X56256268Y-26205752D02*
X56446744Y-26205752D01*
X56446744Y-26205752D02*
X56541982Y-26253371D01*
X56541982Y-26253371D02*
X56589601Y-26348609D01*
X56589601Y-26348609D02*
X56589601Y-26443847D01*
X56589601Y-26443847D02*
X56113411Y-26539085D01*
X57018173Y-26872419D02*
X57018173Y-26205752D01*
X57018173Y-26396228D02*
X57065792Y-26300990D01*
X57065792Y-26300990D02*
X57113411Y-26253371D01*
X57113411Y-26253371D02*
X57208649Y-26205752D01*
X57208649Y-26205752D02*
X57303887Y-26205752D01*
X58018173Y-26824800D02*
X57922935Y-26872419D01*
X57922935Y-26872419D02*
X57732459Y-26872419D01*
X57732459Y-26872419D02*
X57637221Y-26824800D01*
X57637221Y-26824800D02*
X57589602Y-26729561D01*
X57589602Y-26729561D02*
X57589602Y-26348609D01*
X57589602Y-26348609D02*
X57637221Y-26253371D01*
X57637221Y-26253371D02*
X57732459Y-26205752D01*
X57732459Y-26205752D02*
X57922935Y-26205752D01*
X57922935Y-26205752D02*
X58018173Y-26253371D01*
X58018173Y-26253371D02*
X58065792Y-26348609D01*
X58065792Y-26348609D02*
X58065792Y-26443847D01*
X58065792Y-26443847D02*
X57589602Y-26539085D01*
D11*
X27697219Y-63325564D02*
X27697219Y-63992231D01*
X28744838Y-63992231D02*
X26744838Y-63992231D01*
X26744838Y-63992231D02*
X26744838Y-63039850D01*
X28649600Y-61516040D02*
X28744838Y-61706516D01*
X28744838Y-61706516D02*
X28744838Y-62087469D01*
X28744838Y-62087469D02*
X28649600Y-62277945D01*
X28649600Y-62277945D02*
X28459123Y-62373183D01*
X28459123Y-62373183D02*
X27697219Y-62373183D01*
X27697219Y-62373183D02*
X27506742Y-62277945D01*
X27506742Y-62277945D02*
X27411504Y-62087469D01*
X27411504Y-62087469D02*
X27411504Y-61706516D01*
X27411504Y-61706516D02*
X27506742Y-61516040D01*
X27506742Y-61516040D02*
X27697219Y-61420802D01*
X27697219Y-61420802D02*
X27887695Y-61420802D01*
X27887695Y-61420802D02*
X28078171Y-62373183D01*
X28744838Y-60563659D02*
X27411504Y-60563659D01*
X27601980Y-60563659D02*
X27506742Y-60468421D01*
X27506742Y-60468421D02*
X27411504Y-60277945D01*
X27411504Y-60277945D02*
X27411504Y-59992230D01*
X27411504Y-59992230D02*
X27506742Y-59801754D01*
X27506742Y-59801754D02*
X27697219Y-59706516D01*
X27697219Y-59706516D02*
X28744838Y-59706516D01*
X27697219Y-59706516D02*
X27506742Y-59611278D01*
X27506742Y-59611278D02*
X27411504Y-59420802D01*
X27411504Y-59420802D02*
X27411504Y-59135088D01*
X27411504Y-59135088D02*
X27506742Y-58944611D01*
X27506742Y-58944611D02*
X27697219Y-58849373D01*
X27697219Y-58849373D02*
X28744838Y-58849373D01*
X28744838Y-57039849D02*
X27697219Y-57039849D01*
X27697219Y-57039849D02*
X27506742Y-57135087D01*
X27506742Y-57135087D02*
X27411504Y-57325563D01*
X27411504Y-57325563D02*
X27411504Y-57706516D01*
X27411504Y-57706516D02*
X27506742Y-57896992D01*
X28649600Y-57039849D02*
X28744838Y-57230325D01*
X28744838Y-57230325D02*
X28744838Y-57706516D01*
X28744838Y-57706516D02*
X28649600Y-57896992D01*
X28649600Y-57896992D02*
X28459123Y-57992230D01*
X28459123Y-57992230D02*
X28268647Y-57992230D01*
X28268647Y-57992230D02*
X28078171Y-57896992D01*
X28078171Y-57896992D02*
X27982933Y-57706516D01*
X27982933Y-57706516D02*
X27982933Y-57230325D01*
X27982933Y-57230325D02*
X27887695Y-57039849D01*
X28744838Y-55801754D02*
X28649600Y-55992230D01*
X28649600Y-55992230D02*
X28459123Y-56087468D01*
X28459123Y-56087468D02*
X26744838Y-56087468D01*
X28649600Y-54277944D02*
X28744838Y-54468420D01*
X28744838Y-54468420D02*
X28744838Y-54849373D01*
X28744838Y-54849373D02*
X28649600Y-55039849D01*
X28649600Y-55039849D02*
X28459123Y-55135087D01*
X28459123Y-55135087D02*
X27697219Y-55135087D01*
X27697219Y-55135087D02*
X27506742Y-55039849D01*
X27506742Y-55039849D02*
X27411504Y-54849373D01*
X27411504Y-54849373D02*
X27411504Y-54468420D01*
X27411504Y-54468420D02*
X27506742Y-54277944D01*
X27506742Y-54277944D02*
X27697219Y-54182706D01*
X27697219Y-54182706D02*
X27887695Y-54182706D01*
X27887695Y-54182706D02*
X28078171Y-55135087D01*
X28649600Y-51896991D02*
X28744838Y-51706515D01*
X28744838Y-51706515D02*
X28744838Y-51325563D01*
X28744838Y-51325563D02*
X28649600Y-51135086D01*
X28649600Y-51135086D02*
X28459123Y-51039848D01*
X28459123Y-51039848D02*
X28363885Y-51039848D01*
X28363885Y-51039848D02*
X28173409Y-51135086D01*
X28173409Y-51135086D02*
X28078171Y-51325563D01*
X28078171Y-51325563D02*
X28078171Y-51611277D01*
X28078171Y-51611277D02*
X27982933Y-51801753D01*
X27982933Y-51801753D02*
X27792457Y-51896991D01*
X27792457Y-51896991D02*
X27697219Y-51896991D01*
X27697219Y-51896991D02*
X27506742Y-51801753D01*
X27506742Y-51801753D02*
X27411504Y-51611277D01*
X27411504Y-51611277D02*
X27411504Y-51325563D01*
X27411504Y-51325563D02*
X27506742Y-51135086D01*
X27411504Y-50468419D02*
X27411504Y-49706515D01*
X26744838Y-50182705D02*
X28459123Y-50182705D01*
X28459123Y-50182705D02*
X28649600Y-50087467D01*
X28649600Y-50087467D02*
X28744838Y-49896991D01*
X28744838Y-49896991D02*
X28744838Y-49706515D01*
X28744838Y-48182705D02*
X27697219Y-48182705D01*
X27697219Y-48182705D02*
X27506742Y-48277943D01*
X27506742Y-48277943D02*
X27411504Y-48468419D01*
X27411504Y-48468419D02*
X27411504Y-48849372D01*
X27411504Y-48849372D02*
X27506742Y-49039848D01*
X28649600Y-48182705D02*
X28744838Y-48373181D01*
X28744838Y-48373181D02*
X28744838Y-48849372D01*
X28744838Y-48849372D02*
X28649600Y-49039848D01*
X28649600Y-49039848D02*
X28459123Y-49135086D01*
X28459123Y-49135086D02*
X28268647Y-49135086D01*
X28268647Y-49135086D02*
X28078171Y-49039848D01*
X28078171Y-49039848D02*
X27982933Y-48849372D01*
X27982933Y-48849372D02*
X27982933Y-48373181D01*
X27982933Y-48373181D02*
X27887695Y-48182705D01*
X27411504Y-47516038D02*
X27411504Y-46754134D01*
X26744838Y-47230324D02*
X28459123Y-47230324D01*
X28459123Y-47230324D02*
X28649600Y-47135086D01*
X28649600Y-47135086D02*
X28744838Y-46944610D01*
X28744838Y-46944610D02*
X28744838Y-46754134D01*
X28744838Y-46087467D02*
X27411504Y-46087467D01*
X26744838Y-46087467D02*
X26840076Y-46182705D01*
X26840076Y-46182705D02*
X26935314Y-46087467D01*
X26935314Y-46087467D02*
X26840076Y-45992229D01*
X26840076Y-45992229D02*
X26744838Y-46087467D01*
X26744838Y-46087467D02*
X26935314Y-46087467D01*
X28649600Y-44277943D02*
X28744838Y-44468419D01*
X28744838Y-44468419D02*
X28744838Y-44849372D01*
X28744838Y-44849372D02*
X28649600Y-45039848D01*
X28649600Y-45039848D02*
X28554361Y-45135086D01*
X28554361Y-45135086D02*
X28363885Y-45230324D01*
X28363885Y-45230324D02*
X27792457Y-45230324D01*
X27792457Y-45230324D02*
X27601980Y-45135086D01*
X27601980Y-45135086D02*
X27506742Y-45039848D01*
X27506742Y-45039848D02*
X27411504Y-44849372D01*
X27411504Y-44849372D02*
X27411504Y-44468419D01*
X27411504Y-44468419D02*
X27506742Y-44277943D01*
D12*
X44193332Y-109788152D02*
X44574284Y-109788152D01*
X44336189Y-109454819D02*
X44336189Y-110311961D01*
X44336189Y-110311961D02*
X44383808Y-110407200D01*
X44383808Y-110407200D02*
X44479046Y-110454819D01*
X44479046Y-110454819D02*
X44574284Y-110454819D01*
X45050475Y-110454819D02*
X44955237Y-110407200D01*
X44955237Y-110407200D02*
X44907618Y-110359580D01*
X44907618Y-110359580D02*
X44859999Y-110264342D01*
X44859999Y-110264342D02*
X44859999Y-109978628D01*
X44859999Y-109978628D02*
X44907618Y-109883390D01*
X44907618Y-109883390D02*
X44955237Y-109835771D01*
X44955237Y-109835771D02*
X45050475Y-109788152D01*
X45050475Y-109788152D02*
X45193332Y-109788152D01*
X45193332Y-109788152D02*
X45288570Y-109835771D01*
X45288570Y-109835771D02*
X45336189Y-109883390D01*
X45336189Y-109883390D02*
X45383808Y-109978628D01*
X45383808Y-109978628D02*
X45383808Y-110264342D01*
X45383808Y-110264342D02*
X45336189Y-110359580D01*
X45336189Y-110359580D02*
X45288570Y-110407200D01*
X45288570Y-110407200D02*
X45193332Y-110454819D01*
X45193332Y-110454819D02*
X45050475Y-110454819D01*
X46431428Y-109788152D02*
X46812380Y-109788152D01*
X46574285Y-110454819D02*
X46574285Y-109597676D01*
X46574285Y-109597676D02*
X46621904Y-109502438D01*
X46621904Y-109502438D02*
X46717142Y-109454819D01*
X46717142Y-109454819D02*
X46812380Y-109454819D01*
X47526666Y-110407200D02*
X47431428Y-110454819D01*
X47431428Y-110454819D02*
X47240952Y-110454819D01*
X47240952Y-110454819D02*
X47145714Y-110407200D01*
X47145714Y-110407200D02*
X47098095Y-110311961D01*
X47098095Y-110311961D02*
X47098095Y-109931009D01*
X47098095Y-109931009D02*
X47145714Y-109835771D01*
X47145714Y-109835771D02*
X47240952Y-109788152D01*
X47240952Y-109788152D02*
X47431428Y-109788152D01*
X47431428Y-109788152D02*
X47526666Y-109835771D01*
X47526666Y-109835771D02*
X47574285Y-109931009D01*
X47574285Y-109931009D02*
X47574285Y-110026247D01*
X47574285Y-110026247D02*
X47098095Y-110121485D01*
X48002857Y-110454819D02*
X48002857Y-109788152D01*
X48002857Y-109883390D02*
X48050476Y-109835771D01*
X48050476Y-109835771D02*
X48145714Y-109788152D01*
X48145714Y-109788152D02*
X48288571Y-109788152D01*
X48288571Y-109788152D02*
X48383809Y-109835771D01*
X48383809Y-109835771D02*
X48431428Y-109931009D01*
X48431428Y-109931009D02*
X48431428Y-110454819D01*
X48431428Y-109931009D02*
X48479047Y-109835771D01*
X48479047Y-109835771D02*
X48574285Y-109788152D01*
X48574285Y-109788152D02*
X48717142Y-109788152D01*
X48717142Y-109788152D02*
X48812381Y-109835771D01*
X48812381Y-109835771D02*
X48860000Y-109931009D01*
X48860000Y-109931009D02*
X48860000Y-110454819D01*
X49764761Y-110454819D02*
X49764761Y-109931009D01*
X49764761Y-109931009D02*
X49717142Y-109835771D01*
X49717142Y-109835771D02*
X49621904Y-109788152D01*
X49621904Y-109788152D02*
X49431428Y-109788152D01*
X49431428Y-109788152D02*
X49336190Y-109835771D01*
X49764761Y-110407200D02*
X49669523Y-110454819D01*
X49669523Y-110454819D02*
X49431428Y-110454819D01*
X49431428Y-110454819D02*
X49336190Y-110407200D01*
X49336190Y-110407200D02*
X49288571Y-110311961D01*
X49288571Y-110311961D02*
X49288571Y-110216723D01*
X49288571Y-110216723D02*
X49336190Y-110121485D01*
X49336190Y-110121485D02*
X49431428Y-110073866D01*
X49431428Y-110073866D02*
X49669523Y-110073866D01*
X49669523Y-110073866D02*
X49764761Y-110026247D01*
X50383809Y-110454819D02*
X50288571Y-110407200D01*
X50288571Y-110407200D02*
X50240952Y-110311961D01*
X50240952Y-110311961D02*
X50240952Y-109454819D01*
X51145714Y-110407200D02*
X51050476Y-110454819D01*
X51050476Y-110454819D02*
X50860000Y-110454819D01*
X50860000Y-110454819D02*
X50764762Y-110407200D01*
X50764762Y-110407200D02*
X50717143Y-110311961D01*
X50717143Y-110311961D02*
X50717143Y-109931009D01*
X50717143Y-109931009D02*
X50764762Y-109835771D01*
X50764762Y-109835771D02*
X50860000Y-109788152D01*
X50860000Y-109788152D02*
X51050476Y-109788152D01*
X51050476Y-109788152D02*
X51145714Y-109835771D01*
X51145714Y-109835771D02*
X51193333Y-109931009D01*
X51193333Y-109931009D02*
X51193333Y-110026247D01*
X51193333Y-110026247D02*
X50717143Y-110121485D01*
X52383810Y-110454819D02*
X52383810Y-109454819D01*
X52383810Y-109835771D02*
X52479048Y-109788152D01*
X52479048Y-109788152D02*
X52669524Y-109788152D01*
X52669524Y-109788152D02*
X52764762Y-109835771D01*
X52764762Y-109835771D02*
X52812381Y-109883390D01*
X52812381Y-109883390D02*
X52860000Y-109978628D01*
X52860000Y-109978628D02*
X52860000Y-110264342D01*
X52860000Y-110264342D02*
X52812381Y-110359580D01*
X52812381Y-110359580D02*
X52764762Y-110407200D01*
X52764762Y-110407200D02*
X52669524Y-110454819D01*
X52669524Y-110454819D02*
X52479048Y-110454819D01*
X52479048Y-110454819D02*
X52383810Y-110407200D01*
X53717143Y-110454819D02*
X53717143Y-109931009D01*
X53717143Y-109931009D02*
X53669524Y-109835771D01*
X53669524Y-109835771D02*
X53574286Y-109788152D01*
X53574286Y-109788152D02*
X53383810Y-109788152D01*
X53383810Y-109788152D02*
X53288572Y-109835771D01*
X53717143Y-110407200D02*
X53621905Y-110454819D01*
X53621905Y-110454819D02*
X53383810Y-110454819D01*
X53383810Y-110454819D02*
X53288572Y-110407200D01*
X53288572Y-110407200D02*
X53240953Y-110311961D01*
X53240953Y-110311961D02*
X53240953Y-110216723D01*
X53240953Y-110216723D02*
X53288572Y-110121485D01*
X53288572Y-110121485D02*
X53383810Y-110073866D01*
X53383810Y-110073866D02*
X53621905Y-110073866D01*
X53621905Y-110073866D02*
X53717143Y-110026247D01*
X54145715Y-110407200D02*
X54240953Y-110454819D01*
X54240953Y-110454819D02*
X54431429Y-110454819D01*
X54431429Y-110454819D02*
X54526667Y-110407200D01*
X54526667Y-110407200D02*
X54574286Y-110311961D01*
X54574286Y-110311961D02*
X54574286Y-110264342D01*
X54574286Y-110264342D02*
X54526667Y-110169104D01*
X54526667Y-110169104D02*
X54431429Y-110121485D01*
X54431429Y-110121485D02*
X54288572Y-110121485D01*
X54288572Y-110121485D02*
X54193334Y-110073866D01*
X54193334Y-110073866D02*
X54145715Y-109978628D01*
X54145715Y-109978628D02*
X54145715Y-109931009D01*
X54145715Y-109931009D02*
X54193334Y-109835771D01*
X54193334Y-109835771D02*
X54288572Y-109788152D01*
X54288572Y-109788152D02*
X54431429Y-109788152D01*
X54431429Y-109788152D02*
X54526667Y-109835771D01*
X55383810Y-110407200D02*
X55288572Y-110454819D01*
X55288572Y-110454819D02*
X55098096Y-110454819D01*
X55098096Y-110454819D02*
X55002858Y-110407200D01*
X55002858Y-110407200D02*
X54955239Y-110311961D01*
X54955239Y-110311961D02*
X54955239Y-109931009D01*
X54955239Y-109931009D02*
X55002858Y-109835771D01*
X55002858Y-109835771D02*
X55098096Y-109788152D01*
X55098096Y-109788152D02*
X55288572Y-109788152D01*
X55288572Y-109788152D02*
X55383810Y-109835771D01*
X55383810Y-109835771D02*
X55431429Y-109931009D01*
X55431429Y-109931009D02*
X55431429Y-110026247D01*
X55431429Y-110026247D02*
X54955239Y-110121485D01*
X66654819Y-77833333D02*
X67369104Y-77833333D01*
X67369104Y-77833333D02*
X67511961Y-77880952D01*
X67511961Y-77880952D02*
X67607200Y-77976190D01*
X67607200Y-77976190D02*
X67654819Y-78119047D01*
X67654819Y-78119047D02*
X67654819Y-78214285D01*
X66750057Y-77404761D02*
X66702438Y-77357142D01*
X66702438Y-77357142D02*
X66654819Y-77261904D01*
X66654819Y-77261904D02*
X66654819Y-77023809D01*
X66654819Y-77023809D02*
X66702438Y-76928571D01*
X66702438Y-76928571D02*
X66750057Y-76880952D01*
X66750057Y-76880952D02*
X66845295Y-76833333D01*
X66845295Y-76833333D02*
X66940533Y-76833333D01*
X66940533Y-76833333D02*
X67083390Y-76880952D01*
X67083390Y-76880952D02*
X67654819Y-77452380D01*
X67654819Y-77452380D02*
X67654819Y-76833333D01*
X73854819Y-80857143D02*
X72854819Y-80857143D01*
X73807200Y-80857143D02*
X73854819Y-80952381D01*
X73854819Y-80952381D02*
X73854819Y-81142857D01*
X73854819Y-81142857D02*
X73807200Y-81238095D01*
X73807200Y-81238095D02*
X73759580Y-81285714D01*
X73759580Y-81285714D02*
X73664342Y-81333333D01*
X73664342Y-81333333D02*
X73378628Y-81333333D01*
X73378628Y-81333333D02*
X73283390Y-81285714D01*
X73283390Y-81285714D02*
X73235771Y-81238095D01*
X73235771Y-81238095D02*
X73188152Y-81142857D01*
X73188152Y-81142857D02*
X73188152Y-80952381D01*
X73188152Y-80952381D02*
X73235771Y-80857143D01*
X73854819Y-80476190D02*
X73188152Y-79952381D01*
X73188152Y-80476190D02*
X73854819Y-79952381D01*
X73854819Y-79428571D02*
X73807200Y-79523809D01*
X73807200Y-79523809D02*
X73711961Y-79571428D01*
X73711961Y-79571428D02*
X72854819Y-79571428D01*
X73188152Y-78428570D02*
X73188152Y-78047618D01*
X73854819Y-78285713D02*
X72997676Y-78285713D01*
X72997676Y-78285713D02*
X72902438Y-78238094D01*
X72902438Y-78238094D02*
X72854819Y-78142856D01*
X72854819Y-78142856D02*
X72854819Y-78047618D01*
X73807200Y-77333332D02*
X73854819Y-77428570D01*
X73854819Y-77428570D02*
X73854819Y-77619046D01*
X73854819Y-77619046D02*
X73807200Y-77714284D01*
X73807200Y-77714284D02*
X73711961Y-77761903D01*
X73711961Y-77761903D02*
X73331009Y-77761903D01*
X73331009Y-77761903D02*
X73235771Y-77714284D01*
X73235771Y-77714284D02*
X73188152Y-77619046D01*
X73188152Y-77619046D02*
X73188152Y-77428570D01*
X73188152Y-77428570D02*
X73235771Y-77333332D01*
X73235771Y-77333332D02*
X73331009Y-77285713D01*
X73331009Y-77285713D02*
X73426247Y-77285713D01*
X73426247Y-77285713D02*
X73521485Y-77761903D01*
X73854819Y-76857141D02*
X73188152Y-76857141D01*
X73283390Y-76857141D02*
X73235771Y-76809522D01*
X73235771Y-76809522D02*
X73188152Y-76714284D01*
X73188152Y-76714284D02*
X73188152Y-76571427D01*
X73188152Y-76571427D02*
X73235771Y-76476189D01*
X73235771Y-76476189D02*
X73331009Y-76428570D01*
X73331009Y-76428570D02*
X73854819Y-76428570D01*
X73331009Y-76428570D02*
X73235771Y-76380951D01*
X73235771Y-76380951D02*
X73188152Y-76285713D01*
X73188152Y-76285713D02*
X73188152Y-76142856D01*
X73188152Y-76142856D02*
X73235771Y-76047617D01*
X73235771Y-76047617D02*
X73331009Y-75999998D01*
X73331009Y-75999998D02*
X73854819Y-75999998D01*
X73854819Y-75095237D02*
X73331009Y-75095237D01*
X73331009Y-75095237D02*
X73235771Y-75142856D01*
X73235771Y-75142856D02*
X73188152Y-75238094D01*
X73188152Y-75238094D02*
X73188152Y-75428570D01*
X73188152Y-75428570D02*
X73235771Y-75523808D01*
X73807200Y-75095237D02*
X73854819Y-75190475D01*
X73854819Y-75190475D02*
X73854819Y-75428570D01*
X73854819Y-75428570D02*
X73807200Y-75523808D01*
X73807200Y-75523808D02*
X73711961Y-75571427D01*
X73711961Y-75571427D02*
X73616723Y-75571427D01*
X73616723Y-75571427D02*
X73521485Y-75523808D01*
X73521485Y-75523808D02*
X73473866Y-75428570D01*
X73473866Y-75428570D02*
X73473866Y-75190475D01*
X73473866Y-75190475D02*
X73426247Y-75095237D01*
X73854819Y-74476189D02*
X73807200Y-74571427D01*
X73807200Y-74571427D02*
X73711961Y-74619046D01*
X73711961Y-74619046D02*
X72854819Y-74619046D01*
X73807200Y-73714284D02*
X73854819Y-73809522D01*
X73854819Y-73809522D02*
X73854819Y-73999998D01*
X73854819Y-73999998D02*
X73807200Y-74095236D01*
X73807200Y-74095236D02*
X73711961Y-74142855D01*
X73711961Y-74142855D02*
X73331009Y-74142855D01*
X73331009Y-74142855D02*
X73235771Y-74095236D01*
X73235771Y-74095236D02*
X73188152Y-73999998D01*
X73188152Y-73999998D02*
X73188152Y-73809522D01*
X73188152Y-73809522D02*
X73235771Y-73714284D01*
X73235771Y-73714284D02*
X73331009Y-73666665D01*
X73331009Y-73666665D02*
X73426247Y-73666665D01*
X73426247Y-73666665D02*
X73521485Y-74142855D01*
X39714284Y-41788152D02*
X40095236Y-41788152D01*
X39857141Y-41454819D02*
X39857141Y-42311961D01*
X39857141Y-42311961D02*
X39904760Y-42407200D01*
X39904760Y-42407200D02*
X39999998Y-42454819D01*
X39999998Y-42454819D02*
X40095236Y-42454819D01*
X40571427Y-42454819D02*
X40476189Y-42407200D01*
X40476189Y-42407200D02*
X40428570Y-42359580D01*
X40428570Y-42359580D02*
X40380951Y-42264342D01*
X40380951Y-42264342D02*
X40380951Y-41978628D01*
X40380951Y-41978628D02*
X40428570Y-41883390D01*
X40428570Y-41883390D02*
X40476189Y-41835771D01*
X40476189Y-41835771D02*
X40571427Y-41788152D01*
X40571427Y-41788152D02*
X40714284Y-41788152D01*
X40714284Y-41788152D02*
X40809522Y-41835771D01*
X40809522Y-41835771D02*
X40857141Y-41883390D01*
X40857141Y-41883390D02*
X40904760Y-41978628D01*
X40904760Y-41978628D02*
X40904760Y-42264342D01*
X40904760Y-42264342D02*
X40857141Y-42359580D01*
X40857141Y-42359580D02*
X40809522Y-42407200D01*
X40809522Y-42407200D02*
X40714284Y-42454819D01*
X40714284Y-42454819D02*
X40571427Y-42454819D01*
X42523808Y-42407200D02*
X42428570Y-42454819D01*
X42428570Y-42454819D02*
X42238094Y-42454819D01*
X42238094Y-42454819D02*
X42142856Y-42407200D01*
X42142856Y-42407200D02*
X42095237Y-42359580D01*
X42095237Y-42359580D02*
X42047618Y-42264342D01*
X42047618Y-42264342D02*
X42047618Y-41978628D01*
X42047618Y-41978628D02*
X42095237Y-41883390D01*
X42095237Y-41883390D02*
X42142856Y-41835771D01*
X42142856Y-41835771D02*
X42238094Y-41788152D01*
X42238094Y-41788152D02*
X42428570Y-41788152D01*
X42428570Y-41788152D02*
X42523808Y-41835771D01*
X43333332Y-42407200D02*
X43238094Y-42454819D01*
X43238094Y-42454819D02*
X43047618Y-42454819D01*
X43047618Y-42454819D02*
X42952380Y-42407200D01*
X42952380Y-42407200D02*
X42904761Y-42311961D01*
X42904761Y-42311961D02*
X42904761Y-41931009D01*
X42904761Y-41931009D02*
X42952380Y-41835771D01*
X42952380Y-41835771D02*
X43047618Y-41788152D01*
X43047618Y-41788152D02*
X43238094Y-41788152D01*
X43238094Y-41788152D02*
X43333332Y-41835771D01*
X43333332Y-41835771D02*
X43380951Y-41931009D01*
X43380951Y-41931009D02*
X43380951Y-42026247D01*
X43380951Y-42026247D02*
X42904761Y-42121485D01*
X43809523Y-41788152D02*
X43809523Y-42454819D01*
X43809523Y-41883390D02*
X43857142Y-41835771D01*
X43857142Y-41835771D02*
X43952380Y-41788152D01*
X43952380Y-41788152D02*
X44095237Y-41788152D01*
X44095237Y-41788152D02*
X44190475Y-41835771D01*
X44190475Y-41835771D02*
X44238094Y-41931009D01*
X44238094Y-41931009D02*
X44238094Y-42454819D01*
X44571428Y-41788152D02*
X44952380Y-41788152D01*
X44714285Y-41454819D02*
X44714285Y-42311961D01*
X44714285Y-42311961D02*
X44761904Y-42407200D01*
X44761904Y-42407200D02*
X44857142Y-42454819D01*
X44857142Y-42454819D02*
X44952380Y-42454819D01*
X45666666Y-42407200D02*
X45571428Y-42454819D01*
X45571428Y-42454819D02*
X45380952Y-42454819D01*
X45380952Y-42454819D02*
X45285714Y-42407200D01*
X45285714Y-42407200D02*
X45238095Y-42311961D01*
X45238095Y-42311961D02*
X45238095Y-41931009D01*
X45238095Y-41931009D02*
X45285714Y-41835771D01*
X45285714Y-41835771D02*
X45380952Y-41788152D01*
X45380952Y-41788152D02*
X45571428Y-41788152D01*
X45571428Y-41788152D02*
X45666666Y-41835771D01*
X45666666Y-41835771D02*
X45714285Y-41931009D01*
X45714285Y-41931009D02*
X45714285Y-42026247D01*
X45714285Y-42026247D02*
X45238095Y-42121485D01*
X46142857Y-42454819D02*
X46142857Y-41788152D01*
X46142857Y-41978628D02*
X46190476Y-41883390D01*
X46190476Y-41883390D02*
X46238095Y-41835771D01*
X46238095Y-41835771D02*
X46333333Y-41788152D01*
X46333333Y-41788152D02*
X46428571Y-41788152D01*
X47476190Y-41407200D02*
X46619048Y-42692914D01*
X48190476Y-42407200D02*
X48095238Y-42454819D01*
X48095238Y-42454819D02*
X47904762Y-42454819D01*
X47904762Y-42454819D02*
X47809524Y-42407200D01*
X47809524Y-42407200D02*
X47761905Y-42311961D01*
X47761905Y-42311961D02*
X47761905Y-41931009D01*
X47761905Y-41931009D02*
X47809524Y-41835771D01*
X47809524Y-41835771D02*
X47904762Y-41788152D01*
X47904762Y-41788152D02*
X48095238Y-41788152D01*
X48095238Y-41788152D02*
X48190476Y-41835771D01*
X48190476Y-41835771D02*
X48238095Y-41931009D01*
X48238095Y-41931009D02*
X48238095Y-42026247D01*
X48238095Y-42026247D02*
X47761905Y-42121485D01*
X48809524Y-42454819D02*
X48714286Y-42407200D01*
X48714286Y-42407200D02*
X48666667Y-42311961D01*
X48666667Y-42311961D02*
X48666667Y-41454819D01*
X49571429Y-42407200D02*
X49476191Y-42454819D01*
X49476191Y-42454819D02*
X49285715Y-42454819D01*
X49285715Y-42454819D02*
X49190477Y-42407200D01*
X49190477Y-42407200D02*
X49142858Y-42311961D01*
X49142858Y-42311961D02*
X49142858Y-41931009D01*
X49142858Y-41931009D02*
X49190477Y-41835771D01*
X49190477Y-41835771D02*
X49285715Y-41788152D01*
X49285715Y-41788152D02*
X49476191Y-41788152D01*
X49476191Y-41788152D02*
X49571429Y-41835771D01*
X49571429Y-41835771D02*
X49619048Y-41931009D01*
X49619048Y-41931009D02*
X49619048Y-42026247D01*
X49619048Y-42026247D02*
X49142858Y-42121485D01*
X50476191Y-42407200D02*
X50380953Y-42454819D01*
X50380953Y-42454819D02*
X50190477Y-42454819D01*
X50190477Y-42454819D02*
X50095239Y-42407200D01*
X50095239Y-42407200D02*
X50047620Y-42359580D01*
X50047620Y-42359580D02*
X50000001Y-42264342D01*
X50000001Y-42264342D02*
X50000001Y-41978628D01*
X50000001Y-41978628D02*
X50047620Y-41883390D01*
X50047620Y-41883390D02*
X50095239Y-41835771D01*
X50095239Y-41835771D02*
X50190477Y-41788152D01*
X50190477Y-41788152D02*
X50380953Y-41788152D01*
X50380953Y-41788152D02*
X50476191Y-41835771D01*
X50761906Y-41788152D02*
X51142858Y-41788152D01*
X50904763Y-41454819D02*
X50904763Y-42311961D01*
X50904763Y-42311961D02*
X50952382Y-42407200D01*
X50952382Y-42407200D02*
X51047620Y-42454819D01*
X51047620Y-42454819D02*
X51142858Y-42454819D01*
X51476192Y-42454819D02*
X51476192Y-41788152D01*
X51476192Y-41978628D02*
X51523811Y-41883390D01*
X51523811Y-41883390D02*
X51571430Y-41835771D01*
X51571430Y-41835771D02*
X51666668Y-41788152D01*
X51666668Y-41788152D02*
X51761906Y-41788152D01*
X52238097Y-42454819D02*
X52142859Y-42407200D01*
X52142859Y-42407200D02*
X52095240Y-42359580D01*
X52095240Y-42359580D02*
X52047621Y-42264342D01*
X52047621Y-42264342D02*
X52047621Y-41978628D01*
X52047621Y-41978628D02*
X52095240Y-41883390D01*
X52095240Y-41883390D02*
X52142859Y-41835771D01*
X52142859Y-41835771D02*
X52238097Y-41788152D01*
X52238097Y-41788152D02*
X52380954Y-41788152D01*
X52380954Y-41788152D02*
X52476192Y-41835771D01*
X52476192Y-41835771D02*
X52523811Y-41883390D01*
X52523811Y-41883390D02*
X52571430Y-41978628D01*
X52571430Y-41978628D02*
X52571430Y-42264342D01*
X52571430Y-42264342D02*
X52523811Y-42359580D01*
X52523811Y-42359580D02*
X52476192Y-42407200D01*
X52476192Y-42407200D02*
X52380954Y-42454819D01*
X52380954Y-42454819D02*
X52238097Y-42454819D01*
X53000002Y-41788152D02*
X53000002Y-42454819D01*
X53000002Y-41883390D02*
X53047621Y-41835771D01*
X53047621Y-41835771D02*
X53142859Y-41788152D01*
X53142859Y-41788152D02*
X53285716Y-41788152D01*
X53285716Y-41788152D02*
X53380954Y-41835771D01*
X53380954Y-41835771D02*
X53428573Y-41931009D01*
X53428573Y-41931009D02*
X53428573Y-42454819D01*
X53904764Y-42454819D02*
X53904764Y-41788152D01*
X53904764Y-41454819D02*
X53857145Y-41502438D01*
X53857145Y-41502438D02*
X53904764Y-41550057D01*
X53904764Y-41550057D02*
X53952383Y-41502438D01*
X53952383Y-41502438D02*
X53904764Y-41454819D01*
X53904764Y-41454819D02*
X53904764Y-41550057D01*
X54809525Y-42407200D02*
X54714287Y-42454819D01*
X54714287Y-42454819D02*
X54523811Y-42454819D01*
X54523811Y-42454819D02*
X54428573Y-42407200D01*
X54428573Y-42407200D02*
X54380954Y-42359580D01*
X54380954Y-42359580D02*
X54333335Y-42264342D01*
X54333335Y-42264342D02*
X54333335Y-41978628D01*
X54333335Y-41978628D02*
X54380954Y-41883390D01*
X54380954Y-41883390D02*
X54428573Y-41835771D01*
X54428573Y-41835771D02*
X54523811Y-41788152D01*
X54523811Y-41788152D02*
X54714287Y-41788152D01*
X54714287Y-41788152D02*
X54809525Y-41835771D01*
X56000002Y-42454819D02*
X56000002Y-41454819D01*
X56000002Y-41835771D02*
X56095240Y-41788152D01*
X56095240Y-41788152D02*
X56285716Y-41788152D01*
X56285716Y-41788152D02*
X56380954Y-41835771D01*
X56380954Y-41835771D02*
X56428573Y-41883390D01*
X56428573Y-41883390D02*
X56476192Y-41978628D01*
X56476192Y-41978628D02*
X56476192Y-42264342D01*
X56476192Y-42264342D02*
X56428573Y-42359580D01*
X56428573Y-42359580D02*
X56380954Y-42407200D01*
X56380954Y-42407200D02*
X56285716Y-42454819D01*
X56285716Y-42454819D02*
X56095240Y-42454819D01*
X56095240Y-42454819D02*
X56000002Y-42407200D01*
X57047621Y-42454819D02*
X56952383Y-42407200D01*
X56952383Y-42407200D02*
X56904764Y-42359580D01*
X56904764Y-42359580D02*
X56857145Y-42264342D01*
X56857145Y-42264342D02*
X56857145Y-41978628D01*
X56857145Y-41978628D02*
X56904764Y-41883390D01*
X56904764Y-41883390D02*
X56952383Y-41835771D01*
X56952383Y-41835771D02*
X57047621Y-41788152D01*
X57047621Y-41788152D02*
X57190478Y-41788152D01*
X57190478Y-41788152D02*
X57285716Y-41835771D01*
X57285716Y-41835771D02*
X57333335Y-41883390D01*
X57333335Y-41883390D02*
X57380954Y-41978628D01*
X57380954Y-41978628D02*
X57380954Y-42264342D01*
X57380954Y-42264342D02*
X57333335Y-42359580D01*
X57333335Y-42359580D02*
X57285716Y-42407200D01*
X57285716Y-42407200D02*
X57190478Y-42454819D01*
X57190478Y-42454819D02*
X57047621Y-42454819D01*
X57714288Y-42454819D02*
X58238097Y-41788152D01*
X57714288Y-41788152D02*
X58238097Y-42454819D01*
D13*
%TO.C,J3*%
X30230000Y-113300000D02*
X69550000Y-113300000D01*
X30230000Y-122880000D02*
X30230000Y-113300000D01*
X39945000Y-112405662D02*
X40445000Y-112405662D01*
X40195000Y-112838675D02*
X39945000Y-112405662D01*
X40445000Y-112405662D02*
X40195000Y-112838675D01*
X69550000Y-113300000D02*
X69550000Y-122880000D01*
%TO.C,J2*%
X68290000Y-72390000D02*
X68290000Y-82610000D01*
X68290000Y-82610000D02*
X72310000Y-82610000D01*
X68790000Y-72890000D02*
X70000000Y-72890000D01*
X68790000Y-82110000D02*
X68790000Y-72890000D01*
X70000000Y-72890000D02*
X70000000Y-72390000D01*
X70000000Y-82110000D02*
X68790000Y-82110000D01*
X70000000Y-82610000D02*
X70000000Y-82110000D01*
X70110000Y-82910000D02*
X72610000Y-82910000D01*
X70810000Y-72390000D02*
X70810000Y-73390000D01*
X70810000Y-73390000D02*
X72310000Y-73390000D01*
X70810000Y-81610000D02*
X72310000Y-81610000D01*
X70810000Y-82610000D02*
X70810000Y-81610000D01*
X72310000Y-72390000D02*
X68290000Y-72390000D01*
X72310000Y-82610000D02*
X72310000Y-72390000D01*
X72610000Y-82910000D02*
X72610000Y-80410000D01*
%TO.C,J1*%
X30035000Y-37760000D02*
X30035000Y-27280000D01*
X39750000Y-38654338D02*
X40000000Y-38221325D01*
X40000000Y-38221325D02*
X40250000Y-38654338D01*
X40250000Y-38654338D02*
X39750000Y-38654338D01*
X69355000Y-27280000D02*
X69355000Y-37760000D01*
X69355000Y-37760000D02*
X30035000Y-37760000D01*
%TD*%
M02*
