%TF.GenerationSoftware,KiCad,Pcbnew,8.0.8*%
%TF.CreationDate,2025-02-06T12:17:43+01:00*%
%TF.ProjectId,female static,66656d61-6c65-4207-9374-617469632e6b,rev?*%
%TF.SameCoordinates,Original*%
%TF.FileFunction,Legend,Bot*%
%TF.FilePolarity,Positive*%
%FSLAX46Y46*%
G04 Gerber Fmt 4.6, Leading zero omitted, Abs format (unit mm)*
G04 Created by KiCad (PCBNEW 8.0.8) date 2025-02-06 12:17:43*
%MOMM*%
%LPD*%
G01*
G04 APERTURE LIST*
%ADD10C,0.100000*%
G04 APERTURE END LIST*
D10*
X60370550Y-112560247D02*
X60294360Y-112598342D01*
X60294360Y-112598342D02*
X60256265Y-112636438D01*
X60256265Y-112636438D02*
X60218169Y-112712628D01*
X60218169Y-112712628D02*
X60218169Y-112750723D01*
X60218169Y-112750723D02*
X60256265Y-112826914D01*
X60256265Y-112826914D02*
X60294360Y-112865009D01*
X60294360Y-112865009D02*
X60370550Y-112903104D01*
X60370550Y-112903104D02*
X60522931Y-112903104D01*
X60522931Y-112903104D02*
X60599122Y-112865009D01*
X60599122Y-112865009D02*
X60637217Y-112826914D01*
X60637217Y-112826914D02*
X60675312Y-112750723D01*
X60675312Y-112750723D02*
X60675312Y-112712628D01*
X60675312Y-112712628D02*
X60637217Y-112636438D01*
X60637217Y-112636438D02*
X60599122Y-112598342D01*
X60599122Y-112598342D02*
X60522931Y-112560247D01*
X60522931Y-112560247D02*
X60370550Y-112560247D01*
X60370550Y-112560247D02*
X60294360Y-112522152D01*
X60294360Y-112522152D02*
X60256265Y-112484057D01*
X60256265Y-112484057D02*
X60218169Y-112407866D01*
X60218169Y-112407866D02*
X60218169Y-112255485D01*
X60218169Y-112255485D02*
X60256265Y-112179295D01*
X60256265Y-112179295D02*
X60294360Y-112141200D01*
X60294360Y-112141200D02*
X60370550Y-112103104D01*
X60370550Y-112103104D02*
X60522931Y-112103104D01*
X60522931Y-112103104D02*
X60599122Y-112141200D01*
X60599122Y-112141200D02*
X60637217Y-112179295D01*
X60637217Y-112179295D02*
X60675312Y-112255485D01*
X60675312Y-112255485D02*
X60675312Y-112407866D01*
X60675312Y-112407866D02*
X60637217Y-112484057D01*
X60637217Y-112484057D02*
X60599122Y-112522152D01*
X60599122Y-112522152D02*
X60522931Y-112560247D01*
X53694304Y-30528534D02*
X54227638Y-30528534D01*
X54151447Y-30528534D02*
X54189542Y-30490439D01*
X54189542Y-30490439D02*
X54227638Y-30414249D01*
X54227638Y-30414249D02*
X54227638Y-30299963D01*
X54227638Y-30299963D02*
X54189542Y-30223772D01*
X54189542Y-30223772D02*
X54113352Y-30185677D01*
X54113352Y-30185677D02*
X53694304Y-30185677D01*
X54113352Y-30185677D02*
X54189542Y-30147582D01*
X54189542Y-30147582D02*
X54227638Y-30071391D01*
X54227638Y-30071391D02*
X54227638Y-29957106D01*
X54227638Y-29957106D02*
X54189542Y-29880915D01*
X54189542Y-29880915D02*
X54113352Y-29842820D01*
X54113352Y-29842820D02*
X53694304Y-29842820D01*
X53694304Y-29461867D02*
X54227638Y-29461867D01*
X54494304Y-29461867D02*
X54456209Y-29499963D01*
X54456209Y-29499963D02*
X54418114Y-29461867D01*
X54418114Y-29461867D02*
X54456209Y-29423772D01*
X54456209Y-29423772D02*
X54494304Y-29461867D01*
X54494304Y-29461867D02*
X54418114Y-29461867D01*
X53732400Y-28738058D02*
X53694304Y-28814249D01*
X53694304Y-28814249D02*
X53694304Y-28966630D01*
X53694304Y-28966630D02*
X53732400Y-29042820D01*
X53732400Y-29042820D02*
X53770495Y-29080915D01*
X53770495Y-29080915D02*
X53846685Y-29119011D01*
X53846685Y-29119011D02*
X54075257Y-29119011D01*
X54075257Y-29119011D02*
X54151447Y-29080915D01*
X54151447Y-29080915D02*
X54189542Y-29042820D01*
X54189542Y-29042820D02*
X54227638Y-28966630D01*
X54227638Y-28966630D02*
X54227638Y-28814249D01*
X54227638Y-28814249D02*
X54189542Y-28738058D01*
X53694304Y-28395201D02*
X54227638Y-28395201D01*
X54075257Y-28395201D02*
X54151447Y-28357106D01*
X54151447Y-28357106D02*
X54189542Y-28319011D01*
X54189542Y-28319011D02*
X54227638Y-28242820D01*
X54227638Y-28242820D02*
X54227638Y-28166630D01*
X53694304Y-27785678D02*
X53732400Y-27861868D01*
X53732400Y-27861868D02*
X53770495Y-27899963D01*
X53770495Y-27899963D02*
X53846685Y-27938059D01*
X53846685Y-27938059D02*
X54075257Y-27938059D01*
X54075257Y-27938059D02*
X54151447Y-27899963D01*
X54151447Y-27899963D02*
X54189542Y-27861868D01*
X54189542Y-27861868D02*
X54227638Y-27785678D01*
X54227638Y-27785678D02*
X54227638Y-27671392D01*
X54227638Y-27671392D02*
X54189542Y-27595201D01*
X54189542Y-27595201D02*
X54151447Y-27557106D01*
X54151447Y-27557106D02*
X54075257Y-27519011D01*
X54075257Y-27519011D02*
X53846685Y-27519011D01*
X53846685Y-27519011D02*
X53770495Y-27557106D01*
X53770495Y-27557106D02*
X53732400Y-27595201D01*
X53732400Y-27595201D02*
X53694304Y-27671392D01*
X53694304Y-27671392D02*
X53694304Y-27785678D01*
X54227638Y-27176153D02*
X53427638Y-27176153D01*
X54189542Y-27176153D02*
X54227638Y-27099963D01*
X54227638Y-27099963D02*
X54227638Y-26947582D01*
X54227638Y-26947582D02*
X54189542Y-26871391D01*
X54189542Y-26871391D02*
X54151447Y-26833296D01*
X54151447Y-26833296D02*
X54075257Y-26795201D01*
X54075257Y-26795201D02*
X53846685Y-26795201D01*
X53846685Y-26795201D02*
X53770495Y-26833296D01*
X53770495Y-26833296D02*
X53732400Y-26871391D01*
X53732400Y-26871391D02*
X53694304Y-26947582D01*
X53694304Y-26947582D02*
X53694304Y-27099963D01*
X53694304Y-27099963D02*
X53732400Y-27176153D01*
X53694304Y-26452343D02*
X54494304Y-26452343D01*
X53694304Y-26109486D02*
X54113352Y-26109486D01*
X54113352Y-26109486D02*
X54189542Y-26147581D01*
X54189542Y-26147581D02*
X54227638Y-26223772D01*
X54227638Y-26223772D02*
X54227638Y-26338058D01*
X54227638Y-26338058D02*
X54189542Y-26414248D01*
X54189542Y-26414248D02*
X54151447Y-26452343D01*
X53694304Y-25614248D02*
X53732400Y-25690438D01*
X53732400Y-25690438D02*
X53770495Y-25728533D01*
X53770495Y-25728533D02*
X53846685Y-25766629D01*
X53846685Y-25766629D02*
X54075257Y-25766629D01*
X54075257Y-25766629D02*
X54151447Y-25728533D01*
X54151447Y-25728533D02*
X54189542Y-25690438D01*
X54189542Y-25690438D02*
X54227638Y-25614248D01*
X54227638Y-25614248D02*
X54227638Y-25499962D01*
X54227638Y-25499962D02*
X54189542Y-25423771D01*
X54189542Y-25423771D02*
X54151447Y-25385676D01*
X54151447Y-25385676D02*
X54075257Y-25347581D01*
X54075257Y-25347581D02*
X53846685Y-25347581D01*
X53846685Y-25347581D02*
X53770495Y-25385676D01*
X53770495Y-25385676D02*
X53732400Y-25423771D01*
X53732400Y-25423771D02*
X53694304Y-25499962D01*
X53694304Y-25499962D02*
X53694304Y-25614248D01*
X54227638Y-25004723D02*
X53694304Y-25004723D01*
X54151447Y-25004723D02*
X54189542Y-24966628D01*
X54189542Y-24966628D02*
X54227638Y-24890438D01*
X54227638Y-24890438D02*
X54227638Y-24776152D01*
X54227638Y-24776152D02*
X54189542Y-24699961D01*
X54189542Y-24699961D02*
X54113352Y-24661866D01*
X54113352Y-24661866D02*
X53694304Y-24661866D01*
X53732400Y-23976151D02*
X53694304Y-24052342D01*
X53694304Y-24052342D02*
X53694304Y-24204723D01*
X53694304Y-24204723D02*
X53732400Y-24280913D01*
X53732400Y-24280913D02*
X53808590Y-24319009D01*
X53808590Y-24319009D02*
X54113352Y-24319009D01*
X54113352Y-24319009D02*
X54189542Y-24280913D01*
X54189542Y-24280913D02*
X54227638Y-24204723D01*
X54227638Y-24204723D02*
X54227638Y-24052342D01*
X54227638Y-24052342D02*
X54189542Y-23976151D01*
X54189542Y-23976151D02*
X54113352Y-23938056D01*
X54113352Y-23938056D02*
X54037161Y-23938056D01*
X54037161Y-23938056D02*
X53960971Y-24319009D01*
X55079304Y-30185677D02*
X55879304Y-30185677D01*
X55117400Y-30185677D02*
X55079304Y-30261868D01*
X55079304Y-30261868D02*
X55079304Y-30414249D01*
X55079304Y-30414249D02*
X55117400Y-30490439D01*
X55117400Y-30490439D02*
X55155495Y-30528534D01*
X55155495Y-30528534D02*
X55231685Y-30566630D01*
X55231685Y-30566630D02*
X55460257Y-30566630D01*
X55460257Y-30566630D02*
X55536447Y-30528534D01*
X55536447Y-30528534D02*
X55574542Y-30490439D01*
X55574542Y-30490439D02*
X55612638Y-30414249D01*
X55612638Y-30414249D02*
X55612638Y-30261868D01*
X55612638Y-30261868D02*
X55574542Y-30185677D01*
X55079304Y-29880915D02*
X55612638Y-29461867D01*
X55612638Y-29880915D02*
X55079304Y-29461867D01*
X55079304Y-29042820D02*
X55117400Y-29119010D01*
X55117400Y-29119010D02*
X55193590Y-29157105D01*
X55193590Y-29157105D02*
X55879304Y-29157105D01*
X55079304Y-27785676D02*
X55879304Y-27785676D01*
X55117400Y-27785676D02*
X55079304Y-27861867D01*
X55079304Y-27861867D02*
X55079304Y-28014248D01*
X55079304Y-28014248D02*
X55117400Y-28090438D01*
X55117400Y-28090438D02*
X55155495Y-28128533D01*
X55155495Y-28128533D02*
X55231685Y-28166629D01*
X55231685Y-28166629D02*
X55460257Y-28166629D01*
X55460257Y-28166629D02*
X55536447Y-28128533D01*
X55536447Y-28128533D02*
X55574542Y-28090438D01*
X55574542Y-28090438D02*
X55612638Y-28014248D01*
X55612638Y-28014248D02*
X55612638Y-27861867D01*
X55612638Y-27861867D02*
X55574542Y-27785676D01*
X55079304Y-27061866D02*
X55498352Y-27061866D01*
X55498352Y-27061866D02*
X55574542Y-27099961D01*
X55574542Y-27099961D02*
X55612638Y-27176152D01*
X55612638Y-27176152D02*
X55612638Y-27328533D01*
X55612638Y-27328533D02*
X55574542Y-27404723D01*
X55117400Y-27061866D02*
X55079304Y-27138057D01*
X55079304Y-27138057D02*
X55079304Y-27328533D01*
X55079304Y-27328533D02*
X55117400Y-27404723D01*
X55117400Y-27404723D02*
X55193590Y-27442819D01*
X55193590Y-27442819D02*
X55269780Y-27442819D01*
X55269780Y-27442819D02*
X55345971Y-27404723D01*
X55345971Y-27404723D02*
X55384066Y-27328533D01*
X55384066Y-27328533D02*
X55384066Y-27138057D01*
X55384066Y-27138057D02*
X55422161Y-27061866D01*
X55612638Y-26795199D02*
X55612638Y-26490437D01*
X55879304Y-26680913D02*
X55193590Y-26680913D01*
X55193590Y-26680913D02*
X55117400Y-26642818D01*
X55117400Y-26642818D02*
X55079304Y-26566628D01*
X55079304Y-26566628D02*
X55079304Y-26490437D01*
X55079304Y-25880913D02*
X55498352Y-25880913D01*
X55498352Y-25880913D02*
X55574542Y-25919008D01*
X55574542Y-25919008D02*
X55612638Y-25995199D01*
X55612638Y-25995199D02*
X55612638Y-26147580D01*
X55612638Y-26147580D02*
X55574542Y-26223770D01*
X55117400Y-25880913D02*
X55079304Y-25957104D01*
X55079304Y-25957104D02*
X55079304Y-26147580D01*
X55079304Y-26147580D02*
X55117400Y-26223770D01*
X55117400Y-26223770D02*
X55193590Y-26261866D01*
X55193590Y-26261866D02*
X55269780Y-26261866D01*
X55269780Y-26261866D02*
X55345971Y-26223770D01*
X55345971Y-26223770D02*
X55384066Y-26147580D01*
X55384066Y-26147580D02*
X55384066Y-25957104D01*
X55384066Y-25957104D02*
X55422161Y-25880913D01*
X56918104Y-126324687D02*
X56918104Y-126781830D01*
X56918104Y-126553258D02*
X57718104Y-126553258D01*
X57718104Y-126553258D02*
X57603819Y-126629449D01*
X57603819Y-126629449D02*
X57527628Y-126705639D01*
X57527628Y-126705639D02*
X57489533Y-126781830D01*
X57641914Y-126019925D02*
X57680009Y-125981829D01*
X57680009Y-125981829D02*
X57718104Y-125905639D01*
X57718104Y-125905639D02*
X57718104Y-125715163D01*
X57718104Y-125715163D02*
X57680009Y-125638972D01*
X57680009Y-125638972D02*
X57641914Y-125600877D01*
X57641914Y-125600877D02*
X57565723Y-125562782D01*
X57565723Y-125562782D02*
X57489533Y-125562782D01*
X57489533Y-125562782D02*
X57375247Y-125600877D01*
X57375247Y-125600877D02*
X56918104Y-126058020D01*
X56918104Y-126058020D02*
X56918104Y-125562782D01*
X57718104Y-125334210D02*
X56918104Y-125067543D01*
X56918104Y-125067543D02*
X57718104Y-124800877D01*
X53296438Y-126743734D02*
X52763104Y-126743734D01*
X53220247Y-126743734D02*
X53258342Y-126705639D01*
X53258342Y-126705639D02*
X53296438Y-126629449D01*
X53296438Y-126629449D02*
X53296438Y-126515163D01*
X53296438Y-126515163D02*
X53258342Y-126438972D01*
X53258342Y-126438972D02*
X53182152Y-126400877D01*
X53182152Y-126400877D02*
X52763104Y-126400877D01*
X52801200Y-125715162D02*
X52763104Y-125791353D01*
X52763104Y-125791353D02*
X52763104Y-125943734D01*
X52763104Y-125943734D02*
X52801200Y-126019924D01*
X52801200Y-126019924D02*
X52877390Y-126058020D01*
X52877390Y-126058020D02*
X53182152Y-126058020D01*
X53182152Y-126058020D02*
X53258342Y-126019924D01*
X53258342Y-126019924D02*
X53296438Y-125943734D01*
X53296438Y-125943734D02*
X53296438Y-125791353D01*
X53296438Y-125791353D02*
X53258342Y-125715162D01*
X53258342Y-125715162D02*
X53182152Y-125677067D01*
X53182152Y-125677067D02*
X53105961Y-125677067D01*
X53105961Y-125677067D02*
X53029771Y-126058020D01*
X52763104Y-125219925D02*
X52801200Y-125296115D01*
X52801200Y-125296115D02*
X52839295Y-125334210D01*
X52839295Y-125334210D02*
X52915485Y-125372306D01*
X52915485Y-125372306D02*
X53144057Y-125372306D01*
X53144057Y-125372306D02*
X53220247Y-125334210D01*
X53220247Y-125334210D02*
X53258342Y-125296115D01*
X53258342Y-125296115D02*
X53296438Y-125219925D01*
X53296438Y-125219925D02*
X53296438Y-125105639D01*
X53296438Y-125105639D02*
X53258342Y-125029448D01*
X53258342Y-125029448D02*
X53220247Y-124991353D01*
X53220247Y-124991353D02*
X53144057Y-124953258D01*
X53144057Y-124953258D02*
X52915485Y-124953258D01*
X52915485Y-124953258D02*
X52839295Y-124991353D01*
X52839295Y-124991353D02*
X52801200Y-125029448D01*
X52801200Y-125029448D02*
X52763104Y-125105639D01*
X52763104Y-125105639D02*
X52763104Y-125219925D01*
X53296438Y-124610400D02*
X52496438Y-124610400D01*
X53258342Y-124610400D02*
X53296438Y-124534210D01*
X53296438Y-124534210D02*
X53296438Y-124381829D01*
X53296438Y-124381829D02*
X53258342Y-124305638D01*
X53258342Y-124305638D02*
X53220247Y-124267543D01*
X53220247Y-124267543D02*
X53144057Y-124229448D01*
X53144057Y-124229448D02*
X52915485Y-124229448D01*
X52915485Y-124229448D02*
X52839295Y-124267543D01*
X52839295Y-124267543D02*
X52801200Y-124305638D01*
X52801200Y-124305638D02*
X52763104Y-124381829D01*
X52763104Y-124381829D02*
X52763104Y-124534210D01*
X52763104Y-124534210D02*
X52801200Y-124610400D01*
X52763104Y-123886590D02*
X53296438Y-123886590D01*
X53563104Y-123886590D02*
X53525009Y-123924686D01*
X53525009Y-123924686D02*
X53486914Y-123886590D01*
X53486914Y-123886590D02*
X53525009Y-123848495D01*
X53525009Y-123848495D02*
X53563104Y-123886590D01*
X53563104Y-123886590D02*
X53486914Y-123886590D01*
X52763104Y-123581829D02*
X53296438Y-123162781D01*
X53296438Y-123581829D02*
X52763104Y-123162781D01*
X52801200Y-122553257D02*
X52763104Y-122629448D01*
X52763104Y-122629448D02*
X52763104Y-122781829D01*
X52763104Y-122781829D02*
X52801200Y-122858019D01*
X52801200Y-122858019D02*
X52877390Y-122896115D01*
X52877390Y-122896115D02*
X53182152Y-122896115D01*
X53182152Y-122896115D02*
X53258342Y-122858019D01*
X53258342Y-122858019D02*
X53296438Y-122781829D01*
X53296438Y-122781829D02*
X53296438Y-122629448D01*
X53296438Y-122629448D02*
X53258342Y-122553257D01*
X53258342Y-122553257D02*
X53182152Y-122515162D01*
X53182152Y-122515162D02*
X53105961Y-122515162D01*
X53105961Y-122515162D02*
X53029771Y-122896115D01*
X52763104Y-122058020D02*
X52801200Y-122134210D01*
X52801200Y-122134210D02*
X52877390Y-122172305D01*
X52877390Y-122172305D02*
X53563104Y-122172305D01*
X39806512Y-36387904D02*
X39349369Y-36387904D01*
X39577941Y-36387904D02*
X39577941Y-37187904D01*
X39577941Y-37187904D02*
X39501750Y-37073619D01*
X39501750Y-37073619D02*
X39425560Y-36997428D01*
X39425560Y-36997428D02*
X39349369Y-36959333D01*
X55533104Y-126400877D02*
X56333104Y-126400877D01*
X55571200Y-126400877D02*
X55533104Y-126477068D01*
X55533104Y-126477068D02*
X55533104Y-126629449D01*
X55533104Y-126629449D02*
X55571200Y-126705639D01*
X55571200Y-126705639D02*
X55609295Y-126743734D01*
X55609295Y-126743734D02*
X55685485Y-126781830D01*
X55685485Y-126781830D02*
X55914057Y-126781830D01*
X55914057Y-126781830D02*
X55990247Y-126743734D01*
X55990247Y-126743734D02*
X56028342Y-126705639D01*
X56028342Y-126705639D02*
X56066438Y-126629449D01*
X56066438Y-126629449D02*
X56066438Y-126477068D01*
X56066438Y-126477068D02*
X56028342Y-126400877D01*
X55533104Y-126096115D02*
X56066438Y-125677067D01*
X56066438Y-126096115D02*
X55533104Y-125677067D01*
X55533104Y-125258020D02*
X55571200Y-125334210D01*
X55571200Y-125334210D02*
X55647390Y-125372305D01*
X55647390Y-125372305D02*
X56333104Y-125372305D01*
X55533104Y-124000876D02*
X56333104Y-124000876D01*
X55571200Y-124000876D02*
X55533104Y-124077067D01*
X55533104Y-124077067D02*
X55533104Y-124229448D01*
X55533104Y-124229448D02*
X55571200Y-124305638D01*
X55571200Y-124305638D02*
X55609295Y-124343733D01*
X55609295Y-124343733D02*
X55685485Y-124381829D01*
X55685485Y-124381829D02*
X55914057Y-124381829D01*
X55914057Y-124381829D02*
X55990247Y-124343733D01*
X55990247Y-124343733D02*
X56028342Y-124305638D01*
X56028342Y-124305638D02*
X56066438Y-124229448D01*
X56066438Y-124229448D02*
X56066438Y-124077067D01*
X56066438Y-124077067D02*
X56028342Y-124000876D01*
X55533104Y-123277066D02*
X55952152Y-123277066D01*
X55952152Y-123277066D02*
X56028342Y-123315161D01*
X56028342Y-123315161D02*
X56066438Y-123391352D01*
X56066438Y-123391352D02*
X56066438Y-123543733D01*
X56066438Y-123543733D02*
X56028342Y-123619923D01*
X55571200Y-123277066D02*
X55533104Y-123353257D01*
X55533104Y-123353257D02*
X55533104Y-123543733D01*
X55533104Y-123543733D02*
X55571200Y-123619923D01*
X55571200Y-123619923D02*
X55647390Y-123658019D01*
X55647390Y-123658019D02*
X55723580Y-123658019D01*
X55723580Y-123658019D02*
X55799771Y-123619923D01*
X55799771Y-123619923D02*
X55837866Y-123543733D01*
X55837866Y-123543733D02*
X55837866Y-123353257D01*
X55837866Y-123353257D02*
X55875961Y-123277066D01*
X56066438Y-123010399D02*
X56066438Y-122705637D01*
X56333104Y-122896113D02*
X55647390Y-122896113D01*
X55647390Y-122896113D02*
X55571200Y-122858018D01*
X55571200Y-122858018D02*
X55533104Y-122781828D01*
X55533104Y-122781828D02*
X55533104Y-122705637D01*
X55533104Y-122096113D02*
X55952152Y-122096113D01*
X55952152Y-122096113D02*
X56028342Y-122134208D01*
X56028342Y-122134208D02*
X56066438Y-122210399D01*
X56066438Y-122210399D02*
X56066438Y-122362780D01*
X56066438Y-122362780D02*
X56028342Y-122438970D01*
X55571200Y-122096113D02*
X55533104Y-122172304D01*
X55533104Y-122172304D02*
X55533104Y-122362780D01*
X55533104Y-122362780D02*
X55571200Y-122438970D01*
X55571200Y-122438970D02*
X55647390Y-122477066D01*
X55647390Y-122477066D02*
X55723580Y-122477066D01*
X55723580Y-122477066D02*
X55799771Y-122438970D01*
X55799771Y-122438970D02*
X55837866Y-122362780D01*
X55837866Y-122362780D02*
X55837866Y-122172304D01*
X55837866Y-122172304D02*
X55875961Y-122096113D01*
X59501750Y-36845047D02*
X59425560Y-36883142D01*
X59425560Y-36883142D02*
X59387465Y-36921238D01*
X59387465Y-36921238D02*
X59349369Y-36997428D01*
X59349369Y-36997428D02*
X59349369Y-37035523D01*
X59349369Y-37035523D02*
X59387465Y-37111714D01*
X59387465Y-37111714D02*
X59425560Y-37149809D01*
X59425560Y-37149809D02*
X59501750Y-37187904D01*
X59501750Y-37187904D02*
X59654131Y-37187904D01*
X59654131Y-37187904D02*
X59730322Y-37149809D01*
X59730322Y-37149809D02*
X59768417Y-37111714D01*
X59768417Y-37111714D02*
X59806512Y-37035523D01*
X59806512Y-37035523D02*
X59806512Y-36997428D01*
X59806512Y-36997428D02*
X59768417Y-36921238D01*
X59768417Y-36921238D02*
X59730322Y-36883142D01*
X59730322Y-36883142D02*
X59654131Y-36845047D01*
X59654131Y-36845047D02*
X59501750Y-36845047D01*
X59501750Y-36845047D02*
X59425560Y-36806952D01*
X59425560Y-36806952D02*
X59387465Y-36768857D01*
X59387465Y-36768857D02*
X59349369Y-36692666D01*
X59349369Y-36692666D02*
X59349369Y-36540285D01*
X59349369Y-36540285D02*
X59387465Y-36464095D01*
X59387465Y-36464095D02*
X59425560Y-36426000D01*
X59425560Y-36426000D02*
X59501750Y-36387904D01*
X59501750Y-36387904D02*
X59654131Y-36387904D01*
X59654131Y-36387904D02*
X59730322Y-36426000D01*
X59730322Y-36426000D02*
X59768417Y-36464095D01*
X59768417Y-36464095D02*
X59806512Y-36540285D01*
X59806512Y-36540285D02*
X59806512Y-36692666D01*
X59806512Y-36692666D02*
X59768417Y-36768857D01*
X59768417Y-36768857D02*
X59730322Y-36806952D01*
X59730322Y-36806952D02*
X59654131Y-36845047D01*
X48192400Y-30566630D02*
X48154304Y-30490439D01*
X48154304Y-30490439D02*
X48154304Y-30338058D01*
X48154304Y-30338058D02*
X48192400Y-30261868D01*
X48192400Y-30261868D02*
X48268590Y-30223772D01*
X48268590Y-30223772D02*
X48306685Y-30223772D01*
X48306685Y-30223772D02*
X48382876Y-30261868D01*
X48382876Y-30261868D02*
X48420971Y-30338058D01*
X48420971Y-30338058D02*
X48420971Y-30452344D01*
X48420971Y-30452344D02*
X48459066Y-30528534D01*
X48459066Y-30528534D02*
X48535257Y-30566630D01*
X48535257Y-30566630D02*
X48573352Y-30566630D01*
X48573352Y-30566630D02*
X48649542Y-30528534D01*
X48649542Y-30528534D02*
X48687638Y-30452344D01*
X48687638Y-30452344D02*
X48687638Y-30338058D01*
X48687638Y-30338058D02*
X48649542Y-30261868D01*
X48687638Y-29880915D02*
X47887638Y-29880915D01*
X48649542Y-29880915D02*
X48687638Y-29804725D01*
X48687638Y-29804725D02*
X48687638Y-29652344D01*
X48687638Y-29652344D02*
X48649542Y-29576153D01*
X48649542Y-29576153D02*
X48611447Y-29538058D01*
X48611447Y-29538058D02*
X48535257Y-29499963D01*
X48535257Y-29499963D02*
X48306685Y-29499963D01*
X48306685Y-29499963D02*
X48230495Y-29538058D01*
X48230495Y-29538058D02*
X48192400Y-29576153D01*
X48192400Y-29576153D02*
X48154304Y-29652344D01*
X48154304Y-29652344D02*
X48154304Y-29804725D01*
X48154304Y-29804725D02*
X48192400Y-29880915D01*
X48192400Y-28852343D02*
X48154304Y-28928534D01*
X48154304Y-28928534D02*
X48154304Y-29080915D01*
X48154304Y-29080915D02*
X48192400Y-29157105D01*
X48192400Y-29157105D02*
X48268590Y-29195201D01*
X48268590Y-29195201D02*
X48573352Y-29195201D01*
X48573352Y-29195201D02*
X48649542Y-29157105D01*
X48649542Y-29157105D02*
X48687638Y-29080915D01*
X48687638Y-29080915D02*
X48687638Y-28928534D01*
X48687638Y-28928534D02*
X48649542Y-28852343D01*
X48649542Y-28852343D02*
X48573352Y-28814248D01*
X48573352Y-28814248D02*
X48497161Y-28814248D01*
X48497161Y-28814248D02*
X48420971Y-29195201D01*
X48154304Y-28128534D02*
X48573352Y-28128534D01*
X48573352Y-28128534D02*
X48649542Y-28166629D01*
X48649542Y-28166629D02*
X48687638Y-28242820D01*
X48687638Y-28242820D02*
X48687638Y-28395201D01*
X48687638Y-28395201D02*
X48649542Y-28471391D01*
X48192400Y-28128534D02*
X48154304Y-28204725D01*
X48154304Y-28204725D02*
X48154304Y-28395201D01*
X48154304Y-28395201D02*
X48192400Y-28471391D01*
X48192400Y-28471391D02*
X48268590Y-28509487D01*
X48268590Y-28509487D02*
X48344780Y-28509487D01*
X48344780Y-28509487D02*
X48420971Y-28471391D01*
X48420971Y-28471391D02*
X48459066Y-28395201D01*
X48459066Y-28395201D02*
X48459066Y-28204725D01*
X48459066Y-28204725D02*
X48497161Y-28128534D01*
X48154304Y-27747581D02*
X48954304Y-27747581D01*
X48459066Y-27671391D02*
X48154304Y-27442819D01*
X48687638Y-27442819D02*
X48382876Y-27747581D01*
X48192400Y-26795200D02*
X48154304Y-26871391D01*
X48154304Y-26871391D02*
X48154304Y-27023772D01*
X48154304Y-27023772D02*
X48192400Y-27099962D01*
X48192400Y-27099962D02*
X48268590Y-27138058D01*
X48268590Y-27138058D02*
X48573352Y-27138058D01*
X48573352Y-27138058D02*
X48649542Y-27099962D01*
X48649542Y-27099962D02*
X48687638Y-27023772D01*
X48687638Y-27023772D02*
X48687638Y-26871391D01*
X48687638Y-26871391D02*
X48649542Y-26795200D01*
X48649542Y-26795200D02*
X48573352Y-26757105D01*
X48573352Y-26757105D02*
X48497161Y-26757105D01*
X48497161Y-26757105D02*
X48420971Y-27138058D01*
X48154304Y-26414248D02*
X48687638Y-26414248D01*
X48535257Y-26414248D02*
X48611447Y-26376153D01*
X48611447Y-26376153D02*
X48649542Y-26338058D01*
X48649542Y-26338058D02*
X48687638Y-26261867D01*
X48687638Y-26261867D02*
X48687638Y-26185677D01*
X48459066Y-25309486D02*
X48459066Y-24699963D01*
X59103104Y-126362782D02*
X59103104Y-126743734D01*
X59103104Y-126743734D02*
X58722152Y-126781830D01*
X58722152Y-126781830D02*
X58760247Y-126743734D01*
X58760247Y-126743734D02*
X58798342Y-126667544D01*
X58798342Y-126667544D02*
X58798342Y-126477068D01*
X58798342Y-126477068D02*
X58760247Y-126400877D01*
X58760247Y-126400877D02*
X58722152Y-126362782D01*
X58722152Y-126362782D02*
X58645961Y-126324687D01*
X58645961Y-126324687D02*
X58455485Y-126324687D01*
X58455485Y-126324687D02*
X58379295Y-126362782D01*
X58379295Y-126362782D02*
X58341200Y-126400877D01*
X58341200Y-126400877D02*
X58303104Y-126477068D01*
X58303104Y-126477068D02*
X58303104Y-126667544D01*
X58303104Y-126667544D02*
X58341200Y-126743734D01*
X58341200Y-126743734D02*
X58379295Y-126781830D01*
X58836438Y-126058020D02*
X58303104Y-125867544D01*
X58303104Y-125867544D02*
X58836438Y-125677067D01*
X58649304Y-30147582D02*
X58649304Y-30528534D01*
X58649304Y-30528534D02*
X58268352Y-30566630D01*
X58268352Y-30566630D02*
X58306447Y-30528534D01*
X58306447Y-30528534D02*
X58344542Y-30452344D01*
X58344542Y-30452344D02*
X58344542Y-30261868D01*
X58344542Y-30261868D02*
X58306447Y-30185677D01*
X58306447Y-30185677D02*
X58268352Y-30147582D01*
X58268352Y-30147582D02*
X58192161Y-30109487D01*
X58192161Y-30109487D02*
X58001685Y-30109487D01*
X58001685Y-30109487D02*
X57925495Y-30147582D01*
X57925495Y-30147582D02*
X57887400Y-30185677D01*
X57887400Y-30185677D02*
X57849304Y-30261868D01*
X57849304Y-30261868D02*
X57849304Y-30452344D01*
X57849304Y-30452344D02*
X57887400Y-30528534D01*
X57887400Y-30528534D02*
X57925495Y-30566630D01*
X58382638Y-29842820D02*
X57849304Y-29652344D01*
X57849304Y-29652344D02*
X58382638Y-29461867D01*
X52842638Y-30528534D02*
X52309304Y-30528534D01*
X52766447Y-30528534D02*
X52804542Y-30490439D01*
X52804542Y-30490439D02*
X52842638Y-30414249D01*
X52842638Y-30414249D02*
X52842638Y-30299963D01*
X52842638Y-30299963D02*
X52804542Y-30223772D01*
X52804542Y-30223772D02*
X52728352Y-30185677D01*
X52728352Y-30185677D02*
X52309304Y-30185677D01*
X52347400Y-29499962D02*
X52309304Y-29576153D01*
X52309304Y-29576153D02*
X52309304Y-29728534D01*
X52309304Y-29728534D02*
X52347400Y-29804724D01*
X52347400Y-29804724D02*
X52423590Y-29842820D01*
X52423590Y-29842820D02*
X52728352Y-29842820D01*
X52728352Y-29842820D02*
X52804542Y-29804724D01*
X52804542Y-29804724D02*
X52842638Y-29728534D01*
X52842638Y-29728534D02*
X52842638Y-29576153D01*
X52842638Y-29576153D02*
X52804542Y-29499962D01*
X52804542Y-29499962D02*
X52728352Y-29461867D01*
X52728352Y-29461867D02*
X52652161Y-29461867D01*
X52652161Y-29461867D02*
X52575971Y-29842820D01*
X52309304Y-29004725D02*
X52347400Y-29080915D01*
X52347400Y-29080915D02*
X52385495Y-29119010D01*
X52385495Y-29119010D02*
X52461685Y-29157106D01*
X52461685Y-29157106D02*
X52690257Y-29157106D01*
X52690257Y-29157106D02*
X52766447Y-29119010D01*
X52766447Y-29119010D02*
X52804542Y-29080915D01*
X52804542Y-29080915D02*
X52842638Y-29004725D01*
X52842638Y-29004725D02*
X52842638Y-28890439D01*
X52842638Y-28890439D02*
X52804542Y-28814248D01*
X52804542Y-28814248D02*
X52766447Y-28776153D01*
X52766447Y-28776153D02*
X52690257Y-28738058D01*
X52690257Y-28738058D02*
X52461685Y-28738058D01*
X52461685Y-28738058D02*
X52385495Y-28776153D01*
X52385495Y-28776153D02*
X52347400Y-28814248D01*
X52347400Y-28814248D02*
X52309304Y-28890439D01*
X52309304Y-28890439D02*
X52309304Y-29004725D01*
X52842638Y-28395200D02*
X52042638Y-28395200D01*
X52804542Y-28395200D02*
X52842638Y-28319010D01*
X52842638Y-28319010D02*
X52842638Y-28166629D01*
X52842638Y-28166629D02*
X52804542Y-28090438D01*
X52804542Y-28090438D02*
X52766447Y-28052343D01*
X52766447Y-28052343D02*
X52690257Y-28014248D01*
X52690257Y-28014248D02*
X52461685Y-28014248D01*
X52461685Y-28014248D02*
X52385495Y-28052343D01*
X52385495Y-28052343D02*
X52347400Y-28090438D01*
X52347400Y-28090438D02*
X52309304Y-28166629D01*
X52309304Y-28166629D02*
X52309304Y-28319010D01*
X52309304Y-28319010D02*
X52347400Y-28395200D01*
X52309304Y-27671390D02*
X52842638Y-27671390D01*
X53109304Y-27671390D02*
X53071209Y-27709486D01*
X53071209Y-27709486D02*
X53033114Y-27671390D01*
X53033114Y-27671390D02*
X53071209Y-27633295D01*
X53071209Y-27633295D02*
X53109304Y-27671390D01*
X53109304Y-27671390D02*
X53033114Y-27671390D01*
X52309304Y-27366629D02*
X52842638Y-26947581D01*
X52842638Y-27366629D02*
X52309304Y-26947581D01*
X52347400Y-26338057D02*
X52309304Y-26414248D01*
X52309304Y-26414248D02*
X52309304Y-26566629D01*
X52309304Y-26566629D02*
X52347400Y-26642819D01*
X52347400Y-26642819D02*
X52423590Y-26680915D01*
X52423590Y-26680915D02*
X52728352Y-26680915D01*
X52728352Y-26680915D02*
X52804542Y-26642819D01*
X52804542Y-26642819D02*
X52842638Y-26566629D01*
X52842638Y-26566629D02*
X52842638Y-26414248D01*
X52842638Y-26414248D02*
X52804542Y-26338057D01*
X52804542Y-26338057D02*
X52728352Y-26299962D01*
X52728352Y-26299962D02*
X52652161Y-26299962D01*
X52652161Y-26299962D02*
X52575971Y-26680915D01*
X52309304Y-25842820D02*
X52347400Y-25919010D01*
X52347400Y-25919010D02*
X52423590Y-25957105D01*
X52423590Y-25957105D02*
X53109304Y-25957105D01*
X40675312Y-112103104D02*
X40218169Y-112103104D01*
X40446741Y-112103104D02*
X40446741Y-112903104D01*
X40446741Y-112903104D02*
X40370550Y-112788819D01*
X40370550Y-112788819D02*
X40294360Y-112712628D01*
X40294360Y-112712628D02*
X40218169Y-112674533D01*
X51911438Y-126743734D02*
X51111438Y-126743734D01*
X51873342Y-126743734D02*
X51911438Y-126667544D01*
X51911438Y-126667544D02*
X51911438Y-126515163D01*
X51911438Y-126515163D02*
X51873342Y-126438972D01*
X51873342Y-126438972D02*
X51835247Y-126400877D01*
X51835247Y-126400877D02*
X51759057Y-126362782D01*
X51759057Y-126362782D02*
X51530485Y-126362782D01*
X51530485Y-126362782D02*
X51454295Y-126400877D01*
X51454295Y-126400877D02*
X51416200Y-126438972D01*
X51416200Y-126438972D02*
X51378104Y-126515163D01*
X51378104Y-126515163D02*
X51378104Y-126667544D01*
X51378104Y-126667544D02*
X51416200Y-126743734D01*
X51378104Y-126019924D02*
X52178104Y-126019924D01*
X51378104Y-125677067D02*
X51797152Y-125677067D01*
X51797152Y-125677067D02*
X51873342Y-125715162D01*
X51873342Y-125715162D02*
X51911438Y-125791353D01*
X51911438Y-125791353D02*
X51911438Y-125905639D01*
X51911438Y-125905639D02*
X51873342Y-125981829D01*
X51873342Y-125981829D02*
X51835247Y-126019924D01*
X51378104Y-125181829D02*
X51416200Y-125258019D01*
X51416200Y-125258019D02*
X51454295Y-125296114D01*
X51454295Y-125296114D02*
X51530485Y-125334210D01*
X51530485Y-125334210D02*
X51759057Y-125334210D01*
X51759057Y-125334210D02*
X51835247Y-125296114D01*
X51835247Y-125296114D02*
X51873342Y-125258019D01*
X51873342Y-125258019D02*
X51911438Y-125181829D01*
X51911438Y-125181829D02*
X51911438Y-125067543D01*
X51911438Y-125067543D02*
X51873342Y-124991352D01*
X51873342Y-124991352D02*
X51835247Y-124953257D01*
X51835247Y-124953257D02*
X51759057Y-124915162D01*
X51759057Y-124915162D02*
X51530485Y-124915162D01*
X51530485Y-124915162D02*
X51454295Y-124953257D01*
X51454295Y-124953257D02*
X51416200Y-124991352D01*
X51416200Y-124991352D02*
X51378104Y-125067543D01*
X51378104Y-125067543D02*
X51378104Y-125181829D01*
X51911438Y-124686590D02*
X51911438Y-124381828D01*
X52178104Y-124572304D02*
X51492390Y-124572304D01*
X51492390Y-124572304D02*
X51416200Y-124534209D01*
X51416200Y-124534209D02*
X51378104Y-124458019D01*
X51378104Y-124458019D02*
X51378104Y-124381828D01*
X51378104Y-124000876D02*
X51416200Y-124077066D01*
X51416200Y-124077066D02*
X51454295Y-124115161D01*
X51454295Y-124115161D02*
X51530485Y-124153257D01*
X51530485Y-124153257D02*
X51759057Y-124153257D01*
X51759057Y-124153257D02*
X51835247Y-124115161D01*
X51835247Y-124115161D02*
X51873342Y-124077066D01*
X51873342Y-124077066D02*
X51911438Y-124000876D01*
X51911438Y-124000876D02*
X51911438Y-123886590D01*
X51911438Y-123886590D02*
X51873342Y-123810399D01*
X51873342Y-123810399D02*
X51835247Y-123772304D01*
X51835247Y-123772304D02*
X51759057Y-123734209D01*
X51759057Y-123734209D02*
X51530485Y-123734209D01*
X51530485Y-123734209D02*
X51454295Y-123772304D01*
X51454295Y-123772304D02*
X51416200Y-123810399D01*
X51416200Y-123810399D02*
X51378104Y-123886590D01*
X51378104Y-123886590D02*
X51378104Y-124000876D01*
X51416200Y-123429447D02*
X51378104Y-123353256D01*
X51378104Y-123353256D02*
X51378104Y-123200875D01*
X51378104Y-123200875D02*
X51416200Y-123124685D01*
X51416200Y-123124685D02*
X51492390Y-123086589D01*
X51492390Y-123086589D02*
X51530485Y-123086589D01*
X51530485Y-123086589D02*
X51606676Y-123124685D01*
X51606676Y-123124685D02*
X51644771Y-123200875D01*
X51644771Y-123200875D02*
X51644771Y-123315161D01*
X51644771Y-123315161D02*
X51682866Y-123391351D01*
X51682866Y-123391351D02*
X51759057Y-123429447D01*
X51759057Y-123429447D02*
X51797152Y-123429447D01*
X51797152Y-123429447D02*
X51873342Y-123391351D01*
X51873342Y-123391351D02*
X51911438Y-123315161D01*
X51911438Y-123315161D02*
X51911438Y-123200875D01*
X51911438Y-123200875D02*
X51873342Y-123124685D01*
X51416200Y-122438970D02*
X51378104Y-122515161D01*
X51378104Y-122515161D02*
X51378104Y-122667542D01*
X51378104Y-122667542D02*
X51416200Y-122743732D01*
X51416200Y-122743732D02*
X51492390Y-122781828D01*
X51492390Y-122781828D02*
X51797152Y-122781828D01*
X51797152Y-122781828D02*
X51873342Y-122743732D01*
X51873342Y-122743732D02*
X51911438Y-122667542D01*
X51911438Y-122667542D02*
X51911438Y-122515161D01*
X51911438Y-122515161D02*
X51873342Y-122438970D01*
X51873342Y-122438970D02*
X51797152Y-122400875D01*
X51797152Y-122400875D02*
X51720961Y-122400875D01*
X51720961Y-122400875D02*
X51644771Y-122781828D01*
X51911438Y-122058018D02*
X51378104Y-122058018D01*
X51835247Y-122058018D02*
X51873342Y-122019923D01*
X51873342Y-122019923D02*
X51911438Y-121943733D01*
X51911438Y-121943733D02*
X51911438Y-121829447D01*
X51911438Y-121829447D02*
X51873342Y-121753256D01*
X51873342Y-121753256D02*
X51797152Y-121715161D01*
X51797152Y-121715161D02*
X51378104Y-121715161D01*
X51416200Y-121372304D02*
X51378104Y-121296113D01*
X51378104Y-121296113D02*
X51378104Y-121143732D01*
X51378104Y-121143732D02*
X51416200Y-121067542D01*
X51416200Y-121067542D02*
X51492390Y-121029446D01*
X51492390Y-121029446D02*
X51530485Y-121029446D01*
X51530485Y-121029446D02*
X51606676Y-121067542D01*
X51606676Y-121067542D02*
X51644771Y-121143732D01*
X51644771Y-121143732D02*
X51644771Y-121258018D01*
X51644771Y-121258018D02*
X51682866Y-121334208D01*
X51682866Y-121334208D02*
X51759057Y-121372304D01*
X51759057Y-121372304D02*
X51797152Y-121372304D01*
X51797152Y-121372304D02*
X51873342Y-121334208D01*
X51873342Y-121334208D02*
X51911438Y-121258018D01*
X51911438Y-121258018D02*
X51911438Y-121143732D01*
X51911438Y-121143732D02*
X51873342Y-121067542D01*
X51378104Y-120572304D02*
X51416200Y-120648494D01*
X51416200Y-120648494D02*
X51454295Y-120686589D01*
X51454295Y-120686589D02*
X51530485Y-120724685D01*
X51530485Y-120724685D02*
X51759057Y-120724685D01*
X51759057Y-120724685D02*
X51835247Y-120686589D01*
X51835247Y-120686589D02*
X51873342Y-120648494D01*
X51873342Y-120648494D02*
X51911438Y-120572304D01*
X51911438Y-120572304D02*
X51911438Y-120458018D01*
X51911438Y-120458018D02*
X51873342Y-120381827D01*
X51873342Y-120381827D02*
X51835247Y-120343732D01*
X51835247Y-120343732D02*
X51759057Y-120305637D01*
X51759057Y-120305637D02*
X51530485Y-120305637D01*
X51530485Y-120305637D02*
X51454295Y-120343732D01*
X51454295Y-120343732D02*
X51416200Y-120381827D01*
X51416200Y-120381827D02*
X51378104Y-120458018D01*
X51378104Y-120458018D02*
X51378104Y-120572304D01*
X51378104Y-119962779D02*
X51911438Y-119962779D01*
X51759057Y-119962779D02*
X51835247Y-119924684D01*
X51835247Y-119924684D02*
X51873342Y-119886589D01*
X51873342Y-119886589D02*
X51911438Y-119810398D01*
X51911438Y-119810398D02*
X51911438Y-119734208D01*
X51457638Y-30528534D02*
X50657638Y-30528534D01*
X51419542Y-30528534D02*
X51457638Y-30452344D01*
X51457638Y-30452344D02*
X51457638Y-30299963D01*
X51457638Y-30299963D02*
X51419542Y-30223772D01*
X51419542Y-30223772D02*
X51381447Y-30185677D01*
X51381447Y-30185677D02*
X51305257Y-30147582D01*
X51305257Y-30147582D02*
X51076685Y-30147582D01*
X51076685Y-30147582D02*
X51000495Y-30185677D01*
X51000495Y-30185677D02*
X50962400Y-30223772D01*
X50962400Y-30223772D02*
X50924304Y-30299963D01*
X50924304Y-30299963D02*
X50924304Y-30452344D01*
X50924304Y-30452344D02*
X50962400Y-30528534D01*
X50924304Y-29804724D02*
X51724304Y-29804724D01*
X50924304Y-29461867D02*
X51343352Y-29461867D01*
X51343352Y-29461867D02*
X51419542Y-29499962D01*
X51419542Y-29499962D02*
X51457638Y-29576153D01*
X51457638Y-29576153D02*
X51457638Y-29690439D01*
X51457638Y-29690439D02*
X51419542Y-29766629D01*
X51419542Y-29766629D02*
X51381447Y-29804724D01*
X50924304Y-28966629D02*
X50962400Y-29042819D01*
X50962400Y-29042819D02*
X51000495Y-29080914D01*
X51000495Y-29080914D02*
X51076685Y-29119010D01*
X51076685Y-29119010D02*
X51305257Y-29119010D01*
X51305257Y-29119010D02*
X51381447Y-29080914D01*
X51381447Y-29080914D02*
X51419542Y-29042819D01*
X51419542Y-29042819D02*
X51457638Y-28966629D01*
X51457638Y-28966629D02*
X51457638Y-28852343D01*
X51457638Y-28852343D02*
X51419542Y-28776152D01*
X51419542Y-28776152D02*
X51381447Y-28738057D01*
X51381447Y-28738057D02*
X51305257Y-28699962D01*
X51305257Y-28699962D02*
X51076685Y-28699962D01*
X51076685Y-28699962D02*
X51000495Y-28738057D01*
X51000495Y-28738057D02*
X50962400Y-28776152D01*
X50962400Y-28776152D02*
X50924304Y-28852343D01*
X50924304Y-28852343D02*
X50924304Y-28966629D01*
X51457638Y-28471390D02*
X51457638Y-28166628D01*
X51724304Y-28357104D02*
X51038590Y-28357104D01*
X51038590Y-28357104D02*
X50962400Y-28319009D01*
X50962400Y-28319009D02*
X50924304Y-28242819D01*
X50924304Y-28242819D02*
X50924304Y-28166628D01*
X50924304Y-27785676D02*
X50962400Y-27861866D01*
X50962400Y-27861866D02*
X51000495Y-27899961D01*
X51000495Y-27899961D02*
X51076685Y-27938057D01*
X51076685Y-27938057D02*
X51305257Y-27938057D01*
X51305257Y-27938057D02*
X51381447Y-27899961D01*
X51381447Y-27899961D02*
X51419542Y-27861866D01*
X51419542Y-27861866D02*
X51457638Y-27785676D01*
X51457638Y-27785676D02*
X51457638Y-27671390D01*
X51457638Y-27671390D02*
X51419542Y-27595199D01*
X51419542Y-27595199D02*
X51381447Y-27557104D01*
X51381447Y-27557104D02*
X51305257Y-27519009D01*
X51305257Y-27519009D02*
X51076685Y-27519009D01*
X51076685Y-27519009D02*
X51000495Y-27557104D01*
X51000495Y-27557104D02*
X50962400Y-27595199D01*
X50962400Y-27595199D02*
X50924304Y-27671390D01*
X50924304Y-27671390D02*
X50924304Y-27785676D01*
X50962400Y-27214247D02*
X50924304Y-27138056D01*
X50924304Y-27138056D02*
X50924304Y-26985675D01*
X50924304Y-26985675D02*
X50962400Y-26909485D01*
X50962400Y-26909485D02*
X51038590Y-26871389D01*
X51038590Y-26871389D02*
X51076685Y-26871389D01*
X51076685Y-26871389D02*
X51152876Y-26909485D01*
X51152876Y-26909485D02*
X51190971Y-26985675D01*
X51190971Y-26985675D02*
X51190971Y-27099961D01*
X51190971Y-27099961D02*
X51229066Y-27176151D01*
X51229066Y-27176151D02*
X51305257Y-27214247D01*
X51305257Y-27214247D02*
X51343352Y-27214247D01*
X51343352Y-27214247D02*
X51419542Y-27176151D01*
X51419542Y-27176151D02*
X51457638Y-27099961D01*
X51457638Y-27099961D02*
X51457638Y-26985675D01*
X51457638Y-26985675D02*
X51419542Y-26909485D01*
X50962400Y-26223770D02*
X50924304Y-26299961D01*
X50924304Y-26299961D02*
X50924304Y-26452342D01*
X50924304Y-26452342D02*
X50962400Y-26528532D01*
X50962400Y-26528532D02*
X51038590Y-26566628D01*
X51038590Y-26566628D02*
X51343352Y-26566628D01*
X51343352Y-26566628D02*
X51419542Y-26528532D01*
X51419542Y-26528532D02*
X51457638Y-26452342D01*
X51457638Y-26452342D02*
X51457638Y-26299961D01*
X51457638Y-26299961D02*
X51419542Y-26223770D01*
X51419542Y-26223770D02*
X51343352Y-26185675D01*
X51343352Y-26185675D02*
X51267161Y-26185675D01*
X51267161Y-26185675D02*
X51190971Y-26566628D01*
X51457638Y-25842818D02*
X50924304Y-25842818D01*
X51381447Y-25842818D02*
X51419542Y-25804723D01*
X51419542Y-25804723D02*
X51457638Y-25728533D01*
X51457638Y-25728533D02*
X51457638Y-25614247D01*
X51457638Y-25614247D02*
X51419542Y-25538056D01*
X51419542Y-25538056D02*
X51343352Y-25499961D01*
X51343352Y-25499961D02*
X50924304Y-25499961D01*
X50962400Y-25157104D02*
X50924304Y-25080913D01*
X50924304Y-25080913D02*
X50924304Y-24928532D01*
X50924304Y-24928532D02*
X50962400Y-24852342D01*
X50962400Y-24852342D02*
X51038590Y-24814246D01*
X51038590Y-24814246D02*
X51076685Y-24814246D01*
X51076685Y-24814246D02*
X51152876Y-24852342D01*
X51152876Y-24852342D02*
X51190971Y-24928532D01*
X51190971Y-24928532D02*
X51190971Y-25042818D01*
X51190971Y-25042818D02*
X51229066Y-25119008D01*
X51229066Y-25119008D02*
X51305257Y-25157104D01*
X51305257Y-25157104D02*
X51343352Y-25157104D01*
X51343352Y-25157104D02*
X51419542Y-25119008D01*
X51419542Y-25119008D02*
X51457638Y-25042818D01*
X51457638Y-25042818D02*
X51457638Y-24928532D01*
X51457638Y-24928532D02*
X51419542Y-24852342D01*
X50924304Y-24357104D02*
X50962400Y-24433294D01*
X50962400Y-24433294D02*
X51000495Y-24471389D01*
X51000495Y-24471389D02*
X51076685Y-24509485D01*
X51076685Y-24509485D02*
X51305257Y-24509485D01*
X51305257Y-24509485D02*
X51381447Y-24471389D01*
X51381447Y-24471389D02*
X51419542Y-24433294D01*
X51419542Y-24433294D02*
X51457638Y-24357104D01*
X51457638Y-24357104D02*
X51457638Y-24242818D01*
X51457638Y-24242818D02*
X51419542Y-24166627D01*
X51419542Y-24166627D02*
X51381447Y-24128532D01*
X51381447Y-24128532D02*
X51305257Y-24090437D01*
X51305257Y-24090437D02*
X51076685Y-24090437D01*
X51076685Y-24090437D02*
X51000495Y-24128532D01*
X51000495Y-24128532D02*
X50962400Y-24166627D01*
X50962400Y-24166627D02*
X50924304Y-24242818D01*
X50924304Y-24242818D02*
X50924304Y-24357104D01*
X50924304Y-23747579D02*
X51457638Y-23747579D01*
X51305257Y-23747579D02*
X51381447Y-23709484D01*
X51381447Y-23709484D02*
X51419542Y-23671389D01*
X51419542Y-23671389D02*
X51457638Y-23595198D01*
X51457638Y-23595198D02*
X51457638Y-23519008D01*
X54148104Y-126743734D02*
X54681438Y-126743734D01*
X54605247Y-126743734D02*
X54643342Y-126705639D01*
X54643342Y-126705639D02*
X54681438Y-126629449D01*
X54681438Y-126629449D02*
X54681438Y-126515163D01*
X54681438Y-126515163D02*
X54643342Y-126438972D01*
X54643342Y-126438972D02*
X54567152Y-126400877D01*
X54567152Y-126400877D02*
X54148104Y-126400877D01*
X54567152Y-126400877D02*
X54643342Y-126362782D01*
X54643342Y-126362782D02*
X54681438Y-126286591D01*
X54681438Y-126286591D02*
X54681438Y-126172306D01*
X54681438Y-126172306D02*
X54643342Y-126096115D01*
X54643342Y-126096115D02*
X54567152Y-126058020D01*
X54567152Y-126058020D02*
X54148104Y-126058020D01*
X54148104Y-125677067D02*
X54681438Y-125677067D01*
X54948104Y-125677067D02*
X54910009Y-125715163D01*
X54910009Y-125715163D02*
X54871914Y-125677067D01*
X54871914Y-125677067D02*
X54910009Y-125638972D01*
X54910009Y-125638972D02*
X54948104Y-125677067D01*
X54948104Y-125677067D02*
X54871914Y-125677067D01*
X54186200Y-124953258D02*
X54148104Y-125029449D01*
X54148104Y-125029449D02*
X54148104Y-125181830D01*
X54148104Y-125181830D02*
X54186200Y-125258020D01*
X54186200Y-125258020D02*
X54224295Y-125296115D01*
X54224295Y-125296115D02*
X54300485Y-125334211D01*
X54300485Y-125334211D02*
X54529057Y-125334211D01*
X54529057Y-125334211D02*
X54605247Y-125296115D01*
X54605247Y-125296115D02*
X54643342Y-125258020D01*
X54643342Y-125258020D02*
X54681438Y-125181830D01*
X54681438Y-125181830D02*
X54681438Y-125029449D01*
X54681438Y-125029449D02*
X54643342Y-124953258D01*
X54148104Y-124610401D02*
X54681438Y-124610401D01*
X54529057Y-124610401D02*
X54605247Y-124572306D01*
X54605247Y-124572306D02*
X54643342Y-124534211D01*
X54643342Y-124534211D02*
X54681438Y-124458020D01*
X54681438Y-124458020D02*
X54681438Y-124381830D01*
X54148104Y-124000878D02*
X54186200Y-124077068D01*
X54186200Y-124077068D02*
X54224295Y-124115163D01*
X54224295Y-124115163D02*
X54300485Y-124153259D01*
X54300485Y-124153259D02*
X54529057Y-124153259D01*
X54529057Y-124153259D02*
X54605247Y-124115163D01*
X54605247Y-124115163D02*
X54643342Y-124077068D01*
X54643342Y-124077068D02*
X54681438Y-124000878D01*
X54681438Y-124000878D02*
X54681438Y-123886592D01*
X54681438Y-123886592D02*
X54643342Y-123810401D01*
X54643342Y-123810401D02*
X54605247Y-123772306D01*
X54605247Y-123772306D02*
X54529057Y-123734211D01*
X54529057Y-123734211D02*
X54300485Y-123734211D01*
X54300485Y-123734211D02*
X54224295Y-123772306D01*
X54224295Y-123772306D02*
X54186200Y-123810401D01*
X54186200Y-123810401D02*
X54148104Y-123886592D01*
X54148104Y-123886592D02*
X54148104Y-124000878D01*
X54681438Y-123391353D02*
X53881438Y-123391353D01*
X54643342Y-123391353D02*
X54681438Y-123315163D01*
X54681438Y-123315163D02*
X54681438Y-123162782D01*
X54681438Y-123162782D02*
X54643342Y-123086591D01*
X54643342Y-123086591D02*
X54605247Y-123048496D01*
X54605247Y-123048496D02*
X54529057Y-123010401D01*
X54529057Y-123010401D02*
X54300485Y-123010401D01*
X54300485Y-123010401D02*
X54224295Y-123048496D01*
X54224295Y-123048496D02*
X54186200Y-123086591D01*
X54186200Y-123086591D02*
X54148104Y-123162782D01*
X54148104Y-123162782D02*
X54148104Y-123315163D01*
X54148104Y-123315163D02*
X54186200Y-123391353D01*
X54148104Y-122667543D02*
X54948104Y-122667543D01*
X54148104Y-122324686D02*
X54567152Y-122324686D01*
X54567152Y-122324686D02*
X54643342Y-122362781D01*
X54643342Y-122362781D02*
X54681438Y-122438972D01*
X54681438Y-122438972D02*
X54681438Y-122553258D01*
X54681438Y-122553258D02*
X54643342Y-122629448D01*
X54643342Y-122629448D02*
X54605247Y-122667543D01*
X54148104Y-121829448D02*
X54186200Y-121905638D01*
X54186200Y-121905638D02*
X54224295Y-121943733D01*
X54224295Y-121943733D02*
X54300485Y-121981829D01*
X54300485Y-121981829D02*
X54529057Y-121981829D01*
X54529057Y-121981829D02*
X54605247Y-121943733D01*
X54605247Y-121943733D02*
X54643342Y-121905638D01*
X54643342Y-121905638D02*
X54681438Y-121829448D01*
X54681438Y-121829448D02*
X54681438Y-121715162D01*
X54681438Y-121715162D02*
X54643342Y-121638971D01*
X54643342Y-121638971D02*
X54605247Y-121600876D01*
X54605247Y-121600876D02*
X54529057Y-121562781D01*
X54529057Y-121562781D02*
X54300485Y-121562781D01*
X54300485Y-121562781D02*
X54224295Y-121600876D01*
X54224295Y-121600876D02*
X54186200Y-121638971D01*
X54186200Y-121638971D02*
X54148104Y-121715162D01*
X54148104Y-121715162D02*
X54148104Y-121829448D01*
X54681438Y-121219923D02*
X54148104Y-121219923D01*
X54605247Y-121219923D02*
X54643342Y-121181828D01*
X54643342Y-121181828D02*
X54681438Y-121105638D01*
X54681438Y-121105638D02*
X54681438Y-120991352D01*
X54681438Y-120991352D02*
X54643342Y-120915161D01*
X54643342Y-120915161D02*
X54567152Y-120877066D01*
X54567152Y-120877066D02*
X54148104Y-120877066D01*
X54186200Y-120191351D02*
X54148104Y-120267542D01*
X54148104Y-120267542D02*
X54148104Y-120419923D01*
X54148104Y-120419923D02*
X54186200Y-120496113D01*
X54186200Y-120496113D02*
X54262390Y-120534209D01*
X54262390Y-120534209D02*
X54567152Y-120534209D01*
X54567152Y-120534209D02*
X54643342Y-120496113D01*
X54643342Y-120496113D02*
X54681438Y-120419923D01*
X54681438Y-120419923D02*
X54681438Y-120267542D01*
X54681438Y-120267542D02*
X54643342Y-120191351D01*
X54643342Y-120191351D02*
X54567152Y-120153256D01*
X54567152Y-120153256D02*
X54490961Y-120153256D01*
X54490961Y-120153256D02*
X54414771Y-120534209D01*
X56464304Y-30109487D02*
X56464304Y-30566630D01*
X56464304Y-30338058D02*
X57264304Y-30338058D01*
X57264304Y-30338058D02*
X57150019Y-30414249D01*
X57150019Y-30414249D02*
X57073828Y-30490439D01*
X57073828Y-30490439D02*
X57035733Y-30566630D01*
X57188114Y-29804725D02*
X57226209Y-29766629D01*
X57226209Y-29766629D02*
X57264304Y-29690439D01*
X57264304Y-29690439D02*
X57264304Y-29499963D01*
X57264304Y-29499963D02*
X57226209Y-29423772D01*
X57226209Y-29423772D02*
X57188114Y-29385677D01*
X57188114Y-29385677D02*
X57111923Y-29347582D01*
X57111923Y-29347582D02*
X57035733Y-29347582D01*
X57035733Y-29347582D02*
X56921447Y-29385677D01*
X56921447Y-29385677D02*
X56464304Y-29842820D01*
X56464304Y-29842820D02*
X56464304Y-29347582D01*
X57264304Y-29119010D02*
X56464304Y-28852343D01*
X56464304Y-28852343D02*
X57264304Y-28585677D01*
X49577400Y-30566630D02*
X49539304Y-30490439D01*
X49539304Y-30490439D02*
X49539304Y-30338058D01*
X49539304Y-30338058D02*
X49577400Y-30261868D01*
X49577400Y-30261868D02*
X49653590Y-30223772D01*
X49653590Y-30223772D02*
X49691685Y-30223772D01*
X49691685Y-30223772D02*
X49767876Y-30261868D01*
X49767876Y-30261868D02*
X49805971Y-30338058D01*
X49805971Y-30338058D02*
X49805971Y-30452344D01*
X49805971Y-30452344D02*
X49844066Y-30528534D01*
X49844066Y-30528534D02*
X49920257Y-30566630D01*
X49920257Y-30566630D02*
X49958352Y-30566630D01*
X49958352Y-30566630D02*
X50034542Y-30528534D01*
X50034542Y-30528534D02*
X50072638Y-30452344D01*
X50072638Y-30452344D02*
X50072638Y-30338058D01*
X50072638Y-30338058D02*
X50034542Y-30261868D01*
X50072638Y-29880915D02*
X49272638Y-29880915D01*
X50034542Y-29880915D02*
X50072638Y-29804725D01*
X50072638Y-29804725D02*
X50072638Y-29652344D01*
X50072638Y-29652344D02*
X50034542Y-29576153D01*
X50034542Y-29576153D02*
X49996447Y-29538058D01*
X49996447Y-29538058D02*
X49920257Y-29499963D01*
X49920257Y-29499963D02*
X49691685Y-29499963D01*
X49691685Y-29499963D02*
X49615495Y-29538058D01*
X49615495Y-29538058D02*
X49577400Y-29576153D01*
X49577400Y-29576153D02*
X49539304Y-29652344D01*
X49539304Y-29652344D02*
X49539304Y-29804725D01*
X49539304Y-29804725D02*
X49577400Y-29880915D01*
X49577400Y-28852343D02*
X49539304Y-28928534D01*
X49539304Y-28928534D02*
X49539304Y-29080915D01*
X49539304Y-29080915D02*
X49577400Y-29157105D01*
X49577400Y-29157105D02*
X49653590Y-29195201D01*
X49653590Y-29195201D02*
X49958352Y-29195201D01*
X49958352Y-29195201D02*
X50034542Y-29157105D01*
X50034542Y-29157105D02*
X50072638Y-29080915D01*
X50072638Y-29080915D02*
X50072638Y-28928534D01*
X50072638Y-28928534D02*
X50034542Y-28852343D01*
X50034542Y-28852343D02*
X49958352Y-28814248D01*
X49958352Y-28814248D02*
X49882161Y-28814248D01*
X49882161Y-28814248D02*
X49805971Y-29195201D01*
X49539304Y-28128534D02*
X49958352Y-28128534D01*
X49958352Y-28128534D02*
X50034542Y-28166629D01*
X50034542Y-28166629D02*
X50072638Y-28242820D01*
X50072638Y-28242820D02*
X50072638Y-28395201D01*
X50072638Y-28395201D02*
X50034542Y-28471391D01*
X49577400Y-28128534D02*
X49539304Y-28204725D01*
X49539304Y-28204725D02*
X49539304Y-28395201D01*
X49539304Y-28395201D02*
X49577400Y-28471391D01*
X49577400Y-28471391D02*
X49653590Y-28509487D01*
X49653590Y-28509487D02*
X49729780Y-28509487D01*
X49729780Y-28509487D02*
X49805971Y-28471391D01*
X49805971Y-28471391D02*
X49844066Y-28395201D01*
X49844066Y-28395201D02*
X49844066Y-28204725D01*
X49844066Y-28204725D02*
X49882161Y-28128534D01*
X49539304Y-27747581D02*
X50339304Y-27747581D01*
X49844066Y-27671391D02*
X49539304Y-27442819D01*
X50072638Y-27442819D02*
X49767876Y-27747581D01*
X49577400Y-26795200D02*
X49539304Y-26871391D01*
X49539304Y-26871391D02*
X49539304Y-27023772D01*
X49539304Y-27023772D02*
X49577400Y-27099962D01*
X49577400Y-27099962D02*
X49653590Y-27138058D01*
X49653590Y-27138058D02*
X49958352Y-27138058D01*
X49958352Y-27138058D02*
X50034542Y-27099962D01*
X50034542Y-27099962D02*
X50072638Y-27023772D01*
X50072638Y-27023772D02*
X50072638Y-26871391D01*
X50072638Y-26871391D02*
X50034542Y-26795200D01*
X50034542Y-26795200D02*
X49958352Y-26757105D01*
X49958352Y-26757105D02*
X49882161Y-26757105D01*
X49882161Y-26757105D02*
X49805971Y-27138058D01*
X49539304Y-26414248D02*
X50072638Y-26414248D01*
X49920257Y-26414248D02*
X49996447Y-26376153D01*
X49996447Y-26376153D02*
X50034542Y-26338058D01*
X50034542Y-26338058D02*
X50072638Y-26261867D01*
X50072638Y-26261867D02*
X50072638Y-26185677D01*
X49844066Y-25309486D02*
X49844066Y-24699963D01*
X49539304Y-25004724D02*
X50148828Y-25004724D01*
X59996209Y-30109487D02*
X60034304Y-30185677D01*
X60034304Y-30185677D02*
X60034304Y-30299963D01*
X60034304Y-30299963D02*
X59996209Y-30414249D01*
X59996209Y-30414249D02*
X59920019Y-30490439D01*
X59920019Y-30490439D02*
X59843828Y-30528534D01*
X59843828Y-30528534D02*
X59691447Y-30566630D01*
X59691447Y-30566630D02*
X59577161Y-30566630D01*
X59577161Y-30566630D02*
X59424780Y-30528534D01*
X59424780Y-30528534D02*
X59348590Y-30490439D01*
X59348590Y-30490439D02*
X59272400Y-30414249D01*
X59272400Y-30414249D02*
X59234304Y-30299963D01*
X59234304Y-30299963D02*
X59234304Y-30223772D01*
X59234304Y-30223772D02*
X59272400Y-30109487D01*
X59272400Y-30109487D02*
X59310495Y-30071391D01*
X59310495Y-30071391D02*
X59577161Y-30071391D01*
X59577161Y-30071391D02*
X59577161Y-30223772D01*
X59234304Y-29728534D02*
X60034304Y-29728534D01*
X60034304Y-29728534D02*
X59234304Y-29271391D01*
X59234304Y-29271391D02*
X60034304Y-29271391D01*
X59234304Y-28890439D02*
X60034304Y-28890439D01*
X60034304Y-28890439D02*
X60034304Y-28699963D01*
X60034304Y-28699963D02*
X59996209Y-28585677D01*
X59996209Y-28585677D02*
X59920019Y-28509487D01*
X59920019Y-28509487D02*
X59843828Y-28471392D01*
X59843828Y-28471392D02*
X59691447Y-28433296D01*
X59691447Y-28433296D02*
X59577161Y-28433296D01*
X59577161Y-28433296D02*
X59424780Y-28471392D01*
X59424780Y-28471392D02*
X59348590Y-28509487D01*
X59348590Y-28509487D02*
X59272400Y-28585677D01*
X59272400Y-28585677D02*
X59234304Y-28699963D01*
X59234304Y-28699963D02*
X59234304Y-28890439D01*
X60450009Y-126324687D02*
X60488104Y-126400877D01*
X60488104Y-126400877D02*
X60488104Y-126515163D01*
X60488104Y-126515163D02*
X60450009Y-126629449D01*
X60450009Y-126629449D02*
X60373819Y-126705639D01*
X60373819Y-126705639D02*
X60297628Y-126743734D01*
X60297628Y-126743734D02*
X60145247Y-126781830D01*
X60145247Y-126781830D02*
X60030961Y-126781830D01*
X60030961Y-126781830D02*
X59878580Y-126743734D01*
X59878580Y-126743734D02*
X59802390Y-126705639D01*
X59802390Y-126705639D02*
X59726200Y-126629449D01*
X59726200Y-126629449D02*
X59688104Y-126515163D01*
X59688104Y-126515163D02*
X59688104Y-126438972D01*
X59688104Y-126438972D02*
X59726200Y-126324687D01*
X59726200Y-126324687D02*
X59764295Y-126286591D01*
X59764295Y-126286591D02*
X60030961Y-126286591D01*
X60030961Y-126286591D02*
X60030961Y-126438972D01*
X59688104Y-125943734D02*
X60488104Y-125943734D01*
X60488104Y-125943734D02*
X59688104Y-125486591D01*
X59688104Y-125486591D02*
X60488104Y-125486591D01*
X59688104Y-125105639D02*
X60488104Y-125105639D01*
X60488104Y-125105639D02*
X60488104Y-124915163D01*
X60488104Y-124915163D02*
X60450009Y-124800877D01*
X60450009Y-124800877D02*
X60373819Y-124724687D01*
X60373819Y-124724687D02*
X60297628Y-124686592D01*
X60297628Y-124686592D02*
X60145247Y-124648496D01*
X60145247Y-124648496D02*
X60030961Y-124648496D01*
X60030961Y-124648496D02*
X59878580Y-124686592D01*
X59878580Y-124686592D02*
X59802390Y-124724687D01*
X59802390Y-124724687D02*
X59726200Y-124800877D01*
X59726200Y-124800877D02*
X59688104Y-124915163D01*
X59688104Y-124915163D02*
X59688104Y-125105639D01*
X48646200Y-126781830D02*
X48608104Y-126705639D01*
X48608104Y-126705639D02*
X48608104Y-126553258D01*
X48608104Y-126553258D02*
X48646200Y-126477068D01*
X48646200Y-126477068D02*
X48722390Y-126438972D01*
X48722390Y-126438972D02*
X48760485Y-126438972D01*
X48760485Y-126438972D02*
X48836676Y-126477068D01*
X48836676Y-126477068D02*
X48874771Y-126553258D01*
X48874771Y-126553258D02*
X48874771Y-126667544D01*
X48874771Y-126667544D02*
X48912866Y-126743734D01*
X48912866Y-126743734D02*
X48989057Y-126781830D01*
X48989057Y-126781830D02*
X49027152Y-126781830D01*
X49027152Y-126781830D02*
X49103342Y-126743734D01*
X49103342Y-126743734D02*
X49141438Y-126667544D01*
X49141438Y-126667544D02*
X49141438Y-126553258D01*
X49141438Y-126553258D02*
X49103342Y-126477068D01*
X49141438Y-126096115D02*
X48341438Y-126096115D01*
X49103342Y-126096115D02*
X49141438Y-126019925D01*
X49141438Y-126019925D02*
X49141438Y-125867544D01*
X49141438Y-125867544D02*
X49103342Y-125791353D01*
X49103342Y-125791353D02*
X49065247Y-125753258D01*
X49065247Y-125753258D02*
X48989057Y-125715163D01*
X48989057Y-125715163D02*
X48760485Y-125715163D01*
X48760485Y-125715163D02*
X48684295Y-125753258D01*
X48684295Y-125753258D02*
X48646200Y-125791353D01*
X48646200Y-125791353D02*
X48608104Y-125867544D01*
X48608104Y-125867544D02*
X48608104Y-126019925D01*
X48608104Y-126019925D02*
X48646200Y-126096115D01*
X48646200Y-125067543D02*
X48608104Y-125143734D01*
X48608104Y-125143734D02*
X48608104Y-125296115D01*
X48608104Y-125296115D02*
X48646200Y-125372305D01*
X48646200Y-125372305D02*
X48722390Y-125410401D01*
X48722390Y-125410401D02*
X49027152Y-125410401D01*
X49027152Y-125410401D02*
X49103342Y-125372305D01*
X49103342Y-125372305D02*
X49141438Y-125296115D01*
X49141438Y-125296115D02*
X49141438Y-125143734D01*
X49141438Y-125143734D02*
X49103342Y-125067543D01*
X49103342Y-125067543D02*
X49027152Y-125029448D01*
X49027152Y-125029448D02*
X48950961Y-125029448D01*
X48950961Y-125029448D02*
X48874771Y-125410401D01*
X48608104Y-124343734D02*
X49027152Y-124343734D01*
X49027152Y-124343734D02*
X49103342Y-124381829D01*
X49103342Y-124381829D02*
X49141438Y-124458020D01*
X49141438Y-124458020D02*
X49141438Y-124610401D01*
X49141438Y-124610401D02*
X49103342Y-124686591D01*
X48646200Y-124343734D02*
X48608104Y-124419925D01*
X48608104Y-124419925D02*
X48608104Y-124610401D01*
X48608104Y-124610401D02*
X48646200Y-124686591D01*
X48646200Y-124686591D02*
X48722390Y-124724687D01*
X48722390Y-124724687D02*
X48798580Y-124724687D01*
X48798580Y-124724687D02*
X48874771Y-124686591D01*
X48874771Y-124686591D02*
X48912866Y-124610401D01*
X48912866Y-124610401D02*
X48912866Y-124419925D01*
X48912866Y-124419925D02*
X48950961Y-124343734D01*
X48608104Y-123962781D02*
X49408104Y-123962781D01*
X48912866Y-123886591D02*
X48608104Y-123658019D01*
X49141438Y-123658019D02*
X48836676Y-123962781D01*
X48646200Y-123010400D02*
X48608104Y-123086591D01*
X48608104Y-123086591D02*
X48608104Y-123238972D01*
X48608104Y-123238972D02*
X48646200Y-123315162D01*
X48646200Y-123315162D02*
X48722390Y-123353258D01*
X48722390Y-123353258D02*
X49027152Y-123353258D01*
X49027152Y-123353258D02*
X49103342Y-123315162D01*
X49103342Y-123315162D02*
X49141438Y-123238972D01*
X49141438Y-123238972D02*
X49141438Y-123086591D01*
X49141438Y-123086591D02*
X49103342Y-123010400D01*
X49103342Y-123010400D02*
X49027152Y-122972305D01*
X49027152Y-122972305D02*
X48950961Y-122972305D01*
X48950961Y-122972305D02*
X48874771Y-123353258D01*
X48608104Y-122629448D02*
X49141438Y-122629448D01*
X48989057Y-122629448D02*
X49065247Y-122591353D01*
X49065247Y-122591353D02*
X49103342Y-122553258D01*
X49103342Y-122553258D02*
X49141438Y-122477067D01*
X49141438Y-122477067D02*
X49141438Y-122400877D01*
X48912866Y-121524686D02*
X48912866Y-120915163D01*
X50031200Y-126781830D02*
X49993104Y-126705639D01*
X49993104Y-126705639D02*
X49993104Y-126553258D01*
X49993104Y-126553258D02*
X50031200Y-126477068D01*
X50031200Y-126477068D02*
X50107390Y-126438972D01*
X50107390Y-126438972D02*
X50145485Y-126438972D01*
X50145485Y-126438972D02*
X50221676Y-126477068D01*
X50221676Y-126477068D02*
X50259771Y-126553258D01*
X50259771Y-126553258D02*
X50259771Y-126667544D01*
X50259771Y-126667544D02*
X50297866Y-126743734D01*
X50297866Y-126743734D02*
X50374057Y-126781830D01*
X50374057Y-126781830D02*
X50412152Y-126781830D01*
X50412152Y-126781830D02*
X50488342Y-126743734D01*
X50488342Y-126743734D02*
X50526438Y-126667544D01*
X50526438Y-126667544D02*
X50526438Y-126553258D01*
X50526438Y-126553258D02*
X50488342Y-126477068D01*
X50526438Y-126096115D02*
X49726438Y-126096115D01*
X50488342Y-126096115D02*
X50526438Y-126019925D01*
X50526438Y-126019925D02*
X50526438Y-125867544D01*
X50526438Y-125867544D02*
X50488342Y-125791353D01*
X50488342Y-125791353D02*
X50450247Y-125753258D01*
X50450247Y-125753258D02*
X50374057Y-125715163D01*
X50374057Y-125715163D02*
X50145485Y-125715163D01*
X50145485Y-125715163D02*
X50069295Y-125753258D01*
X50069295Y-125753258D02*
X50031200Y-125791353D01*
X50031200Y-125791353D02*
X49993104Y-125867544D01*
X49993104Y-125867544D02*
X49993104Y-126019925D01*
X49993104Y-126019925D02*
X50031200Y-126096115D01*
X50031200Y-125067543D02*
X49993104Y-125143734D01*
X49993104Y-125143734D02*
X49993104Y-125296115D01*
X49993104Y-125296115D02*
X50031200Y-125372305D01*
X50031200Y-125372305D02*
X50107390Y-125410401D01*
X50107390Y-125410401D02*
X50412152Y-125410401D01*
X50412152Y-125410401D02*
X50488342Y-125372305D01*
X50488342Y-125372305D02*
X50526438Y-125296115D01*
X50526438Y-125296115D02*
X50526438Y-125143734D01*
X50526438Y-125143734D02*
X50488342Y-125067543D01*
X50488342Y-125067543D02*
X50412152Y-125029448D01*
X50412152Y-125029448D02*
X50335961Y-125029448D01*
X50335961Y-125029448D02*
X50259771Y-125410401D01*
X49993104Y-124343734D02*
X50412152Y-124343734D01*
X50412152Y-124343734D02*
X50488342Y-124381829D01*
X50488342Y-124381829D02*
X50526438Y-124458020D01*
X50526438Y-124458020D02*
X50526438Y-124610401D01*
X50526438Y-124610401D02*
X50488342Y-124686591D01*
X50031200Y-124343734D02*
X49993104Y-124419925D01*
X49993104Y-124419925D02*
X49993104Y-124610401D01*
X49993104Y-124610401D02*
X50031200Y-124686591D01*
X50031200Y-124686591D02*
X50107390Y-124724687D01*
X50107390Y-124724687D02*
X50183580Y-124724687D01*
X50183580Y-124724687D02*
X50259771Y-124686591D01*
X50259771Y-124686591D02*
X50297866Y-124610401D01*
X50297866Y-124610401D02*
X50297866Y-124419925D01*
X50297866Y-124419925D02*
X50335961Y-124343734D01*
X49993104Y-123962781D02*
X50793104Y-123962781D01*
X50297866Y-123886591D02*
X49993104Y-123658019D01*
X50526438Y-123658019D02*
X50221676Y-123962781D01*
X50031200Y-123010400D02*
X49993104Y-123086591D01*
X49993104Y-123086591D02*
X49993104Y-123238972D01*
X49993104Y-123238972D02*
X50031200Y-123315162D01*
X50031200Y-123315162D02*
X50107390Y-123353258D01*
X50107390Y-123353258D02*
X50412152Y-123353258D01*
X50412152Y-123353258D02*
X50488342Y-123315162D01*
X50488342Y-123315162D02*
X50526438Y-123238972D01*
X50526438Y-123238972D02*
X50526438Y-123086591D01*
X50526438Y-123086591D02*
X50488342Y-123010400D01*
X50488342Y-123010400D02*
X50412152Y-122972305D01*
X50412152Y-122972305D02*
X50335961Y-122972305D01*
X50335961Y-122972305D02*
X50259771Y-123353258D01*
X49993104Y-122629448D02*
X50526438Y-122629448D01*
X50374057Y-122629448D02*
X50450247Y-122591353D01*
X50450247Y-122591353D02*
X50488342Y-122553258D01*
X50488342Y-122553258D02*
X50526438Y-122477067D01*
X50526438Y-122477067D02*
X50526438Y-122400877D01*
X50297866Y-121524686D02*
X50297866Y-120915163D01*
X49993104Y-121219924D02*
X50602628Y-121219924D01*
M02*
