M48
; DRILL file {KiCad 8.0.8} date 2025-02-06T12:17:46+0100
; FORMAT={-:-/ absolute / inch / decimal}
; #@! TF.CreationDate,2025-02-06T12:17:46+01:00
; #@! TF.GenerationSoftware,Kicad,Pcbnew,8.0.8
; #@! TF.FileFunction,Plated,1,2,PTH
FMAT,2
INCH
; #@! TA.AperFunction,Plated,PTH,ComponentDrill
T1C0.0374
; #@! TA.AperFunction,Plated,PTH,ComponentDrill
T2C0.0394
; #@! TA.AperFunction,Plated,PTH,ComponentDrill
T3C0.1260
%
G90
G05
T1
X2.7559Y-2.9528
X2.7559Y-3.0512
X2.7559Y-3.1496
T2
X1.5748Y-1.378
X1.5825Y-4.5339
X1.6293Y-1.2661
X1.637Y-4.6457
X1.6839Y-1.378
X1.6915Y-4.5339
X1.7384Y-1.2661
X1.7461Y-4.6457
X1.7929Y-1.378
X1.8006Y-4.5339
X1.8474Y-1.2661
X1.8551Y-4.6457
X1.902Y-1.378
X1.9096Y-4.5339
X1.9565Y-1.2661
X1.9642Y-4.6457
X2.011Y-1.378
X2.0187Y-4.5339
X2.0656Y-1.2661
X2.0732Y-4.6457
X2.1201Y-1.378
X2.1278Y-4.5339
X2.1746Y-1.2661
X2.1823Y-4.6457
X2.2291Y-1.378
X2.2368Y-4.5339
X2.2837Y-1.2661
X2.2913Y-4.6457
X2.3382Y-1.378
X2.3459Y-4.5339
T3
X1.301Y-1.3661
X1.3087Y-4.6457
X2.612Y-1.3661
X2.6197Y-4.6457
M30
