%TF.GenerationSoftware,KiCad,Pcbnew,8.0.8*%
%TF.CreationDate,2025-02-06T12:07:46+01:00*%
%TF.ProjectId,center,63656e74-6572-42e6-9b69-6361645f7063,rev?*%
%TF.SameCoordinates,Original*%
%TF.FileFunction,Legend,Top*%
%TF.FilePolarity,Positive*%
%FSLAX46Y46*%
G04 Gerber Fmt 4.6, Leading zero omitted, Abs format (unit mm)*
G04 Created by KiCad (PCBNEW 8.0.8) date 2025-02-06 12:07:46*
%MOMM*%
%LPD*%
G01*
G04 APERTURE LIST*
%ADD10C,0.100000*%
%ADD11C,0.200000*%
%ADD12C,0.150000*%
%ADD13C,0.120000*%
G04 APERTURE END LIST*
D10*
X71903884Y-24572419D02*
X71903884Y-23905752D01*
X71903884Y-24000990D02*
X71951503Y-23953371D01*
X71951503Y-23953371D02*
X72046741Y-23905752D01*
X72046741Y-23905752D02*
X72189598Y-23905752D01*
X72189598Y-23905752D02*
X72284836Y-23953371D01*
X72284836Y-23953371D02*
X72332455Y-24048609D01*
X72332455Y-24048609D02*
X72332455Y-24572419D01*
X72332455Y-24048609D02*
X72380074Y-23953371D01*
X72380074Y-23953371D02*
X72475312Y-23905752D01*
X72475312Y-23905752D02*
X72618169Y-23905752D01*
X72618169Y-23905752D02*
X72713408Y-23953371D01*
X72713408Y-23953371D02*
X72761027Y-24048609D01*
X72761027Y-24048609D02*
X72761027Y-24572419D01*
X73665788Y-24572419D02*
X73665788Y-24048609D01*
X73665788Y-24048609D02*
X73618169Y-23953371D01*
X73618169Y-23953371D02*
X73522931Y-23905752D01*
X73522931Y-23905752D02*
X73332455Y-23905752D01*
X73332455Y-23905752D02*
X73237217Y-23953371D01*
X73665788Y-24524800D02*
X73570550Y-24572419D01*
X73570550Y-24572419D02*
X73332455Y-24572419D01*
X73332455Y-24572419D02*
X73237217Y-24524800D01*
X73237217Y-24524800D02*
X73189598Y-24429561D01*
X73189598Y-24429561D02*
X73189598Y-24334323D01*
X73189598Y-24334323D02*
X73237217Y-24239085D01*
X73237217Y-24239085D02*
X73332455Y-24191466D01*
X73332455Y-24191466D02*
X73570550Y-24191466D01*
X73570550Y-24191466D02*
X73665788Y-24143847D01*
X74284836Y-24572419D02*
X74189598Y-24524800D01*
X74189598Y-24524800D02*
X74141979Y-24429561D01*
X74141979Y-24429561D02*
X74141979Y-23572419D01*
X75046741Y-24524800D02*
X74951503Y-24572419D01*
X74951503Y-24572419D02*
X74761027Y-24572419D01*
X74761027Y-24572419D02*
X74665789Y-24524800D01*
X74665789Y-24524800D02*
X74618170Y-24429561D01*
X74618170Y-24429561D02*
X74618170Y-24048609D01*
X74618170Y-24048609D02*
X74665789Y-23953371D01*
X74665789Y-23953371D02*
X74761027Y-23905752D01*
X74761027Y-23905752D02*
X74951503Y-23905752D01*
X74951503Y-23905752D02*
X75046741Y-23953371D01*
X75046741Y-23953371D02*
X75094360Y-24048609D01*
X75094360Y-24048609D02*
X75094360Y-24143847D01*
X75094360Y-24143847D02*
X74618170Y-24239085D01*
X76713408Y-24524800D02*
X76618170Y-24572419D01*
X76618170Y-24572419D02*
X76427694Y-24572419D01*
X76427694Y-24572419D02*
X76332456Y-24524800D01*
X76332456Y-24524800D02*
X76284837Y-24477180D01*
X76284837Y-24477180D02*
X76237218Y-24381942D01*
X76237218Y-24381942D02*
X76237218Y-24096228D01*
X76237218Y-24096228D02*
X76284837Y-24000990D01*
X76284837Y-24000990D02*
X76332456Y-23953371D01*
X76332456Y-23953371D02*
X76427694Y-23905752D01*
X76427694Y-23905752D02*
X76618170Y-23905752D01*
X76618170Y-23905752D02*
X76713408Y-23953371D01*
X77284837Y-24572419D02*
X77189599Y-24524800D01*
X77189599Y-24524800D02*
X77141980Y-24477180D01*
X77141980Y-24477180D02*
X77094361Y-24381942D01*
X77094361Y-24381942D02*
X77094361Y-24096228D01*
X77094361Y-24096228D02*
X77141980Y-24000990D01*
X77141980Y-24000990D02*
X77189599Y-23953371D01*
X77189599Y-23953371D02*
X77284837Y-23905752D01*
X77284837Y-23905752D02*
X77427694Y-23905752D01*
X77427694Y-23905752D02*
X77522932Y-23953371D01*
X77522932Y-23953371D02*
X77570551Y-24000990D01*
X77570551Y-24000990D02*
X77618170Y-24096228D01*
X77618170Y-24096228D02*
X77618170Y-24381942D01*
X77618170Y-24381942D02*
X77570551Y-24477180D01*
X77570551Y-24477180D02*
X77522932Y-24524800D01*
X77522932Y-24524800D02*
X77427694Y-24572419D01*
X77427694Y-24572419D02*
X77284837Y-24572419D01*
X78046742Y-23905752D02*
X78046742Y-24572419D01*
X78046742Y-24000990D02*
X78094361Y-23953371D01*
X78094361Y-23953371D02*
X78189599Y-23905752D01*
X78189599Y-23905752D02*
X78332456Y-23905752D01*
X78332456Y-23905752D02*
X78427694Y-23953371D01*
X78427694Y-23953371D02*
X78475313Y-24048609D01*
X78475313Y-24048609D02*
X78475313Y-24572419D01*
X78951504Y-23905752D02*
X78951504Y-24572419D01*
X78951504Y-24000990D02*
X78999123Y-23953371D01*
X78999123Y-23953371D02*
X79094361Y-23905752D01*
X79094361Y-23905752D02*
X79237218Y-23905752D01*
X79237218Y-23905752D02*
X79332456Y-23953371D01*
X79332456Y-23953371D02*
X79380075Y-24048609D01*
X79380075Y-24048609D02*
X79380075Y-24572419D01*
X80237218Y-24524800D02*
X80141980Y-24572419D01*
X80141980Y-24572419D02*
X79951504Y-24572419D01*
X79951504Y-24572419D02*
X79856266Y-24524800D01*
X79856266Y-24524800D02*
X79808647Y-24429561D01*
X79808647Y-24429561D02*
X79808647Y-24048609D01*
X79808647Y-24048609D02*
X79856266Y-23953371D01*
X79856266Y-23953371D02*
X79951504Y-23905752D01*
X79951504Y-23905752D02*
X80141980Y-23905752D01*
X80141980Y-23905752D02*
X80237218Y-23953371D01*
X80237218Y-23953371D02*
X80284837Y-24048609D01*
X80284837Y-24048609D02*
X80284837Y-24143847D01*
X80284837Y-24143847D02*
X79808647Y-24239085D01*
X81141980Y-24524800D02*
X81046742Y-24572419D01*
X81046742Y-24572419D02*
X80856266Y-24572419D01*
X80856266Y-24572419D02*
X80761028Y-24524800D01*
X80761028Y-24524800D02*
X80713409Y-24477180D01*
X80713409Y-24477180D02*
X80665790Y-24381942D01*
X80665790Y-24381942D02*
X80665790Y-24096228D01*
X80665790Y-24096228D02*
X80713409Y-24000990D01*
X80713409Y-24000990D02*
X80761028Y-23953371D01*
X80761028Y-23953371D02*
X80856266Y-23905752D01*
X80856266Y-23905752D02*
X81046742Y-23905752D01*
X81046742Y-23905752D02*
X81141980Y-23953371D01*
X81427695Y-23905752D02*
X81808647Y-23905752D01*
X81570552Y-23572419D02*
X81570552Y-24429561D01*
X81570552Y-24429561D02*
X81618171Y-24524800D01*
X81618171Y-24524800D02*
X81713409Y-24572419D01*
X81713409Y-24572419D02*
X81808647Y-24572419D01*
X82284838Y-24572419D02*
X82189600Y-24524800D01*
X82189600Y-24524800D02*
X82141981Y-24477180D01*
X82141981Y-24477180D02*
X82094362Y-24381942D01*
X82094362Y-24381942D02*
X82094362Y-24096228D01*
X82094362Y-24096228D02*
X82141981Y-24000990D01*
X82141981Y-24000990D02*
X82189600Y-23953371D01*
X82189600Y-23953371D02*
X82284838Y-23905752D01*
X82284838Y-23905752D02*
X82427695Y-23905752D01*
X82427695Y-23905752D02*
X82522933Y-23953371D01*
X82522933Y-23953371D02*
X82570552Y-24000990D01*
X82570552Y-24000990D02*
X82618171Y-24096228D01*
X82618171Y-24096228D02*
X82618171Y-24381942D01*
X82618171Y-24381942D02*
X82570552Y-24477180D01*
X82570552Y-24477180D02*
X82522933Y-24524800D01*
X82522933Y-24524800D02*
X82427695Y-24572419D01*
X82427695Y-24572419D02*
X82284838Y-24572419D01*
X83046743Y-24572419D02*
X83046743Y-23905752D01*
X83046743Y-24096228D02*
X83094362Y-24000990D01*
X83094362Y-24000990D02*
X83141981Y-23953371D01*
X83141981Y-23953371D02*
X83237219Y-23905752D01*
X83237219Y-23905752D02*
X83332457Y-23905752D01*
X84427696Y-24572419D02*
X84427696Y-23572419D01*
X84856267Y-24572419D02*
X84856267Y-24048609D01*
X84856267Y-24048609D02*
X84808648Y-23953371D01*
X84808648Y-23953371D02*
X84713410Y-23905752D01*
X84713410Y-23905752D02*
X84570553Y-23905752D01*
X84570553Y-23905752D02*
X84475315Y-23953371D01*
X84475315Y-23953371D02*
X84427696Y-24000990D01*
X85713410Y-24524800D02*
X85618172Y-24572419D01*
X85618172Y-24572419D02*
X85427696Y-24572419D01*
X85427696Y-24572419D02*
X85332458Y-24524800D01*
X85332458Y-24524800D02*
X85284839Y-24429561D01*
X85284839Y-24429561D02*
X85284839Y-24048609D01*
X85284839Y-24048609D02*
X85332458Y-23953371D01*
X85332458Y-23953371D02*
X85427696Y-23905752D01*
X85427696Y-23905752D02*
X85618172Y-23905752D01*
X85618172Y-23905752D02*
X85713410Y-23953371D01*
X85713410Y-23953371D02*
X85761029Y-24048609D01*
X85761029Y-24048609D02*
X85761029Y-24143847D01*
X85761029Y-24143847D02*
X85284839Y-24239085D01*
X86189601Y-24572419D02*
X86189601Y-23905752D01*
X86189601Y-24096228D02*
X86237220Y-24000990D01*
X86237220Y-24000990D02*
X86284839Y-23953371D01*
X86284839Y-23953371D02*
X86380077Y-23905752D01*
X86380077Y-23905752D02*
X86475315Y-23905752D01*
X87189601Y-24524800D02*
X87094363Y-24572419D01*
X87094363Y-24572419D02*
X86903887Y-24572419D01*
X86903887Y-24572419D02*
X86808649Y-24524800D01*
X86808649Y-24524800D02*
X86761030Y-24429561D01*
X86761030Y-24429561D02*
X86761030Y-24048609D01*
X86761030Y-24048609D02*
X86808649Y-23953371D01*
X86808649Y-23953371D02*
X86903887Y-23905752D01*
X86903887Y-23905752D02*
X87094363Y-23905752D01*
X87094363Y-23905752D02*
X87189601Y-23953371D01*
X87189601Y-23953371D02*
X87237220Y-24048609D01*
X87237220Y-24048609D02*
X87237220Y-24143847D01*
X87237220Y-24143847D02*
X86761030Y-24239085D01*
X48361027Y-149305752D02*
X48741979Y-149305752D01*
X48503884Y-149972419D02*
X48503884Y-149115276D01*
X48503884Y-149115276D02*
X48551503Y-149020038D01*
X48551503Y-149020038D02*
X48646741Y-148972419D01*
X48646741Y-148972419D02*
X48741979Y-148972419D01*
X49456265Y-149924800D02*
X49361027Y-149972419D01*
X49361027Y-149972419D02*
X49170551Y-149972419D01*
X49170551Y-149972419D02*
X49075313Y-149924800D01*
X49075313Y-149924800D02*
X49027694Y-149829561D01*
X49027694Y-149829561D02*
X49027694Y-149448609D01*
X49027694Y-149448609D02*
X49075313Y-149353371D01*
X49075313Y-149353371D02*
X49170551Y-149305752D01*
X49170551Y-149305752D02*
X49361027Y-149305752D01*
X49361027Y-149305752D02*
X49456265Y-149353371D01*
X49456265Y-149353371D02*
X49503884Y-149448609D01*
X49503884Y-149448609D02*
X49503884Y-149543847D01*
X49503884Y-149543847D02*
X49027694Y-149639085D01*
X49932456Y-149972419D02*
X49932456Y-149305752D01*
X49932456Y-149400990D02*
X49980075Y-149353371D01*
X49980075Y-149353371D02*
X50075313Y-149305752D01*
X50075313Y-149305752D02*
X50218170Y-149305752D01*
X50218170Y-149305752D02*
X50313408Y-149353371D01*
X50313408Y-149353371D02*
X50361027Y-149448609D01*
X50361027Y-149448609D02*
X50361027Y-149972419D01*
X50361027Y-149448609D02*
X50408646Y-149353371D01*
X50408646Y-149353371D02*
X50503884Y-149305752D01*
X50503884Y-149305752D02*
X50646741Y-149305752D01*
X50646741Y-149305752D02*
X50741980Y-149353371D01*
X50741980Y-149353371D02*
X50789599Y-149448609D01*
X50789599Y-149448609D02*
X50789599Y-149972419D01*
X51694360Y-149972419D02*
X51694360Y-149448609D01*
X51694360Y-149448609D02*
X51646741Y-149353371D01*
X51646741Y-149353371D02*
X51551503Y-149305752D01*
X51551503Y-149305752D02*
X51361027Y-149305752D01*
X51361027Y-149305752D02*
X51265789Y-149353371D01*
X51694360Y-149924800D02*
X51599122Y-149972419D01*
X51599122Y-149972419D02*
X51361027Y-149972419D01*
X51361027Y-149972419D02*
X51265789Y-149924800D01*
X51265789Y-149924800D02*
X51218170Y-149829561D01*
X51218170Y-149829561D02*
X51218170Y-149734323D01*
X51218170Y-149734323D02*
X51265789Y-149639085D01*
X51265789Y-149639085D02*
X51361027Y-149591466D01*
X51361027Y-149591466D02*
X51599122Y-149591466D01*
X51599122Y-149591466D02*
X51694360Y-149543847D01*
X52313408Y-149972419D02*
X52218170Y-149924800D01*
X52218170Y-149924800D02*
X52170551Y-149829561D01*
X52170551Y-149829561D02*
X52170551Y-148972419D01*
X53075313Y-149924800D02*
X52980075Y-149972419D01*
X52980075Y-149972419D02*
X52789599Y-149972419D01*
X52789599Y-149972419D02*
X52694361Y-149924800D01*
X52694361Y-149924800D02*
X52646742Y-149829561D01*
X52646742Y-149829561D02*
X52646742Y-149448609D01*
X52646742Y-149448609D02*
X52694361Y-149353371D01*
X52694361Y-149353371D02*
X52789599Y-149305752D01*
X52789599Y-149305752D02*
X52980075Y-149305752D01*
X52980075Y-149305752D02*
X53075313Y-149353371D01*
X53075313Y-149353371D02*
X53122932Y-149448609D01*
X53122932Y-149448609D02*
X53122932Y-149543847D01*
X53122932Y-149543847D02*
X52646742Y-149639085D01*
X54741980Y-149924800D02*
X54646742Y-149972419D01*
X54646742Y-149972419D02*
X54456266Y-149972419D01*
X54456266Y-149972419D02*
X54361028Y-149924800D01*
X54361028Y-149924800D02*
X54313409Y-149877180D01*
X54313409Y-149877180D02*
X54265790Y-149781942D01*
X54265790Y-149781942D02*
X54265790Y-149496228D01*
X54265790Y-149496228D02*
X54313409Y-149400990D01*
X54313409Y-149400990D02*
X54361028Y-149353371D01*
X54361028Y-149353371D02*
X54456266Y-149305752D01*
X54456266Y-149305752D02*
X54646742Y-149305752D01*
X54646742Y-149305752D02*
X54741980Y-149353371D01*
X55313409Y-149972419D02*
X55218171Y-149924800D01*
X55218171Y-149924800D02*
X55170552Y-149877180D01*
X55170552Y-149877180D02*
X55122933Y-149781942D01*
X55122933Y-149781942D02*
X55122933Y-149496228D01*
X55122933Y-149496228D02*
X55170552Y-149400990D01*
X55170552Y-149400990D02*
X55218171Y-149353371D01*
X55218171Y-149353371D02*
X55313409Y-149305752D01*
X55313409Y-149305752D02*
X55456266Y-149305752D01*
X55456266Y-149305752D02*
X55551504Y-149353371D01*
X55551504Y-149353371D02*
X55599123Y-149400990D01*
X55599123Y-149400990D02*
X55646742Y-149496228D01*
X55646742Y-149496228D02*
X55646742Y-149781942D01*
X55646742Y-149781942D02*
X55599123Y-149877180D01*
X55599123Y-149877180D02*
X55551504Y-149924800D01*
X55551504Y-149924800D02*
X55456266Y-149972419D01*
X55456266Y-149972419D02*
X55313409Y-149972419D01*
X56075314Y-149305752D02*
X56075314Y-149972419D01*
X56075314Y-149400990D02*
X56122933Y-149353371D01*
X56122933Y-149353371D02*
X56218171Y-149305752D01*
X56218171Y-149305752D02*
X56361028Y-149305752D01*
X56361028Y-149305752D02*
X56456266Y-149353371D01*
X56456266Y-149353371D02*
X56503885Y-149448609D01*
X56503885Y-149448609D02*
X56503885Y-149972419D01*
X56980076Y-149305752D02*
X56980076Y-149972419D01*
X56980076Y-149400990D02*
X57027695Y-149353371D01*
X57027695Y-149353371D02*
X57122933Y-149305752D01*
X57122933Y-149305752D02*
X57265790Y-149305752D01*
X57265790Y-149305752D02*
X57361028Y-149353371D01*
X57361028Y-149353371D02*
X57408647Y-149448609D01*
X57408647Y-149448609D02*
X57408647Y-149972419D01*
X58265790Y-149924800D02*
X58170552Y-149972419D01*
X58170552Y-149972419D02*
X57980076Y-149972419D01*
X57980076Y-149972419D02*
X57884838Y-149924800D01*
X57884838Y-149924800D02*
X57837219Y-149829561D01*
X57837219Y-149829561D02*
X57837219Y-149448609D01*
X57837219Y-149448609D02*
X57884838Y-149353371D01*
X57884838Y-149353371D02*
X57980076Y-149305752D01*
X57980076Y-149305752D02*
X58170552Y-149305752D01*
X58170552Y-149305752D02*
X58265790Y-149353371D01*
X58265790Y-149353371D02*
X58313409Y-149448609D01*
X58313409Y-149448609D02*
X58313409Y-149543847D01*
X58313409Y-149543847D02*
X57837219Y-149639085D01*
X59170552Y-149924800D02*
X59075314Y-149972419D01*
X59075314Y-149972419D02*
X58884838Y-149972419D01*
X58884838Y-149972419D02*
X58789600Y-149924800D01*
X58789600Y-149924800D02*
X58741981Y-149877180D01*
X58741981Y-149877180D02*
X58694362Y-149781942D01*
X58694362Y-149781942D02*
X58694362Y-149496228D01*
X58694362Y-149496228D02*
X58741981Y-149400990D01*
X58741981Y-149400990D02*
X58789600Y-149353371D01*
X58789600Y-149353371D02*
X58884838Y-149305752D01*
X58884838Y-149305752D02*
X59075314Y-149305752D01*
X59075314Y-149305752D02*
X59170552Y-149353371D01*
X59456267Y-149305752D02*
X59837219Y-149305752D01*
X59599124Y-148972419D02*
X59599124Y-149829561D01*
X59599124Y-149829561D02*
X59646743Y-149924800D01*
X59646743Y-149924800D02*
X59741981Y-149972419D01*
X59741981Y-149972419D02*
X59837219Y-149972419D01*
X60313410Y-149972419D02*
X60218172Y-149924800D01*
X60218172Y-149924800D02*
X60170553Y-149877180D01*
X60170553Y-149877180D02*
X60122934Y-149781942D01*
X60122934Y-149781942D02*
X60122934Y-149496228D01*
X60122934Y-149496228D02*
X60170553Y-149400990D01*
X60170553Y-149400990D02*
X60218172Y-149353371D01*
X60218172Y-149353371D02*
X60313410Y-149305752D01*
X60313410Y-149305752D02*
X60456267Y-149305752D01*
X60456267Y-149305752D02*
X60551505Y-149353371D01*
X60551505Y-149353371D02*
X60599124Y-149400990D01*
X60599124Y-149400990D02*
X60646743Y-149496228D01*
X60646743Y-149496228D02*
X60646743Y-149781942D01*
X60646743Y-149781942D02*
X60599124Y-149877180D01*
X60599124Y-149877180D02*
X60551505Y-149924800D01*
X60551505Y-149924800D02*
X60456267Y-149972419D01*
X60456267Y-149972419D02*
X60313410Y-149972419D01*
X61075315Y-149972419D02*
X61075315Y-149305752D01*
X61075315Y-149496228D02*
X61122934Y-149400990D01*
X61122934Y-149400990D02*
X61170553Y-149353371D01*
X61170553Y-149353371D02*
X61265791Y-149305752D01*
X61265791Y-149305752D02*
X61361029Y-149305752D01*
X62456268Y-149972419D02*
X62456268Y-148972419D01*
X62884839Y-149972419D02*
X62884839Y-149448609D01*
X62884839Y-149448609D02*
X62837220Y-149353371D01*
X62837220Y-149353371D02*
X62741982Y-149305752D01*
X62741982Y-149305752D02*
X62599125Y-149305752D01*
X62599125Y-149305752D02*
X62503887Y-149353371D01*
X62503887Y-149353371D02*
X62456268Y-149400990D01*
X63741982Y-149924800D02*
X63646744Y-149972419D01*
X63646744Y-149972419D02*
X63456268Y-149972419D01*
X63456268Y-149972419D02*
X63361030Y-149924800D01*
X63361030Y-149924800D02*
X63313411Y-149829561D01*
X63313411Y-149829561D02*
X63313411Y-149448609D01*
X63313411Y-149448609D02*
X63361030Y-149353371D01*
X63361030Y-149353371D02*
X63456268Y-149305752D01*
X63456268Y-149305752D02*
X63646744Y-149305752D01*
X63646744Y-149305752D02*
X63741982Y-149353371D01*
X63741982Y-149353371D02*
X63789601Y-149448609D01*
X63789601Y-149448609D02*
X63789601Y-149543847D01*
X63789601Y-149543847D02*
X63313411Y-149639085D01*
X64218173Y-149972419D02*
X64218173Y-149305752D01*
X64218173Y-149496228D02*
X64265792Y-149400990D01*
X64265792Y-149400990D02*
X64313411Y-149353371D01*
X64313411Y-149353371D02*
X64408649Y-149305752D01*
X64408649Y-149305752D02*
X64503887Y-149305752D01*
X65218173Y-149924800D02*
X65122935Y-149972419D01*
X65122935Y-149972419D02*
X64932459Y-149972419D01*
X64932459Y-149972419D02*
X64837221Y-149924800D01*
X64837221Y-149924800D02*
X64789602Y-149829561D01*
X64789602Y-149829561D02*
X64789602Y-149448609D01*
X64789602Y-149448609D02*
X64837221Y-149353371D01*
X64837221Y-149353371D02*
X64932459Y-149305752D01*
X64932459Y-149305752D02*
X65122935Y-149305752D01*
X65122935Y-149305752D02*
X65218173Y-149353371D01*
X65218173Y-149353371D02*
X65265792Y-149448609D01*
X65265792Y-149448609D02*
X65265792Y-149543847D01*
X65265792Y-149543847D02*
X64789602Y-149639085D01*
X29272419Y-67596115D02*
X28605752Y-67596115D01*
X28700990Y-67596115D02*
X28653371Y-67548496D01*
X28653371Y-67548496D02*
X28605752Y-67453258D01*
X28605752Y-67453258D02*
X28605752Y-67310401D01*
X28605752Y-67310401D02*
X28653371Y-67215163D01*
X28653371Y-67215163D02*
X28748609Y-67167544D01*
X28748609Y-67167544D02*
X29272419Y-67167544D01*
X28748609Y-67167544D02*
X28653371Y-67119925D01*
X28653371Y-67119925D02*
X28605752Y-67024687D01*
X28605752Y-67024687D02*
X28605752Y-66881830D01*
X28605752Y-66881830D02*
X28653371Y-66786591D01*
X28653371Y-66786591D02*
X28748609Y-66738972D01*
X28748609Y-66738972D02*
X29272419Y-66738972D01*
X29272419Y-65834211D02*
X28748609Y-65834211D01*
X28748609Y-65834211D02*
X28653371Y-65881830D01*
X28653371Y-65881830D02*
X28605752Y-65977068D01*
X28605752Y-65977068D02*
X28605752Y-66167544D01*
X28605752Y-66167544D02*
X28653371Y-66262782D01*
X29224800Y-65834211D02*
X29272419Y-65929449D01*
X29272419Y-65929449D02*
X29272419Y-66167544D01*
X29272419Y-66167544D02*
X29224800Y-66262782D01*
X29224800Y-66262782D02*
X29129561Y-66310401D01*
X29129561Y-66310401D02*
X29034323Y-66310401D01*
X29034323Y-66310401D02*
X28939085Y-66262782D01*
X28939085Y-66262782D02*
X28891466Y-66167544D01*
X28891466Y-66167544D02*
X28891466Y-65929449D01*
X28891466Y-65929449D02*
X28843847Y-65834211D01*
X29272419Y-65215163D02*
X29224800Y-65310401D01*
X29224800Y-65310401D02*
X29129561Y-65358020D01*
X29129561Y-65358020D02*
X28272419Y-65358020D01*
X29224800Y-64453258D02*
X29272419Y-64548496D01*
X29272419Y-64548496D02*
X29272419Y-64738972D01*
X29272419Y-64738972D02*
X29224800Y-64834210D01*
X29224800Y-64834210D02*
X29129561Y-64881829D01*
X29129561Y-64881829D02*
X28748609Y-64881829D01*
X28748609Y-64881829D02*
X28653371Y-64834210D01*
X28653371Y-64834210D02*
X28605752Y-64738972D01*
X28605752Y-64738972D02*
X28605752Y-64548496D01*
X28605752Y-64548496D02*
X28653371Y-64453258D01*
X28653371Y-64453258D02*
X28748609Y-64405639D01*
X28748609Y-64405639D02*
X28843847Y-64405639D01*
X28843847Y-64405639D02*
X28939085Y-64881829D01*
X29224800Y-62786591D02*
X29272419Y-62881829D01*
X29272419Y-62881829D02*
X29272419Y-63072305D01*
X29272419Y-63072305D02*
X29224800Y-63167543D01*
X29224800Y-63167543D02*
X29177180Y-63215162D01*
X29177180Y-63215162D02*
X29081942Y-63262781D01*
X29081942Y-63262781D02*
X28796228Y-63262781D01*
X28796228Y-63262781D02*
X28700990Y-63215162D01*
X28700990Y-63215162D02*
X28653371Y-63167543D01*
X28653371Y-63167543D02*
X28605752Y-63072305D01*
X28605752Y-63072305D02*
X28605752Y-62881829D01*
X28605752Y-62881829D02*
X28653371Y-62786591D01*
X29272419Y-62215162D02*
X29224800Y-62310400D01*
X29224800Y-62310400D02*
X29177180Y-62358019D01*
X29177180Y-62358019D02*
X29081942Y-62405638D01*
X29081942Y-62405638D02*
X28796228Y-62405638D01*
X28796228Y-62405638D02*
X28700990Y-62358019D01*
X28700990Y-62358019D02*
X28653371Y-62310400D01*
X28653371Y-62310400D02*
X28605752Y-62215162D01*
X28605752Y-62215162D02*
X28605752Y-62072305D01*
X28605752Y-62072305D02*
X28653371Y-61977067D01*
X28653371Y-61977067D02*
X28700990Y-61929448D01*
X28700990Y-61929448D02*
X28796228Y-61881829D01*
X28796228Y-61881829D02*
X29081942Y-61881829D01*
X29081942Y-61881829D02*
X29177180Y-61929448D01*
X29177180Y-61929448D02*
X29224800Y-61977067D01*
X29224800Y-61977067D02*
X29272419Y-62072305D01*
X29272419Y-62072305D02*
X29272419Y-62215162D01*
X28605752Y-61453257D02*
X29272419Y-61453257D01*
X28700990Y-61453257D02*
X28653371Y-61405638D01*
X28653371Y-61405638D02*
X28605752Y-61310400D01*
X28605752Y-61310400D02*
X28605752Y-61167543D01*
X28605752Y-61167543D02*
X28653371Y-61072305D01*
X28653371Y-61072305D02*
X28748609Y-61024686D01*
X28748609Y-61024686D02*
X29272419Y-61024686D01*
X28605752Y-60548495D02*
X29272419Y-60548495D01*
X28700990Y-60548495D02*
X28653371Y-60500876D01*
X28653371Y-60500876D02*
X28605752Y-60405638D01*
X28605752Y-60405638D02*
X28605752Y-60262781D01*
X28605752Y-60262781D02*
X28653371Y-60167543D01*
X28653371Y-60167543D02*
X28748609Y-60119924D01*
X28748609Y-60119924D02*
X29272419Y-60119924D01*
X29224800Y-59262781D02*
X29272419Y-59358019D01*
X29272419Y-59358019D02*
X29272419Y-59548495D01*
X29272419Y-59548495D02*
X29224800Y-59643733D01*
X29224800Y-59643733D02*
X29129561Y-59691352D01*
X29129561Y-59691352D02*
X28748609Y-59691352D01*
X28748609Y-59691352D02*
X28653371Y-59643733D01*
X28653371Y-59643733D02*
X28605752Y-59548495D01*
X28605752Y-59548495D02*
X28605752Y-59358019D01*
X28605752Y-59358019D02*
X28653371Y-59262781D01*
X28653371Y-59262781D02*
X28748609Y-59215162D01*
X28748609Y-59215162D02*
X28843847Y-59215162D01*
X28843847Y-59215162D02*
X28939085Y-59691352D01*
X29224800Y-58358019D02*
X29272419Y-58453257D01*
X29272419Y-58453257D02*
X29272419Y-58643733D01*
X29272419Y-58643733D02*
X29224800Y-58738971D01*
X29224800Y-58738971D02*
X29177180Y-58786590D01*
X29177180Y-58786590D02*
X29081942Y-58834209D01*
X29081942Y-58834209D02*
X28796228Y-58834209D01*
X28796228Y-58834209D02*
X28700990Y-58786590D01*
X28700990Y-58786590D02*
X28653371Y-58738971D01*
X28653371Y-58738971D02*
X28605752Y-58643733D01*
X28605752Y-58643733D02*
X28605752Y-58453257D01*
X28605752Y-58453257D02*
X28653371Y-58358019D01*
X28605752Y-58072304D02*
X28605752Y-57691352D01*
X28272419Y-57929447D02*
X29129561Y-57929447D01*
X29129561Y-57929447D02*
X29224800Y-57881828D01*
X29224800Y-57881828D02*
X29272419Y-57786590D01*
X29272419Y-57786590D02*
X29272419Y-57691352D01*
X29272419Y-57215161D02*
X29224800Y-57310399D01*
X29224800Y-57310399D02*
X29177180Y-57358018D01*
X29177180Y-57358018D02*
X29081942Y-57405637D01*
X29081942Y-57405637D02*
X28796228Y-57405637D01*
X28796228Y-57405637D02*
X28700990Y-57358018D01*
X28700990Y-57358018D02*
X28653371Y-57310399D01*
X28653371Y-57310399D02*
X28605752Y-57215161D01*
X28605752Y-57215161D02*
X28605752Y-57072304D01*
X28605752Y-57072304D02*
X28653371Y-56977066D01*
X28653371Y-56977066D02*
X28700990Y-56929447D01*
X28700990Y-56929447D02*
X28796228Y-56881828D01*
X28796228Y-56881828D02*
X29081942Y-56881828D01*
X29081942Y-56881828D02*
X29177180Y-56929447D01*
X29177180Y-56929447D02*
X29224800Y-56977066D01*
X29224800Y-56977066D02*
X29272419Y-57072304D01*
X29272419Y-57072304D02*
X29272419Y-57215161D01*
X29272419Y-56453256D02*
X28605752Y-56453256D01*
X28796228Y-56453256D02*
X28700990Y-56405637D01*
X28700990Y-56405637D02*
X28653371Y-56358018D01*
X28653371Y-56358018D02*
X28605752Y-56262780D01*
X28605752Y-56262780D02*
X28605752Y-56167542D01*
X29272419Y-55072303D02*
X28272419Y-55072303D01*
X29272419Y-54643732D02*
X28748609Y-54643732D01*
X28748609Y-54643732D02*
X28653371Y-54691351D01*
X28653371Y-54691351D02*
X28605752Y-54786589D01*
X28605752Y-54786589D02*
X28605752Y-54929446D01*
X28605752Y-54929446D02*
X28653371Y-55024684D01*
X28653371Y-55024684D02*
X28700990Y-55072303D01*
X29224800Y-53786589D02*
X29272419Y-53881827D01*
X29272419Y-53881827D02*
X29272419Y-54072303D01*
X29272419Y-54072303D02*
X29224800Y-54167541D01*
X29224800Y-54167541D02*
X29129561Y-54215160D01*
X29129561Y-54215160D02*
X28748609Y-54215160D01*
X28748609Y-54215160D02*
X28653371Y-54167541D01*
X28653371Y-54167541D02*
X28605752Y-54072303D01*
X28605752Y-54072303D02*
X28605752Y-53881827D01*
X28605752Y-53881827D02*
X28653371Y-53786589D01*
X28653371Y-53786589D02*
X28748609Y-53738970D01*
X28748609Y-53738970D02*
X28843847Y-53738970D01*
X28843847Y-53738970D02*
X28939085Y-54215160D01*
X29272419Y-53310398D02*
X28605752Y-53310398D01*
X28796228Y-53310398D02*
X28700990Y-53262779D01*
X28700990Y-53262779D02*
X28653371Y-53215160D01*
X28653371Y-53215160D02*
X28605752Y-53119922D01*
X28605752Y-53119922D02*
X28605752Y-53024684D01*
X29224800Y-52310398D02*
X29272419Y-52405636D01*
X29272419Y-52405636D02*
X29272419Y-52596112D01*
X29272419Y-52596112D02*
X29224800Y-52691350D01*
X29224800Y-52691350D02*
X29129561Y-52738969D01*
X29129561Y-52738969D02*
X28748609Y-52738969D01*
X28748609Y-52738969D02*
X28653371Y-52691350D01*
X28653371Y-52691350D02*
X28605752Y-52596112D01*
X28605752Y-52596112D02*
X28605752Y-52405636D01*
X28605752Y-52405636D02*
X28653371Y-52310398D01*
X28653371Y-52310398D02*
X28748609Y-52262779D01*
X28748609Y-52262779D02*
X28843847Y-52262779D01*
X28843847Y-52262779D02*
X28939085Y-52738969D01*
D11*
X115750625Y-26554361D02*
X115655387Y-26649600D01*
X115655387Y-26649600D02*
X115369673Y-26744838D01*
X115369673Y-26744838D02*
X115179197Y-26744838D01*
X115179197Y-26744838D02*
X114893482Y-26649600D01*
X114893482Y-26649600D02*
X114703006Y-26459123D01*
X114703006Y-26459123D02*
X114607768Y-26268647D01*
X114607768Y-26268647D02*
X114512530Y-25887695D01*
X114512530Y-25887695D02*
X114512530Y-25601980D01*
X114512530Y-25601980D02*
X114607768Y-25221028D01*
X114607768Y-25221028D02*
X114703006Y-25030552D01*
X114703006Y-25030552D02*
X114893482Y-24840076D01*
X114893482Y-24840076D02*
X115179197Y-24744838D01*
X115179197Y-24744838D02*
X115369673Y-24744838D01*
X115369673Y-24744838D02*
X115655387Y-24840076D01*
X115655387Y-24840076D02*
X115750625Y-24935314D01*
X117369673Y-26649600D02*
X117179197Y-26744838D01*
X117179197Y-26744838D02*
X116798244Y-26744838D01*
X116798244Y-26744838D02*
X116607768Y-26649600D01*
X116607768Y-26649600D02*
X116512530Y-26459123D01*
X116512530Y-26459123D02*
X116512530Y-25697219D01*
X116512530Y-25697219D02*
X116607768Y-25506742D01*
X116607768Y-25506742D02*
X116798244Y-25411504D01*
X116798244Y-25411504D02*
X117179197Y-25411504D01*
X117179197Y-25411504D02*
X117369673Y-25506742D01*
X117369673Y-25506742D02*
X117464911Y-25697219D01*
X117464911Y-25697219D02*
X117464911Y-25887695D01*
X117464911Y-25887695D02*
X116512530Y-26078171D01*
X118322054Y-25411504D02*
X118322054Y-26744838D01*
X118322054Y-25601980D02*
X118417292Y-25506742D01*
X118417292Y-25506742D02*
X118607768Y-25411504D01*
X118607768Y-25411504D02*
X118893483Y-25411504D01*
X118893483Y-25411504D02*
X119083959Y-25506742D01*
X119083959Y-25506742D02*
X119179197Y-25697219D01*
X119179197Y-25697219D02*
X119179197Y-26744838D01*
X119845864Y-25411504D02*
X120607768Y-25411504D01*
X120131578Y-24744838D02*
X120131578Y-26459123D01*
X120131578Y-26459123D02*
X120226816Y-26649600D01*
X120226816Y-26649600D02*
X120417292Y-26744838D01*
X120417292Y-26744838D02*
X120607768Y-26744838D01*
X122036340Y-26649600D02*
X121845864Y-26744838D01*
X121845864Y-26744838D02*
X121464911Y-26744838D01*
X121464911Y-26744838D02*
X121274435Y-26649600D01*
X121274435Y-26649600D02*
X121179197Y-26459123D01*
X121179197Y-26459123D02*
X121179197Y-25697219D01*
X121179197Y-25697219D02*
X121274435Y-25506742D01*
X121274435Y-25506742D02*
X121464911Y-25411504D01*
X121464911Y-25411504D02*
X121845864Y-25411504D01*
X121845864Y-25411504D02*
X122036340Y-25506742D01*
X122036340Y-25506742D02*
X122131578Y-25697219D01*
X122131578Y-25697219D02*
X122131578Y-25887695D01*
X122131578Y-25887695D02*
X121179197Y-26078171D01*
X122988721Y-26744838D02*
X122988721Y-25411504D01*
X122988721Y-25792457D02*
X123083959Y-25601980D01*
X123083959Y-25601980D02*
X123179197Y-25506742D01*
X123179197Y-25506742D02*
X123369673Y-25411504D01*
X123369673Y-25411504D02*
X123560150Y-25411504D01*
D10*
X97461027Y-149905752D02*
X97841979Y-149905752D01*
X97603884Y-150572419D02*
X97603884Y-149715276D01*
X97603884Y-149715276D02*
X97651503Y-149620038D01*
X97651503Y-149620038D02*
X97746741Y-149572419D01*
X97746741Y-149572419D02*
X97841979Y-149572419D01*
X98556265Y-150524800D02*
X98461027Y-150572419D01*
X98461027Y-150572419D02*
X98270551Y-150572419D01*
X98270551Y-150572419D02*
X98175313Y-150524800D01*
X98175313Y-150524800D02*
X98127694Y-150429561D01*
X98127694Y-150429561D02*
X98127694Y-150048609D01*
X98127694Y-150048609D02*
X98175313Y-149953371D01*
X98175313Y-149953371D02*
X98270551Y-149905752D01*
X98270551Y-149905752D02*
X98461027Y-149905752D01*
X98461027Y-149905752D02*
X98556265Y-149953371D01*
X98556265Y-149953371D02*
X98603884Y-150048609D01*
X98603884Y-150048609D02*
X98603884Y-150143847D01*
X98603884Y-150143847D02*
X98127694Y-150239085D01*
X99032456Y-150572419D02*
X99032456Y-149905752D01*
X99032456Y-150000990D02*
X99080075Y-149953371D01*
X99080075Y-149953371D02*
X99175313Y-149905752D01*
X99175313Y-149905752D02*
X99318170Y-149905752D01*
X99318170Y-149905752D02*
X99413408Y-149953371D01*
X99413408Y-149953371D02*
X99461027Y-150048609D01*
X99461027Y-150048609D02*
X99461027Y-150572419D01*
X99461027Y-150048609D02*
X99508646Y-149953371D01*
X99508646Y-149953371D02*
X99603884Y-149905752D01*
X99603884Y-149905752D02*
X99746741Y-149905752D01*
X99746741Y-149905752D02*
X99841980Y-149953371D01*
X99841980Y-149953371D02*
X99889599Y-150048609D01*
X99889599Y-150048609D02*
X99889599Y-150572419D01*
X100794360Y-150572419D02*
X100794360Y-150048609D01*
X100794360Y-150048609D02*
X100746741Y-149953371D01*
X100746741Y-149953371D02*
X100651503Y-149905752D01*
X100651503Y-149905752D02*
X100461027Y-149905752D01*
X100461027Y-149905752D02*
X100365789Y-149953371D01*
X100794360Y-150524800D02*
X100699122Y-150572419D01*
X100699122Y-150572419D02*
X100461027Y-150572419D01*
X100461027Y-150572419D02*
X100365789Y-150524800D01*
X100365789Y-150524800D02*
X100318170Y-150429561D01*
X100318170Y-150429561D02*
X100318170Y-150334323D01*
X100318170Y-150334323D02*
X100365789Y-150239085D01*
X100365789Y-150239085D02*
X100461027Y-150191466D01*
X100461027Y-150191466D02*
X100699122Y-150191466D01*
X100699122Y-150191466D02*
X100794360Y-150143847D01*
X101413408Y-150572419D02*
X101318170Y-150524800D01*
X101318170Y-150524800D02*
X101270551Y-150429561D01*
X101270551Y-150429561D02*
X101270551Y-149572419D01*
X102175313Y-150524800D02*
X102080075Y-150572419D01*
X102080075Y-150572419D02*
X101889599Y-150572419D01*
X101889599Y-150572419D02*
X101794361Y-150524800D01*
X101794361Y-150524800D02*
X101746742Y-150429561D01*
X101746742Y-150429561D02*
X101746742Y-150048609D01*
X101746742Y-150048609D02*
X101794361Y-149953371D01*
X101794361Y-149953371D02*
X101889599Y-149905752D01*
X101889599Y-149905752D02*
X102080075Y-149905752D01*
X102080075Y-149905752D02*
X102175313Y-149953371D01*
X102175313Y-149953371D02*
X102222932Y-150048609D01*
X102222932Y-150048609D02*
X102222932Y-150143847D01*
X102222932Y-150143847D02*
X101746742Y-150239085D01*
X103841980Y-150524800D02*
X103746742Y-150572419D01*
X103746742Y-150572419D02*
X103556266Y-150572419D01*
X103556266Y-150572419D02*
X103461028Y-150524800D01*
X103461028Y-150524800D02*
X103413409Y-150477180D01*
X103413409Y-150477180D02*
X103365790Y-150381942D01*
X103365790Y-150381942D02*
X103365790Y-150096228D01*
X103365790Y-150096228D02*
X103413409Y-150000990D01*
X103413409Y-150000990D02*
X103461028Y-149953371D01*
X103461028Y-149953371D02*
X103556266Y-149905752D01*
X103556266Y-149905752D02*
X103746742Y-149905752D01*
X103746742Y-149905752D02*
X103841980Y-149953371D01*
X104413409Y-150572419D02*
X104318171Y-150524800D01*
X104318171Y-150524800D02*
X104270552Y-150477180D01*
X104270552Y-150477180D02*
X104222933Y-150381942D01*
X104222933Y-150381942D02*
X104222933Y-150096228D01*
X104222933Y-150096228D02*
X104270552Y-150000990D01*
X104270552Y-150000990D02*
X104318171Y-149953371D01*
X104318171Y-149953371D02*
X104413409Y-149905752D01*
X104413409Y-149905752D02*
X104556266Y-149905752D01*
X104556266Y-149905752D02*
X104651504Y-149953371D01*
X104651504Y-149953371D02*
X104699123Y-150000990D01*
X104699123Y-150000990D02*
X104746742Y-150096228D01*
X104746742Y-150096228D02*
X104746742Y-150381942D01*
X104746742Y-150381942D02*
X104699123Y-150477180D01*
X104699123Y-150477180D02*
X104651504Y-150524800D01*
X104651504Y-150524800D02*
X104556266Y-150572419D01*
X104556266Y-150572419D02*
X104413409Y-150572419D01*
X105175314Y-149905752D02*
X105175314Y-150572419D01*
X105175314Y-150000990D02*
X105222933Y-149953371D01*
X105222933Y-149953371D02*
X105318171Y-149905752D01*
X105318171Y-149905752D02*
X105461028Y-149905752D01*
X105461028Y-149905752D02*
X105556266Y-149953371D01*
X105556266Y-149953371D02*
X105603885Y-150048609D01*
X105603885Y-150048609D02*
X105603885Y-150572419D01*
X106080076Y-149905752D02*
X106080076Y-150572419D01*
X106080076Y-150000990D02*
X106127695Y-149953371D01*
X106127695Y-149953371D02*
X106222933Y-149905752D01*
X106222933Y-149905752D02*
X106365790Y-149905752D01*
X106365790Y-149905752D02*
X106461028Y-149953371D01*
X106461028Y-149953371D02*
X106508647Y-150048609D01*
X106508647Y-150048609D02*
X106508647Y-150572419D01*
X107365790Y-150524800D02*
X107270552Y-150572419D01*
X107270552Y-150572419D02*
X107080076Y-150572419D01*
X107080076Y-150572419D02*
X106984838Y-150524800D01*
X106984838Y-150524800D02*
X106937219Y-150429561D01*
X106937219Y-150429561D02*
X106937219Y-150048609D01*
X106937219Y-150048609D02*
X106984838Y-149953371D01*
X106984838Y-149953371D02*
X107080076Y-149905752D01*
X107080076Y-149905752D02*
X107270552Y-149905752D01*
X107270552Y-149905752D02*
X107365790Y-149953371D01*
X107365790Y-149953371D02*
X107413409Y-150048609D01*
X107413409Y-150048609D02*
X107413409Y-150143847D01*
X107413409Y-150143847D02*
X106937219Y-150239085D01*
X108270552Y-150524800D02*
X108175314Y-150572419D01*
X108175314Y-150572419D02*
X107984838Y-150572419D01*
X107984838Y-150572419D02*
X107889600Y-150524800D01*
X107889600Y-150524800D02*
X107841981Y-150477180D01*
X107841981Y-150477180D02*
X107794362Y-150381942D01*
X107794362Y-150381942D02*
X107794362Y-150096228D01*
X107794362Y-150096228D02*
X107841981Y-150000990D01*
X107841981Y-150000990D02*
X107889600Y-149953371D01*
X107889600Y-149953371D02*
X107984838Y-149905752D01*
X107984838Y-149905752D02*
X108175314Y-149905752D01*
X108175314Y-149905752D02*
X108270552Y-149953371D01*
X108556267Y-149905752D02*
X108937219Y-149905752D01*
X108699124Y-149572419D02*
X108699124Y-150429561D01*
X108699124Y-150429561D02*
X108746743Y-150524800D01*
X108746743Y-150524800D02*
X108841981Y-150572419D01*
X108841981Y-150572419D02*
X108937219Y-150572419D01*
X109413410Y-150572419D02*
X109318172Y-150524800D01*
X109318172Y-150524800D02*
X109270553Y-150477180D01*
X109270553Y-150477180D02*
X109222934Y-150381942D01*
X109222934Y-150381942D02*
X109222934Y-150096228D01*
X109222934Y-150096228D02*
X109270553Y-150000990D01*
X109270553Y-150000990D02*
X109318172Y-149953371D01*
X109318172Y-149953371D02*
X109413410Y-149905752D01*
X109413410Y-149905752D02*
X109556267Y-149905752D01*
X109556267Y-149905752D02*
X109651505Y-149953371D01*
X109651505Y-149953371D02*
X109699124Y-150000990D01*
X109699124Y-150000990D02*
X109746743Y-150096228D01*
X109746743Y-150096228D02*
X109746743Y-150381942D01*
X109746743Y-150381942D02*
X109699124Y-150477180D01*
X109699124Y-150477180D02*
X109651505Y-150524800D01*
X109651505Y-150524800D02*
X109556267Y-150572419D01*
X109556267Y-150572419D02*
X109413410Y-150572419D01*
X110175315Y-150572419D02*
X110175315Y-149905752D01*
X110175315Y-150096228D02*
X110222934Y-150000990D01*
X110222934Y-150000990D02*
X110270553Y-149953371D01*
X110270553Y-149953371D02*
X110365791Y-149905752D01*
X110365791Y-149905752D02*
X110461029Y-149905752D01*
X111556268Y-150572419D02*
X111556268Y-149572419D01*
X111984839Y-150572419D02*
X111984839Y-150048609D01*
X111984839Y-150048609D02*
X111937220Y-149953371D01*
X111937220Y-149953371D02*
X111841982Y-149905752D01*
X111841982Y-149905752D02*
X111699125Y-149905752D01*
X111699125Y-149905752D02*
X111603887Y-149953371D01*
X111603887Y-149953371D02*
X111556268Y-150000990D01*
X112841982Y-150524800D02*
X112746744Y-150572419D01*
X112746744Y-150572419D02*
X112556268Y-150572419D01*
X112556268Y-150572419D02*
X112461030Y-150524800D01*
X112461030Y-150524800D02*
X112413411Y-150429561D01*
X112413411Y-150429561D02*
X112413411Y-150048609D01*
X112413411Y-150048609D02*
X112461030Y-149953371D01*
X112461030Y-149953371D02*
X112556268Y-149905752D01*
X112556268Y-149905752D02*
X112746744Y-149905752D01*
X112746744Y-149905752D02*
X112841982Y-149953371D01*
X112841982Y-149953371D02*
X112889601Y-150048609D01*
X112889601Y-150048609D02*
X112889601Y-150143847D01*
X112889601Y-150143847D02*
X112413411Y-150239085D01*
X113318173Y-150572419D02*
X113318173Y-149905752D01*
X113318173Y-150096228D02*
X113365792Y-150000990D01*
X113365792Y-150000990D02*
X113413411Y-149953371D01*
X113413411Y-149953371D02*
X113508649Y-149905752D01*
X113508649Y-149905752D02*
X113603887Y-149905752D01*
X114318173Y-150524800D02*
X114222935Y-150572419D01*
X114222935Y-150572419D02*
X114032459Y-150572419D01*
X114032459Y-150572419D02*
X113937221Y-150524800D01*
X113937221Y-150524800D02*
X113889602Y-150429561D01*
X113889602Y-150429561D02*
X113889602Y-150048609D01*
X113889602Y-150048609D02*
X113937221Y-149953371D01*
X113937221Y-149953371D02*
X114032459Y-149905752D01*
X114032459Y-149905752D02*
X114222935Y-149905752D01*
X114222935Y-149905752D02*
X114318173Y-149953371D01*
X114318173Y-149953371D02*
X114365792Y-150048609D01*
X114365792Y-150048609D02*
X114365792Y-150143847D01*
X114365792Y-150143847D02*
X113889602Y-150239085D01*
X126072419Y-66596115D02*
X125405752Y-66596115D01*
X125500990Y-66596115D02*
X125453371Y-66548496D01*
X125453371Y-66548496D02*
X125405752Y-66453258D01*
X125405752Y-66453258D02*
X125405752Y-66310401D01*
X125405752Y-66310401D02*
X125453371Y-66215163D01*
X125453371Y-66215163D02*
X125548609Y-66167544D01*
X125548609Y-66167544D02*
X126072419Y-66167544D01*
X125548609Y-66167544D02*
X125453371Y-66119925D01*
X125453371Y-66119925D02*
X125405752Y-66024687D01*
X125405752Y-66024687D02*
X125405752Y-65881830D01*
X125405752Y-65881830D02*
X125453371Y-65786591D01*
X125453371Y-65786591D02*
X125548609Y-65738972D01*
X125548609Y-65738972D02*
X126072419Y-65738972D01*
X126072419Y-64834211D02*
X125548609Y-64834211D01*
X125548609Y-64834211D02*
X125453371Y-64881830D01*
X125453371Y-64881830D02*
X125405752Y-64977068D01*
X125405752Y-64977068D02*
X125405752Y-65167544D01*
X125405752Y-65167544D02*
X125453371Y-65262782D01*
X126024800Y-64834211D02*
X126072419Y-64929449D01*
X126072419Y-64929449D02*
X126072419Y-65167544D01*
X126072419Y-65167544D02*
X126024800Y-65262782D01*
X126024800Y-65262782D02*
X125929561Y-65310401D01*
X125929561Y-65310401D02*
X125834323Y-65310401D01*
X125834323Y-65310401D02*
X125739085Y-65262782D01*
X125739085Y-65262782D02*
X125691466Y-65167544D01*
X125691466Y-65167544D02*
X125691466Y-64929449D01*
X125691466Y-64929449D02*
X125643847Y-64834211D01*
X126072419Y-64215163D02*
X126024800Y-64310401D01*
X126024800Y-64310401D02*
X125929561Y-64358020D01*
X125929561Y-64358020D02*
X125072419Y-64358020D01*
X126024800Y-63453258D02*
X126072419Y-63548496D01*
X126072419Y-63548496D02*
X126072419Y-63738972D01*
X126072419Y-63738972D02*
X126024800Y-63834210D01*
X126024800Y-63834210D02*
X125929561Y-63881829D01*
X125929561Y-63881829D02*
X125548609Y-63881829D01*
X125548609Y-63881829D02*
X125453371Y-63834210D01*
X125453371Y-63834210D02*
X125405752Y-63738972D01*
X125405752Y-63738972D02*
X125405752Y-63548496D01*
X125405752Y-63548496D02*
X125453371Y-63453258D01*
X125453371Y-63453258D02*
X125548609Y-63405639D01*
X125548609Y-63405639D02*
X125643847Y-63405639D01*
X125643847Y-63405639D02*
X125739085Y-63881829D01*
X126024800Y-61786591D02*
X126072419Y-61881829D01*
X126072419Y-61881829D02*
X126072419Y-62072305D01*
X126072419Y-62072305D02*
X126024800Y-62167543D01*
X126024800Y-62167543D02*
X125977180Y-62215162D01*
X125977180Y-62215162D02*
X125881942Y-62262781D01*
X125881942Y-62262781D02*
X125596228Y-62262781D01*
X125596228Y-62262781D02*
X125500990Y-62215162D01*
X125500990Y-62215162D02*
X125453371Y-62167543D01*
X125453371Y-62167543D02*
X125405752Y-62072305D01*
X125405752Y-62072305D02*
X125405752Y-61881829D01*
X125405752Y-61881829D02*
X125453371Y-61786591D01*
X126072419Y-61215162D02*
X126024800Y-61310400D01*
X126024800Y-61310400D02*
X125977180Y-61358019D01*
X125977180Y-61358019D02*
X125881942Y-61405638D01*
X125881942Y-61405638D02*
X125596228Y-61405638D01*
X125596228Y-61405638D02*
X125500990Y-61358019D01*
X125500990Y-61358019D02*
X125453371Y-61310400D01*
X125453371Y-61310400D02*
X125405752Y-61215162D01*
X125405752Y-61215162D02*
X125405752Y-61072305D01*
X125405752Y-61072305D02*
X125453371Y-60977067D01*
X125453371Y-60977067D02*
X125500990Y-60929448D01*
X125500990Y-60929448D02*
X125596228Y-60881829D01*
X125596228Y-60881829D02*
X125881942Y-60881829D01*
X125881942Y-60881829D02*
X125977180Y-60929448D01*
X125977180Y-60929448D02*
X126024800Y-60977067D01*
X126024800Y-60977067D02*
X126072419Y-61072305D01*
X126072419Y-61072305D02*
X126072419Y-61215162D01*
X125405752Y-60453257D02*
X126072419Y-60453257D01*
X125500990Y-60453257D02*
X125453371Y-60405638D01*
X125453371Y-60405638D02*
X125405752Y-60310400D01*
X125405752Y-60310400D02*
X125405752Y-60167543D01*
X125405752Y-60167543D02*
X125453371Y-60072305D01*
X125453371Y-60072305D02*
X125548609Y-60024686D01*
X125548609Y-60024686D02*
X126072419Y-60024686D01*
X125405752Y-59548495D02*
X126072419Y-59548495D01*
X125500990Y-59548495D02*
X125453371Y-59500876D01*
X125453371Y-59500876D02*
X125405752Y-59405638D01*
X125405752Y-59405638D02*
X125405752Y-59262781D01*
X125405752Y-59262781D02*
X125453371Y-59167543D01*
X125453371Y-59167543D02*
X125548609Y-59119924D01*
X125548609Y-59119924D02*
X126072419Y-59119924D01*
X126024800Y-58262781D02*
X126072419Y-58358019D01*
X126072419Y-58358019D02*
X126072419Y-58548495D01*
X126072419Y-58548495D02*
X126024800Y-58643733D01*
X126024800Y-58643733D02*
X125929561Y-58691352D01*
X125929561Y-58691352D02*
X125548609Y-58691352D01*
X125548609Y-58691352D02*
X125453371Y-58643733D01*
X125453371Y-58643733D02*
X125405752Y-58548495D01*
X125405752Y-58548495D02*
X125405752Y-58358019D01*
X125405752Y-58358019D02*
X125453371Y-58262781D01*
X125453371Y-58262781D02*
X125548609Y-58215162D01*
X125548609Y-58215162D02*
X125643847Y-58215162D01*
X125643847Y-58215162D02*
X125739085Y-58691352D01*
X126024800Y-57358019D02*
X126072419Y-57453257D01*
X126072419Y-57453257D02*
X126072419Y-57643733D01*
X126072419Y-57643733D02*
X126024800Y-57738971D01*
X126024800Y-57738971D02*
X125977180Y-57786590D01*
X125977180Y-57786590D02*
X125881942Y-57834209D01*
X125881942Y-57834209D02*
X125596228Y-57834209D01*
X125596228Y-57834209D02*
X125500990Y-57786590D01*
X125500990Y-57786590D02*
X125453371Y-57738971D01*
X125453371Y-57738971D02*
X125405752Y-57643733D01*
X125405752Y-57643733D02*
X125405752Y-57453257D01*
X125405752Y-57453257D02*
X125453371Y-57358019D01*
X125405752Y-57072304D02*
X125405752Y-56691352D01*
X125072419Y-56929447D02*
X125929561Y-56929447D01*
X125929561Y-56929447D02*
X126024800Y-56881828D01*
X126024800Y-56881828D02*
X126072419Y-56786590D01*
X126072419Y-56786590D02*
X126072419Y-56691352D01*
X126072419Y-56215161D02*
X126024800Y-56310399D01*
X126024800Y-56310399D02*
X125977180Y-56358018D01*
X125977180Y-56358018D02*
X125881942Y-56405637D01*
X125881942Y-56405637D02*
X125596228Y-56405637D01*
X125596228Y-56405637D02*
X125500990Y-56358018D01*
X125500990Y-56358018D02*
X125453371Y-56310399D01*
X125453371Y-56310399D02*
X125405752Y-56215161D01*
X125405752Y-56215161D02*
X125405752Y-56072304D01*
X125405752Y-56072304D02*
X125453371Y-55977066D01*
X125453371Y-55977066D02*
X125500990Y-55929447D01*
X125500990Y-55929447D02*
X125596228Y-55881828D01*
X125596228Y-55881828D02*
X125881942Y-55881828D01*
X125881942Y-55881828D02*
X125977180Y-55929447D01*
X125977180Y-55929447D02*
X126024800Y-55977066D01*
X126024800Y-55977066D02*
X126072419Y-56072304D01*
X126072419Y-56072304D02*
X126072419Y-56215161D01*
X126072419Y-55453256D02*
X125405752Y-55453256D01*
X125596228Y-55453256D02*
X125500990Y-55405637D01*
X125500990Y-55405637D02*
X125453371Y-55358018D01*
X125453371Y-55358018D02*
X125405752Y-55262780D01*
X125405752Y-55262780D02*
X125405752Y-55167542D01*
X126072419Y-54072303D02*
X125072419Y-54072303D01*
X126072419Y-53643732D02*
X125548609Y-53643732D01*
X125548609Y-53643732D02*
X125453371Y-53691351D01*
X125453371Y-53691351D02*
X125405752Y-53786589D01*
X125405752Y-53786589D02*
X125405752Y-53929446D01*
X125405752Y-53929446D02*
X125453371Y-54024684D01*
X125453371Y-54024684D02*
X125500990Y-54072303D01*
X126024800Y-52786589D02*
X126072419Y-52881827D01*
X126072419Y-52881827D02*
X126072419Y-53072303D01*
X126072419Y-53072303D02*
X126024800Y-53167541D01*
X126024800Y-53167541D02*
X125929561Y-53215160D01*
X125929561Y-53215160D02*
X125548609Y-53215160D01*
X125548609Y-53215160D02*
X125453371Y-53167541D01*
X125453371Y-53167541D02*
X125405752Y-53072303D01*
X125405752Y-53072303D02*
X125405752Y-52881827D01*
X125405752Y-52881827D02*
X125453371Y-52786589D01*
X125453371Y-52786589D02*
X125548609Y-52738970D01*
X125548609Y-52738970D02*
X125643847Y-52738970D01*
X125643847Y-52738970D02*
X125739085Y-53215160D01*
X126072419Y-52310398D02*
X125405752Y-52310398D01*
X125596228Y-52310398D02*
X125500990Y-52262779D01*
X125500990Y-52262779D02*
X125453371Y-52215160D01*
X125453371Y-52215160D02*
X125405752Y-52119922D01*
X125405752Y-52119922D02*
X125405752Y-52024684D01*
X126024800Y-51310398D02*
X126072419Y-51405636D01*
X126072419Y-51405636D02*
X126072419Y-51596112D01*
X126072419Y-51596112D02*
X126024800Y-51691350D01*
X126024800Y-51691350D02*
X125929561Y-51738969D01*
X125929561Y-51738969D02*
X125548609Y-51738969D01*
X125548609Y-51738969D02*
X125453371Y-51691350D01*
X125453371Y-51691350D02*
X125405752Y-51596112D01*
X125405752Y-51596112D02*
X125405752Y-51405636D01*
X125405752Y-51405636D02*
X125453371Y-51310398D01*
X125453371Y-51310398D02*
X125548609Y-51262779D01*
X125548609Y-51262779D02*
X125643847Y-51262779D01*
X125643847Y-51262779D02*
X125739085Y-51738969D01*
D12*
X44788152Y-64390476D02*
X44788152Y-64009524D01*
X44454819Y-64247619D02*
X45311961Y-64247619D01*
X45311961Y-64247619D02*
X45407200Y-64200000D01*
X45407200Y-64200000D02*
X45454819Y-64104762D01*
X45454819Y-64104762D02*
X45454819Y-64009524D01*
X45454819Y-63533333D02*
X45407200Y-63628571D01*
X45407200Y-63628571D02*
X45359580Y-63676190D01*
X45359580Y-63676190D02*
X45264342Y-63723809D01*
X45264342Y-63723809D02*
X44978628Y-63723809D01*
X44978628Y-63723809D02*
X44883390Y-63676190D01*
X44883390Y-63676190D02*
X44835771Y-63628571D01*
X44835771Y-63628571D02*
X44788152Y-63533333D01*
X44788152Y-63533333D02*
X44788152Y-63390476D01*
X44788152Y-63390476D02*
X44835771Y-63295238D01*
X44835771Y-63295238D02*
X44883390Y-63247619D01*
X44883390Y-63247619D02*
X44978628Y-63200000D01*
X44978628Y-63200000D02*
X45264342Y-63200000D01*
X45264342Y-63200000D02*
X45359580Y-63247619D01*
X45359580Y-63247619D02*
X45407200Y-63295238D01*
X45407200Y-63295238D02*
X45454819Y-63390476D01*
X45454819Y-63390476D02*
X45454819Y-63533333D01*
X45454819Y-62009523D02*
X44788152Y-62009523D01*
X44883390Y-62009523D02*
X44835771Y-61961904D01*
X44835771Y-61961904D02*
X44788152Y-61866666D01*
X44788152Y-61866666D02*
X44788152Y-61723809D01*
X44788152Y-61723809D02*
X44835771Y-61628571D01*
X44835771Y-61628571D02*
X44931009Y-61580952D01*
X44931009Y-61580952D02*
X45454819Y-61580952D01*
X44931009Y-61580952D02*
X44835771Y-61533333D01*
X44835771Y-61533333D02*
X44788152Y-61438095D01*
X44788152Y-61438095D02*
X44788152Y-61295238D01*
X44788152Y-61295238D02*
X44835771Y-61199999D01*
X44835771Y-61199999D02*
X44931009Y-61152380D01*
X44931009Y-61152380D02*
X45454819Y-61152380D01*
X45454819Y-60247619D02*
X44931009Y-60247619D01*
X44931009Y-60247619D02*
X44835771Y-60295238D01*
X44835771Y-60295238D02*
X44788152Y-60390476D01*
X44788152Y-60390476D02*
X44788152Y-60580952D01*
X44788152Y-60580952D02*
X44835771Y-60676190D01*
X45407200Y-60247619D02*
X45454819Y-60342857D01*
X45454819Y-60342857D02*
X45454819Y-60580952D01*
X45454819Y-60580952D02*
X45407200Y-60676190D01*
X45407200Y-60676190D02*
X45311961Y-60723809D01*
X45311961Y-60723809D02*
X45216723Y-60723809D01*
X45216723Y-60723809D02*
X45121485Y-60676190D01*
X45121485Y-60676190D02*
X45073866Y-60580952D01*
X45073866Y-60580952D02*
X45073866Y-60342857D01*
X45073866Y-60342857D02*
X45026247Y-60247619D01*
X45454819Y-59628571D02*
X45407200Y-59723809D01*
X45407200Y-59723809D02*
X45311961Y-59771428D01*
X45311961Y-59771428D02*
X44454819Y-59771428D01*
X45407200Y-58866666D02*
X45454819Y-58961904D01*
X45454819Y-58961904D02*
X45454819Y-59152380D01*
X45454819Y-59152380D02*
X45407200Y-59247618D01*
X45407200Y-59247618D02*
X45311961Y-59295237D01*
X45311961Y-59295237D02*
X44931009Y-59295237D01*
X44931009Y-59295237D02*
X44835771Y-59247618D01*
X44835771Y-59247618D02*
X44788152Y-59152380D01*
X44788152Y-59152380D02*
X44788152Y-58961904D01*
X44788152Y-58961904D02*
X44835771Y-58866666D01*
X44835771Y-58866666D02*
X44931009Y-58819047D01*
X44931009Y-58819047D02*
X45026247Y-58819047D01*
X45026247Y-58819047D02*
X45121485Y-59295237D01*
X44550057Y-57676189D02*
X44502438Y-57628570D01*
X44502438Y-57628570D02*
X44454819Y-57533332D01*
X44454819Y-57533332D02*
X44454819Y-57295237D01*
X44454819Y-57295237D02*
X44502438Y-57199999D01*
X44502438Y-57199999D02*
X44550057Y-57152380D01*
X44550057Y-57152380D02*
X44645295Y-57104761D01*
X44645295Y-57104761D02*
X44740533Y-57104761D01*
X44740533Y-57104761D02*
X44883390Y-57152380D01*
X44883390Y-57152380D02*
X45454819Y-57723808D01*
X45454819Y-57723808D02*
X45454819Y-57104761D01*
X48895475Y-134238452D02*
X49276427Y-134238452D01*
X49038332Y-133905119D02*
X49038332Y-134762261D01*
X49038332Y-134762261D02*
X49085951Y-134857500D01*
X49085951Y-134857500D02*
X49181189Y-134905119D01*
X49181189Y-134905119D02*
X49276427Y-134905119D01*
X49752618Y-134905119D02*
X49657380Y-134857500D01*
X49657380Y-134857500D02*
X49609761Y-134809880D01*
X49609761Y-134809880D02*
X49562142Y-134714642D01*
X49562142Y-134714642D02*
X49562142Y-134428928D01*
X49562142Y-134428928D02*
X49609761Y-134333690D01*
X49609761Y-134333690D02*
X49657380Y-134286071D01*
X49657380Y-134286071D02*
X49752618Y-134238452D01*
X49752618Y-134238452D02*
X49895475Y-134238452D01*
X49895475Y-134238452D02*
X49990713Y-134286071D01*
X49990713Y-134286071D02*
X50038332Y-134333690D01*
X50038332Y-134333690D02*
X50085951Y-134428928D01*
X50085951Y-134428928D02*
X50085951Y-134714642D01*
X50085951Y-134714642D02*
X50038332Y-134809880D01*
X50038332Y-134809880D02*
X49990713Y-134857500D01*
X49990713Y-134857500D02*
X49895475Y-134905119D01*
X49895475Y-134905119D02*
X49752618Y-134905119D01*
X51657380Y-134857500D02*
X51562142Y-134905119D01*
X51562142Y-134905119D02*
X51371666Y-134905119D01*
X51371666Y-134905119D02*
X51276428Y-134857500D01*
X51276428Y-134857500D02*
X51228809Y-134762261D01*
X51228809Y-134762261D02*
X51228809Y-134381309D01*
X51228809Y-134381309D02*
X51276428Y-134286071D01*
X51276428Y-134286071D02*
X51371666Y-134238452D01*
X51371666Y-134238452D02*
X51562142Y-134238452D01*
X51562142Y-134238452D02*
X51657380Y-134286071D01*
X51657380Y-134286071D02*
X51704999Y-134381309D01*
X51704999Y-134381309D02*
X51704999Y-134476547D01*
X51704999Y-134476547D02*
X51228809Y-134571785D01*
X52276428Y-134905119D02*
X52181190Y-134857500D01*
X52181190Y-134857500D02*
X52133571Y-134762261D01*
X52133571Y-134762261D02*
X52133571Y-133905119D01*
X53038333Y-134857500D02*
X52943095Y-134905119D01*
X52943095Y-134905119D02*
X52752619Y-134905119D01*
X52752619Y-134905119D02*
X52657381Y-134857500D01*
X52657381Y-134857500D02*
X52609762Y-134762261D01*
X52609762Y-134762261D02*
X52609762Y-134381309D01*
X52609762Y-134381309D02*
X52657381Y-134286071D01*
X52657381Y-134286071D02*
X52752619Y-134238452D01*
X52752619Y-134238452D02*
X52943095Y-134238452D01*
X52943095Y-134238452D02*
X53038333Y-134286071D01*
X53038333Y-134286071D02*
X53085952Y-134381309D01*
X53085952Y-134381309D02*
X53085952Y-134476547D01*
X53085952Y-134476547D02*
X52609762Y-134571785D01*
X53943095Y-134857500D02*
X53847857Y-134905119D01*
X53847857Y-134905119D02*
X53657381Y-134905119D01*
X53657381Y-134905119D02*
X53562143Y-134857500D01*
X53562143Y-134857500D02*
X53514524Y-134809880D01*
X53514524Y-134809880D02*
X53466905Y-134714642D01*
X53466905Y-134714642D02*
X53466905Y-134428928D01*
X53466905Y-134428928D02*
X53514524Y-134333690D01*
X53514524Y-134333690D02*
X53562143Y-134286071D01*
X53562143Y-134286071D02*
X53657381Y-134238452D01*
X53657381Y-134238452D02*
X53847857Y-134238452D01*
X53847857Y-134238452D02*
X53943095Y-134286071D01*
X54228810Y-134238452D02*
X54609762Y-134238452D01*
X54371667Y-133905119D02*
X54371667Y-134762261D01*
X54371667Y-134762261D02*
X54419286Y-134857500D01*
X54419286Y-134857500D02*
X54514524Y-134905119D01*
X54514524Y-134905119D02*
X54609762Y-134905119D01*
X54943096Y-134905119D02*
X54943096Y-134238452D01*
X54943096Y-134428928D02*
X54990715Y-134333690D01*
X54990715Y-134333690D02*
X55038334Y-134286071D01*
X55038334Y-134286071D02*
X55133572Y-134238452D01*
X55133572Y-134238452D02*
X55228810Y-134238452D01*
X55705001Y-134905119D02*
X55609763Y-134857500D01*
X55609763Y-134857500D02*
X55562144Y-134809880D01*
X55562144Y-134809880D02*
X55514525Y-134714642D01*
X55514525Y-134714642D02*
X55514525Y-134428928D01*
X55514525Y-134428928D02*
X55562144Y-134333690D01*
X55562144Y-134333690D02*
X55609763Y-134286071D01*
X55609763Y-134286071D02*
X55705001Y-134238452D01*
X55705001Y-134238452D02*
X55847858Y-134238452D01*
X55847858Y-134238452D02*
X55943096Y-134286071D01*
X55943096Y-134286071D02*
X55990715Y-134333690D01*
X55990715Y-134333690D02*
X56038334Y-134428928D01*
X56038334Y-134428928D02*
X56038334Y-134714642D01*
X56038334Y-134714642D02*
X55990715Y-134809880D01*
X55990715Y-134809880D02*
X55943096Y-134857500D01*
X55943096Y-134857500D02*
X55847858Y-134905119D01*
X55847858Y-134905119D02*
X55705001Y-134905119D01*
X56466906Y-134238452D02*
X56466906Y-134905119D01*
X56466906Y-134333690D02*
X56514525Y-134286071D01*
X56514525Y-134286071D02*
X56609763Y-134238452D01*
X56609763Y-134238452D02*
X56752620Y-134238452D01*
X56752620Y-134238452D02*
X56847858Y-134286071D01*
X56847858Y-134286071D02*
X56895477Y-134381309D01*
X56895477Y-134381309D02*
X56895477Y-134905119D01*
X57371668Y-134905119D02*
X57371668Y-134238452D01*
X57371668Y-133905119D02*
X57324049Y-133952738D01*
X57324049Y-133952738D02*
X57371668Y-134000357D01*
X57371668Y-134000357D02*
X57419287Y-133952738D01*
X57419287Y-133952738D02*
X57371668Y-133905119D01*
X57371668Y-133905119D02*
X57371668Y-134000357D01*
X58276429Y-134857500D02*
X58181191Y-134905119D01*
X58181191Y-134905119D02*
X57990715Y-134905119D01*
X57990715Y-134905119D02*
X57895477Y-134857500D01*
X57895477Y-134857500D02*
X57847858Y-134809880D01*
X57847858Y-134809880D02*
X57800239Y-134714642D01*
X57800239Y-134714642D02*
X57800239Y-134428928D01*
X57800239Y-134428928D02*
X57847858Y-134333690D01*
X57847858Y-134333690D02*
X57895477Y-134286071D01*
X57895477Y-134286071D02*
X57990715Y-134238452D01*
X57990715Y-134238452D02*
X58181191Y-134238452D01*
X58181191Y-134238452D02*
X58276429Y-134286071D01*
X59466906Y-134905119D02*
X59466906Y-133905119D01*
X59466906Y-134286071D02*
X59562144Y-134238452D01*
X59562144Y-134238452D02*
X59752620Y-134238452D01*
X59752620Y-134238452D02*
X59847858Y-134286071D01*
X59847858Y-134286071D02*
X59895477Y-134333690D01*
X59895477Y-134333690D02*
X59943096Y-134428928D01*
X59943096Y-134428928D02*
X59943096Y-134714642D01*
X59943096Y-134714642D02*
X59895477Y-134809880D01*
X59895477Y-134809880D02*
X59847858Y-134857500D01*
X59847858Y-134857500D02*
X59752620Y-134905119D01*
X59752620Y-134905119D02*
X59562144Y-134905119D01*
X59562144Y-134905119D02*
X59466906Y-134857500D01*
X60514525Y-134905119D02*
X60419287Y-134857500D01*
X60419287Y-134857500D02*
X60371668Y-134809880D01*
X60371668Y-134809880D02*
X60324049Y-134714642D01*
X60324049Y-134714642D02*
X60324049Y-134428928D01*
X60324049Y-134428928D02*
X60371668Y-134333690D01*
X60371668Y-134333690D02*
X60419287Y-134286071D01*
X60419287Y-134286071D02*
X60514525Y-134238452D01*
X60514525Y-134238452D02*
X60657382Y-134238452D01*
X60657382Y-134238452D02*
X60752620Y-134286071D01*
X60752620Y-134286071D02*
X60800239Y-134333690D01*
X60800239Y-134333690D02*
X60847858Y-134428928D01*
X60847858Y-134428928D02*
X60847858Y-134714642D01*
X60847858Y-134714642D02*
X60800239Y-134809880D01*
X60800239Y-134809880D02*
X60752620Y-134857500D01*
X60752620Y-134857500D02*
X60657382Y-134905119D01*
X60657382Y-134905119D02*
X60514525Y-134905119D01*
X61181192Y-134905119D02*
X61705001Y-134238452D01*
X61181192Y-134238452D02*
X61705001Y-134905119D01*
X63181192Y-134381309D02*
X63324049Y-134428928D01*
X63324049Y-134428928D02*
X63371668Y-134476547D01*
X63371668Y-134476547D02*
X63419287Y-134571785D01*
X63419287Y-134571785D02*
X63419287Y-134714642D01*
X63419287Y-134714642D02*
X63371668Y-134809880D01*
X63371668Y-134809880D02*
X63324049Y-134857500D01*
X63324049Y-134857500D02*
X63228811Y-134905119D01*
X63228811Y-134905119D02*
X62847859Y-134905119D01*
X62847859Y-134905119D02*
X62847859Y-133905119D01*
X62847859Y-133905119D02*
X63181192Y-133905119D01*
X63181192Y-133905119D02*
X63276430Y-133952738D01*
X63276430Y-133952738D02*
X63324049Y-134000357D01*
X63324049Y-134000357D02*
X63371668Y-134095595D01*
X63371668Y-134095595D02*
X63371668Y-134190833D01*
X63371668Y-134190833D02*
X63324049Y-134286071D01*
X63324049Y-134286071D02*
X63276430Y-134333690D01*
X63276430Y-134333690D02*
X63181192Y-134381309D01*
X63181192Y-134381309D02*
X62847859Y-134381309D01*
X96626903Y-134778452D02*
X97007855Y-134778452D01*
X96769760Y-134445119D02*
X96769760Y-135302261D01*
X96769760Y-135302261D02*
X96817379Y-135397500D01*
X96817379Y-135397500D02*
X96912617Y-135445119D01*
X96912617Y-135445119D02*
X97007855Y-135445119D01*
X97484046Y-135445119D02*
X97388808Y-135397500D01*
X97388808Y-135397500D02*
X97341189Y-135349880D01*
X97341189Y-135349880D02*
X97293570Y-135254642D01*
X97293570Y-135254642D02*
X97293570Y-134968928D01*
X97293570Y-134968928D02*
X97341189Y-134873690D01*
X97341189Y-134873690D02*
X97388808Y-134826071D01*
X97388808Y-134826071D02*
X97484046Y-134778452D01*
X97484046Y-134778452D02*
X97626903Y-134778452D01*
X97626903Y-134778452D02*
X97722141Y-134826071D01*
X97722141Y-134826071D02*
X97769760Y-134873690D01*
X97769760Y-134873690D02*
X97817379Y-134968928D01*
X97817379Y-134968928D02*
X97817379Y-135254642D01*
X97817379Y-135254642D02*
X97769760Y-135349880D01*
X97769760Y-135349880D02*
X97722141Y-135397500D01*
X97722141Y-135397500D02*
X97626903Y-135445119D01*
X97626903Y-135445119D02*
X97484046Y-135445119D01*
X99388808Y-135397500D02*
X99293570Y-135445119D01*
X99293570Y-135445119D02*
X99103094Y-135445119D01*
X99103094Y-135445119D02*
X99007856Y-135397500D01*
X99007856Y-135397500D02*
X98960237Y-135302261D01*
X98960237Y-135302261D02*
X98960237Y-134921309D01*
X98960237Y-134921309D02*
X99007856Y-134826071D01*
X99007856Y-134826071D02*
X99103094Y-134778452D01*
X99103094Y-134778452D02*
X99293570Y-134778452D01*
X99293570Y-134778452D02*
X99388808Y-134826071D01*
X99388808Y-134826071D02*
X99436427Y-134921309D01*
X99436427Y-134921309D02*
X99436427Y-135016547D01*
X99436427Y-135016547D02*
X98960237Y-135111785D01*
X100007856Y-135445119D02*
X99912618Y-135397500D01*
X99912618Y-135397500D02*
X99864999Y-135302261D01*
X99864999Y-135302261D02*
X99864999Y-134445119D01*
X100769761Y-135397500D02*
X100674523Y-135445119D01*
X100674523Y-135445119D02*
X100484047Y-135445119D01*
X100484047Y-135445119D02*
X100388809Y-135397500D01*
X100388809Y-135397500D02*
X100341190Y-135302261D01*
X100341190Y-135302261D02*
X100341190Y-134921309D01*
X100341190Y-134921309D02*
X100388809Y-134826071D01*
X100388809Y-134826071D02*
X100484047Y-134778452D01*
X100484047Y-134778452D02*
X100674523Y-134778452D01*
X100674523Y-134778452D02*
X100769761Y-134826071D01*
X100769761Y-134826071D02*
X100817380Y-134921309D01*
X100817380Y-134921309D02*
X100817380Y-135016547D01*
X100817380Y-135016547D02*
X100341190Y-135111785D01*
X101674523Y-135397500D02*
X101579285Y-135445119D01*
X101579285Y-135445119D02*
X101388809Y-135445119D01*
X101388809Y-135445119D02*
X101293571Y-135397500D01*
X101293571Y-135397500D02*
X101245952Y-135349880D01*
X101245952Y-135349880D02*
X101198333Y-135254642D01*
X101198333Y-135254642D02*
X101198333Y-134968928D01*
X101198333Y-134968928D02*
X101245952Y-134873690D01*
X101245952Y-134873690D02*
X101293571Y-134826071D01*
X101293571Y-134826071D02*
X101388809Y-134778452D01*
X101388809Y-134778452D02*
X101579285Y-134778452D01*
X101579285Y-134778452D02*
X101674523Y-134826071D01*
X101960238Y-134778452D02*
X102341190Y-134778452D01*
X102103095Y-134445119D02*
X102103095Y-135302261D01*
X102103095Y-135302261D02*
X102150714Y-135397500D01*
X102150714Y-135397500D02*
X102245952Y-135445119D01*
X102245952Y-135445119D02*
X102341190Y-135445119D01*
X102674524Y-135445119D02*
X102674524Y-134778452D01*
X102674524Y-134968928D02*
X102722143Y-134873690D01*
X102722143Y-134873690D02*
X102769762Y-134826071D01*
X102769762Y-134826071D02*
X102865000Y-134778452D01*
X102865000Y-134778452D02*
X102960238Y-134778452D01*
X103436429Y-135445119D02*
X103341191Y-135397500D01*
X103341191Y-135397500D02*
X103293572Y-135349880D01*
X103293572Y-135349880D02*
X103245953Y-135254642D01*
X103245953Y-135254642D02*
X103245953Y-134968928D01*
X103245953Y-134968928D02*
X103293572Y-134873690D01*
X103293572Y-134873690D02*
X103341191Y-134826071D01*
X103341191Y-134826071D02*
X103436429Y-134778452D01*
X103436429Y-134778452D02*
X103579286Y-134778452D01*
X103579286Y-134778452D02*
X103674524Y-134826071D01*
X103674524Y-134826071D02*
X103722143Y-134873690D01*
X103722143Y-134873690D02*
X103769762Y-134968928D01*
X103769762Y-134968928D02*
X103769762Y-135254642D01*
X103769762Y-135254642D02*
X103722143Y-135349880D01*
X103722143Y-135349880D02*
X103674524Y-135397500D01*
X103674524Y-135397500D02*
X103579286Y-135445119D01*
X103579286Y-135445119D02*
X103436429Y-135445119D01*
X104198334Y-134778452D02*
X104198334Y-135445119D01*
X104198334Y-134873690D02*
X104245953Y-134826071D01*
X104245953Y-134826071D02*
X104341191Y-134778452D01*
X104341191Y-134778452D02*
X104484048Y-134778452D01*
X104484048Y-134778452D02*
X104579286Y-134826071D01*
X104579286Y-134826071D02*
X104626905Y-134921309D01*
X104626905Y-134921309D02*
X104626905Y-135445119D01*
X105103096Y-135445119D02*
X105103096Y-134778452D01*
X105103096Y-134445119D02*
X105055477Y-134492738D01*
X105055477Y-134492738D02*
X105103096Y-134540357D01*
X105103096Y-134540357D02*
X105150715Y-134492738D01*
X105150715Y-134492738D02*
X105103096Y-134445119D01*
X105103096Y-134445119D02*
X105103096Y-134540357D01*
X106007857Y-135397500D02*
X105912619Y-135445119D01*
X105912619Y-135445119D02*
X105722143Y-135445119D01*
X105722143Y-135445119D02*
X105626905Y-135397500D01*
X105626905Y-135397500D02*
X105579286Y-135349880D01*
X105579286Y-135349880D02*
X105531667Y-135254642D01*
X105531667Y-135254642D02*
X105531667Y-134968928D01*
X105531667Y-134968928D02*
X105579286Y-134873690D01*
X105579286Y-134873690D02*
X105626905Y-134826071D01*
X105626905Y-134826071D02*
X105722143Y-134778452D01*
X105722143Y-134778452D02*
X105912619Y-134778452D01*
X105912619Y-134778452D02*
X106007857Y-134826071D01*
X107198334Y-135445119D02*
X107198334Y-134445119D01*
X107198334Y-134826071D02*
X107293572Y-134778452D01*
X107293572Y-134778452D02*
X107484048Y-134778452D01*
X107484048Y-134778452D02*
X107579286Y-134826071D01*
X107579286Y-134826071D02*
X107626905Y-134873690D01*
X107626905Y-134873690D02*
X107674524Y-134968928D01*
X107674524Y-134968928D02*
X107674524Y-135254642D01*
X107674524Y-135254642D02*
X107626905Y-135349880D01*
X107626905Y-135349880D02*
X107579286Y-135397500D01*
X107579286Y-135397500D02*
X107484048Y-135445119D01*
X107484048Y-135445119D02*
X107293572Y-135445119D01*
X107293572Y-135445119D02*
X107198334Y-135397500D01*
X108245953Y-135445119D02*
X108150715Y-135397500D01*
X108150715Y-135397500D02*
X108103096Y-135349880D01*
X108103096Y-135349880D02*
X108055477Y-135254642D01*
X108055477Y-135254642D02*
X108055477Y-134968928D01*
X108055477Y-134968928D02*
X108103096Y-134873690D01*
X108103096Y-134873690D02*
X108150715Y-134826071D01*
X108150715Y-134826071D02*
X108245953Y-134778452D01*
X108245953Y-134778452D02*
X108388810Y-134778452D01*
X108388810Y-134778452D02*
X108484048Y-134826071D01*
X108484048Y-134826071D02*
X108531667Y-134873690D01*
X108531667Y-134873690D02*
X108579286Y-134968928D01*
X108579286Y-134968928D02*
X108579286Y-135254642D01*
X108579286Y-135254642D02*
X108531667Y-135349880D01*
X108531667Y-135349880D02*
X108484048Y-135397500D01*
X108484048Y-135397500D02*
X108388810Y-135445119D01*
X108388810Y-135445119D02*
X108245953Y-135445119D01*
X108912620Y-135445119D02*
X109436429Y-134778452D01*
X108912620Y-134778452D02*
X109436429Y-135445119D01*
X110531668Y-135159404D02*
X111007858Y-135159404D01*
X110436430Y-135445119D02*
X110769763Y-134445119D01*
X110769763Y-134445119D02*
X111103096Y-135445119D01*
X74076189Y-40088152D02*
X74457141Y-40088152D01*
X74219046Y-39754819D02*
X74219046Y-40611961D01*
X74219046Y-40611961D02*
X74266665Y-40707200D01*
X74266665Y-40707200D02*
X74361903Y-40754819D01*
X74361903Y-40754819D02*
X74457141Y-40754819D01*
X74933332Y-40754819D02*
X74838094Y-40707200D01*
X74838094Y-40707200D02*
X74790475Y-40659580D01*
X74790475Y-40659580D02*
X74742856Y-40564342D01*
X74742856Y-40564342D02*
X74742856Y-40278628D01*
X74742856Y-40278628D02*
X74790475Y-40183390D01*
X74790475Y-40183390D02*
X74838094Y-40135771D01*
X74838094Y-40135771D02*
X74933332Y-40088152D01*
X74933332Y-40088152D02*
X75076189Y-40088152D01*
X75076189Y-40088152D02*
X75171427Y-40135771D01*
X75171427Y-40135771D02*
X75219046Y-40183390D01*
X75219046Y-40183390D02*
X75266665Y-40278628D01*
X75266665Y-40278628D02*
X75266665Y-40564342D01*
X75266665Y-40564342D02*
X75219046Y-40659580D01*
X75219046Y-40659580D02*
X75171427Y-40707200D01*
X75171427Y-40707200D02*
X75076189Y-40754819D01*
X75076189Y-40754819D02*
X74933332Y-40754819D01*
X76314285Y-40088152D02*
X76695237Y-40088152D01*
X76457142Y-40754819D02*
X76457142Y-39897676D01*
X76457142Y-39897676D02*
X76504761Y-39802438D01*
X76504761Y-39802438D02*
X76599999Y-39754819D01*
X76599999Y-39754819D02*
X76695237Y-39754819D01*
X77409523Y-40707200D02*
X77314285Y-40754819D01*
X77314285Y-40754819D02*
X77123809Y-40754819D01*
X77123809Y-40754819D02*
X77028571Y-40707200D01*
X77028571Y-40707200D02*
X76980952Y-40611961D01*
X76980952Y-40611961D02*
X76980952Y-40231009D01*
X76980952Y-40231009D02*
X77028571Y-40135771D01*
X77028571Y-40135771D02*
X77123809Y-40088152D01*
X77123809Y-40088152D02*
X77314285Y-40088152D01*
X77314285Y-40088152D02*
X77409523Y-40135771D01*
X77409523Y-40135771D02*
X77457142Y-40231009D01*
X77457142Y-40231009D02*
X77457142Y-40326247D01*
X77457142Y-40326247D02*
X76980952Y-40421485D01*
X77885714Y-40754819D02*
X77885714Y-40088152D01*
X77885714Y-40183390D02*
X77933333Y-40135771D01*
X77933333Y-40135771D02*
X78028571Y-40088152D01*
X78028571Y-40088152D02*
X78171428Y-40088152D01*
X78171428Y-40088152D02*
X78266666Y-40135771D01*
X78266666Y-40135771D02*
X78314285Y-40231009D01*
X78314285Y-40231009D02*
X78314285Y-40754819D01*
X78314285Y-40231009D02*
X78361904Y-40135771D01*
X78361904Y-40135771D02*
X78457142Y-40088152D01*
X78457142Y-40088152D02*
X78599999Y-40088152D01*
X78599999Y-40088152D02*
X78695238Y-40135771D01*
X78695238Y-40135771D02*
X78742857Y-40231009D01*
X78742857Y-40231009D02*
X78742857Y-40754819D01*
X79647618Y-40754819D02*
X79647618Y-40231009D01*
X79647618Y-40231009D02*
X79599999Y-40135771D01*
X79599999Y-40135771D02*
X79504761Y-40088152D01*
X79504761Y-40088152D02*
X79314285Y-40088152D01*
X79314285Y-40088152D02*
X79219047Y-40135771D01*
X79647618Y-40707200D02*
X79552380Y-40754819D01*
X79552380Y-40754819D02*
X79314285Y-40754819D01*
X79314285Y-40754819D02*
X79219047Y-40707200D01*
X79219047Y-40707200D02*
X79171428Y-40611961D01*
X79171428Y-40611961D02*
X79171428Y-40516723D01*
X79171428Y-40516723D02*
X79219047Y-40421485D01*
X79219047Y-40421485D02*
X79314285Y-40373866D01*
X79314285Y-40373866D02*
X79552380Y-40373866D01*
X79552380Y-40373866D02*
X79647618Y-40326247D01*
X80266666Y-40754819D02*
X80171428Y-40707200D01*
X80171428Y-40707200D02*
X80123809Y-40611961D01*
X80123809Y-40611961D02*
X80123809Y-39754819D01*
X81028571Y-40707200D02*
X80933333Y-40754819D01*
X80933333Y-40754819D02*
X80742857Y-40754819D01*
X80742857Y-40754819D02*
X80647619Y-40707200D01*
X80647619Y-40707200D02*
X80600000Y-40611961D01*
X80600000Y-40611961D02*
X80600000Y-40231009D01*
X80600000Y-40231009D02*
X80647619Y-40135771D01*
X80647619Y-40135771D02*
X80742857Y-40088152D01*
X80742857Y-40088152D02*
X80933333Y-40088152D01*
X80933333Y-40088152D02*
X81028571Y-40135771D01*
X81028571Y-40135771D02*
X81076190Y-40231009D01*
X81076190Y-40231009D02*
X81076190Y-40326247D01*
X81076190Y-40326247D02*
X80600000Y-40421485D01*
X82219048Y-40707200D02*
X82314286Y-40754819D01*
X82314286Y-40754819D02*
X82504762Y-40754819D01*
X82504762Y-40754819D02*
X82600000Y-40707200D01*
X82600000Y-40707200D02*
X82647619Y-40611961D01*
X82647619Y-40611961D02*
X82647619Y-40564342D01*
X82647619Y-40564342D02*
X82600000Y-40469104D01*
X82600000Y-40469104D02*
X82504762Y-40421485D01*
X82504762Y-40421485D02*
X82361905Y-40421485D01*
X82361905Y-40421485D02*
X82266667Y-40373866D01*
X82266667Y-40373866D02*
X82219048Y-40278628D01*
X82219048Y-40278628D02*
X82219048Y-40231009D01*
X82219048Y-40231009D02*
X82266667Y-40135771D01*
X82266667Y-40135771D02*
X82361905Y-40088152D01*
X82361905Y-40088152D02*
X82504762Y-40088152D01*
X82504762Y-40088152D02*
X82600000Y-40135771D01*
X82933334Y-40088152D02*
X83314286Y-40088152D01*
X83076191Y-39754819D02*
X83076191Y-40611961D01*
X83076191Y-40611961D02*
X83123810Y-40707200D01*
X83123810Y-40707200D02*
X83219048Y-40754819D01*
X83219048Y-40754819D02*
X83314286Y-40754819D01*
X84076191Y-40754819D02*
X84076191Y-40231009D01*
X84076191Y-40231009D02*
X84028572Y-40135771D01*
X84028572Y-40135771D02*
X83933334Y-40088152D01*
X83933334Y-40088152D02*
X83742858Y-40088152D01*
X83742858Y-40088152D02*
X83647620Y-40135771D01*
X84076191Y-40707200D02*
X83980953Y-40754819D01*
X83980953Y-40754819D02*
X83742858Y-40754819D01*
X83742858Y-40754819D02*
X83647620Y-40707200D01*
X83647620Y-40707200D02*
X83600001Y-40611961D01*
X83600001Y-40611961D02*
X83600001Y-40516723D01*
X83600001Y-40516723D02*
X83647620Y-40421485D01*
X83647620Y-40421485D02*
X83742858Y-40373866D01*
X83742858Y-40373866D02*
X83980953Y-40373866D01*
X83980953Y-40373866D02*
X84076191Y-40326247D01*
X84409525Y-40088152D02*
X84790477Y-40088152D01*
X84552382Y-39754819D02*
X84552382Y-40611961D01*
X84552382Y-40611961D02*
X84600001Y-40707200D01*
X84600001Y-40707200D02*
X84695239Y-40754819D01*
X84695239Y-40754819D02*
X84790477Y-40754819D01*
X85123811Y-40754819D02*
X85123811Y-40088152D01*
X85123811Y-39754819D02*
X85076192Y-39802438D01*
X85076192Y-39802438D02*
X85123811Y-39850057D01*
X85123811Y-39850057D02*
X85171430Y-39802438D01*
X85171430Y-39802438D02*
X85123811Y-39754819D01*
X85123811Y-39754819D02*
X85123811Y-39850057D01*
X86028572Y-40707200D02*
X85933334Y-40754819D01*
X85933334Y-40754819D02*
X85742858Y-40754819D01*
X85742858Y-40754819D02*
X85647620Y-40707200D01*
X85647620Y-40707200D02*
X85600001Y-40659580D01*
X85600001Y-40659580D02*
X85552382Y-40564342D01*
X85552382Y-40564342D02*
X85552382Y-40278628D01*
X85552382Y-40278628D02*
X85600001Y-40183390D01*
X85600001Y-40183390D02*
X85647620Y-40135771D01*
X85647620Y-40135771D02*
X85742858Y-40088152D01*
X85742858Y-40088152D02*
X85933334Y-40088152D01*
X85933334Y-40088152D02*
X86028572Y-40135771D01*
X111388152Y-63390476D02*
X111388152Y-63009524D01*
X111054819Y-63247619D02*
X111911961Y-63247619D01*
X111911961Y-63247619D02*
X112007200Y-63200000D01*
X112007200Y-63200000D02*
X112054819Y-63104762D01*
X112054819Y-63104762D02*
X112054819Y-63009524D01*
X112054819Y-62533333D02*
X112007200Y-62628571D01*
X112007200Y-62628571D02*
X111959580Y-62676190D01*
X111959580Y-62676190D02*
X111864342Y-62723809D01*
X111864342Y-62723809D02*
X111578628Y-62723809D01*
X111578628Y-62723809D02*
X111483390Y-62676190D01*
X111483390Y-62676190D02*
X111435771Y-62628571D01*
X111435771Y-62628571D02*
X111388152Y-62533333D01*
X111388152Y-62533333D02*
X111388152Y-62390476D01*
X111388152Y-62390476D02*
X111435771Y-62295238D01*
X111435771Y-62295238D02*
X111483390Y-62247619D01*
X111483390Y-62247619D02*
X111578628Y-62200000D01*
X111578628Y-62200000D02*
X111864342Y-62200000D01*
X111864342Y-62200000D02*
X111959580Y-62247619D01*
X111959580Y-62247619D02*
X112007200Y-62295238D01*
X112007200Y-62295238D02*
X112054819Y-62390476D01*
X112054819Y-62390476D02*
X112054819Y-62533333D01*
X112054819Y-61009523D02*
X111388152Y-61009523D01*
X111483390Y-61009523D02*
X111435771Y-60961904D01*
X111435771Y-60961904D02*
X111388152Y-60866666D01*
X111388152Y-60866666D02*
X111388152Y-60723809D01*
X111388152Y-60723809D02*
X111435771Y-60628571D01*
X111435771Y-60628571D02*
X111531009Y-60580952D01*
X111531009Y-60580952D02*
X112054819Y-60580952D01*
X111531009Y-60580952D02*
X111435771Y-60533333D01*
X111435771Y-60533333D02*
X111388152Y-60438095D01*
X111388152Y-60438095D02*
X111388152Y-60295238D01*
X111388152Y-60295238D02*
X111435771Y-60199999D01*
X111435771Y-60199999D02*
X111531009Y-60152380D01*
X111531009Y-60152380D02*
X112054819Y-60152380D01*
X112054819Y-59247619D02*
X111531009Y-59247619D01*
X111531009Y-59247619D02*
X111435771Y-59295238D01*
X111435771Y-59295238D02*
X111388152Y-59390476D01*
X111388152Y-59390476D02*
X111388152Y-59580952D01*
X111388152Y-59580952D02*
X111435771Y-59676190D01*
X112007200Y-59247619D02*
X112054819Y-59342857D01*
X112054819Y-59342857D02*
X112054819Y-59580952D01*
X112054819Y-59580952D02*
X112007200Y-59676190D01*
X112007200Y-59676190D02*
X111911961Y-59723809D01*
X111911961Y-59723809D02*
X111816723Y-59723809D01*
X111816723Y-59723809D02*
X111721485Y-59676190D01*
X111721485Y-59676190D02*
X111673866Y-59580952D01*
X111673866Y-59580952D02*
X111673866Y-59342857D01*
X111673866Y-59342857D02*
X111626247Y-59247619D01*
X112054819Y-58628571D02*
X112007200Y-58723809D01*
X112007200Y-58723809D02*
X111911961Y-58771428D01*
X111911961Y-58771428D02*
X111054819Y-58771428D01*
X112007200Y-57866666D02*
X112054819Y-57961904D01*
X112054819Y-57961904D02*
X112054819Y-58152380D01*
X112054819Y-58152380D02*
X112007200Y-58247618D01*
X112007200Y-58247618D02*
X111911961Y-58295237D01*
X111911961Y-58295237D02*
X111531009Y-58295237D01*
X111531009Y-58295237D02*
X111435771Y-58247618D01*
X111435771Y-58247618D02*
X111388152Y-58152380D01*
X111388152Y-58152380D02*
X111388152Y-57961904D01*
X111388152Y-57961904D02*
X111435771Y-57866666D01*
X111435771Y-57866666D02*
X111531009Y-57819047D01*
X111531009Y-57819047D02*
X111626247Y-57819047D01*
X111626247Y-57819047D02*
X111721485Y-58295237D01*
X112054819Y-56104761D02*
X112054819Y-56676189D01*
X112054819Y-56390475D02*
X111054819Y-56390475D01*
X111054819Y-56390475D02*
X111197676Y-56485713D01*
X111197676Y-56485713D02*
X111292914Y-56580951D01*
X111292914Y-56580951D02*
X111340533Y-56676189D01*
X78833332Y-86954819D02*
X78833332Y-85954819D01*
X78833332Y-86907200D02*
X78738094Y-86954819D01*
X78738094Y-86954819D02*
X78547618Y-86954819D01*
X78547618Y-86954819D02*
X78452380Y-86907200D01*
X78452380Y-86907200D02*
X78404761Y-86859580D01*
X78404761Y-86859580D02*
X78357142Y-86764342D01*
X78357142Y-86764342D02*
X78357142Y-86478628D01*
X78357142Y-86478628D02*
X78404761Y-86383390D01*
X78404761Y-86383390D02*
X78452380Y-86335771D01*
X78452380Y-86335771D02*
X78547618Y-86288152D01*
X78547618Y-86288152D02*
X78738094Y-86288152D01*
X78738094Y-86288152D02*
X78833332Y-86335771D01*
X79214285Y-86954819D02*
X79738094Y-86288152D01*
X79214285Y-86288152D02*
X79738094Y-86954819D01*
X80261904Y-86954819D02*
X80166666Y-86907200D01*
X80166666Y-86907200D02*
X80119047Y-86811961D01*
X80119047Y-86811961D02*
X80119047Y-85954819D01*
X81833333Y-86907200D02*
X81738095Y-86954819D01*
X81738095Y-86954819D02*
X81547619Y-86954819D01*
X81547619Y-86954819D02*
X81452381Y-86907200D01*
X81452381Y-86907200D02*
X81404762Y-86859580D01*
X81404762Y-86859580D02*
X81357143Y-86764342D01*
X81357143Y-86764342D02*
X81357143Y-86478628D01*
X81357143Y-86478628D02*
X81404762Y-86383390D01*
X81404762Y-86383390D02*
X81452381Y-86335771D01*
X81452381Y-86335771D02*
X81547619Y-86288152D01*
X81547619Y-86288152D02*
X81738095Y-86288152D01*
X81738095Y-86288152D02*
X81833333Y-86335771D01*
X82642857Y-86907200D02*
X82547619Y-86954819D01*
X82547619Y-86954819D02*
X82357143Y-86954819D01*
X82357143Y-86954819D02*
X82261905Y-86907200D01*
X82261905Y-86907200D02*
X82214286Y-86811961D01*
X82214286Y-86811961D02*
X82214286Y-86431009D01*
X82214286Y-86431009D02*
X82261905Y-86335771D01*
X82261905Y-86335771D02*
X82357143Y-86288152D01*
X82357143Y-86288152D02*
X82547619Y-86288152D01*
X82547619Y-86288152D02*
X82642857Y-86335771D01*
X82642857Y-86335771D02*
X82690476Y-86431009D01*
X82690476Y-86431009D02*
X82690476Y-86526247D01*
X82690476Y-86526247D02*
X82214286Y-86621485D01*
X83119048Y-86288152D02*
X83119048Y-86954819D01*
X83119048Y-86383390D02*
X83166667Y-86335771D01*
X83166667Y-86335771D02*
X83261905Y-86288152D01*
X83261905Y-86288152D02*
X83404762Y-86288152D01*
X83404762Y-86288152D02*
X83500000Y-86335771D01*
X83500000Y-86335771D02*
X83547619Y-86431009D01*
X83547619Y-86431009D02*
X83547619Y-86954819D01*
X83880953Y-86288152D02*
X84261905Y-86288152D01*
X84023810Y-85954819D02*
X84023810Y-86811961D01*
X84023810Y-86811961D02*
X84071429Y-86907200D01*
X84071429Y-86907200D02*
X84166667Y-86954819D01*
X84166667Y-86954819D02*
X84261905Y-86954819D01*
X84976191Y-86907200D02*
X84880953Y-86954819D01*
X84880953Y-86954819D02*
X84690477Y-86954819D01*
X84690477Y-86954819D02*
X84595239Y-86907200D01*
X84595239Y-86907200D02*
X84547620Y-86811961D01*
X84547620Y-86811961D02*
X84547620Y-86431009D01*
X84547620Y-86431009D02*
X84595239Y-86335771D01*
X84595239Y-86335771D02*
X84690477Y-86288152D01*
X84690477Y-86288152D02*
X84880953Y-86288152D01*
X84880953Y-86288152D02*
X84976191Y-86335771D01*
X84976191Y-86335771D02*
X85023810Y-86431009D01*
X85023810Y-86431009D02*
X85023810Y-86526247D01*
X85023810Y-86526247D02*
X84547620Y-86621485D01*
X85452382Y-86954819D02*
X85452382Y-86288152D01*
X85452382Y-86478628D02*
X85500001Y-86383390D01*
X85500001Y-86383390D02*
X85547620Y-86335771D01*
X85547620Y-86335771D02*
X85642858Y-86288152D01*
X85642858Y-86288152D02*
X85738096Y-86288152D01*
D13*
%TO.C,J7*%
X32280000Y-40990000D02*
X41860000Y-40990000D01*
X41860000Y-40990000D02*
X41860000Y-80310000D01*
X41860000Y-80310000D02*
X32280000Y-80310000D01*
X42321325Y-50955000D02*
X42754338Y-50705000D01*
X42754338Y-50705000D02*
X42754338Y-51205000D01*
X42754338Y-51205000D02*
X42321325Y-50955000D01*
%TO.C,J6*%
X35645000Y-137240000D02*
X74965000Y-137240000D01*
X35645000Y-147720000D02*
X35645000Y-137240000D01*
X64750000Y-136345662D02*
X65250000Y-136345662D01*
X65000000Y-136778675D02*
X64750000Y-136345662D01*
X65250000Y-136345662D02*
X65000000Y-136778675D01*
X74965000Y-137240000D02*
X74965000Y-147720000D01*
%TO.C,J3*%
X85645000Y-137240000D02*
X124965000Y-137240000D01*
X85645000Y-147720000D02*
X85645000Y-137240000D01*
X114750000Y-136345662D02*
X115250000Y-136345662D01*
X115000000Y-136778675D02*
X114750000Y-136345662D01*
X115250000Y-136345662D02*
X115000000Y-136778675D01*
X124965000Y-137240000D02*
X124965000Y-147720000D01*
%TO.C,J1*%
X60670000Y-36360000D02*
X60670000Y-26780000D01*
X89775000Y-37254338D02*
X90025000Y-36821325D01*
X90025000Y-36821325D02*
X90275000Y-37254338D01*
X90275000Y-37254338D02*
X89775000Y-37254338D01*
X99990000Y-26780000D02*
X99990000Y-36360000D01*
X99990000Y-36360000D02*
X60670000Y-36360000D01*
%TO.C,J4*%
X112245662Y-70095000D02*
X112678675Y-70345000D01*
X112245662Y-70595000D02*
X112245662Y-70095000D01*
X112678675Y-70345000D02*
X112245662Y-70595000D01*
X113140000Y-40990000D02*
X122720000Y-40990000D01*
X113140000Y-80310000D02*
X113140000Y-40990000D01*
X122720000Y-80310000D02*
X113140000Y-80310000D01*
%TO.C,J2*%
X76390000Y-80690000D02*
X76390000Y-84710000D01*
X76390000Y-82190000D02*
X77390000Y-82190000D01*
X76390000Y-84710000D02*
X86610000Y-84710000D01*
X76890000Y-83000000D02*
X76390000Y-83000000D01*
X76890000Y-84210000D02*
X76890000Y-83000000D01*
X77390000Y-82190000D02*
X77390000Y-80690000D01*
X85610000Y-82190000D02*
X85610000Y-80690000D01*
X86110000Y-83000000D02*
X86110000Y-84210000D01*
X86110000Y-84210000D02*
X76890000Y-84210000D01*
X86610000Y-80690000D02*
X76390000Y-80690000D01*
X86610000Y-82190000D02*
X85610000Y-82190000D01*
X86610000Y-83000000D02*
X86110000Y-83000000D01*
X86610000Y-84710000D02*
X86610000Y-80690000D01*
X86910000Y-80390000D02*
X84410000Y-80390000D01*
X86910000Y-82890000D02*
X86910000Y-80390000D01*
%TD*%
M02*
