%TF.GenerationSoftware,KiCad,Pcbnew,8.0.8*%
%TF.CreationDate,2025-02-06T12:07:46+01:00*%
%TF.ProjectId,center,63656e74-6572-42e6-9b69-6361645f7063,rev?*%
%TF.SameCoordinates,Original*%
%TF.FileFunction,Soldermask,Top*%
%TF.FilePolarity,Negative*%
%FSLAX46Y46*%
G04 Gerber Fmt 4.6, Leading zero omitted, Abs format (unit mm)*
G04 Created by KiCad (PCBNEW 8.0.8) date 2025-02-06 12:07:46*
%MOMM*%
%LPD*%
G01*
G04 APERTURE LIST*
G04 Aperture macros list*
%AMRoundRect*
0 Rectangle with rounded corners*
0 $1 Rounding radius*
0 $2 $3 $4 $5 $6 $7 $8 $9 X,Y pos of 4 corners*
0 Add a 4 corners polygon primitive as box body*
4,1,4,$2,$3,$4,$5,$6,$7,$8,$9,$2,$3,0*
0 Add four circle primitives for the rounded corners*
1,1,$1+$1,$2,$3*
1,1,$1+$1,$4,$5*
1,1,$1+$1,$6,$7*
1,1,$1+$1,$8,$9*
0 Add four rect primitives between the rounded corners*
20,1,$1+$1,$2,$3,$4,$5,0*
20,1,$1+$1,$4,$5,$6,$7,0*
20,1,$1+$1,$6,$7,$8,$9,0*
20,1,$1+$1,$8,$9,$2,$3,0*%
G04 Aperture macros list end*
%ADD10C,4.000000*%
%ADD11R,1.600000X1.600000*%
%ADD12C,1.600000*%
%ADD13RoundRect,0.250000X0.600000X0.725000X-0.600000X0.725000X-0.600000X-0.725000X0.600000X-0.725000X0*%
%ADD14O,1.700000X1.950000*%
G04 APERTURE END LIST*
D10*
%TO.C,J7*%
X37160000Y-44000000D03*
X37160000Y-77300000D03*
D11*
X40000000Y-50955000D03*
D12*
X40000000Y-53725000D03*
X40000000Y-56495000D03*
X40000000Y-59265000D03*
X40000000Y-62035000D03*
X40000000Y-64805000D03*
X40000000Y-67575000D03*
X40000000Y-70345000D03*
X37160000Y-52340000D03*
X37160000Y-55110000D03*
X37160000Y-57880000D03*
X37160000Y-60650000D03*
X37160000Y-63420000D03*
X37160000Y-66190000D03*
X37160000Y-68960000D03*
%TD*%
D10*
%TO.C,J6*%
X38655000Y-140300000D03*
X71955000Y-140300000D03*
D11*
X65000000Y-140000000D03*
D12*
X62230000Y-140000000D03*
X59460000Y-140000000D03*
X56690000Y-140000000D03*
X53920000Y-140000000D03*
X51150000Y-140000000D03*
X48380000Y-140000000D03*
X45610000Y-140000000D03*
X63615000Y-142840000D03*
X60845000Y-142840000D03*
X58075000Y-142840000D03*
X55305000Y-142840000D03*
X52535000Y-142840000D03*
X49765000Y-142840000D03*
X46995000Y-142840000D03*
%TD*%
D10*
%TO.C,J3*%
X88655000Y-140300000D03*
X121955000Y-140300000D03*
D11*
X115000000Y-140000000D03*
D12*
X112230000Y-140000000D03*
X109460000Y-140000000D03*
X106690000Y-140000000D03*
X103920000Y-140000000D03*
X101150000Y-140000000D03*
X98380000Y-140000000D03*
X95610000Y-140000000D03*
X113615000Y-142840000D03*
X110845000Y-142840000D03*
X108075000Y-142840000D03*
X105305000Y-142840000D03*
X102535000Y-142840000D03*
X99765000Y-142840000D03*
X96995000Y-142840000D03*
%TD*%
D10*
%TO.C,J1*%
X96980000Y-31660000D03*
X63680000Y-31660000D03*
D11*
X90025000Y-34500000D03*
D12*
X87255000Y-34500000D03*
X84485000Y-34500000D03*
X81715000Y-34500000D03*
X78945000Y-34500000D03*
X76175000Y-34500000D03*
X73405000Y-34500000D03*
X70635000Y-34500000D03*
X88640000Y-31660000D03*
X85870000Y-31660000D03*
X83100000Y-31660000D03*
X80330000Y-31660000D03*
X77560000Y-31660000D03*
X74790000Y-31660000D03*
X72020000Y-31660000D03*
%TD*%
D10*
%TO.C,J4*%
X117840000Y-77300000D03*
X117840000Y-44000000D03*
D11*
X115000000Y-70345000D03*
D12*
X115000000Y-67575000D03*
X115000000Y-64805000D03*
X115000000Y-62035000D03*
X115000000Y-59265000D03*
X115000000Y-56495000D03*
X115000000Y-53725000D03*
X115000000Y-50955000D03*
X117840000Y-68960000D03*
X117840000Y-66190000D03*
X117840000Y-63420000D03*
X117840000Y-60650000D03*
X117840000Y-57880000D03*
X117840000Y-55110000D03*
X117840000Y-52340000D03*
%TD*%
D13*
%TO.C,J2*%
X84000000Y-83000000D03*
D14*
X81500000Y-83000000D03*
X79000000Y-83000000D03*
%TD*%
M02*
