%TF.GenerationSoftware,KiCad,Pcbnew,8.0.8*%
%TF.CreationDate,2025-02-06T12:07:46+01:00*%
%TF.ProjectId,center,63656e74-6572-42e6-9b69-6361645f7063,rev?*%
%TF.SameCoordinates,Original*%
%TF.FileFunction,Copper,L1,Top*%
%TF.FilePolarity,Positive*%
%FSLAX46Y46*%
G04 Gerber Fmt 4.6, Leading zero omitted, Abs format (unit mm)*
G04 Created by KiCad (PCBNEW 8.0.8) date 2025-02-06 12:07:46*
%MOMM*%
%LPD*%
G01*
G04 APERTURE LIST*
G04 Aperture macros list*
%AMRoundRect*
0 Rectangle with rounded corners*
0 $1 Rounding radius*
0 $2 $3 $4 $5 $6 $7 $8 $9 X,Y pos of 4 corners*
0 Add a 4 corners polygon primitive as box body*
4,1,4,$2,$3,$4,$5,$6,$7,$8,$9,$2,$3,0*
0 Add four circle primitives for the rounded corners*
1,1,$1+$1,$2,$3*
1,1,$1+$1,$4,$5*
1,1,$1+$1,$6,$7*
1,1,$1+$1,$8,$9*
0 Add four rect primitives between the rounded corners*
20,1,$1+$1,$2,$3,$4,$5,0*
20,1,$1+$1,$4,$5,$6,$7,0*
20,1,$1+$1,$6,$7,$8,$9,0*
20,1,$1+$1,$8,$9,$2,$3,0*%
G04 Aperture macros list end*
%TA.AperFunction,ComponentPad*%
%ADD10C,4.000000*%
%TD*%
%TA.AperFunction,ComponentPad*%
%ADD11R,1.600000X1.600000*%
%TD*%
%TA.AperFunction,ComponentPad*%
%ADD12C,1.600000*%
%TD*%
%TA.AperFunction,ComponentPad*%
%ADD13RoundRect,0.250000X0.600000X0.725000X-0.600000X0.725000X-0.600000X-0.725000X0.600000X-0.725000X0*%
%TD*%
%TA.AperFunction,ComponentPad*%
%ADD14O,1.700000X1.950000*%
%TD*%
%TA.AperFunction,ViaPad*%
%ADD15C,1.200000*%
%TD*%
%TA.AperFunction,Conductor*%
%ADD16C,1.000000*%
%TD*%
%TA.AperFunction,Conductor*%
%ADD17C,0.400000*%
%TD*%
G04 APERTURE END LIST*
D10*
%TO.P,J7,0,PAD*%
%TO.N,GND*%
X37160000Y-44000000D03*
X37160000Y-77300000D03*
D11*
%TO.P,J7,1,1*%
X40000000Y-50955000D03*
D12*
%TO.P,J7,2,2*%
%TO.N,/12V*%
X40000000Y-53725000D03*
%TO.P,J7,3,3*%
%TO.N,/microphone male output 2*%
X40000000Y-56495000D03*
%TO.P,J7,4,4*%
%TO.N,/photo sensor male output 2a*%
X40000000Y-59265000D03*
%TO.P,J7,5,5*%
%TO.N,/photo sensor male output 2c*%
X40000000Y-62035000D03*
%TO.P,J7,6,6*%
%TO.N,/state LED male output 2*%
X40000000Y-64805000D03*
%TO.P,J7,7,7*%
%TO.N,/speaker male 2 -*%
X40000000Y-67575000D03*
%TO.P,J7,8,8*%
%TO.N,unconnected-(J7-Pad8)*%
X40000000Y-70345000D03*
%TO.P,J7,9,P9*%
%TO.N,/5V*%
X37160000Y-52340000D03*
%TO.P,J7,10,P10*%
%TO.N,/dynamixel data*%
X37160000Y-55110000D03*
%TO.P,J7,11,P111*%
%TO.N,/neopixel male input 2*%
X37160000Y-57880000D03*
%TO.P,J7,12,P12*%
%TO.N,/photo sensor male output 2b*%
X37160000Y-60650000D03*
%TO.P,J7,13,P13*%
%TO.N,/photo sensor male output 2d*%
X37160000Y-63420000D03*
%TO.P,J7,14,P14*%
%TO.N,/speaker male 2 +*%
X37160000Y-66190000D03*
%TO.P,J7,15,P15*%
%TO.N,/bar neopixel male input 2*%
X37160000Y-68960000D03*
%TD*%
D10*
%TO.P,J6,0,PAD*%
%TO.N,GND*%
X38655000Y-140300000D03*
X71955000Y-140300000D03*
D11*
%TO.P,J6,1,1*%
%TO.N,/state LED male output 1*%
X65000000Y-140000000D03*
D12*
%TO.P,J6,2,2*%
%TO.N,/speaker male 1 -*%
X62230000Y-140000000D03*
%TO.P,J6,3,3*%
%TO.N,/neopixel male input 2*%
X59460000Y-140000000D03*
%TO.P,J6,4,4*%
%TO.N,/photo sensor male output 2b*%
X56690000Y-140000000D03*
%TO.P,J6,5,5*%
%TO.N,/photo sensor male output 2d*%
X53920000Y-140000000D03*
%TO.P,J6,6,6*%
%TO.N,/speaker male 2 +*%
X51150000Y-140000000D03*
%TO.P,J6,7,7*%
%TO.N,Net-(J1-P111)*%
X48380000Y-140000000D03*
%TO.P,J6,8,8*%
%TO.N,/bar neopixel male input 2*%
X45610000Y-140000000D03*
%TO.P,J6,9,P9*%
%TO.N,/speaker male 1 +*%
X63615000Y-142840000D03*
%TO.P,J6,10,P10*%
%TO.N,/microphone male output 2*%
X60845000Y-142840000D03*
%TO.P,J6,11,P111*%
%TO.N,/photo sensor male output 2a*%
X58075000Y-142840000D03*
%TO.P,J6,12,P12*%
%TO.N,/photo sensor male output 2c*%
X55305000Y-142840000D03*
%TO.P,J6,13,P13*%
%TO.N,/state LED male output 2*%
X52535000Y-142840000D03*
%TO.P,J6,14,P14*%
%TO.N,/speaker male 2 -*%
X49765000Y-142840000D03*
%TO.P,J6,15,P15*%
%TO.N,/bar neopixel male input 1*%
X46995000Y-142840000D03*
%TD*%
D10*
%TO.P,J3,0,PAD*%
%TO.N,GND*%
X88655000Y-140300000D03*
X121955000Y-140300000D03*
D11*
%TO.P,J3,1,1*%
X115000000Y-140000000D03*
D12*
%TO.P,J3,2,2*%
%TO.N,/12V*%
X112230000Y-140000000D03*
%TO.P,J3,3,3*%
%TO.N,/microphone female output*%
X109460000Y-140000000D03*
%TO.P,J3,4,4*%
%TO.N,/photo sensor female output*%
X106690000Y-140000000D03*
%TO.P,J3,5,5*%
%TO.N,/speaker female -*%
X103920000Y-140000000D03*
%TO.P,J3,6,6*%
%TO.N,/neopixel male input 1*%
X101150000Y-140000000D03*
%TO.P,J3,7,7*%
%TO.N,/photo sensor male output 1b*%
X98380000Y-140000000D03*
%TO.P,J3,8,8*%
%TO.N,/photo sensor male output 1d*%
X95610000Y-140000000D03*
%TO.P,J3,9,P9*%
%TO.N,/5V*%
X113615000Y-142840000D03*
%TO.P,J3,10,P10*%
%TO.N,/dynamixel data*%
X110845000Y-142840000D03*
%TO.P,J3,11,P111*%
%TO.N,/neopixel female input*%
X108075000Y-142840000D03*
%TO.P,J3,12,P12*%
%TO.N,/speaker female +*%
X105305000Y-142840000D03*
%TO.P,J3,13,P13*%
%TO.N,/microphone male output 1*%
X102535000Y-142840000D03*
%TO.P,J3,14,P14*%
%TO.N,/photo sensor male output 1a*%
X99765000Y-142840000D03*
%TO.P,J3,15,P15*%
%TO.N,/photo sensor male output 1c*%
X96995000Y-142840000D03*
%TD*%
D10*
%TO.P,J1,0,PAD*%
%TO.N,GND*%
X96980000Y-31660000D03*
X63680000Y-31660000D03*
D11*
%TO.P,J1,1,1*%
%TO.N,unconnected-(J1-Pad1)*%
X90025000Y-34500000D03*
D12*
%TO.P,J1,2,2*%
%TO.N,unconnected-(J1-Pad2)*%
X87255000Y-34500000D03*
%TO.P,J1,3,3*%
%TO.N,unconnected-(J1-Pad3)*%
X84485000Y-34500000D03*
%TO.P,J1,4,4*%
%TO.N,/speaker female -*%
X81715000Y-34500000D03*
%TO.P,J1,5,5*%
%TO.N,/photo sensor female output*%
X78945000Y-34500000D03*
%TO.P,J1,6,6*%
%TO.N,/microphone female output*%
X76175000Y-34500000D03*
%TO.P,J1,7,7*%
%TO.N,/12V*%
X73405000Y-34500000D03*
%TO.P,J1,8,8*%
%TO.N,GND*%
X70635000Y-34500000D03*
%TO.P,J1,9,P9*%
%TO.N,unconnected-(J1-P9-Pad9)*%
X88640000Y-31660000D03*
%TO.P,J1,10,P10*%
%TO.N,unconnected-(J1-P10-Pad10)*%
X85870000Y-31660000D03*
%TO.P,J1,11,P111*%
%TO.N,Net-(J1-P111)*%
X83100000Y-31660000D03*
%TO.P,J1,12,P12*%
%TO.N,/speaker female +*%
X80330000Y-31660000D03*
%TO.P,J1,13,P13*%
%TO.N,/neopixel female input*%
X77560000Y-31660000D03*
%TO.P,J1,14,P14*%
%TO.N,/dynamixel data*%
X74790000Y-31660000D03*
%TO.P,J1,15,P15*%
%TO.N,/5V*%
X72020000Y-31660000D03*
%TD*%
D10*
%TO.P,J4,0,PAD*%
%TO.N,GND*%
X117840000Y-77300000D03*
X117840000Y-44000000D03*
D11*
%TO.P,J4,1,1*%
X115000000Y-70345000D03*
D12*
%TO.P,J4,2,2*%
%TO.N,/12V*%
X115000000Y-67575000D03*
%TO.P,J4,3,3*%
%TO.N,/microphone male output 1*%
X115000000Y-64805000D03*
%TO.P,J4,4,4*%
%TO.N,/photo sensor male output 1a*%
X115000000Y-62035000D03*
%TO.P,J4,5,5*%
%TO.N,/photo sensor male output 1c*%
X115000000Y-59265000D03*
%TO.P,J4,6,6*%
%TO.N,/state LED male output 1*%
X115000000Y-56495000D03*
%TO.P,J4,7,7*%
%TO.N,/speaker male 1 -*%
X115000000Y-53725000D03*
%TO.P,J4,8,8*%
%TO.N,unconnected-(J4-Pad8)*%
X115000000Y-50955000D03*
%TO.P,J4,9,P9*%
%TO.N,/5V*%
X117840000Y-68960000D03*
%TO.P,J4,10,P10*%
%TO.N,/dynamixel data*%
X117840000Y-66190000D03*
%TO.P,J4,11,P111*%
%TO.N,/neopixel male input 1*%
X117840000Y-63420000D03*
%TO.P,J4,12,P12*%
%TO.N,/photo sensor male output 1b*%
X117840000Y-60650000D03*
%TO.P,J4,13,P13*%
%TO.N,/photo sensor male output 1d*%
X117840000Y-57880000D03*
%TO.P,J4,14,P14*%
%TO.N,/speaker male 1 +*%
X117840000Y-55110000D03*
%TO.P,J4,15,P15*%
%TO.N,/bar neopixel male input 1*%
X117840000Y-52340000D03*
%TD*%
D13*
%TO.P,J2,1,Pin_1*%
%TO.N,GND*%
X84000000Y-83000000D03*
D14*
%TO.P,J2,2,Pin_2*%
%TO.N,/12V*%
X81500000Y-83000000D03*
%TO.P,J2,3,Pin_3*%
%TO.N,/dynamixel data*%
X79000000Y-83000000D03*
%TD*%
D15*
%TO.N,/dynamixel data*%
X72020000Y-42000000D03*
%TO.N,/speaker female -*%
X95140000Y-103840000D03*
%TD*%
D16*
%TO.N,/12V*%
X70635000Y-37270000D02*
X73405000Y-34500000D01*
X79800000Y-87000000D02*
X75790000Y-87000000D01*
X40000000Y-53725000D02*
X70635000Y-53725000D01*
X81500000Y-83000000D02*
X81500000Y-85300000D01*
X75790000Y-87000000D02*
X70635000Y-81845000D01*
X81500000Y-85300000D02*
X79800000Y-87000000D01*
X70635000Y-53725000D02*
X70635000Y-37270000D01*
X70635000Y-81845000D02*
X70635000Y-53725000D01*
D17*
%TO.N,/photo sensor female output*%
X106690000Y-140000000D02*
X106690000Y-143158000D01*
X96296400Y-144700000D02*
X93094700Y-141499000D01*
X105148000Y-144700000D02*
X96296400Y-144700000D01*
X93094700Y-141499000D02*
X93094700Y-51369500D01*
X106690000Y-143158000D02*
X105148000Y-144700000D01*
X93094700Y-51369500D02*
X78945000Y-37219800D01*
X78945000Y-37219800D02*
X78945000Y-34500000D01*
%TO.N,/dynamixel data*%
X72020000Y-42000000D02*
X72020000Y-37582100D01*
X74790000Y-34812100D02*
X74790000Y-31660000D01*
X72020000Y-37582100D02*
X74790000Y-34812100D01*
X72020000Y-77271700D02*
X72020000Y-42000000D01*
X77748300Y-83000000D02*
X72020000Y-77271700D01*
X79000000Y-83000000D02*
X77748300Y-83000000D01*
%TO.N,/microphone female output*%
X91382200Y-82508600D02*
X91382200Y-141490000D01*
X95799200Y-145907000D02*
X106747000Y-145907000D01*
X109460000Y-143194000D02*
X109460000Y-140000000D01*
X106747000Y-145907000D02*
X109460000Y-143194000D01*
X73405000Y-64531400D02*
X91382200Y-82508600D01*
X73405000Y-37270000D02*
X73405000Y-64531400D01*
X76175000Y-34500000D02*
X73405000Y-37270000D01*
X91382200Y-141490000D02*
X95799200Y-145907000D01*
%TO.N,/neopixel female input*%
X108075000Y-142840000D02*
X105611000Y-145304000D01*
X105611000Y-145304000D02*
X96048800Y-145304000D01*
X91985400Y-52083600D02*
X77560000Y-37658200D01*
X96048800Y-145304000D02*
X91985400Y-141240000D01*
X77560000Y-37658200D02*
X77560000Y-31660000D01*
X91985400Y-141240000D02*
X91985400Y-52083600D01*
%TO.N,/speaker female +*%
X104066000Y-144078000D02*
X96534100Y-144078000D01*
X96534100Y-144078000D02*
X93789000Y-141333000D01*
X105305000Y-142840000D02*
X104066000Y-144078000D01*
X93789000Y-141333000D02*
X93789000Y-50912800D01*
X80330000Y-37453800D02*
X80330000Y-31660000D01*
X93789000Y-50912800D02*
X80330000Y-37453800D01*
D16*
%TO.N,/5V*%
X117840000Y-71132600D02*
X117840000Y-68960000D01*
X113615000Y-75357600D02*
X117840000Y-71132600D01*
X115565000Y-142840000D02*
X117725000Y-145000000D01*
X126035000Y-145000000D02*
X126035000Y-136000000D01*
X113615000Y-142840000D02*
X115565000Y-142840000D01*
X113615000Y-94675000D02*
X113615000Y-75357600D01*
X117725000Y-145000000D02*
X126035000Y-145000000D01*
X121290000Y-131255000D02*
X121290000Y-102350000D01*
X121290000Y-102350000D02*
X113615000Y-94675000D01*
X126035000Y-136000000D02*
X121290000Y-131255000D01*
D17*
%TO.N,/speaker female -*%
X95089600Y-103790000D02*
X95089600Y-47874600D01*
X95140000Y-103840000D02*
X95089600Y-103790000D01*
X95089600Y-47874600D02*
X81715000Y-34500000D01*
D16*
%TO.N,GND*%
X115000000Y-140000000D02*
X121655000Y-140000000D01*
X109320000Y-44000000D02*
X96980000Y-31660000D01*
X117840000Y-44000000D02*
X124720000Y-50880000D01*
X88655000Y-87655000D02*
X84000000Y-83000000D01*
X92830000Y-27510000D02*
X72080000Y-27510000D01*
X33240000Y-50833300D02*
X33240000Y-73380000D01*
X69030000Y-31660000D02*
X69030000Y-32895000D01*
X119052000Y-45212400D02*
X117840000Y-44000000D01*
X124720000Y-50880000D02*
X124720000Y-70420000D01*
X117840000Y-44000000D02*
X109320000Y-44000000D01*
X88655000Y-140300000D02*
X88655000Y-87655000D01*
X37160000Y-46913300D02*
X40000000Y-49753300D01*
X40000000Y-49753300D02*
X40000000Y-50955000D01*
X69030000Y-30560000D02*
X69030000Y-31660000D01*
X72080000Y-27510000D02*
X69030000Y-30560000D01*
X63680000Y-31660000D02*
X69030000Y-31660000D01*
X69030000Y-32895000D02*
X70635000Y-34500000D01*
X33240000Y-73380000D02*
X37160000Y-77300000D01*
X96980000Y-31660000D02*
X92830000Y-27510000D01*
X121655000Y-140000000D02*
X121955000Y-140300000D01*
X37160000Y-44000000D02*
X37160000Y-46913300D01*
X124720000Y-70420000D02*
X117840000Y-77300000D01*
X37160000Y-46913300D02*
X33240000Y-50833300D01*
D17*
%TO.N,/photo sensor male output 2a*%
X58075000Y-142840000D02*
X58075000Y-77340000D01*
X58075000Y-77340000D02*
X40000000Y-59265000D01*
%TO.N,/speaker male 2 +*%
X51150000Y-77000200D02*
X40339800Y-66190000D01*
X51150000Y-140000000D02*
X51150000Y-77000200D01*
X40339800Y-66190000D02*
X37160000Y-66190000D01*
%TO.N,/state LED male output 2*%
X52535000Y-77340000D02*
X40000000Y-64805000D01*
X52535000Y-142840000D02*
X52535000Y-77340000D01*
%TO.N,/photo sensor male output 1b*%
X114680000Y-60650000D02*
X117840000Y-60650000D01*
X98380000Y-140000000D02*
X98380000Y-76949800D01*
X98380000Y-76949800D02*
X114680000Y-60650000D01*
%TO.N,/photo sensor male output 1c*%
X96995000Y-142840000D02*
X97116900Y-142718000D01*
X97116900Y-142718000D02*
X97116900Y-77148100D01*
X97116900Y-77148100D02*
X115000000Y-59265000D01*
%TO.N,/photo sensor male output 2d*%
X53920000Y-140000000D02*
X53920000Y-76997600D01*
X53920000Y-76997600D02*
X40342400Y-63420000D01*
X40342400Y-63420000D02*
X37160000Y-63420000D01*
%TO.N,/neopixel male input 2*%
X40382767Y-57880000D02*
X59460000Y-76957233D01*
X37160000Y-57880000D02*
X40382767Y-57880000D01*
X59460000Y-76957233D02*
X59460000Y-140000000D01*
%TO.N,/neopixel male input 1*%
X114687943Y-63420000D02*
X101150000Y-76957943D01*
X117840000Y-63420000D02*
X114687943Y-63420000D01*
X101150000Y-76957943D02*
X101150000Y-140000000D01*
%TO.N,/photo sensor male output 2b*%
X56690000Y-77019600D02*
X56690000Y-140000000D01*
X37160000Y-60650000D02*
X40320400Y-60650000D01*
X40320400Y-60650000D02*
X56690000Y-77019600D01*
%TO.N,/photo sensor male output 1a*%
X99765000Y-77270000D02*
X115000000Y-62035000D01*
X99765000Y-142840000D02*
X99765000Y-77270000D01*
%TO.N,/photo sensor male output 2c*%
X55305000Y-142840000D02*
X55305000Y-77340000D01*
X55305000Y-77340000D02*
X40000000Y-62035000D01*
%TO.N,/microphone male output 2*%
X60845000Y-142840000D02*
X60845000Y-77340000D01*
X60845000Y-77340000D02*
X40000000Y-56495000D01*
%TO.N,/microphone male output 1*%
X102535000Y-142840000D02*
X102535000Y-77270000D01*
X102535000Y-77270000D02*
X115000000Y-64805000D01*
%TO.N,/photo sensor male output 1d*%
X117840000Y-57880000D02*
X114664000Y-57880000D01*
X96515200Y-76028800D02*
X96515200Y-139095000D01*
X96515200Y-139095000D02*
X95610000Y-140000000D01*
X114664000Y-57880000D02*
X96515200Y-76028800D01*
%TO.N,/speaker male 2 -*%
X49765000Y-77340000D02*
X40000000Y-67575000D01*
X49765000Y-142840000D02*
X49765000Y-77340000D01*
%TO.N,/bar neopixel male input 2*%
X45610000Y-140000000D02*
X45610000Y-81710000D01*
X37160000Y-73260000D02*
X37160000Y-68960000D01*
X45610000Y-81710000D02*
X37160000Y-73260000D01*
%TD*%
M02*
