M48
; DRILL file {KiCad 8.0.8} date 2025-02-06T12:07:51+0100
; FORMAT={-:-/ absolute / inch / decimal}
; #@! TF.CreationDate,2025-02-06T12:07:51+01:00
; #@! TF.GenerationSoftware,Kicad,Pcbnew,8.0.8
; #@! TF.FileFunction,Plated,1,2,PTH
FMAT,2
INCH
; #@! TA.AperFunction,Plated,PTH,ViaDrill
T1C0.0236
; #@! TA.AperFunction,Plated,PTH,ComponentDrill
T2C0.0374
; #@! TA.AperFunction,Plated,PTH,ComponentDrill
T3C0.0394
; #@! TA.AperFunction,Plated,PTH,ComponentDrill
T4C0.1260
%
G90
G05
T1
X2.8354Y-1.6535
X3.7457Y-4.0882
T2
X3.1102Y-3.2677
X3.2087Y-3.2677
X3.3071Y-3.2677
T3
X1.463Y-2.0606
X1.463Y-2.1697
X1.463Y-2.2787
X1.463Y-2.3878
X1.463Y-2.4969
X1.463Y-2.6059
X1.463Y-2.715
X1.5748Y-2.0061
X1.5748Y-2.1152
X1.5748Y-2.2242
X1.5748Y-2.3333
X1.5748Y-2.4423
X1.5748Y-2.5514
X1.5748Y-2.6604
X1.5748Y-2.7695
X1.7957Y-5.5118
X1.8502Y-5.6236
X1.9047Y-5.5118
X1.9593Y-5.6236
X2.0138Y-5.5118
X2.0683Y-5.6236
X2.1228Y-5.5118
X2.1774Y-5.6236
X2.2319Y-5.5118
X2.2864Y-5.6236
X2.3409Y-5.5118
X2.3955Y-5.6236
X2.45Y-5.5118
X2.5045Y-5.6236
X2.5591Y-5.5118
X2.7809Y-1.3583
X2.8354Y-1.2465
X2.89Y-1.3583
X2.9445Y-1.2465
X2.999Y-1.3583
X3.0535Y-1.2465
X3.1081Y-1.3583
X3.1626Y-1.2465
X3.2171Y-1.3583
X3.2717Y-1.2465
X3.3262Y-1.3583
X3.3807Y-1.2465
X3.4352Y-1.3583
X3.4898Y-1.2465
X3.5443Y-1.3583
X3.7642Y-5.5118
X3.8187Y-5.6236
X3.8732Y-5.5118
X3.9278Y-5.6236
X3.9823Y-5.5118
X4.0368Y-5.6236
X4.0913Y-5.5118
X4.1459Y-5.6236
X4.2004Y-5.5118
X4.2549Y-5.6236
X4.3094Y-5.5118
X4.364Y-5.6236
X4.4185Y-5.5118
X4.473Y-5.6236
X4.5276Y-2.0061
X4.5276Y-2.1152
X4.5276Y-2.2242
X4.5276Y-2.3333
X4.5276Y-2.4423
X4.5276Y-2.5514
X4.5276Y-2.6604
X4.5276Y-2.7695
X4.5276Y-5.5118
X4.6394Y-2.0606
X4.6394Y-2.1697
X4.6394Y-2.2787
X4.6394Y-2.3878
X4.6394Y-2.4969
X4.6394Y-2.6059
X4.6394Y-2.715
T4
X1.463Y-1.7323
X1.463Y-3.0433
X1.5219Y-5.5236
X2.5071Y-1.2465
X2.8329Y-5.5236
X3.4904Y-5.5236
X3.8181Y-1.2465
X4.6394Y-1.7323
X4.6394Y-3.0433
X4.8014Y-5.5236
M30
