<?xml version="1.0" standalone="no"?>
 <!DOCTYPE svg PUBLIC "-//W3C//DTD SVG 1.1//EN" 
 "http://www.w3.org/Graphics/SVG/1.1/DTD/svg11.dtd"> 
<svg
  xmlns:svg="http://www.w3.org/2000/svg"
  xmlns="http://www.w3.org/2000/svg"
  xmlns:xlink="http://www.w3.org/1999/xlink"
  version="1.1"
  width="196.9262mm" height="157.7594mm" viewBox="0.0000 0.0000 196.9262 157.7594">
<title>SVG Image created as assembly-back.svg date 2026/10/06 10:48:43 </title>
  <desc>Image generated by PCBNEW </desc>
<g style="fill:#000000; fill-opacity:1.0000;stroke:#000000; stroke-opacity:1.0000;
stroke-linecap:round; stroke-linejoin:round;"
 transform="translate(0 0) scale(1 1)">
</g>
<g style="fill:none; 
stroke:#585D84; stroke-width:0.0600; stroke-opacity:1; 
stroke-linecap:round; stroke-linejoin:round;">
<text x="179.9086" y="85.3956"
transform="scale(-1 1) translate(-359.817142 0)"
textLength="1.3381" font-size="0.5333" lengthAdjust="spacingAndGlyphs"
text-anchor="middle" opacity="0" stroke-opacity="0">CM3</text>
<g class="stroked-text"><desc>CM3</desc>
<path d="M180.2038 85.3394
L180.2229 85.3585
" />
<path d="M180.2229 85.3585
L180.2800 85.3775
" />
<path d="M180.2800 85.3775
L180.3181 85.3775
" />
<path d="M180.3181 85.3775
L180.3752 85.3585
" />
<path d="M180.3752 85.3585
L180.4133 85.3204
" />
<path d="M180.4133 85.3204
L180.4324 85.2823
" />
<path d="M180.4324 85.2823
L180.4514 85.2061
" />
<path d="M180.4514 85.2061
L180.4514 85.1490
" />
<path d="M180.4514 85.1490
L180.4324 85.0728
" />
<path d="M180.4324 85.0728
L180.4133 85.0347
" />
<path d="M180.4133 85.0347
L180.3752 84.9966
" />
<path d="M180.3752 84.9966
L180.3181 84.9775
" />
<path d="M180.3181 84.9775
L180.2800 84.9775
" />
<path d="M180.2800 84.9775
L180.2229 84.9966
" />
<path d="M180.2229 84.9966
L180.2038 85.0156
" />
<path d="M180.0324 85.3775
L180.0324 84.9775
" />
<path d="M180.0324 84.9775
L179.8990 85.2632
" />
<path d="M179.8990 85.2632
L179.7657 84.9775
" />
<path d="M179.7657 84.9775
L179.7657 85.3775
" />
<path d="M179.6133 84.9775
L179.3657 84.9775
" />
<path d="M179.3657 84.9775
L179.4990 85.1299
" />
<path d="M179.4990 85.1299
L179.4419 85.1299
" />
<path d="M179.4419 85.1299
L179.4038 85.1490
" />
<path d="M179.4038 85.1490
L179.3848 85.1680
" />
<path d="M179.3848 85.1680
L179.3657 85.2061
" />
<path d="M179.3657 85.2061
L179.3657 85.3013
" />
<path d="M179.3657 85.3013
L179.3848 85.3394
" />
<path d="M179.3848 85.3394
L179.4038 85.3585
" />
<path d="M179.4038 85.3585
L179.4419 85.3775
" />
<path d="M179.4419 85.3775
L179.5562 85.3775
" />
<path d="M179.5562 85.3775
L179.5943 85.3585
" />
<path d="M179.5943 85.3585
L179.6133 85.3394
" />
</g></g>
<g style="fill:none; 
stroke:#585D84; stroke-width:0.1200; stroke-opacity:1; 
stroke-linecap:round; stroke-linejoin:round;">
<text x="1.5086" y="1.2956"
transform="scale(-1 1) translate(-3.017142 0)"
textLength="3.0171" font-size="1.3333" lengthAdjust="spacingAndGlyphs"
text-anchor="middle" opacity="0" stroke-opacity="0">JM1</text>
<g class="stroked-text"><desc>JM1</desc>
<path d="M2.4133 0.2520
L2.4133 0.9663
" />
<path d="M2.4133 0.9663
L2.4610 1.1091
" />
<path d="M2.4610 1.1091
L2.5562 1.2044
" />
<path d="M2.5562 1.2044
L2.6990 1.2520
" />
<path d="M2.6990 1.2520
L2.7943 1.2520
" />
<path d="M1.9371 1.2520
L1.9371 0.2520
" />
<path d="M1.9371 0.2520
L1.6038 0.9663
" />
<path d="M1.6038 0.9663
L1.2705 0.2520
" />
<path d="M1.2705 0.2520
L1.2705 1.2520
" />
<path d="M0.2705 1.2520
L0.8419 1.2520
" />
<path d="M0.5562 1.2520
L0.5562 0.2520
" />
<path d="M0.5562 0.2520
L0.6514 0.3948
" />
<path d="M0.6514 0.3948
L0.7467 0.4901
" />
<path d="M0.7467 0.4901
L0.8419 0.5377
" />
</g></g>
<g style="fill:none; 
stroke:#585D84; stroke-width:0.0600; stroke-opacity:1; 
stroke-linecap:round; stroke-linejoin:round;">
<text x="179.9086" y="87.9356"
transform="scale(-1 1) translate(-359.817142 0)"
textLength="1.3381" font-size="0.5333" lengthAdjust="spacingAndGlyphs"
text-anchor="middle" opacity="0" stroke-opacity="0">CM2</text>
<g class="stroked-text"><desc>CM2</desc>
<path d="M180.2038 87.8794
L180.2229 87.8985
" />
<path d="M180.2229 87.8985
L180.2800 87.9175
" />
<path d="M180.2800 87.9175
L180.3181 87.9175
" />
<path d="M180.3181 87.9175
L180.3752 87.8985
" />
<path d="M180.3752 87.8985
L180.4133 87.8604
" />
<path d="M180.4133 87.8604
L180.4324 87.8223
" />
<path d="M180.4324 87.8223
L180.4514 87.7461
" />
<path d="M180.4514 87.7461
L180.4514 87.6890
" />
<path d="M180.4514 87.6890
L180.4324 87.6128
" />
<path d="M180.4324 87.6128
L180.4133 87.5747
" />
<path d="M180.4133 87.5747
L180.3752 87.5366
" />
<path d="M180.3752 87.5366
L180.3181 87.5175
" />
<path d="M180.3181 87.5175
L180.2800 87.5175
" />
<path d="M180.2800 87.5175
L180.2229 87.5366
" />
<path d="M180.2229 87.5366
L180.2038 87.5556
" />
<path d="M180.0324 87.9175
L180.0324 87.5175
" />
<path d="M180.0324 87.5175
L179.8990 87.8032
" />
<path d="M179.8990 87.8032
L179.7657 87.5175
" />
<path d="M179.7657 87.5175
L179.7657 87.9175
" />
<path d="M179.5943 87.5556
L179.5752 87.5366
" />
<path d="M179.5752 87.5366
L179.5371 87.5175
" />
<path d="M179.5371 87.5175
L179.4419 87.5175
" />
<path d="M179.4419 87.5175
L179.4038 87.5366
" />
<path d="M179.4038 87.5366
L179.3848 87.5556
" />
<path d="M179.3848 87.5556
L179.3657 87.5937
" />
<path d="M179.3657 87.5937
L179.3657 87.6318
" />
<path d="M179.3657 87.6318
L179.3848 87.6890
" />
<path d="M179.3848 87.6890
L179.6133 87.9175
" />
<path d="M179.6133 87.9175
L179.3657 87.9175
" />
</g><text x="179.9086" y="82.8556"
transform="scale(-1 1) translate(-359.817142 0)"
textLength="1.3381" font-size="0.5333" lengthAdjust="spacingAndGlyphs"
text-anchor="middle" opacity="0" stroke-opacity="0">CM4</text>
<g class="stroked-text"><desc>CM4</desc>
<path d="M180.2038 82.7994
L180.2229 82.8185
" />
<path d="M180.2229 82.8185
L180.2800 82.8375
" />
<path d="M180.2800 82.8375
L180.3181 82.8375
" />
<path d="M180.3181 82.8375
L180.3752 82.8185
" />
<path d="M180.3752 82.8185
L180.4133 82.7804
" />
<path d="M180.4133 82.7804
L180.4324 82.7423
" />
<path d="M180.4324 82.7423
L180.4514 82.6661
" />
<path d="M180.4514 82.6661
L180.4514 82.6090
" />
<path d="M180.4514 82.6090
L180.4324 82.5328
" />
<path d="M180.4324 82.5328
L180.4133 82.4947
" />
<path d="M180.4133 82.4947
L180.3752 82.4566
" />
<path d="M180.3752 82.4566
L180.3181 82.4375
" />
<path d="M180.3181 82.4375
L180.2800 82.4375
" />
<path d="M180.2800 82.4375
L180.2229 82.4566
" />
<path d="M180.2229 82.4566
L180.2038 82.4756
" />
<path d="M180.0324 82.8375
L180.0324 82.4375
" />
<path d="M180.0324 82.4375
L179.8990 82.7232
" />
<path d="M179.8990 82.7232
L179.7657 82.4375
" />
<path d="M179.7657 82.4375
L179.7657 82.8375
" />
<path d="M179.4038 82.5709
L179.4038 82.8375
" />
<path d="M179.4990 82.4185
L179.5943 82.7042
" />
<path d="M179.5943 82.7042
L179.3467 82.7042
" />
</g><text x="179.9086" y="90.4756"
transform="scale(-1 1) translate(-359.817142 0)"
textLength="1.3381" font-size="0.5333" lengthAdjust="spacingAndGlyphs"
text-anchor="middle" opacity="0" stroke-opacity="0">CM1</text>
<g class="stroked-text"><desc>CM1</desc>
<path d="M180.2038 90.4194
L180.2229 90.4385
" />
<path d="M180.2229 90.4385
L180.2800 90.4575
" />
<path d="M180.2800 90.4575
L180.3181 90.4575
" />
<path d="M180.3181 90.4575
L180.3752 90.4385
" />
<path d="M180.3752 90.4385
L180.4133 90.4004
" />
<path d="M180.4133 90.4004
L180.4324 90.3623
" />
<path d="M180.4324 90.3623
L180.4514 90.2861
" />
<path d="M180.4514 90.2861
L180.4514 90.2290
" />
<path d="M180.4514 90.2290
L180.4324 90.1528
" />
<path d="M180.4324 90.1528
L180.4133 90.1147
" />
<path d="M180.4133 90.1147
L180.3752 90.0766
" />
<path d="M180.3752 90.0766
L180.3181 90.0575
" />
<path d="M180.3181 90.0575
L180.2800 90.0575
" />
<path d="M180.2800 90.0575
L180.2229 90.0766
" />
<path d="M180.2229 90.0766
L180.2038 90.0956
" />
<path d="M180.0324 90.4575
L180.0324 90.0575
" />
<path d="M180.0324 90.0575
L179.8990 90.3432
" />
<path d="M179.8990 90.3432
L179.7657 90.0575
" />
<path d="M179.7657 90.0575
L179.7657 90.4575
" />
<path d="M179.3657 90.4575
L179.5943 90.4575
" />
<path d="M179.4800 90.4575
L179.4800 90.0575
" />
<path d="M179.4800 90.0575
L179.5181 90.1147
" />
<path d="M179.5181 90.1147
L179.5562 90.1528
" />
<path d="M179.5562 90.1528
L179.5943 90.1718
" />
</g><text x="179.9086" y="77.4956"
transform="scale(-1 1) translate(-359.817142 0)"
textLength="1.3381" font-size="0.5333" lengthAdjust="spacingAndGlyphs"
text-anchor="middle" opacity="0" stroke-opacity="0">CM5</text>
<g class="stroked-text"><desc>CM5</desc>
<path d="M180.2038 77.4394
L180.2229 77.4585
" />
<path d="M180.2229 77.4585
L180.2800 77.4775
" />
<path d="M180.2800 77.4775
L180.3181 77.4775
" />
<path d="M180.3181 77.4775
L180.3752 77.4585
" />
<path d="M180.3752 77.4585
L180.4133 77.4204
" />
<path d="M180.4133 77.4204
L180.4324 77.3823
" />
<path d="M180.4324 77.3823
L180.4514 77.3061
" />
<path d="M180.4514 77.3061
L180.4514 77.2490
" />
<path d="M180.4514 77.2490
L180.4324 77.1728
" />
<path d="M180.4324 77.1728
L180.4133 77.1347
" />
<path d="M180.4133 77.1347
L180.3752 77.0966
" />
<path d="M180.3752 77.0966
L180.3181 77.0775
" />
<path d="M180.3181 77.0775
L180.2800 77.0775
" />
<path d="M180.2800 77.0775
L180.2229 77.0966
" />
<path d="M180.2229 77.0966
L180.2038 77.1156
" />
<path d="M180.0324 77.4775
L180.0324 77.0775
" />
<path d="M180.0324 77.0775
L179.8990 77.3632
" />
<path d="M179.8990 77.3632
L179.7657 77.0775
" />
<path d="M179.7657 77.0775
L179.7657 77.4775
" />
<path d="M179.3848 77.0775
L179.5752 77.0775
" />
<path d="M179.5752 77.0775
L179.5943 77.2680
" />
<path d="M179.5943 77.2680
L179.5752 77.2490
" />
<path d="M179.5752 77.2490
L179.5371 77.2299
" />
<path d="M179.5371 77.2299
L179.4419 77.2299
" />
<path d="M179.4419 77.2299
L179.4038 77.2490
" />
<path d="M179.4038 77.2490
L179.3848 77.2680
" />
<path d="M179.3848 77.2680
L179.3657 77.3061
" />
<path d="M179.3657 77.3061
L179.3657 77.4013
" />
<path d="M179.3657 77.4013
L179.3848 77.4394
" />
<path d="M179.3848 77.4394
L179.4038 77.4585
" />
<path d="M179.4038 77.4585
L179.4419 77.4775
" />
<path d="M179.4419 77.4775
L179.5371 77.4775
" />
<path d="M179.5371 77.4775
L179.5752 77.4585
" />
<path d="M179.5752 77.4585
L179.5943 77.4394
" />
</g><path style="fill:none; 
stroke:#585D84; stroke-width:0.1000; stroke-opacity:1; 
stroke-linecap:round; stroke-linejoin:round;fill:none"
d="M 179.1086,85.5956
180.7086,85.5956
180.7086,84.7956
179.1086,84.7956
Z" /> 
<path style="fill:none; 
stroke:#585D84; stroke-width:0.1000; stroke-opacity:1; 
stroke-linecap:round; stroke-linejoin:round;fill:none"
d="M 179.1086,88.1356
180.7086,88.1356
180.7086,87.3356
179.1086,87.3356
Z" /> 
<path style="fill:none; 
stroke:#585D84; stroke-width:0.1000; stroke-opacity:1; 
stroke-linecap:round; stroke-linejoin:round;fill:none"
d="M 179.1086,83.0556
180.7086,83.0556
180.7086,82.2556
179.1086,82.2556
Z" /> 
<path style="fill:none; 
stroke:#585D84; stroke-width:0.1000; stroke-opacity:1; 
stroke-linecap:round; stroke-linejoin:round;fill:none"
d="M 179.1086,90.6756
180.7086,90.6756
180.7086,89.8756
179.1086,89.8756
Z" /> 
<path style="fill:none; 
stroke:#585D84; stroke-width:0.1000; stroke-opacity:1; 
stroke-linecap:round; stroke-linejoin:round;fill:none"
d="M 179.1086,77.6956
180.7086,77.6956
180.7086,76.8956
179.1086,76.8956
Z" /> 
</g>
<g style="fill:none; 
stroke:#E8B2A7; stroke-width:0.1200; stroke-opacity:1; 
stroke-linecap:round; stroke-linejoin:round;">
<text x="183.4086" y="85.6956"
transform="scale(-1 1) translate(-366.817142 0)"
textLength="3.2552" font-size="1.3333" lengthAdjust="spacingAndGlyphs"
text-anchor="middle" opacity="0" stroke-opacity="0">CM3</text>
<g class="stroked-text"><desc>CM3</desc>
<path d="M184.1467 85.5567
L184.1943 85.6044
" />
<path d="M184.1943 85.6044
L184.3371 85.6520
" />
<path d="M184.3371 85.6520
L184.4324 85.6520
" />
<path d="M184.4324 85.6520
L184.5752 85.6044
" />
<path d="M184.5752 85.6044
L184.6705 85.5091
" />
<path d="M184.6705 85.5091
L184.7181 85.4139
" />
<path d="M184.7181 85.4139
L184.7657 85.2234
" />
<path d="M184.7657 85.2234
L184.7657 85.0806
" />
<path d="M184.7657 85.0806
L184.7181 84.8901
" />
<path d="M184.7181 84.8901
L184.6705 84.7948
" />
<path d="M184.6705 84.7948
L184.5752 84.6996
" />
<path d="M184.5752 84.6996
L184.4324 84.6520
" />
<path d="M184.4324 84.6520
L184.3371 84.6520
" />
<path d="M184.3371 84.6520
L184.1943 84.6996
" />
<path d="M184.1943 84.6996
L184.1467 84.7472
" />
<path d="M183.7181 85.6520
L183.7181 84.6520
" />
<path d="M183.7181 84.6520
L183.3848 85.3663
" />
<path d="M183.3848 85.3663
L183.0514 84.6520
" />
<path d="M183.0514 84.6520
L183.0514 85.6520
" />
<path d="M182.6705 84.6520
L182.0514 84.6520
" />
<path d="M182.0514 84.6520
L182.3848 85.0329
" />
<path d="M182.3848 85.0329
L182.2419 85.0329
" />
<path d="M182.2419 85.0329
L182.1467 85.0806
" />
<path d="M182.1467 85.0806
L182.0990 85.1282
" />
<path d="M182.0990 85.1282
L182.0514 85.2234
" />
<path d="M182.0514 85.2234
L182.0514 85.4615
" />
<path d="M182.0514 85.4615
L182.0990 85.5567
" />
<path d="M182.0990 85.5567
L182.1467 85.6044
" />
<path d="M182.1467 85.6044
L182.2419 85.6520
" />
<path d="M182.2419 85.6520
L182.5276 85.6520
" />
<path d="M182.5276 85.6520
L182.6229 85.6044
" />
<path d="M182.6229 85.6044
L182.6705 85.5567
" />
</g><text x="183.4086" y="88.2356"
transform="scale(-1 1) translate(-366.817142 0)"
textLength="3.2552" font-size="1.3333" lengthAdjust="spacingAndGlyphs"
text-anchor="middle" opacity="0" stroke-opacity="0">CM2</text>
<g class="stroked-text"><desc>CM2</desc>
<path d="M184.1467 88.0967
L184.1943 88.1444
" />
<path d="M184.1943 88.1444
L184.3371 88.1920
" />
<path d="M184.3371 88.1920
L184.4324 88.1920
" />
<path d="M184.4324 88.1920
L184.5752 88.1444
" />
<path d="M184.5752 88.1444
L184.6705 88.0491
" />
<path d="M184.6705 88.0491
L184.7181 87.9539
" />
<path d="M184.7181 87.9539
L184.7657 87.7634
" />
<path d="M184.7657 87.7634
L184.7657 87.6205
" />
<path d="M184.7657 87.6205
L184.7181 87.4301
" />
<path d="M184.7181 87.4301
L184.6705 87.3348
" />
<path d="M184.6705 87.3348
L184.5752 87.2396
" />
<path d="M184.5752 87.2396
L184.4324 87.1920
" />
<path d="M184.4324 87.1920
L184.3371 87.1920
" />
<path d="M184.3371 87.1920
L184.1943 87.2396
" />
<path d="M184.1943 87.2396
L184.1467 87.2872
" />
<path d="M183.7181 88.1920
L183.7181 87.1920
" />
<path d="M183.7181 87.1920
L183.3848 87.9063
" />
<path d="M183.3848 87.9063
L183.0514 87.1920
" />
<path d="M183.0514 87.1920
L183.0514 88.1920
" />
<path d="M182.6229 87.2872
L182.5752 87.2396
" />
<path d="M182.5752 87.2396
L182.4800 87.1920
" />
<path d="M182.4800 87.1920
L182.2419 87.1920
" />
<path d="M182.2419 87.1920
L182.1467 87.2396
" />
<path d="M182.1467 87.2396
L182.0990 87.2872
" />
<path d="M182.0990 87.2872
L182.0514 87.3825
" />
<path d="M182.0514 87.3825
L182.0514 87.4777
" />
<path d="M182.0514 87.4777
L182.0990 87.6205
" />
<path d="M182.0990 87.6205
L182.6705 88.1920
" />
<path d="M182.6705 88.1920
L182.0514 88.1920
" />
</g><text x="183.4086" y="83.1556"
transform="scale(-1 1) translate(-366.817142 0)"
textLength="3.2552" font-size="1.3333" lengthAdjust="spacingAndGlyphs"
text-anchor="middle" opacity="0" stroke-opacity="0">CM4</text>
<g class="stroked-text"><desc>CM4</desc>
<path d="M184.1467 83.0167
L184.1943 83.0644
" />
<path d="M184.1943 83.0644
L184.3371 83.1120
" />
<path d="M184.3371 83.1120
L184.4324 83.1120
" />
<path d="M184.4324 83.1120
L184.5752 83.0644
" />
<path d="M184.5752 83.0644
L184.6705 82.9691
" />
<path d="M184.6705 82.9691
L184.7181 82.8739
" />
<path d="M184.7181 82.8739
L184.7657 82.6834
" />
<path d="M184.7657 82.6834
L184.7657 82.5405
" />
<path d="M184.7657 82.5405
L184.7181 82.3501
" />
<path d="M184.7181 82.3501
L184.6705 82.2548
" />
<path d="M184.6705 82.2548
L184.5752 82.1596
" />
<path d="M184.5752 82.1596
L184.4324 82.1120
" />
<path d="M184.4324 82.1120
L184.3371 82.1120
" />
<path d="M184.3371 82.1120
L184.1943 82.1596
" />
<path d="M184.1943 82.1596
L184.1467 82.2072
" />
<path d="M183.7181 83.1120
L183.7181 82.1120
" />
<path d="M183.7181 82.1120
L183.3848 82.8263
" />
<path d="M183.3848 82.8263
L183.0514 82.1120
" />
<path d="M183.0514 82.1120
L183.0514 83.1120
" />
<path d="M182.1467 82.4453
L182.1467 83.1120
" />
<path d="M182.3848 82.0644
L182.6229 82.7786
" />
<path d="M182.6229 82.7786
L182.0038 82.7786
" />
</g><text x="183.4086" y="90.7756"
transform="scale(-1 1) translate(-366.817142 0)"
textLength="3.2552" font-size="1.3333" lengthAdjust="spacingAndGlyphs"
text-anchor="middle" opacity="0" stroke-opacity="0">CM1</text>
<g class="stroked-text"><desc>CM1</desc>
<path d="M184.1467 90.6367
L184.1943 90.6844
" />
<path d="M184.1943 90.6844
L184.3371 90.7320
" />
<path d="M184.3371 90.7320
L184.4324 90.7320
" />
<path d="M184.4324 90.7320
L184.5752 90.6844
" />
<path d="M184.5752 90.6844
L184.6705 90.5891
" />
<path d="M184.6705 90.5891
L184.7181 90.4939
" />
<path d="M184.7181 90.4939
L184.7657 90.3034
" />
<path d="M184.7657 90.3034
L184.7657 90.1606
" />
<path d="M184.7657 90.1606
L184.7181 89.9701
" />
<path d="M184.7181 89.9701
L184.6705 89.8748
" />
<path d="M184.6705 89.8748
L184.5752 89.7796
" />
<path d="M184.5752 89.7796
L184.4324 89.7320
" />
<path d="M184.4324 89.7320
L184.3371 89.7320
" />
<path d="M184.3371 89.7320
L184.1943 89.7796
" />
<path d="M184.1943 89.7796
L184.1467 89.8272
" />
<path d="M183.7181 90.7320
L183.7181 89.7320
" />
<path d="M183.7181 89.7320
L183.3848 90.4463
" />
<path d="M183.3848 90.4463
L183.0514 89.7320
" />
<path d="M183.0514 89.7320
L183.0514 90.7320
" />
<path d="M182.0514 90.7320
L182.6229 90.7320
" />
<path d="M182.3371 90.7320
L182.3371 89.7320
" />
<path d="M182.3371 89.7320
L182.4324 89.8748
" />
<path d="M182.4324 89.8748
L182.5276 89.9701
" />
<path d="M182.5276 89.9701
L182.6229 90.0177
" />
</g><text x="183.4086" y="77.7956"
transform="scale(-1 1) translate(-366.817142 0)"
textLength="3.2552" font-size="1.3333" lengthAdjust="spacingAndGlyphs"
text-anchor="middle" opacity="0" stroke-opacity="0">CM5</text>
<g class="stroked-text"><desc>CM5</desc>
<path d="M184.1467 77.6567
L184.1943 77.7044
" />
<path d="M184.1943 77.7044
L184.3371 77.7520
" />
<path d="M184.3371 77.7520
L184.4324 77.7520
" />
<path d="M184.4324 77.7520
L184.5752 77.7044
" />
<path d="M184.5752 77.7044
L184.6705 77.6091
" />
<path d="M184.6705 77.6091
L184.7181 77.5139
" />
<path d="M184.7181 77.5139
L184.7657 77.3234
" />
<path d="M184.7657 77.3234
L184.7657 77.1805
" />
<path d="M184.7657 77.1805
L184.7181 76.9901
" />
<path d="M184.7181 76.9901
L184.6705 76.8948
" />
<path d="M184.6705 76.8948
L184.5752 76.7996
" />
<path d="M184.5752 76.7996
L184.4324 76.7520
" />
<path d="M184.4324 76.7520
L184.3371 76.7520
" />
<path d="M184.3371 76.7520
L184.1943 76.7996
" />
<path d="M184.1943 76.7996
L184.1467 76.8472
" />
<path d="M183.7181 77.7520
L183.7181 76.7520
" />
<path d="M183.7181 76.7520
L183.3848 77.4663
" />
<path d="M183.3848 77.4663
L183.0514 76.7520
" />
<path d="M183.0514 76.7520
L183.0514 77.7520
" />
<path d="M182.0990 76.7520
L182.5752 76.7520
" />
<path d="M182.5752 76.7520
L182.6229 77.2282
" />
<path d="M182.6229 77.2282
L182.5752 77.1805
" />
<path d="M182.5752 77.1805
L182.4800 77.1329
" />
<path d="M182.4800 77.1329
L182.2419 77.1329
" />
<path d="M182.2419 77.1329
L182.1467 77.1805
" />
<path d="M182.1467 77.1805
L182.0990 77.2282
" />
<path d="M182.0990 77.2282
L182.0514 77.3234
" />
<path d="M182.0514 77.3234
L182.0514 77.5615
" />
<path d="M182.0514 77.5615
L182.0990 77.6567
" />
<path d="M182.0990 77.6567
L182.1467 77.7044
" />
<path d="M182.1467 77.7044
L182.2419 77.7520
" />
<path d="M182.2419 77.7520
L182.4800 77.7520
" />
<path d="M182.4800 77.7520
L182.5752 77.7044
" />
<path d="M182.5752 77.7044
L182.6229 77.6567
" />
</g><path d="M179.7680 84.6856
L180.0492 84.6856
" />
<path d="M179.7680 85.7056
L180.0492 85.7056
" />
<path d="M179.7680 87.2256
L180.0492 87.2256
" />
<path d="M179.7680 88.2456
L180.0492 88.2456
" />
<path d="M179.7680 82.1456
L180.0492 82.1456
" />
<path d="M179.7680 83.1656
L180.0492 83.1656
" />
<path d="M179.7680 89.7656
L180.0492 89.7656
" />
<path d="M179.7680 90.7856
L180.0492 90.7856
" />
<path d="M179.7680 76.7856
L180.0492 76.7856
" />
<path d="M179.7680 77.8056
L180.0492 77.8056
" />
</g>
<g style="fill:none; 
stroke:#D0D2CD; stroke-width:0.1000; stroke-opacity:1; 
stroke-linecap:round; stroke-linejoin:round;">
<path d="M142.6686 56.1156
L196.0086 56.1156
" />
<path d="M196.0086 157.7156
L142.6686 157.7156
" />
<path d="M196.0086 56.1156
L196.0086 157.7156
" />
<path d="M142.6686 157.7156
L142.6686 56.1156
" />
</g>
<g style="fill:#000000; fill-opacity:1.0000; stroke:none;">
<circle cx="193.4686" cy="152.6356" r="1.6000" /> 
</g>
<g style="fill:#000000; fill-opacity:1.0000; stroke:none;">
<circle cx="185.0486" cy="57.7956" r="0.5000" /> 
</g>
<g style="fill:#000000; fill-opacity:1.0000; stroke:none;">
<circle cx="145.2086" cy="71.3556" r="1.6000" /> 
</g>
<g style="fill:#000000; fill-opacity:1.0000; stroke:none;">
<circle cx="145.2086" cy="146.2856" r="1.6000" /> 
</g>
<g style="fill:#000000; fill-opacity:1.0000; stroke:none;">
<circle cx="182.5086" cy="57.7956" r="0.5000" /> 
</g>
<g style="fill:#000000; fill-opacity:1.0000; stroke:none;">
<circle cx="187.5886" cy="57.7956" r="0.5000" /> 
</g>
<g style="fill:#000000; fill-opacity:1.0000; stroke:none;">
<circle cx="176.7486" cy="59.7956" r="0.5000" /> 
</g>
<g style="fill:#000000; fill-opacity:1.0000; stroke:none;">
<circle cx="176.7486" cy="62.3356" r="0.5000" /> 
</g>
<g style="fill:#000000; fill-opacity:1.0000; stroke:none;">
<circle cx="176.7486" cy="64.8756" r="0.5000" /> 
</g>
<g style="fill:#000000; fill-opacity:1.0000; stroke:none;">
<circle cx="176.7486" cy="67.4156" r="0.5000" /> 
</g>
<g style="fill:#000000; fill-opacity:1.0000; stroke:none;">
<circle cx="176.7486" cy="69.9556" r="0.5000" /> 
</g>
<g style="fill:#000000; fill-opacity:1.0000; stroke:none;">
<circle cx="176.7486" cy="72.4956" r="0.5000" /> 
</g>
<g style="fill:#000000; fill-opacity:1.0000; stroke:none;">
<circle cx="176.7486" cy="75.0356" r="0.5000" /> 
</g>
<g style="fill:#000000; fill-opacity:1.0000; stroke:none;">
<circle cx="176.7486" cy="77.5756" r="0.5000" /> 
</g>
<g style="fill:#000000; fill-opacity:1.0000; stroke:none;">
<circle cx="176.7486" cy="80.1156" r="0.5000" /> 
</g>
<g style="fill:#000000; fill-opacity:1.0000; stroke:none;">
<circle cx="176.7486" cy="82.6556" r="0.5000" /> 
</g>
<g style="fill:#000000; fill-opacity:1.0000; stroke:none;">
<circle cx="176.7486" cy="85.1956" r="0.5000" /> 
</g>
<g style="fill:#000000; fill-opacity:1.0000; stroke:none;">
<circle cx="176.7486" cy="87.7356" r="0.5000" /> 
</g>
<g style="fill:#000000; fill-opacity:1.0000; stroke:none;">
<circle cx="176.7486" cy="90.2756" r="0.5000" /> 
</g>
<g style="fill:#000000; fill-opacity:1.0000; stroke:none;">
<circle cx="176.7486" cy="92.8156" r="0.5000" /> 
</g>
<g style="fill:#000000; fill-opacity:1.0000; stroke:none;">
<circle cx="176.7486" cy="95.3556" r="0.5000" /> 
</g>
<g style="fill:#000000; fill-opacity:1.0000; stroke:none;">
<circle cx="176.7486" cy="97.8956" r="0.5000" /> 
</g>
<g style="fill:#000000; fill-opacity:1.0000; stroke:none;">
<circle cx="176.7486" cy="100.4356" r="0.5000" /> 
</g>
<g style="fill:#000000; fill-opacity:1.0000; stroke:none;">
<circle cx="176.7486" cy="102.9756" r="0.5000" /> 
</g>
<g style="fill:#000000; fill-opacity:1.0000; stroke:none;">
<circle cx="176.7486" cy="105.5156" r="0.5000" /> 
</g>
<g style="fill:#000000; fill-opacity:1.0000; stroke:none;">
<circle cx="176.7486" cy="108.0556" r="0.5000" /> 
</g>
<g style="fill:#000000; fill-opacity:1.0000; stroke:none;">
<circle cx="176.7486" cy="110.5956" r="0.5000" /> 
</g>
<g style="fill:#000000; fill-opacity:1.0000; stroke:none;">
<circle cx="176.7486" cy="113.1356" r="0.5000" /> 
</g>
<g style="fill:#000000; fill-opacity:1.0000; stroke:none;">
<circle cx="176.7486" cy="115.6756" r="0.5000" /> 
</g>
<g style="fill:#000000; fill-opacity:1.0000; stroke:none;">
<circle cx="176.7486" cy="118.2156" r="0.5000" /> 
</g>
<g style="fill:#000000; fill-opacity:1.0000; stroke:none;">
<circle cx="193.4686" cy="70.0856" r="1.6000" /> 
</g>
<g style="fill:#000000; fill-opacity:1.0000; stroke:none;">
<circle cx="161.5086" cy="59.7956" r="0.5000" /> 
</g>
<g style="fill:#000000; fill-opacity:1.0000; stroke:none;">
<circle cx="161.5086" cy="62.3356" r="0.5000" /> 
</g>
<g style="fill:#000000; fill-opacity:1.0000; stroke:none;">
<circle cx="161.5086" cy="64.8756" r="0.5000" /> 
</g>
<g style="fill:#000000; fill-opacity:1.0000; stroke:none;">
<circle cx="161.5086" cy="67.4156" r="0.5000" /> 
</g>
<g style="fill:#000000; fill-opacity:1.0000; stroke:none;">
<circle cx="161.5086" cy="69.9556" r="0.5000" /> 
</g>
<g style="fill:#000000; fill-opacity:1.0000; stroke:none;">
<circle cx="161.5086" cy="72.4956" r="0.5000" /> 
</g>
<g style="fill:#000000; fill-opacity:1.0000; stroke:none;">
<circle cx="161.5086" cy="75.0356" r="0.5000" /> 
</g>
<g style="fill:#000000; fill-opacity:1.0000; stroke:none;">
<circle cx="161.5086" cy="77.5756" r="0.5000" /> 
</g>
<g style="fill:#000000; fill-opacity:1.0000; stroke:none;">
<circle cx="161.5086" cy="80.1156" r="0.5000" /> 
</g>
<g style="fill:#000000; fill-opacity:1.0000; stroke:none;">
<circle cx="161.5086" cy="82.6556" r="0.5000" /> 
</g>
<g style="fill:#000000; fill-opacity:1.0000; stroke:none;">
<circle cx="161.5086" cy="85.1956" r="0.5000" /> 
</g>
<g style="fill:#000000; fill-opacity:1.0000; stroke:none;">
<circle cx="161.5086" cy="87.7356" r="0.5000" /> 
</g>
<g style="fill:#000000; fill-opacity:1.0000; stroke:none;">
<circle cx="161.5086" cy="90.2756" r="0.5000" /> 
</g>
<g style="fill:#000000; fill-opacity:1.0000; stroke:none;">
<circle cx="161.5086" cy="92.8156" r="0.5000" /> 
</g>
<g style="fill:#000000; fill-opacity:1.0000; stroke:none;">
<circle cx="161.5086" cy="95.3556" r="0.5000" /> 
</g>
<g style="fill:#000000; fill-opacity:1.0000; stroke:none;">
<circle cx="161.5086" cy="97.8956" r="0.5000" /> 
</g>
<g style="fill:#000000; fill-opacity:1.0000; stroke:none;">
<circle cx="161.5086" cy="100.4356" r="0.5000" /> 
</g>
<g style="fill:#000000; fill-opacity:1.0000; stroke:none;">
<circle cx="161.5086" cy="102.9756" r="0.5000" /> 
</g>
<g style="fill:#000000; fill-opacity:1.0000; stroke:none;">
<circle cx="161.5086" cy="105.5156" r="0.5000" /> 
</g>
<g style="fill:#000000; fill-opacity:1.0000; stroke:none;">
<circle cx="161.5086" cy="108.0556" r="0.5000" /> 
</g>
<g style="fill:#000000; fill-opacity:1.0000; stroke:none;">
<circle cx="161.5086" cy="110.5956" r="0.5000" /> 
</g>
<g style="fill:#000000; fill-opacity:1.0000; stroke:none;">
<circle cx="161.5086" cy="113.1356" r="0.5000" /> 
</g>
<g style="fill:#000000; fill-opacity:1.0000; stroke:none;">
<circle cx="161.5086" cy="115.6756" r="0.5000" /> 
</g>
<g style="fill:#000000; fill-opacity:1.0000; stroke:none;">
<circle cx="161.5086" cy="118.2156" r="0.5000" /> 
</g>
<g style="fill:#000000; fill-opacity:1.0000; stroke:none;">
<circle cx="193.4686" cy="84.0556" r="0.5080" /> 
</g>
<g style="fill:#000000; fill-opacity:1.0000; stroke:none;">
<circle cx="193.4686" cy="91.6756" r="0.5080" /> 
</g>
<g style="fill:#000000; fill-opacity:1.0000; stroke:none;">
<circle cx="193.4686" cy="94.2156" r="0.5080" /> 
</g>
<g style="fill:#000000; fill-opacity:1.0000; stroke:none;">
<circle cx="145.2086" cy="150.0956" r="0.5080" /> 
</g>
<g style="fill:#000000; fill-opacity:1.0000; stroke:none;">
<circle cx="145.2086" cy="152.6356" r="0.5080" /> 
</g>
<g style="fill:#000000; fill-opacity:1.0000; stroke:none;">
<circle cx="193.4686" cy="106.9156" r="0.5080" /> 
</g>
<g style="fill:#000000; fill-opacity:1.0000; stroke:none;">
<circle cx="193.4686" cy="109.4556" r="0.5080" /> 
</g>
<g style="fill:#000000; fill-opacity:1.0000; stroke:none;">
<circle cx="193.4686" cy="111.9956" r="0.5080" /> 
</g>
<g style="fill:#000000; fill-opacity:1.0000; stroke:none;">
<circle cx="193.4686" cy="114.5356" r="0.5080" /> 
</g>
<g style="fill:#000000; fill-opacity:1.0000; stroke:none;">
<circle cx="193.4686" cy="117.0756" r="0.5080" /> 
</g>
<g style="fill:#000000; fill-opacity:1.0000; stroke:none;">
<circle cx="193.4686" cy="119.6156" r="0.5080" /> 
</g>
<g style="fill:#000000; fill-opacity:1.0000; stroke:none;">
<circle cx="193.4686" cy="122.1556" r="0.5080" /> 
</g>
<g style="fill:#000000; fill-opacity:1.0000; stroke:none;">
<circle cx="193.4686" cy="124.6956" r="0.5080" /> 
</g>
<g style="fill:#000000; fill-opacity:1.0000; stroke:none;">
<circle cx="193.4686" cy="129.7756" r="0.5080" /> 
</g>
<g style="fill:#000000; fill-opacity:1.0000; stroke:none;">
<circle cx="193.4686" cy="132.3156" r="0.5080" /> 
</g>
<g style="fill:#000000; fill-opacity:1.0000; stroke:none;">
<circle cx="193.4686" cy="134.8556" r="0.5080" /> 
</g>
<g style="fill:#000000; fill-opacity:1.0000; stroke:none;">
<circle cx="193.4686" cy="137.3956" r="0.5080" /> 
</g>
<g style="fill:#000000; fill-opacity:1.0000; stroke:none;">
<circle cx="193.4686" cy="139.9356" r="0.5080" /> 
</g>
<g style="fill:#000000; fill-opacity:1.0000; stroke:none;">
<circle cx="193.4686" cy="142.4756" r="0.5080" /> 
</g>
<g style="fill:#000000; fill-opacity:1.0000; stroke:none;">
<circle cx="193.4686" cy="145.0156" r="0.5080" /> 
</g>
<g style="fill:#000000; fill-opacity:1.0000; stroke:none;">
<circle cx="193.4686" cy="147.5556" r="0.5080" /> 
</g>
<g style="fill:#000000; fill-opacity:1.0000; stroke:none;">
<circle cx="145.2086" cy="79.9916" r="0.5080" /> 
</g>
<g style="fill:#000000; fill-opacity:1.0000; stroke:none;">
<circle cx="145.2086" cy="119.6156" r="0.5080" /> 
</g>
<g style="fill:#000000; fill-opacity:1.0000; stroke:none;">
<circle cx="145.2086" cy="117.0756" r="0.5080" /> 
</g>
<g style="fill:#000000; fill-opacity:1.0000; stroke:none;">
<circle cx="145.2086" cy="114.5356" r="0.5080" /> 
</g>
<g style="fill:#000000; fill-opacity:1.0000; stroke:none;">
<circle cx="145.2086" cy="111.9956" r="0.5080" /> 
</g>
<g style="fill:#000000; fill-opacity:1.0000; stroke:none;">
<circle cx="145.2086" cy="109.4556" r="0.5080" /> 
</g>
<g style="fill:#000000; fill-opacity:1.0000; stroke:none;">
<circle cx="145.2086" cy="106.9156" r="0.5080" /> 
</g>
<g style="fill:#000000; fill-opacity:1.0000; stroke:none;">
<circle cx="145.2086" cy="104.3756" r="0.5080" /> 
</g>
<g style="fill:#000000; fill-opacity:1.0000; stroke:none;">
<circle cx="145.2086" cy="101.8356" r="0.5080" /> 
</g>
<g style="fill:#000000; fill-opacity:1.0000; stroke:none;">
<circle cx="145.2086" cy="97.7716" r="0.5080" /> 
</g>
<g style="fill:#000000; fill-opacity:1.0000; stroke:none;">
<circle cx="145.2086" cy="95.2316" r="0.5080" /> 
</g>
<g style="fill:#000000; fill-opacity:1.0000; stroke:none;">
<circle cx="145.2086" cy="92.6916" r="0.5080" /> 
</g>
<g style="fill:#000000; fill-opacity:1.0000; stroke:none;">
<circle cx="145.2086" cy="90.1516" r="0.5080" /> 
</g>
<g style="fill:#000000; fill-opacity:1.0000; stroke:none;">
<circle cx="145.2086" cy="87.6116" r="0.5080" /> 
</g>
<g style="fill:#000000; fill-opacity:1.0000; stroke:none;">
<circle cx="145.2086" cy="85.0716" r="0.5080" /> 
</g>
<g style="fill:#000000; fill-opacity:1.0000; stroke:none;">
<circle cx="145.2086" cy="124.6956" r="0.5080" /> 
</g>
<g style="fill:#000000; fill-opacity:1.0000; stroke:none;">
<circle cx="145.2086" cy="127.2356" r="0.5080" /> 
</g>
<g style="fill:#000000; fill-opacity:1.0000; stroke:none;">
<circle cx="145.2086" cy="129.7756" r="0.5080" /> 
</g>
<g style="fill:#000000; fill-opacity:1.0000; stroke:none;">
<circle cx="145.2086" cy="132.3156" r="0.5080" /> 
</g>
<g style="fill:#000000; fill-opacity:1.0000; stroke:none;">
<circle cx="145.2086" cy="134.8556" r="0.5080" /> 
</g>
<g style="fill:#000000; fill-opacity:1.0000; stroke:none;">
<circle cx="145.2086" cy="137.3956" r="0.5080" /> 
</g>
<g style="fill:#000000; fill-opacity:1.0000; stroke:none;">
<circle cx="145.2086" cy="139.9356" r="0.5080" /> 
</g>
<g style="fill:#000000; fill-opacity:1.0000; stroke:none;">
<circle cx="145.2086" cy="142.4756" r="0.5080" /> 
</g>
<g style="fill:#000000; fill-opacity:1.0000; stroke:none;">
<circle cx="147.7486" cy="150.0956" r="0.5080" /> 
</g>
<g style="fill:#000000; fill-opacity:1.0000; stroke:none;">
<circle cx="147.7486" cy="152.6356" r="0.5080" /> 
</g>
<g style="fill:#000000; fill-opacity:1.0000; stroke:none;">
<circle cx="150.2886" cy="150.0956" r="0.5080" /> 
</g>
<g style="fill:#000000; fill-opacity:1.0000; stroke:none;">
<circle cx="150.2886" cy="152.6356" r="0.5080" /> 
</g>
<g style="fill:#000000; fill-opacity:1.0000; stroke:none;">
<circle cx="152.8286" cy="150.0956" r="0.5080" /> 
</g>
<g style="fill:#000000; fill-opacity:1.0000; stroke:none;">
<circle cx="152.8286" cy="152.6356" r="0.5080" /> 
</g>
<g style="fill:#000000; fill-opacity:1.0000; stroke:none;">
<circle cx="155.3686" cy="150.0956" r="0.5080" /> 
</g>
<g style="fill:#000000; fill-opacity:1.0000; stroke:none;">
<circle cx="155.3686" cy="152.6356" r="0.5080" /> 
</g>
<g style="fill:#000000; fill-opacity:1.0000; stroke:none;">
<circle cx="157.9086" cy="150.0956" r="0.5080" /> 
</g>
<g style="fill:#000000; fill-opacity:1.0000; stroke:none;">
<circle cx="157.9086" cy="152.6356" r="0.5080" /> 
</g>
<g style="fill:#000000; fill-opacity:1.0000; stroke:none;">
<circle cx="160.4486" cy="150.0956" r="0.5080" /> 
</g>
<g style="fill:#000000; fill-opacity:1.0000; stroke:none;">
<circle cx="160.4486" cy="152.6356" r="0.5080" /> 
</g>
<g style="fill:#000000; fill-opacity:1.0000; stroke:none;">
<circle cx="162.9886" cy="150.0956" r="0.5080" /> 
</g>
<g style="fill:#000000; fill-opacity:1.0000; stroke:none;">
<circle cx="162.9886" cy="152.6356" r="0.5080" /> 
</g>
<g style="fill:#000000; fill-opacity:1.0000; stroke:none;">
<circle cx="165.5286" cy="150.0956" r="0.5080" /> 
</g>
<g style="fill:#000000; fill-opacity:1.0000; stroke:none;">
<circle cx="165.5286" cy="152.6356" r="0.5080" /> 
</g>
<g style="fill:#000000; fill-opacity:1.0000; stroke:none;">
<circle cx="168.0686" cy="150.0956" r="0.5080" /> 
</g>
<g style="fill:#000000; fill-opacity:1.0000; stroke:none;">
<circle cx="168.0686" cy="152.6356" r="0.5080" /> 
</g>
<g style="fill:#000000; fill-opacity:1.0000; stroke:none;">
<circle cx="170.6086" cy="150.0956" r="0.5080" /> 
</g>
<g style="fill:#000000; fill-opacity:1.0000; stroke:none;">
<circle cx="170.6086" cy="152.6356" r="0.5080" /> 
</g>
<g style="fill:#000000; fill-opacity:1.0000; stroke:none;">
<circle cx="173.1486" cy="150.0956" r="0.5080" /> 
</g>
<g style="fill:#000000; fill-opacity:1.0000; stroke:none;">
<circle cx="173.1486" cy="152.6356" r="0.5080" /> 
</g>
<g style="fill:#000000; fill-opacity:1.0000; stroke:none;">
<circle cx="175.6886" cy="150.0956" r="0.5080" /> 
</g>
<g style="fill:#000000; fill-opacity:1.0000; stroke:none;">
<circle cx="175.6886" cy="152.6356" r="0.5080" /> 
</g>
<g style="fill:#000000; fill-opacity:1.0000; stroke:none;">
<circle cx="178.2286" cy="150.0956" r="0.5080" /> 
</g>
<g style="fill:#000000; fill-opacity:1.0000; stroke:none;">
<circle cx="178.2286" cy="152.6356" r="0.5080" /> 
</g>
<g style="fill:#000000; fill-opacity:1.0000; stroke:none;">
<circle cx="180.7686" cy="150.0956" r="0.5080" /> 
</g>
<g style="fill:#000000; fill-opacity:1.0000; stroke:none;">
<circle cx="180.7686" cy="152.6356" r="0.5080" /> 
</g>
<g style="fill:#000000; fill-opacity:1.0000; stroke:none;">
<circle cx="183.3086" cy="150.0956" r="0.5080" /> 
</g>
<g style="fill:#000000; fill-opacity:1.0000; stroke:none;">
<circle cx="183.3086" cy="152.6356" r="0.5080" /> 
</g>
<g style="fill:#000000; fill-opacity:1.0000; stroke:none;">
<circle cx="185.8486" cy="150.0956" r="0.5080" /> 
</g>
<g style="fill:#000000; fill-opacity:1.0000; stroke:none;">
<circle cx="185.8486" cy="152.6356" r="0.5080" /> 
</g>
<g style="fill:#000000; fill-opacity:1.0000; stroke:none;">
<circle cx="145.2086" cy="82.5316" r="0.5080" /> 
</g>
<g style="fill:#000000; fill-opacity:1.0000; stroke:none;">
<circle cx="193.4686" cy="96.7556" r="0.5080" /> 
</g>
<g style="fill:#000000; fill-opacity:1.0000; stroke:none;">
<circle cx="193.4686" cy="99.2956" r="0.5080" /> 
</g>
<g style="fill:#000000; fill-opacity:1.0000; stroke:none;">
<circle cx="188.3886" cy="150.0956" r="0.5080" /> 
</g>
<g style="fill:#000000; fill-opacity:1.0000; stroke:none;">
<circle cx="188.3886" cy="152.6356" r="0.5080" /> 
</g>
<g style="fill:#000000; fill-opacity:1.0000; stroke:none;">
<circle cx="193.4686" cy="86.5956" r="0.5080" /> 
</g>
<g style="fill:#000000; fill-opacity:1.0000; stroke:none;">
<circle cx="193.4686" cy="89.1356" r="0.5080" /> 
</g>
<g style="fill:#000000; fill-opacity:1.0000; stroke:none;">
<circle cx="145.2086" cy="74.9116" r="0.5080" /> 
</g>
<g style="fill:#000000; fill-opacity:1.0000; stroke:none;">
<circle cx="145.2086" cy="77.4516" r="0.5080" /> 
</g>
<g style="fill:#000000; fill-opacity:1.0000; stroke:none;">
<circle cx="193.4686" cy="101.8356" r="0.5080" /> 
</g> 
</svg>
