%TF.GenerationSoftware,KiCad,Pcbnew,8.0.8*%
%TF.CreationDate,2025-02-06T12:11:44+01:00*%
%TF.ProjectId,female base,66656d61-6c65-4206-9261-73652e6b6963,rev?*%
%TF.SameCoordinates,Original*%
%TF.FileFunction,Legend,Bot*%
%TF.FilePolarity,Positive*%
%FSLAX46Y46*%
G04 Gerber Fmt 4.6, Leading zero omitted, Abs format (unit mm)*
G04 Created by KiCad (PCBNEW 8.0.8) date 2025-02-06 12:11:44*
%MOMM*%
%LPD*%
G01*
G04 APERTURE LIST*
%ADD10C,0.100000*%
G04 APERTURE END LIST*
D10*
X60865009Y-29824687D02*
X60903104Y-29900877D01*
X60903104Y-29900877D02*
X60903104Y-30015163D01*
X60903104Y-30015163D02*
X60865009Y-30129449D01*
X60865009Y-30129449D02*
X60788819Y-30205639D01*
X60788819Y-30205639D02*
X60712628Y-30243734D01*
X60712628Y-30243734D02*
X60560247Y-30281830D01*
X60560247Y-30281830D02*
X60445961Y-30281830D01*
X60445961Y-30281830D02*
X60293580Y-30243734D01*
X60293580Y-30243734D02*
X60217390Y-30205639D01*
X60217390Y-30205639D02*
X60141200Y-30129449D01*
X60141200Y-30129449D02*
X60103104Y-30015163D01*
X60103104Y-30015163D02*
X60103104Y-29938972D01*
X60103104Y-29938972D02*
X60141200Y-29824687D01*
X60141200Y-29824687D02*
X60179295Y-29786591D01*
X60179295Y-29786591D02*
X60445961Y-29786591D01*
X60445961Y-29786591D02*
X60445961Y-29938972D01*
X60103104Y-29443734D02*
X60903104Y-29443734D01*
X60903104Y-29443734D02*
X60103104Y-28986591D01*
X60103104Y-28986591D02*
X60903104Y-28986591D01*
X60103104Y-28605639D02*
X60903104Y-28605639D01*
X60903104Y-28605639D02*
X60903104Y-28415163D01*
X60903104Y-28415163D02*
X60865009Y-28300877D01*
X60865009Y-28300877D02*
X60788819Y-28224687D01*
X60788819Y-28224687D02*
X60712628Y-28186592D01*
X60712628Y-28186592D02*
X60560247Y-28148496D01*
X60560247Y-28148496D02*
X60445961Y-28148496D01*
X60445961Y-28148496D02*
X60293580Y-28186592D01*
X60293580Y-28186592D02*
X60217390Y-28224687D01*
X60217390Y-28224687D02*
X60141200Y-28300877D01*
X60141200Y-28300877D02*
X60103104Y-28415163D01*
X60103104Y-28415163D02*
X60103104Y-28605639D01*
X52326438Y-30243734D02*
X51526438Y-30243734D01*
X52288342Y-30243734D02*
X52326438Y-30167544D01*
X52326438Y-30167544D02*
X52326438Y-30015163D01*
X52326438Y-30015163D02*
X52288342Y-29938972D01*
X52288342Y-29938972D02*
X52250247Y-29900877D01*
X52250247Y-29900877D02*
X52174057Y-29862782D01*
X52174057Y-29862782D02*
X51945485Y-29862782D01*
X51945485Y-29862782D02*
X51869295Y-29900877D01*
X51869295Y-29900877D02*
X51831200Y-29938972D01*
X51831200Y-29938972D02*
X51793104Y-30015163D01*
X51793104Y-30015163D02*
X51793104Y-30167544D01*
X51793104Y-30167544D02*
X51831200Y-30243734D01*
X51793104Y-29519924D02*
X52593104Y-29519924D01*
X51793104Y-29177067D02*
X52212152Y-29177067D01*
X52212152Y-29177067D02*
X52288342Y-29215162D01*
X52288342Y-29215162D02*
X52326438Y-29291353D01*
X52326438Y-29291353D02*
X52326438Y-29405639D01*
X52326438Y-29405639D02*
X52288342Y-29481829D01*
X52288342Y-29481829D02*
X52250247Y-29519924D01*
X51793104Y-28681829D02*
X51831200Y-28758019D01*
X51831200Y-28758019D02*
X51869295Y-28796114D01*
X51869295Y-28796114D02*
X51945485Y-28834210D01*
X51945485Y-28834210D02*
X52174057Y-28834210D01*
X52174057Y-28834210D02*
X52250247Y-28796114D01*
X52250247Y-28796114D02*
X52288342Y-28758019D01*
X52288342Y-28758019D02*
X52326438Y-28681829D01*
X52326438Y-28681829D02*
X52326438Y-28567543D01*
X52326438Y-28567543D02*
X52288342Y-28491352D01*
X52288342Y-28491352D02*
X52250247Y-28453257D01*
X52250247Y-28453257D02*
X52174057Y-28415162D01*
X52174057Y-28415162D02*
X51945485Y-28415162D01*
X51945485Y-28415162D02*
X51869295Y-28453257D01*
X51869295Y-28453257D02*
X51831200Y-28491352D01*
X51831200Y-28491352D02*
X51793104Y-28567543D01*
X51793104Y-28567543D02*
X51793104Y-28681829D01*
X52326438Y-28186590D02*
X52326438Y-27881828D01*
X52593104Y-28072304D02*
X51907390Y-28072304D01*
X51907390Y-28072304D02*
X51831200Y-28034209D01*
X51831200Y-28034209D02*
X51793104Y-27958019D01*
X51793104Y-27958019D02*
X51793104Y-27881828D01*
X51793104Y-27500876D02*
X51831200Y-27577066D01*
X51831200Y-27577066D02*
X51869295Y-27615161D01*
X51869295Y-27615161D02*
X51945485Y-27653257D01*
X51945485Y-27653257D02*
X52174057Y-27653257D01*
X52174057Y-27653257D02*
X52250247Y-27615161D01*
X52250247Y-27615161D02*
X52288342Y-27577066D01*
X52288342Y-27577066D02*
X52326438Y-27500876D01*
X52326438Y-27500876D02*
X52326438Y-27386590D01*
X52326438Y-27386590D02*
X52288342Y-27310399D01*
X52288342Y-27310399D02*
X52250247Y-27272304D01*
X52250247Y-27272304D02*
X52174057Y-27234209D01*
X52174057Y-27234209D02*
X51945485Y-27234209D01*
X51945485Y-27234209D02*
X51869295Y-27272304D01*
X51869295Y-27272304D02*
X51831200Y-27310399D01*
X51831200Y-27310399D02*
X51793104Y-27386590D01*
X51793104Y-27386590D02*
X51793104Y-27500876D01*
X51831200Y-26929447D02*
X51793104Y-26853256D01*
X51793104Y-26853256D02*
X51793104Y-26700875D01*
X51793104Y-26700875D02*
X51831200Y-26624685D01*
X51831200Y-26624685D02*
X51907390Y-26586589D01*
X51907390Y-26586589D02*
X51945485Y-26586589D01*
X51945485Y-26586589D02*
X52021676Y-26624685D01*
X52021676Y-26624685D02*
X52059771Y-26700875D01*
X52059771Y-26700875D02*
X52059771Y-26815161D01*
X52059771Y-26815161D02*
X52097866Y-26891351D01*
X52097866Y-26891351D02*
X52174057Y-26929447D01*
X52174057Y-26929447D02*
X52212152Y-26929447D01*
X52212152Y-26929447D02*
X52288342Y-26891351D01*
X52288342Y-26891351D02*
X52326438Y-26815161D01*
X52326438Y-26815161D02*
X52326438Y-26700875D01*
X52326438Y-26700875D02*
X52288342Y-26624685D01*
X51831200Y-25938970D02*
X51793104Y-26015161D01*
X51793104Y-26015161D02*
X51793104Y-26167542D01*
X51793104Y-26167542D02*
X51831200Y-26243732D01*
X51831200Y-26243732D02*
X51907390Y-26281828D01*
X51907390Y-26281828D02*
X52212152Y-26281828D01*
X52212152Y-26281828D02*
X52288342Y-26243732D01*
X52288342Y-26243732D02*
X52326438Y-26167542D01*
X52326438Y-26167542D02*
X52326438Y-26015161D01*
X52326438Y-26015161D02*
X52288342Y-25938970D01*
X52288342Y-25938970D02*
X52212152Y-25900875D01*
X52212152Y-25900875D02*
X52135961Y-25900875D01*
X52135961Y-25900875D02*
X52059771Y-26281828D01*
X52326438Y-25558018D02*
X51793104Y-25558018D01*
X52250247Y-25558018D02*
X52288342Y-25519923D01*
X52288342Y-25519923D02*
X52326438Y-25443733D01*
X52326438Y-25443733D02*
X52326438Y-25329447D01*
X52326438Y-25329447D02*
X52288342Y-25253256D01*
X52288342Y-25253256D02*
X52212152Y-25215161D01*
X52212152Y-25215161D02*
X51793104Y-25215161D01*
X51831200Y-24872304D02*
X51793104Y-24796113D01*
X51793104Y-24796113D02*
X51793104Y-24643732D01*
X51793104Y-24643732D02*
X51831200Y-24567542D01*
X51831200Y-24567542D02*
X51907390Y-24529446D01*
X51907390Y-24529446D02*
X51945485Y-24529446D01*
X51945485Y-24529446D02*
X52021676Y-24567542D01*
X52021676Y-24567542D02*
X52059771Y-24643732D01*
X52059771Y-24643732D02*
X52059771Y-24758018D01*
X52059771Y-24758018D02*
X52097866Y-24834208D01*
X52097866Y-24834208D02*
X52174057Y-24872304D01*
X52174057Y-24872304D02*
X52212152Y-24872304D01*
X52212152Y-24872304D02*
X52288342Y-24834208D01*
X52288342Y-24834208D02*
X52326438Y-24758018D01*
X52326438Y-24758018D02*
X52326438Y-24643732D01*
X52326438Y-24643732D02*
X52288342Y-24567542D01*
X51793104Y-24072304D02*
X51831200Y-24148494D01*
X51831200Y-24148494D02*
X51869295Y-24186589D01*
X51869295Y-24186589D02*
X51945485Y-24224685D01*
X51945485Y-24224685D02*
X52174057Y-24224685D01*
X52174057Y-24224685D02*
X52250247Y-24186589D01*
X52250247Y-24186589D02*
X52288342Y-24148494D01*
X52288342Y-24148494D02*
X52326438Y-24072304D01*
X52326438Y-24072304D02*
X52326438Y-23958018D01*
X52326438Y-23958018D02*
X52288342Y-23881827D01*
X52288342Y-23881827D02*
X52250247Y-23843732D01*
X52250247Y-23843732D02*
X52174057Y-23805637D01*
X52174057Y-23805637D02*
X51945485Y-23805637D01*
X51945485Y-23805637D02*
X51869295Y-23843732D01*
X51869295Y-23843732D02*
X51831200Y-23881827D01*
X51831200Y-23881827D02*
X51793104Y-23958018D01*
X51793104Y-23958018D02*
X51793104Y-24072304D01*
X51793104Y-23462779D02*
X52326438Y-23462779D01*
X52174057Y-23462779D02*
X52250247Y-23424684D01*
X52250247Y-23424684D02*
X52288342Y-23386589D01*
X52288342Y-23386589D02*
X52326438Y-23310398D01*
X52326438Y-23310398D02*
X52326438Y-23234208D01*
X54563104Y-30243734D02*
X55096438Y-30243734D01*
X55020247Y-30243734D02*
X55058342Y-30205639D01*
X55058342Y-30205639D02*
X55096438Y-30129449D01*
X55096438Y-30129449D02*
X55096438Y-30015163D01*
X55096438Y-30015163D02*
X55058342Y-29938972D01*
X55058342Y-29938972D02*
X54982152Y-29900877D01*
X54982152Y-29900877D02*
X54563104Y-29900877D01*
X54982152Y-29900877D02*
X55058342Y-29862782D01*
X55058342Y-29862782D02*
X55096438Y-29786591D01*
X55096438Y-29786591D02*
X55096438Y-29672306D01*
X55096438Y-29672306D02*
X55058342Y-29596115D01*
X55058342Y-29596115D02*
X54982152Y-29558020D01*
X54982152Y-29558020D02*
X54563104Y-29558020D01*
X54563104Y-29177067D02*
X55096438Y-29177067D01*
X55363104Y-29177067D02*
X55325009Y-29215163D01*
X55325009Y-29215163D02*
X55286914Y-29177067D01*
X55286914Y-29177067D02*
X55325009Y-29138972D01*
X55325009Y-29138972D02*
X55363104Y-29177067D01*
X55363104Y-29177067D02*
X55286914Y-29177067D01*
X54601200Y-28453258D02*
X54563104Y-28529449D01*
X54563104Y-28529449D02*
X54563104Y-28681830D01*
X54563104Y-28681830D02*
X54601200Y-28758020D01*
X54601200Y-28758020D02*
X54639295Y-28796115D01*
X54639295Y-28796115D02*
X54715485Y-28834211D01*
X54715485Y-28834211D02*
X54944057Y-28834211D01*
X54944057Y-28834211D02*
X55020247Y-28796115D01*
X55020247Y-28796115D02*
X55058342Y-28758020D01*
X55058342Y-28758020D02*
X55096438Y-28681830D01*
X55096438Y-28681830D02*
X55096438Y-28529449D01*
X55096438Y-28529449D02*
X55058342Y-28453258D01*
X54563104Y-28110401D02*
X55096438Y-28110401D01*
X54944057Y-28110401D02*
X55020247Y-28072306D01*
X55020247Y-28072306D02*
X55058342Y-28034211D01*
X55058342Y-28034211D02*
X55096438Y-27958020D01*
X55096438Y-27958020D02*
X55096438Y-27881830D01*
X54563104Y-27500878D02*
X54601200Y-27577068D01*
X54601200Y-27577068D02*
X54639295Y-27615163D01*
X54639295Y-27615163D02*
X54715485Y-27653259D01*
X54715485Y-27653259D02*
X54944057Y-27653259D01*
X54944057Y-27653259D02*
X55020247Y-27615163D01*
X55020247Y-27615163D02*
X55058342Y-27577068D01*
X55058342Y-27577068D02*
X55096438Y-27500878D01*
X55096438Y-27500878D02*
X55096438Y-27386592D01*
X55096438Y-27386592D02*
X55058342Y-27310401D01*
X55058342Y-27310401D02*
X55020247Y-27272306D01*
X55020247Y-27272306D02*
X54944057Y-27234211D01*
X54944057Y-27234211D02*
X54715485Y-27234211D01*
X54715485Y-27234211D02*
X54639295Y-27272306D01*
X54639295Y-27272306D02*
X54601200Y-27310401D01*
X54601200Y-27310401D02*
X54563104Y-27386592D01*
X54563104Y-27386592D02*
X54563104Y-27500878D01*
X55096438Y-26891353D02*
X54296438Y-26891353D01*
X55058342Y-26891353D02*
X55096438Y-26815163D01*
X55096438Y-26815163D02*
X55096438Y-26662782D01*
X55096438Y-26662782D02*
X55058342Y-26586591D01*
X55058342Y-26586591D02*
X55020247Y-26548496D01*
X55020247Y-26548496D02*
X54944057Y-26510401D01*
X54944057Y-26510401D02*
X54715485Y-26510401D01*
X54715485Y-26510401D02*
X54639295Y-26548496D01*
X54639295Y-26548496D02*
X54601200Y-26586591D01*
X54601200Y-26586591D02*
X54563104Y-26662782D01*
X54563104Y-26662782D02*
X54563104Y-26815163D01*
X54563104Y-26815163D02*
X54601200Y-26891353D01*
X54563104Y-26167543D02*
X55363104Y-26167543D01*
X54563104Y-25824686D02*
X54982152Y-25824686D01*
X54982152Y-25824686D02*
X55058342Y-25862781D01*
X55058342Y-25862781D02*
X55096438Y-25938972D01*
X55096438Y-25938972D02*
X55096438Y-26053258D01*
X55096438Y-26053258D02*
X55058342Y-26129448D01*
X55058342Y-26129448D02*
X55020247Y-26167543D01*
X54563104Y-25329448D02*
X54601200Y-25405638D01*
X54601200Y-25405638D02*
X54639295Y-25443733D01*
X54639295Y-25443733D02*
X54715485Y-25481829D01*
X54715485Y-25481829D02*
X54944057Y-25481829D01*
X54944057Y-25481829D02*
X55020247Y-25443733D01*
X55020247Y-25443733D02*
X55058342Y-25405638D01*
X55058342Y-25405638D02*
X55096438Y-25329448D01*
X55096438Y-25329448D02*
X55096438Y-25215162D01*
X55096438Y-25215162D02*
X55058342Y-25138971D01*
X55058342Y-25138971D02*
X55020247Y-25100876D01*
X55020247Y-25100876D02*
X54944057Y-25062781D01*
X54944057Y-25062781D02*
X54715485Y-25062781D01*
X54715485Y-25062781D02*
X54639295Y-25100876D01*
X54639295Y-25100876D02*
X54601200Y-25138971D01*
X54601200Y-25138971D02*
X54563104Y-25215162D01*
X54563104Y-25215162D02*
X54563104Y-25329448D01*
X55096438Y-24719923D02*
X54563104Y-24719923D01*
X55020247Y-24719923D02*
X55058342Y-24681828D01*
X55058342Y-24681828D02*
X55096438Y-24605638D01*
X55096438Y-24605638D02*
X55096438Y-24491352D01*
X55096438Y-24491352D02*
X55058342Y-24415161D01*
X55058342Y-24415161D02*
X54982152Y-24377066D01*
X54982152Y-24377066D02*
X54563104Y-24377066D01*
X54601200Y-23691351D02*
X54563104Y-23767542D01*
X54563104Y-23767542D02*
X54563104Y-23919923D01*
X54563104Y-23919923D02*
X54601200Y-23996113D01*
X54601200Y-23996113D02*
X54677390Y-24034209D01*
X54677390Y-24034209D02*
X54982152Y-24034209D01*
X54982152Y-24034209D02*
X55058342Y-23996113D01*
X55058342Y-23996113D02*
X55096438Y-23919923D01*
X55096438Y-23919923D02*
X55096438Y-23767542D01*
X55096438Y-23767542D02*
X55058342Y-23691351D01*
X55058342Y-23691351D02*
X54982152Y-23653256D01*
X54982152Y-23653256D02*
X54905961Y-23653256D01*
X54905961Y-23653256D02*
X54829771Y-24034209D01*
X40675312Y-36103104D02*
X40218169Y-36103104D01*
X40446741Y-36103104D02*
X40446741Y-36903104D01*
X40446741Y-36903104D02*
X40370550Y-36788819D01*
X40370550Y-36788819D02*
X40294360Y-36712628D01*
X40294360Y-36712628D02*
X40218169Y-36674533D01*
X55948104Y-29900877D02*
X56748104Y-29900877D01*
X55986200Y-29900877D02*
X55948104Y-29977068D01*
X55948104Y-29977068D02*
X55948104Y-30129449D01*
X55948104Y-30129449D02*
X55986200Y-30205639D01*
X55986200Y-30205639D02*
X56024295Y-30243734D01*
X56024295Y-30243734D02*
X56100485Y-30281830D01*
X56100485Y-30281830D02*
X56329057Y-30281830D01*
X56329057Y-30281830D02*
X56405247Y-30243734D01*
X56405247Y-30243734D02*
X56443342Y-30205639D01*
X56443342Y-30205639D02*
X56481438Y-30129449D01*
X56481438Y-30129449D02*
X56481438Y-29977068D01*
X56481438Y-29977068D02*
X56443342Y-29900877D01*
X55948104Y-29596115D02*
X56481438Y-29177067D01*
X56481438Y-29596115D02*
X55948104Y-29177067D01*
X55948104Y-28758020D02*
X55986200Y-28834210D01*
X55986200Y-28834210D02*
X56062390Y-28872305D01*
X56062390Y-28872305D02*
X56748104Y-28872305D01*
X55948104Y-27500876D02*
X56748104Y-27500876D01*
X55986200Y-27500876D02*
X55948104Y-27577067D01*
X55948104Y-27577067D02*
X55948104Y-27729448D01*
X55948104Y-27729448D02*
X55986200Y-27805638D01*
X55986200Y-27805638D02*
X56024295Y-27843733D01*
X56024295Y-27843733D02*
X56100485Y-27881829D01*
X56100485Y-27881829D02*
X56329057Y-27881829D01*
X56329057Y-27881829D02*
X56405247Y-27843733D01*
X56405247Y-27843733D02*
X56443342Y-27805638D01*
X56443342Y-27805638D02*
X56481438Y-27729448D01*
X56481438Y-27729448D02*
X56481438Y-27577067D01*
X56481438Y-27577067D02*
X56443342Y-27500876D01*
X55948104Y-26777066D02*
X56367152Y-26777066D01*
X56367152Y-26777066D02*
X56443342Y-26815161D01*
X56443342Y-26815161D02*
X56481438Y-26891352D01*
X56481438Y-26891352D02*
X56481438Y-27043733D01*
X56481438Y-27043733D02*
X56443342Y-27119923D01*
X55986200Y-26777066D02*
X55948104Y-26853257D01*
X55948104Y-26853257D02*
X55948104Y-27043733D01*
X55948104Y-27043733D02*
X55986200Y-27119923D01*
X55986200Y-27119923D02*
X56062390Y-27158019D01*
X56062390Y-27158019D02*
X56138580Y-27158019D01*
X56138580Y-27158019D02*
X56214771Y-27119923D01*
X56214771Y-27119923D02*
X56252866Y-27043733D01*
X56252866Y-27043733D02*
X56252866Y-26853257D01*
X56252866Y-26853257D02*
X56290961Y-26777066D01*
X56481438Y-26510399D02*
X56481438Y-26205637D01*
X56748104Y-26396113D02*
X56062390Y-26396113D01*
X56062390Y-26396113D02*
X55986200Y-26358018D01*
X55986200Y-26358018D02*
X55948104Y-26281828D01*
X55948104Y-26281828D02*
X55948104Y-26205637D01*
X55948104Y-25596113D02*
X56367152Y-25596113D01*
X56367152Y-25596113D02*
X56443342Y-25634208D01*
X56443342Y-25634208D02*
X56481438Y-25710399D01*
X56481438Y-25710399D02*
X56481438Y-25862780D01*
X56481438Y-25862780D02*
X56443342Y-25938970D01*
X55986200Y-25596113D02*
X55948104Y-25672304D01*
X55948104Y-25672304D02*
X55948104Y-25862780D01*
X55948104Y-25862780D02*
X55986200Y-25938970D01*
X55986200Y-25938970D02*
X56062390Y-25977066D01*
X56062390Y-25977066D02*
X56138580Y-25977066D01*
X56138580Y-25977066D02*
X56214771Y-25938970D01*
X56214771Y-25938970D02*
X56252866Y-25862780D01*
X56252866Y-25862780D02*
X56252866Y-25672304D01*
X56252866Y-25672304D02*
X56290961Y-25596113D01*
X59518104Y-29862782D02*
X59518104Y-30243734D01*
X59518104Y-30243734D02*
X59137152Y-30281830D01*
X59137152Y-30281830D02*
X59175247Y-30243734D01*
X59175247Y-30243734D02*
X59213342Y-30167544D01*
X59213342Y-30167544D02*
X59213342Y-29977068D01*
X59213342Y-29977068D02*
X59175247Y-29900877D01*
X59175247Y-29900877D02*
X59137152Y-29862782D01*
X59137152Y-29862782D02*
X59060961Y-29824687D01*
X59060961Y-29824687D02*
X58870485Y-29824687D01*
X58870485Y-29824687D02*
X58794295Y-29862782D01*
X58794295Y-29862782D02*
X58756200Y-29900877D01*
X58756200Y-29900877D02*
X58718104Y-29977068D01*
X58718104Y-29977068D02*
X58718104Y-30167544D01*
X58718104Y-30167544D02*
X58756200Y-30243734D01*
X58756200Y-30243734D02*
X58794295Y-30281830D01*
X59251438Y-29558020D02*
X58718104Y-29367544D01*
X58718104Y-29367544D02*
X59251438Y-29177067D01*
X49061200Y-30281830D02*
X49023104Y-30205639D01*
X49023104Y-30205639D02*
X49023104Y-30053258D01*
X49023104Y-30053258D02*
X49061200Y-29977068D01*
X49061200Y-29977068D02*
X49137390Y-29938972D01*
X49137390Y-29938972D02*
X49175485Y-29938972D01*
X49175485Y-29938972D02*
X49251676Y-29977068D01*
X49251676Y-29977068D02*
X49289771Y-30053258D01*
X49289771Y-30053258D02*
X49289771Y-30167544D01*
X49289771Y-30167544D02*
X49327866Y-30243734D01*
X49327866Y-30243734D02*
X49404057Y-30281830D01*
X49404057Y-30281830D02*
X49442152Y-30281830D01*
X49442152Y-30281830D02*
X49518342Y-30243734D01*
X49518342Y-30243734D02*
X49556438Y-30167544D01*
X49556438Y-30167544D02*
X49556438Y-30053258D01*
X49556438Y-30053258D02*
X49518342Y-29977068D01*
X49556438Y-29596115D02*
X48756438Y-29596115D01*
X49518342Y-29596115D02*
X49556438Y-29519925D01*
X49556438Y-29519925D02*
X49556438Y-29367544D01*
X49556438Y-29367544D02*
X49518342Y-29291353D01*
X49518342Y-29291353D02*
X49480247Y-29253258D01*
X49480247Y-29253258D02*
X49404057Y-29215163D01*
X49404057Y-29215163D02*
X49175485Y-29215163D01*
X49175485Y-29215163D02*
X49099295Y-29253258D01*
X49099295Y-29253258D02*
X49061200Y-29291353D01*
X49061200Y-29291353D02*
X49023104Y-29367544D01*
X49023104Y-29367544D02*
X49023104Y-29519925D01*
X49023104Y-29519925D02*
X49061200Y-29596115D01*
X49061200Y-28567543D02*
X49023104Y-28643734D01*
X49023104Y-28643734D02*
X49023104Y-28796115D01*
X49023104Y-28796115D02*
X49061200Y-28872305D01*
X49061200Y-28872305D02*
X49137390Y-28910401D01*
X49137390Y-28910401D02*
X49442152Y-28910401D01*
X49442152Y-28910401D02*
X49518342Y-28872305D01*
X49518342Y-28872305D02*
X49556438Y-28796115D01*
X49556438Y-28796115D02*
X49556438Y-28643734D01*
X49556438Y-28643734D02*
X49518342Y-28567543D01*
X49518342Y-28567543D02*
X49442152Y-28529448D01*
X49442152Y-28529448D02*
X49365961Y-28529448D01*
X49365961Y-28529448D02*
X49289771Y-28910401D01*
X49023104Y-27843734D02*
X49442152Y-27843734D01*
X49442152Y-27843734D02*
X49518342Y-27881829D01*
X49518342Y-27881829D02*
X49556438Y-27958020D01*
X49556438Y-27958020D02*
X49556438Y-28110401D01*
X49556438Y-28110401D02*
X49518342Y-28186591D01*
X49061200Y-27843734D02*
X49023104Y-27919925D01*
X49023104Y-27919925D02*
X49023104Y-28110401D01*
X49023104Y-28110401D02*
X49061200Y-28186591D01*
X49061200Y-28186591D02*
X49137390Y-28224687D01*
X49137390Y-28224687D02*
X49213580Y-28224687D01*
X49213580Y-28224687D02*
X49289771Y-28186591D01*
X49289771Y-28186591D02*
X49327866Y-28110401D01*
X49327866Y-28110401D02*
X49327866Y-27919925D01*
X49327866Y-27919925D02*
X49365961Y-27843734D01*
X49023104Y-27462781D02*
X49823104Y-27462781D01*
X49327866Y-27386591D02*
X49023104Y-27158019D01*
X49556438Y-27158019D02*
X49251676Y-27462781D01*
X49061200Y-26510400D02*
X49023104Y-26586591D01*
X49023104Y-26586591D02*
X49023104Y-26738972D01*
X49023104Y-26738972D02*
X49061200Y-26815162D01*
X49061200Y-26815162D02*
X49137390Y-26853258D01*
X49137390Y-26853258D02*
X49442152Y-26853258D01*
X49442152Y-26853258D02*
X49518342Y-26815162D01*
X49518342Y-26815162D02*
X49556438Y-26738972D01*
X49556438Y-26738972D02*
X49556438Y-26586591D01*
X49556438Y-26586591D02*
X49518342Y-26510400D01*
X49518342Y-26510400D02*
X49442152Y-26472305D01*
X49442152Y-26472305D02*
X49365961Y-26472305D01*
X49365961Y-26472305D02*
X49289771Y-26853258D01*
X49023104Y-26129448D02*
X49556438Y-26129448D01*
X49404057Y-26129448D02*
X49480247Y-26091353D01*
X49480247Y-26091353D02*
X49518342Y-26053258D01*
X49518342Y-26053258D02*
X49556438Y-25977067D01*
X49556438Y-25977067D02*
X49556438Y-25900877D01*
X49327866Y-25024686D02*
X49327866Y-24415163D01*
X50446200Y-30281830D02*
X50408104Y-30205639D01*
X50408104Y-30205639D02*
X50408104Y-30053258D01*
X50408104Y-30053258D02*
X50446200Y-29977068D01*
X50446200Y-29977068D02*
X50522390Y-29938972D01*
X50522390Y-29938972D02*
X50560485Y-29938972D01*
X50560485Y-29938972D02*
X50636676Y-29977068D01*
X50636676Y-29977068D02*
X50674771Y-30053258D01*
X50674771Y-30053258D02*
X50674771Y-30167544D01*
X50674771Y-30167544D02*
X50712866Y-30243734D01*
X50712866Y-30243734D02*
X50789057Y-30281830D01*
X50789057Y-30281830D02*
X50827152Y-30281830D01*
X50827152Y-30281830D02*
X50903342Y-30243734D01*
X50903342Y-30243734D02*
X50941438Y-30167544D01*
X50941438Y-30167544D02*
X50941438Y-30053258D01*
X50941438Y-30053258D02*
X50903342Y-29977068D01*
X50941438Y-29596115D02*
X50141438Y-29596115D01*
X50903342Y-29596115D02*
X50941438Y-29519925D01*
X50941438Y-29519925D02*
X50941438Y-29367544D01*
X50941438Y-29367544D02*
X50903342Y-29291353D01*
X50903342Y-29291353D02*
X50865247Y-29253258D01*
X50865247Y-29253258D02*
X50789057Y-29215163D01*
X50789057Y-29215163D02*
X50560485Y-29215163D01*
X50560485Y-29215163D02*
X50484295Y-29253258D01*
X50484295Y-29253258D02*
X50446200Y-29291353D01*
X50446200Y-29291353D02*
X50408104Y-29367544D01*
X50408104Y-29367544D02*
X50408104Y-29519925D01*
X50408104Y-29519925D02*
X50446200Y-29596115D01*
X50446200Y-28567543D02*
X50408104Y-28643734D01*
X50408104Y-28643734D02*
X50408104Y-28796115D01*
X50408104Y-28796115D02*
X50446200Y-28872305D01*
X50446200Y-28872305D02*
X50522390Y-28910401D01*
X50522390Y-28910401D02*
X50827152Y-28910401D01*
X50827152Y-28910401D02*
X50903342Y-28872305D01*
X50903342Y-28872305D02*
X50941438Y-28796115D01*
X50941438Y-28796115D02*
X50941438Y-28643734D01*
X50941438Y-28643734D02*
X50903342Y-28567543D01*
X50903342Y-28567543D02*
X50827152Y-28529448D01*
X50827152Y-28529448D02*
X50750961Y-28529448D01*
X50750961Y-28529448D02*
X50674771Y-28910401D01*
X50408104Y-27843734D02*
X50827152Y-27843734D01*
X50827152Y-27843734D02*
X50903342Y-27881829D01*
X50903342Y-27881829D02*
X50941438Y-27958020D01*
X50941438Y-27958020D02*
X50941438Y-28110401D01*
X50941438Y-28110401D02*
X50903342Y-28186591D01*
X50446200Y-27843734D02*
X50408104Y-27919925D01*
X50408104Y-27919925D02*
X50408104Y-28110401D01*
X50408104Y-28110401D02*
X50446200Y-28186591D01*
X50446200Y-28186591D02*
X50522390Y-28224687D01*
X50522390Y-28224687D02*
X50598580Y-28224687D01*
X50598580Y-28224687D02*
X50674771Y-28186591D01*
X50674771Y-28186591D02*
X50712866Y-28110401D01*
X50712866Y-28110401D02*
X50712866Y-27919925D01*
X50712866Y-27919925D02*
X50750961Y-27843734D01*
X50408104Y-27462781D02*
X51208104Y-27462781D01*
X50712866Y-27386591D02*
X50408104Y-27158019D01*
X50941438Y-27158019D02*
X50636676Y-27462781D01*
X50446200Y-26510400D02*
X50408104Y-26586591D01*
X50408104Y-26586591D02*
X50408104Y-26738972D01*
X50408104Y-26738972D02*
X50446200Y-26815162D01*
X50446200Y-26815162D02*
X50522390Y-26853258D01*
X50522390Y-26853258D02*
X50827152Y-26853258D01*
X50827152Y-26853258D02*
X50903342Y-26815162D01*
X50903342Y-26815162D02*
X50941438Y-26738972D01*
X50941438Y-26738972D02*
X50941438Y-26586591D01*
X50941438Y-26586591D02*
X50903342Y-26510400D01*
X50903342Y-26510400D02*
X50827152Y-26472305D01*
X50827152Y-26472305D02*
X50750961Y-26472305D01*
X50750961Y-26472305D02*
X50674771Y-26853258D01*
X50408104Y-26129448D02*
X50941438Y-26129448D01*
X50789057Y-26129448D02*
X50865247Y-26091353D01*
X50865247Y-26091353D02*
X50903342Y-26053258D01*
X50903342Y-26053258D02*
X50941438Y-25977067D01*
X50941438Y-25977067D02*
X50941438Y-25900877D01*
X50712866Y-25024686D02*
X50712866Y-24415163D01*
X50408104Y-24719924D02*
X51017628Y-24719924D01*
X53711438Y-30243734D02*
X53178104Y-30243734D01*
X53635247Y-30243734D02*
X53673342Y-30205639D01*
X53673342Y-30205639D02*
X53711438Y-30129449D01*
X53711438Y-30129449D02*
X53711438Y-30015163D01*
X53711438Y-30015163D02*
X53673342Y-29938972D01*
X53673342Y-29938972D02*
X53597152Y-29900877D01*
X53597152Y-29900877D02*
X53178104Y-29900877D01*
X53216200Y-29215162D02*
X53178104Y-29291353D01*
X53178104Y-29291353D02*
X53178104Y-29443734D01*
X53178104Y-29443734D02*
X53216200Y-29519924D01*
X53216200Y-29519924D02*
X53292390Y-29558020D01*
X53292390Y-29558020D02*
X53597152Y-29558020D01*
X53597152Y-29558020D02*
X53673342Y-29519924D01*
X53673342Y-29519924D02*
X53711438Y-29443734D01*
X53711438Y-29443734D02*
X53711438Y-29291353D01*
X53711438Y-29291353D02*
X53673342Y-29215162D01*
X53673342Y-29215162D02*
X53597152Y-29177067D01*
X53597152Y-29177067D02*
X53520961Y-29177067D01*
X53520961Y-29177067D02*
X53444771Y-29558020D01*
X53178104Y-28719925D02*
X53216200Y-28796115D01*
X53216200Y-28796115D02*
X53254295Y-28834210D01*
X53254295Y-28834210D02*
X53330485Y-28872306D01*
X53330485Y-28872306D02*
X53559057Y-28872306D01*
X53559057Y-28872306D02*
X53635247Y-28834210D01*
X53635247Y-28834210D02*
X53673342Y-28796115D01*
X53673342Y-28796115D02*
X53711438Y-28719925D01*
X53711438Y-28719925D02*
X53711438Y-28605639D01*
X53711438Y-28605639D02*
X53673342Y-28529448D01*
X53673342Y-28529448D02*
X53635247Y-28491353D01*
X53635247Y-28491353D02*
X53559057Y-28453258D01*
X53559057Y-28453258D02*
X53330485Y-28453258D01*
X53330485Y-28453258D02*
X53254295Y-28491353D01*
X53254295Y-28491353D02*
X53216200Y-28529448D01*
X53216200Y-28529448D02*
X53178104Y-28605639D01*
X53178104Y-28605639D02*
X53178104Y-28719925D01*
X53711438Y-28110400D02*
X52911438Y-28110400D01*
X53673342Y-28110400D02*
X53711438Y-28034210D01*
X53711438Y-28034210D02*
X53711438Y-27881829D01*
X53711438Y-27881829D02*
X53673342Y-27805638D01*
X53673342Y-27805638D02*
X53635247Y-27767543D01*
X53635247Y-27767543D02*
X53559057Y-27729448D01*
X53559057Y-27729448D02*
X53330485Y-27729448D01*
X53330485Y-27729448D02*
X53254295Y-27767543D01*
X53254295Y-27767543D02*
X53216200Y-27805638D01*
X53216200Y-27805638D02*
X53178104Y-27881829D01*
X53178104Y-27881829D02*
X53178104Y-28034210D01*
X53178104Y-28034210D02*
X53216200Y-28110400D01*
X53178104Y-27386590D02*
X53711438Y-27386590D01*
X53978104Y-27386590D02*
X53940009Y-27424686D01*
X53940009Y-27424686D02*
X53901914Y-27386590D01*
X53901914Y-27386590D02*
X53940009Y-27348495D01*
X53940009Y-27348495D02*
X53978104Y-27386590D01*
X53978104Y-27386590D02*
X53901914Y-27386590D01*
X53178104Y-27081829D02*
X53711438Y-26662781D01*
X53711438Y-27081829D02*
X53178104Y-26662781D01*
X53216200Y-26053257D02*
X53178104Y-26129448D01*
X53178104Y-26129448D02*
X53178104Y-26281829D01*
X53178104Y-26281829D02*
X53216200Y-26358019D01*
X53216200Y-26358019D02*
X53292390Y-26396115D01*
X53292390Y-26396115D02*
X53597152Y-26396115D01*
X53597152Y-26396115D02*
X53673342Y-26358019D01*
X53673342Y-26358019D02*
X53711438Y-26281829D01*
X53711438Y-26281829D02*
X53711438Y-26129448D01*
X53711438Y-26129448D02*
X53673342Y-26053257D01*
X53673342Y-26053257D02*
X53597152Y-26015162D01*
X53597152Y-26015162D02*
X53520961Y-26015162D01*
X53520961Y-26015162D02*
X53444771Y-26396115D01*
X53178104Y-25558020D02*
X53216200Y-25634210D01*
X53216200Y-25634210D02*
X53292390Y-25672305D01*
X53292390Y-25672305D02*
X53978104Y-25672305D01*
X57333104Y-29824687D02*
X57333104Y-30281830D01*
X57333104Y-30053258D02*
X58133104Y-30053258D01*
X58133104Y-30053258D02*
X58018819Y-30129449D01*
X58018819Y-30129449D02*
X57942628Y-30205639D01*
X57942628Y-30205639D02*
X57904533Y-30281830D01*
X58056914Y-29519925D02*
X58095009Y-29481829D01*
X58095009Y-29481829D02*
X58133104Y-29405639D01*
X58133104Y-29405639D02*
X58133104Y-29215163D01*
X58133104Y-29215163D02*
X58095009Y-29138972D01*
X58095009Y-29138972D02*
X58056914Y-29100877D01*
X58056914Y-29100877D02*
X57980723Y-29062782D01*
X57980723Y-29062782D02*
X57904533Y-29062782D01*
X57904533Y-29062782D02*
X57790247Y-29100877D01*
X57790247Y-29100877D02*
X57333104Y-29558020D01*
X57333104Y-29558020D02*
X57333104Y-29062782D01*
X58133104Y-28834210D02*
X57333104Y-28567543D01*
X57333104Y-28567543D02*
X58133104Y-28300877D01*
X60370550Y-36560247D02*
X60294360Y-36598342D01*
X60294360Y-36598342D02*
X60256265Y-36636438D01*
X60256265Y-36636438D02*
X60218169Y-36712628D01*
X60218169Y-36712628D02*
X60218169Y-36750723D01*
X60218169Y-36750723D02*
X60256265Y-36826914D01*
X60256265Y-36826914D02*
X60294360Y-36865009D01*
X60294360Y-36865009D02*
X60370550Y-36903104D01*
X60370550Y-36903104D02*
X60522931Y-36903104D01*
X60522931Y-36903104D02*
X60599122Y-36865009D01*
X60599122Y-36865009D02*
X60637217Y-36826914D01*
X60637217Y-36826914D02*
X60675312Y-36750723D01*
X60675312Y-36750723D02*
X60675312Y-36712628D01*
X60675312Y-36712628D02*
X60637217Y-36636438D01*
X60637217Y-36636438D02*
X60599122Y-36598342D01*
X60599122Y-36598342D02*
X60522931Y-36560247D01*
X60522931Y-36560247D02*
X60370550Y-36560247D01*
X60370550Y-36560247D02*
X60294360Y-36522152D01*
X60294360Y-36522152D02*
X60256265Y-36484057D01*
X60256265Y-36484057D02*
X60218169Y-36407866D01*
X60218169Y-36407866D02*
X60218169Y-36255485D01*
X60218169Y-36255485D02*
X60256265Y-36179295D01*
X60256265Y-36179295D02*
X60294360Y-36141200D01*
X60294360Y-36141200D02*
X60370550Y-36103104D01*
X60370550Y-36103104D02*
X60522931Y-36103104D01*
X60522931Y-36103104D02*
X60599122Y-36141200D01*
X60599122Y-36141200D02*
X60637217Y-36179295D01*
X60637217Y-36179295D02*
X60675312Y-36255485D01*
X60675312Y-36255485D02*
X60675312Y-36407866D01*
X60675312Y-36407866D02*
X60637217Y-36484057D01*
X60637217Y-36484057D02*
X60599122Y-36522152D01*
X60599122Y-36522152D02*
X60522931Y-36560247D01*
M02*
