M48
; DRILL file {KiCad 8.0.8} date 2025-02-06T12:11:54+0100
; FORMAT={-:-/ absolute / inch / decimal}
; #@! TF.CreationDate,2025-02-06T12:11:54+01:00
; #@! TF.GenerationSoftware,Kicad,Pcbnew,8.0.8
; #@! TF.FileFunction,Plated,1,2,PTH
FMAT,2
INCH
; #@! TA.AperFunction,Plated,PTH,ViaDrill
T1C0.0236
; #@! TA.AperFunction,Plated,PTH,ComponentDrill
T2C0.0374
; #@! TA.AperFunction,Plated,PTH,ComponentDrill
T3C0.0394
; #@! TA.AperFunction,Plated,PTH,ComponentDrill
T4C0.1260
%
G90
G05
T1
X1.8898Y-2.2047
X2.3228Y-2.0079
T2
X1.378Y-2.4409
X1.4764Y-2.4409
X1.5748Y-2.4409
X2.4409Y-2.2441
X2.4409Y-2.8346
X2.4409Y-3.4252
X2.5394Y-2.2441
X2.5394Y-2.8346
X2.5394Y-3.4252
X2.6378Y-2.2441
X2.6378Y-2.8346
X2.6378Y-3.4252
T3
X1.378Y-3.2283
X1.4764Y-3.2283
X1.5988Y-1.3717
X1.6533Y-1.2598
X1.7079Y-1.3717
X1.7624Y-1.2598
X1.8169Y-1.3717
X1.8715Y-1.2598
X1.926Y-1.3717
X1.9805Y-1.2598
X2.035Y-1.3717
X2.0896Y-1.2598
X2.1441Y-1.3717
X2.1986Y-1.2598
X2.2531Y-1.3717
X2.3077Y-1.2598
X2.3622Y-1.3717
T4
X1.325Y-1.2598
X2.636Y-1.2598
M30
